<svg width="24" height="20" viewBox="0 0 24 20" xmlns="http://www.w3.org/2000/svg"><title>Shape</title><path d="M23.482 3.794H5.012L4.17 1.26a.516.516 0 0 0-.35-.336L.663.02a.52.52 0 0 0-.285.998l2.894.829 3.548 10.659-.541 1.745A2.875 2.875 0 0 0 6.308 20a2.871 2.871 0 0 0 2.817-2.356h6.023A2.871 2.871 0 0 0 17.965 20a2.876 2.876 0 0 0 0-5.75 2.871 2.871 0 0 0-2.817 2.356H9.125a2.872 2.872 0 0 0-1.819-2.165l.44-1.417h12.85c.685 0 1.228-.5 1.27-1.153l2.114-7.412a.524.524 0 0 0-.498-.665zM17.966 15.29a1.834 1.834 0 1 1 0 3.67 1.834 1.834 0 0 1-1.831-1.835c0-1.013.82-1.835 1.831-1.835zm-9.825 1.835c0 1.013-.82 1.835-1.831 1.835a1.834 1.834 0 0 1-1.832-1.835c0-1.013.821-1.835 1.832-1.835 1.01 0 1.831.822 1.831 1.835zm12.71-5.482a.555.555 0 0 0-.02.144c0 .154-.146.195-.232.195H7.745L5.512 4.834h17.28l-1.94 6.809z" fill="#FFFBF8" fill-rule="nonzero"/></svg>