<svg width="32" height="28" viewBox="0 0 32 28" xmlns="http://www.w3.org/2000/svg"><title>Group 17</title><g fill="none" fill-rule="evenodd"><path d="M26.275 26.678h4.206c.225 0 .394-.285.394-.711v-.856c0-.429-.169-.68-.394-.68h-3.178l-4.922-6.615c3.385-.263 5.25-1.842 5.25-4.734v-2.22V7.59c.29-.413.51-.808.672-1.059.259-.35.43-.757.497-1.187v.06c.45-2.055-.528-3.515-2.834-4.226-.716-.154-2.329-.432-2.5.329v.037a.628.628 0 0 0 .53.812s.67.131.885.197c2.15.642 1.563 2.553.475 3.405H6.544c-1.081-.852-1.675-2.763.475-3.405.215-.066.884-.197.884-.197a.625.625 0 0 0 .531-.812v-.037c-.168-.761-1.78-.483-2.5-.33C3.628 1.89 2.647 3.35 3.1 5.406v-.06c.067.43.238.838.497 1.187.16.248.375.627.662 1.047v5.503c0 2.892 1.875 4.47 5.25 4.734l-4.937 6.628H1.394c-.225 0-.394.25-.394.68v.855c0 .426.169.711.394.711H5.6a.938.938 0 0 0 .772-.548l5.981-8.326c.215-.254.338-.573.35-.906v-.06c0-.406-.231-.641-.7-.641h-1.372c-2.422 0-3.85-.965-3.85-3.067v-2.309c0-2.073 1.428-3.066 3.881-3.066l3.963.028v16.771h-2.013a.552.552 0 0 0-.625.555v.701a.574.574 0 0 0 .625.583h6.65a.571.571 0 0 0 .625-.583v-.71a.555.555 0 0 0-.625-.555h-2.006V7.795l3.963-.028c2.45 0 3.881.993 3.881 3.066v2.309c0 2.102-1.431 3.067-3.85 3.067h-1.372c-.469 0-.7.235-.7.642v.06c.012.332.136.65.35.905l5.981 8.326c.166.287.448.487.772.548" fill="#FFFBF8" fill-rule="nonzero"/><path d="M26.275 26.678h4.206c.225 0 .394-.285.394-.711v-.856c0-.429-.169-.68-.394-.68h-3.178l-4.922-6.615c3.385-.263 5.25-1.842 5.25-4.734v-2.22V7.59c.29-.413.51-.808.672-1.059.259-.35.43-.757.497-1.187v.06c.45-2.055-.528-3.515-2.834-4.226-.716-.154-2.329-.432-2.5.329v.037a.628.628 0 0 0 .53.812s.67.131.885.197c2.15.642 1.563 2.553.475 3.405H6.544c-1.081-.852-1.675-2.763.475-3.405.215-.066.884-.197.884-.197a.625.625 0 0 0 .531-.812v-.037c-.168-.761-1.78-.483-2.5-.33C3.628 1.89 2.647 3.35 3.1 5.406v-.06c.067.43.238.838.497 1.187.16.248.375.627.662 1.047v5.503c0 2.892 1.875 4.47 5.25 4.734l-4.937 6.628H1.394c-.225 0-.394.25-.394.68v.855c0 .426.169.711.394.711H5.6a.938.938 0 0 0 .772-.548l5.981-8.326c.215-.254.338-.573.35-.906v-.06c0-.406-.231-.641-.7-.641h-1.372c-2.422 0-3.85-.965-3.85-3.067v-2.309c0-2.073 1.428-3.066 3.881-3.066l3.963.028v16.771h-2.013a.552.552 0 0 0-.625.555v.701a.574.574 0 0 0 .625.583h6.65a.571.571 0 0 0 .625-.583v-.71a.555.555 0 0 0-.625-.555h-2.006V7.795l3.963-.028c2.45 0 3.881.993 3.881 3.066v2.309c0 2.102-1.431 3.067-3.85 3.067h-1.372c-.469 0-.7.235-.7.642v.06c.012.332.136.65.35.905l5.981 8.326c.167.28.446.475.766.536z" stroke="#FFFBF8" stroke-width=".87"/></g></svg>