<svg width="68" height="68" viewBox="0 0 68 68" xmlns="http://www.w3.org/2000/svg"><title>Group 9</title><g fill="none" fill-rule="evenodd"><path d="M52.78 47.492c0 .537-.213.895-.496.895h-5.29s-.652-.1-.97-.688l-7.519-10.454c-.33-.476-.44-.77-.44-1.136v-.074c0-.513.293-.806.88-.806h1.724c3.044 0 4.842-1.21 4.842-3.852V28.48c0-2.604-1.798-3.851-4.878-3.851l-4.982.037v21.053h2.53c.44 0 .77.257.77.696v.88c0 .441-.33.734-.77.734H29.819c-.44 0-.77-.293-.77-.733v-.88c0-.44.33-.697.77-.697h2.53V24.666l-4.982-.037c-3.08 0-4.878 1.247-4.878 3.85v2.898c0 2.642 1.798 3.852 4.841 3.852h1.725c.587 0 .88.293.88.806v.074c0 .366-.11.66-.44 1.136L21.975 47.7c-.355.688-.97.688-.97.688h-5.29c-.283 0-.495-.358-.495-.895v-1.074c0-.537.212-.85.496-.85h3.995l6.19-8.323c-4.255-.329-6.603-2.31-6.603-5.941V28.84h-.002v-4.444c-.36-.516-.634-1.004-.835-1.314-.597-.916-.623-1.49-.623-1.49l.016.074c-.569-2.579.663-4.414 3.562-5.306.9-.19 2.929-.54 3.139.412l.01.05c.114.512-.142.903-.667 1.019 0 0-.838.164-1.11.245-2.703.807-1.956 3.206-.597 4.276l5.036-.004c.047 0 .092-.004.14-.004H40.633c.048 0 .093.003.14.004l5.037.004c1.358-1.07 2.105-3.47-.598-4.276-.272-.081-1.11-.245-1.11-.245-.525-.116-.78-.507-.668-1.02l.011-.049c.21-.952 2.239-.602 3.139-.412 2.9.892 4.131 2.727 3.562 5.306l.016-.074s-.026.574-.623 1.49c-.204.313-.48.808-.845 1.33v3.864c.002.08.008.159.008.24v2.788c0 3.63-2.348 5.612-6.602 5.941l6.188 8.322h3.996c.283 0 .496.314.496.85v1.075zM34 3.4C17.127 3.4 3.4 17.127 3.4 34S17.127 64.6 34 64.6 64.6 50.873 64.6 34 50.873 3.4 34 3.4z" fill="#FFF"/><path d="M52.78 47.492c0 .537-.213.895-.496.895h-5.29s-.652-.1-.97-.688l-7.519-10.454c-.33-.476-.44-.77-.44-1.136v-.074c0-.513.293-.806.88-.806h1.724c3.044 0 4.842-1.21 4.842-3.852V28.48c0-2.604-1.798-3.851-4.878-3.851l-4.982.037v21.053h2.53c.44 0 .77.257.77.696v.88c0 .441-.33.734-.77.734H29.819c-.44 0-.77-.293-.77-.733v-.88c0-.44.33-.697.77-.697h2.53V24.666l-4.982-.037c-3.08 0-4.878 1.247-4.878 3.85v2.898c0 2.642 1.798 3.852 4.841 3.852h1.725c.587 0 .88.293.88.806v.074c0 .366-.11.66-.44 1.136L21.975 47.7c-.355.688-.97.688-.97.688h-5.29c-.283 0-.495-.358-.495-.895v-1.074c0-.537.212-.85.496-.85h3.995l6.19-8.323c-4.255-.329-6.603-2.31-6.603-5.941V28.84h-.002v-4.444c-.36-.516-.634-1.004-.835-1.314-.597-.916-.623-1.49-.623-1.49l.016.074c-.569-2.579.663-4.414 3.562-5.306.9-.19 2.929-.54 3.139.412l.01.05c.114.512-.142.903-.667 1.019 0 0-.838.164-1.11.245-2.703.807-1.956 3.206-.597 4.276l5.036-.004c.047 0 .092-.004.14-.004H40.633c.048 0 .093.003.14.004l5.037.004c1.358-1.07 2.105-3.47-.598-4.276-.272-.081-1.11-.245-1.11-.245-.525-.116-.78-.507-.668-1.02l.011-.049c.21-.952 2.239-.602 3.139-.412 2.9.892 4.131 2.727 3.562 5.306l.016-.074s-.026.574-.623 1.49c-.204.313-.48.808-.845 1.33v3.864c.002.08.008.159.008.24v2.788c0 3.63-2.348 5.612-6.602 5.941l6.188 8.322h3.996c.283 0 .496.314.496.85v1.075zM34 3.4C17.127 3.4 3.4 17.127 3.4 34S17.127 64.6 34 64.6 64.6 50.873 64.6 34 50.873 3.4 34 3.4z" stroke="#FFF" stroke-width=".6"/><path d="M34 65.774C16.48 65.774 2.227 51.52 2.227 34 2.227 16.48 16.48 2.226 34 2.226S65.774 16.48 65.774 34c0 17.52-14.254 31.774-31.774 31.774M34 1C15.775 1 1 15.775 1 34c0 18.226 14.775 33 33 33 18.226 0 33-14.774 33-33C67 15.775 52.226 1 34 1" fill="#FFF"/><path d="M34 65.774C16.48 65.774 2.227 51.52 2.227 34 2.227 16.48 16.48 2.226 34 2.226S65.774 16.48 65.774 34c0 17.52-14.254 31.774-31.774 31.774zM34 1C15.775 1 1 15.775 1 34c0 18.226 14.775 33 33 33 18.226 0 33-14.774 33-33C67 15.775 52.226 1 34 1z" stroke="#FFF" stroke-width=".6"/></g></svg>