<svg width="215" height="105" viewBox="0 0 215 105" xmlns="http://www.w3.org/2000/svg"><title>Group 31</title><g fill="none" fill-rule="evenodd" opacity=".144"><path d="M207.686 77.58c-1.536 1.824-3.302 3.951-5.255 5.279-1.686 1.144-3.52 2.05-5.182 3.283-6.23 4.623-14.864 8.476-23.962 11.04-5.693 1.604-11.924 2.517-17.857 3.2-1.17.135-2.491.469-3.491.445-.533-.01-.625-.332-1.361-.306-1.863.072-4 .85-6.007 1.277-5.59 1.188-9.849 1.455-14.827 1.963-3.024.308-6.057.924-8.881.894-5.6-.058-11.145.165-16.273-.602-5.206-.783-10.434-1.147-15.573-1.548a299.035 299.035 0 0 1-15.597-1.64c-5.018-.658-10.062-1.667-15.198-2.122-5.212-.46-10.463-.981-15.598-1.639-5.193-.67-10.444-1.126-15.596-1.642-4.05-.409-7.838-.733-11.332-1.755-1.145-.333-2.249-.876-3.436-1.153-4.053-.944-7.809-1.289-10.092-5.29-.504-.885-1.459-2.25-1.53-3.44-.033-.546.357-.882.482-1.491.136-.67-.043-1.408.093-1.902.74-2.716 4.093-5.201 6.404-6.91 2.86-2.12 5.65-4 8.115-5.89.248-.113.032-.525.145-.723 1.014-.015 1.362-.547 1.977-1.017 1.063-.808 2.042-1.496 3.014-2.227.492-.165-.257-.69.315-.859 2.143-.167 4.608-2.293 6.655-3.395-.285-.583-.348-1.246-.29-1.822.596.05.642.945.99 1.372 1.811-1.421 4.735-2.124 5.94-3.938 1.25-.27 2.238-1.124 3.423-1.718 1.246-.628 2.66-.958 3.938-1.627 1.133-.596 2.112-1.67 3.493-1.836.439-.138-.116-.614.433-.785 1.36.49 3.81-.62 5.169-.999-.047-.954.221-1.617-.464-2.184.22-.308.683.044.607-.425.53-4.026.81-7.959 1.38-11.791.575-3.85 1.805-7.381 2.75-10.99.104-.403.268-.831.117-1.313.925.051 1.471-1.305 2.367-1.992 1.205-.918 2.708-1.637 3.852-2.504.451-.22-.345-.426.09-.512.756.152 1.46-.592 2.303-.887.78-.274 1.6-.238 2.364-.604.393.012-.037-.514.166-.627 1.326 1.128 2.673-2.653 3.5-3.223 1.199-.516 2.043-1.546 3.09-2.342 2.182-1.666 5.115-3.002 8.212-4.025 1.643-.545 3.44-.606 5.225-1.21 1.107-.374 2.07-1.056 3.193-1.373 1.463-.414 3.57-.74 4.883-.936 7.63-1.162 15.674-.631 23.155.627 5.512.928 10.323 2.107 14.783 4.39 2.501 1.28 5.158 2.711 6.424 5.375.305.633.425 1.517.615 1.95.433.977 1.254 1.946 1.831 2.98.595 1.073 1.13 2.132 1.754 3.097 1.507-1.199 4.033-1.477 6.535-2.08 5.378-1.304 10.922-2.305 15.338-2.37 6.186-.092 12.237.06 17.298 1.675 5.429 1.73 10.796 6.495 15.323 9.728 4.951 3.535 8.974 8.31 12.24 14.448 2.06 3.878 3.895 9.78 4.599 15.078.18 1.354.101 2.95.126 4.334.116 7.099-3.066 12.668-6.904 17.23" fill="#0A0B09"/><path d="M87.031 5.495c1.12.603 2.12.29 3.742-.203-1.128-.252-2.443-.478-3.742.203M96.47 3.489c1.067 1.003 2.92.803 4.655.794-1.396-.506-2.794-1.005-4.654-.794M84.727 6.38c.653.398 1.693.764 2.526.158-.773-.244-1.518-.609-2.526-.158M95.31 4.13c-.107.04-.045.191-.036.307.153.104.434.003.689-.05-.149-.188-.502-.065-.653-.257M82.137 7.326c.518.294 1.245.278 1.653.74.489-.094.713-.36 1.2-.453-.768-.427-1.698-.801-2.853-.287M100.826 3.354c.723.362 1.298.949 2.211 1.019-.741-.334-1.22-1.065-2.21-1.02M80.864 7.896c-.223.544-.635.148-1.008.415.31.194.759.177 1.074.363-.019.18.233.533.026.588.556.06 1.143-.568 1.846-.688-.557-.362-1.331-.392-1.938-.678M105.394 3.276c-.122.373.52.583.984.882.718.462 1.314.99 2.55.745-1.155-.572-1.847-1.865-3.534-1.627M78.337 9.127c.295.343.92.18 1.135.65-.003.08-.076.116-.056.209-.633.422-1.365-.087-1.858-.297-.36.176-.696.368-.967.603 1.406.997 2.84-.026 4.309-.819-.884-.042-1.678-.703-2.563-.346M107.688 3.284c-.136.31.444.476.734.638.954.536 2.09 1.322 3.45 1.246-1.136-1.02-2.301-2-4.184-1.884M74.061 11.523c.634.287 1.43.327 2.034.658.457-.224.75-.554 1.235-.76-.86-.664-2.116-.584-3.269.102M111.227 3.525c-.245.047-.102.094-.054.209 1.41.895 2.678 2.017 4.553 2.203-.95-1.15-2.419-2.582-4.499-2.412M72.588 13.023c.66.438 2.744.748 2.996-.438-1.15-.437-2.286-.873-2.996.438M118.522 6.432c-1.163-.774-1.925-2.165-3.412-2.447-.167.001-.164.113-.151.23.849.632 1.728 1.213 2.434 2.062.482-.11.684.206 1.129.155M72.02 13.639c.147.195.61-.088.88-.085-.241-.193-.727-.265-.88.085M87.551 12.62c.218.42 1.295.612 2.03.659-.57-.385-1.31-.511-2.03-.658M95.848 11.352c2.928 1.131 5.662 2.56 8.869 3.27-2.838-1.27-5.692-2.517-8.869-3.27M97.988 11.096c2.42.804 4.709 1.56 7.117 2.552 1.205.49 2.107 1.235 3.798.974-3.508-1.291-6.771-2.956-10.725-3.567l-.19.04M100.813 10.793c-.139.325.64.323 1.094.46 2.18.66 4.473 1.403 6.754 2.23 1.39.509 2.168 1.264 3.964.845-2.261-1.032-4.418-2.041-6.893-2.9-.749-.255-1.64-.69-2.36-.785-.765-.097-1.69.238-2.56.15M110.696 10.873c2.533.942 5.088 1.847 7.354 3.192-.868-.783-2.17-1.397-3.404-1.952-1.217-.548-2.569-1.123-3.95-1.24M125.641 10.866c.63.588 1.58.688 2.25 1.206-.266-.642-1.499-.887-2.25-1.206M125.98 11.985c-.304.102-.132.512-.126.82.67.19 1.24.534 1.938.677-.022-.15-.122-.351.016-.4-.44-.625-1.271-.655-1.828-1.097M131.964 12c-.566 1.41.992 1.69 2.066 2.235.935.478 1.592.935 2.116 1.038-.719-2.124-2.77-2.21-4.182-3.273M125.273 13.82c.702 1.02 2.173.865 3.038 1.631.209.001.237-.114.362-.172.838.179 1.632 1.101 2.324 1.089-.158-.555-.842-.621-1.272-.82-1.297-.6-2.74-1.346-4.184-1.883-.161.006-.146.123-.268.155M124.174 14.747c.979.78 2.354 1.028 3.535 1.626.533.27 1.145.616 1.693.929.458.264 1.095 1.023 1.688.438-2.147-1.161-4.652-2.436-6.916-2.993M123.618 16.353c1.512.86 3.417 1.364 5.053 2.199.44.221 1.068.92 1.572.358-.685-.705-1.801-1.179-2.85-1.676-1.13-.536-2.34-.923-3.397-1.46-.336.055-.232.4-.378.58M132.255 14.318c-.384 1.001 1.284 1.62 2.145 2.12.885.517 1.73.926 2.345 1.185-.76-2.23-2.985-2.217-4.49-3.305M122.752 17.427c.968.647 2.234.97 3.4 1.458 1.038.437 2.172 1.511 3.299.985-1.88-1.19-4.168-1.752-6.166-2.752-.311.017-.345.214-.533.309M132.333 16.084c-.266.238-.202.69-.276 1.051 1.891.957 3.772 1.934 5.614 2.969.085-.302-.345-.895-.473-1.285-1.663-.843-3.31-1.722-4.865-2.735M76.69 28.11c.943 3.878 3.802 5.907 5.885 8.465-.99-3.808-3.61-6.205-5.884-8.465M64.867 30.623c-1.215.088-1.707 1.078-1.163 2.03.145.465.158-.252.46-.193 4.27 3.383 7.99 7.621 11.618 12.002.153.346-.126.41-.282.553.677.39 1.442.644 2.265.806-3.493-4.245-7.238-8.107-10.93-12.046a3.931 3.931 0 0 1-.75-.237c-.709-1.04-.99-1.434-1.218-2.915M69.335 30.07c.35 1.435 1.283 3.062 2.317 3.87-.28-1.537-1.29-3.052-2.317-3.87M74.85 29.295c.819 2.766 2.468 5.355 4.359 6.904-.876-2.684-2.483-5.333-4.36-6.904M136.734 16.636c-.08.422.421 1.028.608 1.457.078-.42-.385-1.082-.608-1.457M131.89 17.764c-.224.13-.159.444-.258.65 2.141 1.372 4.841 2.558 6.94 3.58-.44-1.371-2.088-1.776-3.412-2.446a52.088 52.088 0 0 1-3.27-1.784M110.344 22.344c.228.14.14.44.141.663 1.356.061 2.515.426 3.734.696.204-.203-.104-.673-.182-.857-1.31-.043-2.216-.71-3.693-.502M67.915 31.362c.686 1.976 2.633 3.117 4.18 4.663 2.949 2.948 6.052 5.936 8.815 9.127.518.6.9 1.69 1.931 1.575-4.816-5.37-10.02-10.14-14.926-15.365M130.552 19.437c2.827 1.828 5.95 3.207 8.98 4.734-.11-.38-.305-.626-.414-1.004-2.718-1.451-5.554-2.721-8.264-4.191-.215.077-.15.338-.302.461M138.311 17.489c-.029.59.545 1.342.879 1.8.034-.6-.658-1.17-.879-1.8M73.518 31.459c.511 2.028 2.13 3.443 3.397 4.733-.427-2.156-2.144-3.426-3.397-4.733M112.597 24.048c-.071.464 1.26.911 2.002.96l-.121-.57a6.173 6.173 0 0 1-1.881-.39M137.987 19.246c-.084.382.347 1.052.587 1.361.094-.397-.388-.992-.587-1.361M72.58 33.149c.936 3.214 3.381 5.118 5.411 7.175 2.061 2.087 4.174 4.082 6.053 6.442.427-.064.737.045 1.185-.053-2.705-3.398-5.697-6.361-8.59-9.474-.093.216-.03.532-.26.653-1.793-.78-2.133-3.776-3.8-4.743M115.456 24.826c.779 1.196 2.598.8 3.703 1.492.202-.116-.074-.54-.063-.779-1.134-.275-2.574-.75-3.64-.713M123.56 23.103c.306.118.527.367.957.293.067-.094.002-.273.133-.324-.292-.1-.73.027-1.09.031M139.699 20.268c.09.366.4 1.477 1.01 1.47-.312-.526-.556-1.161-1.01-1.47M113.94 26.139c.072.52.427.601.754.73.092-.27-.387-.739-.754-.73M116.16 26.262c-.243.298.235.552.201.949.437.068 1.27.649 1.53.17.426.609 1.236.621 1.96.773-.024-.464-.247-.627-.322-1.02a28.468 28.468 0 0 1-3.37-.872M139.062 21.493c-.304.221.305 1.094.568 1.266.1-.364-.355-.958-.568-1.266M113.36 27.153c-.162.01-.146.129-.266.157.126.52.262 1.025.792.921-.174-.362-.196-.95-.527-1.078M114.73 28.45c.238.096.552.077.748.237.189-.18-.105-.665-.105-.969-.712-.3-1.13-.254-.642.732M140.964 22.476c-.286.429.483 1.335.84 1.605.03-.503-.476-1.282-.84-1.605M120.282 27.37c-.211.91.612 1.318 1.275 1.313-.022-.466-.28-.579-.32-1.021-.308-.112-.69-.117-.955-.292M117.05 29.046c.452.149.974.188 1.38.402.192-.224-.247-.531-.202-.95-.63-.194-1.948-.824-1.178.548M139.907 23.595c-.093.481.415 1.123.78 1.321.046-.409-.363-1.203-.78-1.321M145.237 23.351c3.058-.836 6.179-.948 9.233-1.563 3.253-.659 6.41-1.612 9.63-2.047 3.103-.418 6.428.148 9.318.694 1.469.28 2.85.667 4.216 1.087 1.36.416 2.672 1.034 3.97 1.336.855.197 1.693.107 2.452.274 1.23.268 2.64 1.115 3.766 1.774 3.37 1.98 7.026 4.6 9.807 7.234 3.645 3.45 6.343 7.417 8.533 12.954.3.752.436 1.67.81 2.409.308.601 1.208.79 1.338 1.596.112.71-.438.667-.523 1.301.273 1.649.77 3.11.967 4.553.27 1.948-.177 3.748.253 5.395-.433.754-.342 1.515-.51 2.291-.24 1.096-.863 2.017-1.154 3.02-.319 1.112-.271 2.344-.553 3.486-.252 1.03-.808 2.313-1.242 3.534-1.818 5.138-7.739 7.938-12.78 11.141-2.085 1.33-3.818 2.694-6.116 3.58-2.534.985-5.334 1.218-8.233 2.05-.382.11-.697.405-1.083.527-2.448.772-5.041 1.228-7.548 2.002-2.244.693-4.347 1.933-6.526 2.574-6.996 2.057-14.54 2.706-21.028 3.282-.089.2 1.138 1.334 1.698 1.423.519.084 1.036-.223 1.643-.25.392-.214-.433-.546-.342-1.117 1.16-.348 1.21.999 2.342.693.786.085.476-.296.874-.582 2.04.377 4.798-.344 7.448-.594 5.436-.51 11.726-1.603 17.528-3.33 8.89-2.639 16.904-6.608 23.253-11.09 1.312-.922 2.746-1.745 4.025-2.635 2.432-1.696 4.518-4.228 6.1-6.451 2.48-3.484 4.551-7.525 4.813-12.524.088-1.624.19-3.477.002-5.152-.41-3.642-1.574-7.273-2.735-10.52-1.144-3.202-2.501-6.139-4.237-8.217-1.617-1.94-3.895-3.444-5.641-5.445-1.818-2.08-3.842-3.72-5.792-5.21-3.289-2.51-6.074-4.37-10.153-5.572-1.208-.357-2.624-.367-3.969-.843-.333-.119-.592-.43-.921-.597-5.445-.502-11.266-.934-17.66-.11-4.947.635-11.08 1.655-15.273 3.639M115.085 29.167c-.166.547.358 1.124.906.999a2.085 2.085 0 0 0-.275-.836c-.254.01-.468-.04-.631-.163M121.796 27.94c.155.226.237.558.298.928.514.264 1.108.393 1.632.643.183-.208-.12-.732-.13-1.062-.586-.189-1.087-.511-1.8-.508M118.967 29.629c.523-.002.872.259 1.361.307l-.181-.853c-.398-.272-.975-.268-1.4-.494-.425.19.185.735.22 1.04M114.162 30.454c.056.414.155.767.54.678-.073-.39-.17-.742-.54-.678M117.518 29.841c-.375.012.14.429.067.778.466.208.939.405 1.494.475-.026-.378-.269-.427-.278-.834-.38-.21-.906-.202-1.283-.419M142.04 24.724c-.063.61.512 1.312.935 1.59.002-.508-.496-1.334-.934-1.59M121.96 30.58c.183-.206-.118-.73-.126-1.061-.328-.004-.794-.455-1.036-.178.04.945.68.972 1.163 1.239M113.403 31.112c-.192.283-.1 1.446.473 1.284-.266-.265-.198-1.034-.473-1.284M115.682 31.518c.255.03.429.18.726.144.102-.841-1.219-1.21-.726-.144M140.827 25.579c.128.896.634 2.3 1.445 2.567-.177-.82-.696-2.202-1.445-2.567M124.221 31.388c.179-.241-.13-.794-.143-1.161-.446-.196-.978-.262-1.401-.493-.518 1.144.994 1.31 1.544 1.654M119.244 30.464c.23.907.918 1.11 1.659 1.233-.095-.316-.269-.513-.3-.927-.464-.086-.787-.385-1.36-.306M114.769 31.91c-.328.08.132.913.317 1.024.163-.259-.086-.951-.317-1.024M118.07 31.504c-.242.26.233.475.182.855.496.081.869.347 1.38.4-.049-1.137-1.004-.891-1.562-1.255M121.448 30.983c-.221.891.566 1.314 1.18 1.339-.071-.395-.29-.559-.318-1.024-.302-.078-.62-.14-.862-.315M124.71 30.393c-.094.023-.049.131-.055.212.964 3.677 2.045 7.17 3.005 10.86.265.098.65.67.808.52-1.053-3.791-2.224-7.405-3.127-11.43-.25.01-.464-.039-.63-.162M143.056 26.694c.205.86.663 2.416 1.634 2.526-.57-.803-.864-2.03-1.634-2.526M115.98 32.45c.196.49.348 1.056.831 1.108.19-.178-.104-.668-.103-.969-.285.017-.373-.272-.727-.14" fill="#FFFFFE"/><path d="M153.205 24.731c3.15 1.167 6.462 2.088 9.573 3.32-.686-1.605-2.326-2.139-4.178-2.78-1.761-.612-2.933-1.268-5.395-.54M113.922 33.08c-.389.142.041.966.222 1.045.416-.18-.146-.799-.222-1.044M123.158 31.516c-.186.208.119.73.123 1.063.41.42 1.223.226 1.484.876-.393.464-.744-.203-1.204-.043.143.867.687 1.124 1.123 1.545-.014.366-.27.118-.552.217.17.915.556 1.498 1.091 1.853-.023.291-.318.005-.477.101.311 1.111.724 2.073.992 3.256.615-.19.652.511 1.19.442-.932-2.808-1.606-6.008-2.486-8.89-.472-.072-.924-.182-1.284-.42M120.031 32.279c.072.894.736.883 1.235 1.126.306-.892-.842-1.307-1.235-1.126M55.212 46.157c-.297.706-.1 1.734-.141 2.604.415.226.935.886 1.345.707.268-1.553-.102-2.56-1.204-3.311M115.227 33.599c-.201.276.19.702.297.925.18-.24-.089-.863-.297-.925M120.266 34.808c.229-.362-.239-.718-.242-1.139-.402-.14-.834-.231-1.19-.442-.455.212.17.673.126 1.064.441.163.923.261 1.306.517M114.28 34.295c-.427.077.02.513.12.57.204-.088-.033-.521-.12-.57M122.022 32.75c-.194.146.09.602.085.873.3.17.585.36.98.386-.018-.939-.54-1.103-1.065-1.26M142.182 28.662c.536 1.94 1.71 4 2.547 5.902.92-.589-.161-1.787-.565-2.656-.466-1.01-.91-2.101-1.312-2.894-.214-.131-.493-.161-.67-.352M116.628 34.094c-.168.47.291 1.059.794.922-.108-.218-.229-.402-.258-.739-.245.04-.37-.106-.536-.183M114.46 35.148c-.162.42.198 1.12.398 1.403.222-.132-.117-1.238-.398-1.403M120.772 33.906c-.106.751.51 1.481 1.203 1.43-.138-.333-.277-.66-.34-1.12-.251-.158-.618-.138-.863-.31M154.15 27.305c.362 1.085 2.04 1.234 3.133 1.614-.626-1.181-2.159-.971-3.133-1.614M112.599 36.239c.084.754.458 2.143 1.417 1.978-.068-.652-.32-1.02-.437-1.595a4.057 4.057 0 0 1-.98-.383M116.91 35.42c.105.342.371.437.693.447-.056-.419-.37-.441-.693-.448M115.977 35.72c-.341.164.204.983.282 1.325.146-.313-.129-1.056-.282-1.326M144.504 29.751c.186 1.018.982 2.186 1.395 3.275-.019.363.444-.013.46.3.177.356-.223.344-.05.703 1.236 2.293 2.363 5.346 3.246 8.23.704-.392.695-1.24.646-2.12-.244-.165-.417-.128-.57.122-1.491-3.374-2.832-6.978-4.454-10.155-.221-.124-.522-.119-.673-.355M119.429 35.081c-.151.948.95 1.062 1.562 1.256-.13-1.015-1.004-.89-1.562-1.256M122.595 34.512c-.323.037.186.737.148 1.155.264.227.646.27.903.503.19-.422-.322-.843-.302-1.423-.295-.01-.518-.131-.75-.235M148.06 29.592c-.213.247.172.65.35.72.21-.257-.335-.404-.35-.72M117.396 36.309c-.264.277.216 1.488.702 1.437.157-.574-.226-1.407-.702-1.437M153.839 28.661c.334.704 1.167 1.731 2.03 2.049-.664-.701-1.181-1.631-2.03-2.049M55.18 49.73c-.594.86.48 1.332.952 1.682.536-.892-.45-1.31-.953-1.681M121.404 35.952c.584.55.329 1.918 1.327 1.999-.364-.787-.295-2.233-1.327-2M119.847 36.58c.264.644 1.03.515 1.48.875.137-.67-1.142-.925-1.48-.875M158.233 28.717c-.188.19.393.668.566.773.798.485 2.327.564 3.033 1.138-.422-1.32-2.504-1.192-3.599-1.911M116.613 37.764c-.263.19.207 1.324.436 1.59.062-.348-.272-1.173-.436-1.59M123.21 36.462c-.273.324.37 1.333.424 1.99.313.023.51.223.843.218-.104-.725-.416-1.126-.499-1.878-.223-.161-.596-.096-.767-.33M156.314 29.522c-.153.074 1.012 1.533 1.494 1.866.765.527 1.93.536 2.684.913-1.04-1.463-2.458-2.353-4.178-2.779M113.333 38.759c.162.252.231.653.393.909.368-.105.43.264.824.12-.176-.108-.187-.469-.257-.739-.33-.08-.556-.322-.96-.29M120.353 37.562c-.08 1.091.93 1.597 1.756 1.71-.111-.453-.313-.773-.45-1.194a7.59 7.59 0 0 1-1.306-.516M118.03 38.355c-.115.682.31 1.619.863 1.7.093-.652-.323-1.599-.862-1.7M55.145 51.922c-.2.141-.107.475-.029.799.376.051.572.378.979.382.197-.775-.648-.782-.95-1.18M154.057 31.095c-.217.395.721 1.135 1.257 1.219-.007-.539-.743-1.039-1.257-1.219M115.902 39.598c-.42.133.063.746.182.855.204-.203-.101-.67-.182-.855M122.542 38.486c.019.23.202 1.283.666 1.245-.075-.636-.25-1.124-.666-1.245M113.963 40.31c-.173.232.259.603.222 1.042.209.222.585.193.788.427.201-.814-.477-1.36-1.01-1.47M160.401 30.932c.783 1.654 2.775 2.54 4.546 3.1-.72-1.746-2.814-2.483-4.546-3.1M117.325 40.19c-.147.153-.001.92.353.717-.208-.102-.144-.618-.353-.717M37.372 57.383c-.487.094-.712.36-1.2.454.249.367.918.1 1.34.208l-.14-.662M187.345 39.082c-6.902-3.299-14.061-6.207-21.334-8.945-.166.003-.163.113-.15.231 5.563 1.955 10.752 4.278 16.072 6.692 1.714.779 3.49 1.715 5.412 2.022M156.955 32.062c-.034.39.639.779.927 1.092.056-.42-.63-.789-.927-1.092M123.963 39.075c-.1.748.479 1.533 1.13 1.545-.107-.93-.506-1.409-1.13-1.545M55.126 53.707c-.46.76.289 1.902.933 1.586.07-.984-.385-1.258-.933-1.586M38.823 57.172c-.07.155.101 1.012.487.887l-.18-.85c-.136.036-.27.07-.307-.037M121.597 41.065c.485.094.92.266 1.304.515.117-1.1-.878-1.584-1.586-1.84-.418.284.255.902.282 1.325M113.06 41.691c-.192-.163.045.954.222 1.043.129-.164-.235-.633-.222-1.043M145.573 34.78c-.37.034-.408.283-.607.425.163.213.257.53.373.814.29-.059.326-.278.512-.405-.027-.378-.27-.428-.278-.834M118.723 40.685c-.1.456.366 1.115.91.996-.175-.107-.185-.468-.255-.736-.236-.06-.465-.13-.655-.26M116.343 41.19c-.136.3.09 1.117.359 1.213.167-.347-.23-.903-.359-1.212M110.526 42.427c-.361.18.094.381.067.778.561.103 1.029.353 1.516.57.204-1.067-1.12-.883-1.583-1.348M40.829 57.242c-.455.156.127.552.087.874.193-.148-.091-.604-.087-.874M34.937 58.593c-.431.132-.822.287-.966.601.088.495.778.062 1.053.273.196-.145-.09-.603-.087-.874M109.902 44.644c0-1.137-.705-1.184-1.222-1.527-.462.858.508 1.635 1.222 1.527M42.627 57.259c-.193.342.368.598.486.885.152-.279-.346-.636-.486-.885M36.612 59.427c.408.04.81.099 1.296.02l-.14-.662c-.525-.008-1.694-.508-1.156.642M114.671 42.241c-.378.093.202.63.128 1.061.27.092.497.244.843.217-.173-.24-.244-.629-.315-1.021-.237-.056-.468-.128-.656-.257M159.545 32.999c.306 1.123 1.953 1.284 3.038 1.634-.67-1.07-2.014-1.106-3.038-1.634M123.505 40.66c-.385.164.251.73.242 1.137.194-.306-.158-.839-.242-1.137M117.88 41.855c-.186.336.164.916.337 1.117.138-.258-.215-.837-.338-1.117M31.537 60.407c.116.368.28.659.486.886.484-.112.797.039 1.28-.075-.036-.528-.307-.702-.355-1.21-.5-.044-1.077.12-1.411.399M99.593 45.842c-.331.115-.506.33-.913.392-.017.958.307 1.763.53 2.96.252.162.62.141.862.312.063-1.076-.698-2.687-.479-3.664M83.956 49.166c.085.25.439.085.558.278.303-.353-.368-.267-.558-.278M39.472 58.819c-.441.101.069.435.045.684.203-.086-.063-.474-.045-.684M146.181 36.236c-.24.091-.227.344-.51.406.109.334.259.61.392.91.174-.135.336-.276.51-.41-.132-.298-.281-.571-.392-.906M30.813 60.758c-.45.064-.596.322-1.006.411.275.164.73.058 1.108.065l-.102-.476M34.266 60.124c.058.458.31.617.339 1.12.372-.028.643.1 1.088-.034-.093-.402-.302-.633-.337-1.12-.414.086-.654-.091-1.09.034M110.869 44.04c-.152.24.266.674.242 1.14.629.082 1.049.487 1.707.526-.117-.323-.273-.587-.316-1.02-.61-.119-1.09-.427-1.633-.647M124.618 41.215c-.189.299.28.656.242 1.14.275.122.603.17.788.426.219-.422-.293-.803-.282-1.329-.348.074-.55-.079-.748-.237M55.207 55.97c-.784 1.053.676 1.417 1.283 1.807.25-.19.09-.65.084-1.006-.52-.17-.954-.47-1.367-.802M167.735 32.152c-.176.008-.176.128-.075.113.866 1.185 2.407 1.446 3.711 1.988 2.631 1.092 4.988 2.174 7.798 3.395 1.581.691 2.997 1.605 4.718 1.576-.01-.368-.475-.344-.693-.445-4.828-2.28-10.4-4.595-15.459-6.627M165.065 32.72c.857 1.744 2.944 2.7 4.871 3.225-1.084-1.896-3.015-2.511-4.871-3.225M126.07 41.009c.5 1.54.92 4.955 2.368 5.045-.285-1.362-.82-2.35-1.618-2.928.023-.566.641.083.666-.142-.083-1.255-.817-1.511-1.417-1.975M119.206 42.467c.207.603.427 1.183.97 1.28.119-.608-.312-1.45-.97-1.28M113.58 43.663c-.182.12.04.68.162.76.18-.126-.04-.685-.162-.76M122.087 41.952c-.216 1.043.974 1.02 1.483 1.371.208-1.03-1.014-.957-1.483-1.371M28.551 61.834c-.804.355-1.407.837-2.242 1.173.704.18 1.698-.09 2.408.08.303-.146-.186-.757-.166-1.253M145.273 37.126c-3.37 2.4-5.983 5.295-10.244 7.131.584.944 1.744-.424 2.497-.925 2.596-1.734 5.612-3.63 8.025-5.375-.027-.382-.269-.426-.278-.831M116.955 43.145c-.292.06.055 1.123.414 1-.215-.216-.182-.812-.414-1M37.183 61.189c.323.091.67.149 1.109.062l-.223-1.046c-.906-.095-1.433-.176-.886.984M105.06 45.769l.342 1.612c.553.283 1.235.374 1.748.72.142-.396-.205-1.112-.248-1.633-.668-.149-1.167-.564-1.843-.7M98.196 47.228c-.486.151-1.207.151-1.507.422.338.946.54 2.099.778 3.2.453.23 1.002.314 1.424.59-.004-1.254-.4-2.764-.695-4.212M29.355 61.86c.188.26.251.708.337 1.12.526.156 1.23.04 1.816.107-.05-.509-.322-.68-.358-1.21-.592-.016-1.16-.064-1.795-.017M109.466 46.814c.436.127.809.355 1.287.422-.268-1.1-.618-2.073-1.555-2.15-.426.412.316 1.075.268 1.728M71.535 53.092c.014.825.256 1.802.375 2.696.805-.418 1.444.354 2.262.316-.042-.82-.072-1.625-.241-2.527-.808-.148-1.634-.267-2.396-.485M78.941 51.82c-.423 1.178.443 1.963 1.417 1.975-.05-1.306-.654-1.765-1.417-1.975M115.306 44.288c-.372.318.34 1.036.794.919-.011-.694-.449-.74-.794-.92M32.164 61.96c.095.4.302.626.34 1.115.41.042.81.098 1.3.022l-.222-1.044c-.385-.166-.885-.152-1.418-.093M118.59 43.787c-.406.161.063.93.222 1.04.235-.328-.241-.63-.222-1.04M24.81 63.918c1.63.939 3.41 1.649 5.033 2.599.18-.49-.346-.975-.343-1.614-.433-.083-.962-.027-1.489.019.1-.469.749-.101 1.22-.358-1.097-.7-2.86-1.471-4.42-.646M146.947 37.957c-.243.117-.305.348-.492.502.137.251.238.562.371.81.338-.053.246-.385.49-.5-.106-.295-.29-.474-.37-.812M103.737 48.925c.424.274 1.014.288 1.42.593.152-.368-.188-1.05-.228-1.539-.41-.25-.941-.318-1.324-.61-.389.238.143 1.076.132 1.556M35.052 61.94c-.3.167.185.856.262 1.232.344-.063.582.029.897.007l-.242-1.139c-.237-.139-.675.03-.917-.1M163.98 34.634c-.393.176.4.497.464.792.968.283 1.798.769 2.803.99-.742-1.126-2.193-1.163-3.268-1.782M113.922 45.274c-.128.33.08 1.213.529 1.077-.059-.541-.237-.897-.529-1.077M84.1 51.713c-.073.571.03.778.091 1.366.333.164.595.43 1.073.366-.012-.361-.324-.918-.145-1.158-.23-.357-.728-.31-1.02-.574M55.113 57.874c-.412 1.046.952 1.339 1.624 1.539-.082-1.223-1.119-.974-1.624-1.539M128.074 42.463c-.085.679.432 1.513.878 1.797.171-.808-.452-1.484-.878-1.797M111.482 45.99c-.072 1.454 1.031 2.193 2.016 2.45.189-.55-.35-1.055-.363-1.71-.54-.263-1.119-.462-1.653-.74M107.994 48.317c.391.154.723.402 1.19.441l-.303-1.423c-.325-.174-.752-.19-1-.481-.396.21.129 1.014.113 1.463M22.209 65.758c1.928.861 3.962 1.562 5.895 2.415.516-.16.79-.473 1.254-.663-1.364-.784-3.776-2.228-5.382-2.822-.543-.197-1.147.975-1.767 1.07M145.943 38.864c-3.13 2.235-6.3 4.44-9.677 6.516.337.401.667 1.072 1.326.61.191-.287-.189-.348-.236-.644.33-.085.371.271.577.375 2.858-1.918 5.694-3.854 8.423-5.855-.063-.447-.234-.732-.413-1.002M122.997 44.83c.57.049.922.431 1.496.477-.15-1.115-1.007-1.14-1.625-1.539-.455.213.173.671.129 1.063M120.01 44.376c-.216.584.351 1.053.74 1.131.25-.642-.4-.98-.74-1.131M161.884 35.574c.506 1.323 2.158 1.978 3.583 2.312-.818-1.345-2.22-1.797-3.583-2.312M125.178 43.376c.154.69.551 1.002 1.119 1.05-.17-.24-.242-.632-.317-1.023-.38.165-.489-.086-.802-.027M81.664 54.312c-.183-.528-.08-.87-.19-1.348-.937-.91-.602 1.674.19 1.348M37.65 61.98c-.205.057.046.41.026.59.366-.117.783-.205.777-.563-.31.06-.595.077-.803-.026M117.474 45.112c-.214.259.142.703.278.834.196-.227-.093-.771-.278-.834M30.206 64.455c.628-.207 1.022-.056 1.64-.25-.08-.76-2.572-.8-1.64.25M116.543 47.294c.19-.18-.103-.669-.105-.97-1.082-.816-.628.913.105.97M169.96 34.651c-.174.009-.174.13-.075.115.472.746 1.104 1.243 1.608 1.94 1.18.415 2.29.91 3.494 1.436 1.789.779 3.114 1.76 5.75 1.255-3.51-1.71-7.194-3.148-10.777-4.746M157.28 37.346c.006.54.74 1.04 1.332 1.106-.337-.533-.775-.91-1.332-1.106M105.794 48.29c-.16.335.173.987.207 1.44.601.21 1.108.567 1.822.606-.076-.557-.247-.962-.397-1.402a11.292 11.292 0 0 1-1.632-.644M92.446 51.127c-.12.275.58.364.883.406-.137-.376-.666-.156-.883-.406M32.758 63.814c.061.324.412.205.728.142-.135-.213-.434-.17-.728-.142M147.67 39.488c-.234.176-.298.46-.452.692.16.3.276.668.415 1.004.175-.161.314-.344.488-.502-.048-.552-.334-.743-.452-1.194M99.87 51.83c.364-.056.48.27.84.217-.012-.35-.303-1.26-.402-1.896-.251-.16-.59-.184-.787-.429-.395.515.29 1.457.348 2.107M91.13 51.506c.034.805.292 1.629.47 2.675.052-.7-.036-2.187-.47-2.675M86.171 52.56c-.392.211.13 1.01.113 1.463.318-.229.13-1.138-.113-1.463M82.303 53.58c.089.44.24.92.169 1.253.372.178.81.268 1.112.558.245-.336-.05-1.015-.13-1.562-.419.011-.786-.578-1.151-.25M132.836 42.838c.02 1.017.584 2.292.896 3.278.473-.292.76-.705 1.29-.967-.602-.961-1.506-1.466-2.186-2.31M119.013 45.776c.096.315.046.852.446.703-.087-.328-.121-.739-.446-.703M109.859 47.722c-.16.334.173.986.206 1.447.394.192.871.26 1.213.533.157-.334-.176-.987-.21-1.44a16.33 16.33 0 0 1-1.21-.54M79.251 54.228c-.337.247.123 1.006 0 1.387.39.198.866.264 1.208.537.353-.18-.169-.925.043-1.197-.338-.36-.881-.411-1.25-.727M19.46 67.83c1.771.937 3.766 1.527 5.589 2.38.685-.377 1.207-.858 1.937-1.204-1.713-1.147-3.875-1.61-5.797-2.437-.585.416-1.11.868-1.73 1.26M89.894 52.263c-.378.13.023.996.222 1.043.152-.197-.06-.9-.222-1.043M31.067 64.767c.3.26.726.319 1.02.579.206-.086-.058-.476-.046-.684-.4.154-.57-.05-.974.105M129.772 43.889c.017 1.887 2.63 2.556 3.5 3.814.04-.944-.933-1.44-1.513-1.959-.685-.616-1.32-1.227-1.987-1.855M95.735 51.123c-.236.466.391 1.012.203 1.443.444.119.77.411 1.287.419l-.302-1.42c-.455-.062-.808-.269-1.188-.442M55.115 59.758c-.23.177-.03.632-.102.912.608.157 1.13.444 1.65.739.463-1.122-1.03-1.218-1.548-1.651M33.11 64.53l.122.572c.368-.226.993-.289 1.042-.717-.442.133-.801.139-1.163.145M114.652 47.3c-.317.352.148 1.59.553 1.666-.116-.662-.288-1.234-.553-1.666M87.498 53.17c-.251.287-.077 1.307.205 1.442.16-.33-.173-.984-.205-1.442M30.577 65.269c-.223.394.268.754.262 1.233.43-.104.606-.37.987-.507-.338-.36-.88-.411-1.249-.726M146.728 40.682c-2.422 2.09-5.199 3.95-8.04 5.77.096.355.397.397.541.678 2.927-1.627 5.487-3.496 7.912-5.447-.064-.449-.233-.734-.413-1M125.848 45.12c-.241.747.52 1.042.873 1.3.23-.736-.45-1.156-.873-1.3M92.572 52.194c-.158.332.173.98.207 1.44.322.05.572.213.939.196l-.263-1.234a5.462 5.462 0 0 1-.883-.402M78.719 57.81c.094-.512-.038-1.169-.192-1.842-.553.047-1.055-.642-1.477-.38-.278 1.498.67 2.02 1.669 2.221M120.621 46.327c-.218.596.422.947.89.902-.106-.586-.47-.786-.89-.902M104.223 49.812c-.397.124.079.815.051 1.181.496.2.946.479 1.518.569l-.263-1.233a7.305 7.305 0 0 1-1.306-.517M128.75 44.7c.043.643.321 2.018.884 2.287.065-.811-.336-2-.885-2.288M125.086 47.163c.162-.961-1-.984-1.486-1.369-.48.96 1.017 1.024 1.486 1.369M118.069 46.97c-.164.26.087.95.318 1.023.185-.293-.13-.885-.318-1.023M72.019 56.758l.161.76a8.503 8.503 0 0 1 2.125.636c.086-.328.037-.74-.05-1.178-.552-.366-1.347-.362-2.236-.218M101.81 52.507c.368.101.649.344 1.071.367-.12-.57-.241-1.136-.363-1.707-.23-.36-.726-.312-1.016-.576-.427.48.316 1.244.308 1.916M168.547 36.436c-.176.01-.175.133-.075.118.827 1.12 2.374 1.14 3.48 1.835-.448-1.2-2.386-1.202-3.405-1.953M84.546 54.29c-.295.746.22 1.985.922 1.99.05-.49-.04-1.067-.152-1.655-.27-.091-.575-.123-.77-.334M108.406 49.321c-.163.332.173.984.204 1.443.44.042.724.317 1.171.347l-.282-1.329c-.404-.092-.754-.272-1.093-.46M81.368 55.269c-.158.332-.09 1.365.395 1.4.076-.36.008-.816-.07-1.274-.16.04-.26-.016-.325-.126M38.387 64.5c.022.174.16.178.175.36.216-.16.643-.185.586-.522-.283-.182-.396.158-.76.162M17.054 69.63c1.135.554 2.914 1.123 4.433 1.638.967.323 1.677.734 2.465-.131-1.581-1.224-3.704-1.62-5.513-2.493-.45.336-.886.679-1.385.985M112.373 48.774c-.114 1.31.952 1.896 1.916 1.972-.042-1.575-1.115-1.565-1.916-1.972M97.902 51.95c-.396.18.111.945.09 1.368.447.239.958.382 1.424.59.164-.301-.163-.92-.19-1.349-.44-.202-.927-.34-1.324-.61M117.28 49.813c.116-.641-.223-1.667-.764-1.72-.37.549.204 1.758.764 1.72M36.122 65.576l.764-.162c-.067-.517-.838-.276-.764.162M148.666 41.358c-.334.139-.387.459-.664.636.184.475.386.92.591 1.36a1.31 1.31 0 0 0 .64-.73c-.16-.466-.435-.757-.567-1.266M119.7 47.614c-.392.176.118.935.316 1.023.188-.294-.126-.886-.316-1.023M75.005 57.215c-.34.161.038.785.051 1.175.652.008.998.488 1.686.438l-.202-.95a4.53 4.53 0 0 1-1.535-.663M106.394 50.64c-.174.273.143.859.165 1.252.592.185 1.072.54 1.728.625l-.262-1.231c-.56-.191-1.148-.343-1.631-.646M79.527 56.45c-.296.355.043 1.12.057 1.673.418.109.736.383 1.189.44.191-1.165-.374-1.952-1.246-2.112M56.88 63.84a4.988 4.988 0 0 0-.112-1.46c-.541-.22-1.077-.45-1.554-.762-.699 1.326.638 2.126 1.666 2.222M103.613 51.627c-.204.034.202 1.166.25 1.633.206-.031-.201-1.164-.25-1.633M86.526 55.163c-.385.295.249 1.25.058 1.67.289-.36-.013-1.097-.058-1.67M82.808 55.954c-.58.895.448 1.462 1.05 1.657.38-.97-.49-1.39-1.05-1.657M164.73 38.636c-.306.223.583.665.719 1.037.749.237 1.446.554 2.169.83-.305-1.129-1.913-1.35-2.889-1.867M130.308 45.953c-.13 2.005 1.435 2.498 2.464 3.146.1-.183.276-.314.512-.405-.86-1.116-2.02-1.773-2.976-2.741M127.83 46.48c-.112 1.011.622 1.813 1.248 2.114.068-.946-.664-1.747-1.247-2.115M110.48 50.167c-.168 1.012.538 1.765 1.353 1.697l-.262-1.235c-.378-.126-.788-.216-1.092-.462M90.285 54.56c-.091.023-.047.134-.055.209l.243 1.14c.143.035-.096-1.226-.188-1.349M147.628 42.569c-2.286 1.99-4.995 3.704-7.489 5.56.73.03 1.467-.544 2.093-.944 1.878-1.186 3.92-2.695 5.61-4.068-.042-.223-.221-.243-.214-.548M14.645 71.428c1.896 1.038 3.97 1.801 5.955 2.7.505-.438 1.021-.868 1.514-1.312-1.818-1.067-4.136-1.374-6.063-2.28-.637.189-.938.594-1.406.892M121.143 48.299c.049.387.282.49.296.928a.896.896 0 0 1 .651.257c.2-.682-.399-1.227-.947-1.185M72.422 58.654c-.346.187.058.857.07 1.274.808-.007 1.534.734 2.204.523-.184-.556-.113-.945-.21-1.443-.624-.213-1.421-.166-2.064-.354M124.023 47.785c.227.993 1.192.855 1.771 1.311.103-.995-1.034-1.183-1.771-1.311M104.667 51.9c-.169.597.325 1.261.403 1.897.536.016.821.418 1.381.4-.068-.691-.368-1.027-.458-1.687-.43-.222-.915-.357-1.326-.61M93.202 55.625c.27.09.497.245.843.22-.168-.467.022-.698-.146-1.162-.253-.116-.54-.175-.768-.332-.397.154.094.88.07 1.274M118.705 49.015c-.327.253.188 1.268.417 1.5.157-.461-.243-1.133-.417-1.5M100.394 54.295c.362.03.569.3.96.292-.095-.443-.19-.886-.283-1.328-.272-.091-.576-.124-.768-.332-.397.18.108.945.09 1.368M96.391 53.759c-.397.093.063.747.03 1.083.484.016.748.367 1.267.324l-.201-.948c-.369-.149-.775-.238-1.096-.46M87.735 55.695c-.004.587-.102 2.097.73 2.026-.247-.667-.136-1.884-.73-2.026M115.426 50.007c-.117.355.122 1.233.472 1.288-.295-.217-.177-1.07-.472-1.288M39.055 66.24c-.006.38.498.248.613.07-.062-.239-.36-.12-.613-.07M35.145 67.071l-.287.061c.002.208.12.24.176.36.167-.057.185-.21.11-.42M133.949 46.668c.17.496.595.595.89.899.74-.228 1.094-.712 1.787-.973-.543-1.343-1.617-.361-2.677.074M32.208 67.796c.033.436.702.347.92.101-.08-.375-.54-.178-.92-.101M77.426 58.284c-.397.047.019.613-.01.895.468.204.975.349 1.42.59.31-.098.035-.578.01-.894-.517-.134-.957-.376-1.42-.59M109.001 51.672c-.166.27.15.857.17 1.254.36.16.76.261 1.094.46.17-.272-.147-.859-.168-1.254-.38-.125-.787-.216-1.096-.46M81.735 57.467l-.285.06c.299.622-.128 1.6.627 1.552-.079-.514.021-1.406-.342-1.612M13.625 79.279c-.125.411-.456.688-.447 1.186.537.019.821.417 1.381.4.026-.228.228-.343.395-.48-.031-.24-.211-.262-.292-.436.521-.169.925-.231 1.142-.737-.355-.38-1.013-.292-1.273-.82.487-.405 1.004.108 1.586-.04-.418-.404-1.075-.445-1.33-1.102.002-.11.175-.103.15-.23.763.087 1.238.619 1.96.774.403-.068.32-.449.682-.543-.234-.27-.719-.157-.904-.504-.157-.261.177-.212.339-.271-.708-.73-2.638-.877-2.376-2.267 1.35.528 2.543 1.298 3.882 1.851.49-.286.806-.68 1.173-1.045-1.715-1.224-4.178-1.308-5.539-3.084-2.75 1.851-5.11 3.954-6.787 6.5 1.8.385 3.423 1.038 5.043 1.7.413-.281.824-.558 1.215-.852M173.134 38.339c.353.886 1.65 1.412 2.884 1.37-.877-.586-1.967-.846-2.884-1.37M84.846 57.105c.043.324-.036.576.108.968.322.05.5.321.862.312-.066-.822-.354-1.303-.97-1.28M57.77 62.86c-.66 1.61 1.04 1.87 2.088 2.333 2.058.898 4.614 2.058 6.376 2.805.127.187.315.27.333.623.895-.067 1.627.11 2.504.062-3.627-2.159-7.435-4.034-11.3-5.823M30.692 68.616c-.396.018-.333.33-.725.351.21.43.727.392 1.041.67.105-.168-.214-.756-.316-1.021M120.238 49.68c-.072.452.17 1.498.703 1.438-.214-.51-.251-1.29-.703-1.439M75.253 60.729c.655.04.957.63 1.557.758.187-.37-.063-1.021-.016-1.482a6.797 6.797 0 0 1-1.536-.665c-.325.257.04.953-.005 1.389M113.32 51.349c-.476 1.16.917 1.597 1.663 1.727-.034-1.372-.996-1.324-1.663-1.727M129.738 47.958c-.161.419.197 1.121.4 1.405.132-.376-.13-1.226-.4-1.405M117.06 50.652c-.205.404.302.785.283 1.33.193.12.47.115.651.258.156-.747-.364-1.535-.934-1.588M102.45 55.048c.279.152.65.172.877.407.17-.302-.16-.923-.184-1.348-.27-.09-.576-.124-.771-.333-.395.149.099.881.077 1.274M98.466 54.604c-.187.18.105.669.106.97.412.206.913.281 1.308.517.187-.178-.108-.668-.109-.97-.445-.16-.894-.31-1.305-.517M36.953 68.076c.247-.114.783-.041.84-.274-.133-.263-1.116-.281-.84.274M35.347 68.021c-.253.054-.552.081-.646.237.238.14.518.208.843.217-.017-.226-.093-.36-.197-.454M106.781 52.937c.255.367.298 1.052.44 1.593.549.242 1.085.513 1.727.623-.096-.613-.377-.935-.44-1.592-.58-.202-1.042-.581-1.727-.624M84.268 60.004c-.012-1.214-.404-1.688-1.207-1.928-.459.986.308 1.964 1.207 1.928M31.766 68.98c-.033.636.514.383.956.292-.204-.27-.47-.45-.956-.293M151.36 44.652c.465-.163.344-.704.812-.866-.521-.563-.714.433-.812.866M126.847 48.873c.066.354.219.576.369.81.24.036.34-.42.457-.195.188-.42-.522-.538-.826-.615M26.893 70.91c1.542.523 3.233 1.366 5.095.997-.005-.365-.248-.37-.257-.736-.526 0-.853.474-1.164.146-.14-.337.062-.452.397-.48-.563-.567-1.42-.68-2.039-1.15-.712.383-1.263.87-2.032 1.222M55.472 64.24c-.094.023-.05.132-.056.209.268.72 1.113.557 1.595.95.126-.86-1.123-.71-1.539-1.16M137.908 47.015c.242.32.588.797 1.077.366-.196-.514-.654-.873-1.077-.366M111.077 52.52c-.185.995.59 1.612 1.336 1.599l-.241-1.137c-.36-.162-.758-.262-1.095-.461M124.826 49.695c-.087 1.104 1.064 1.387 1.833 1.591-.1-1.313-1.17-1.137-1.833-1.59M79.836 60.25c.405.093.751.27 1.095.463.116-.253.085-.599-.012-.99-.593-.152-1.64-.933-1.083.526M128.661 48.98c-.371.676.497 1.456.954 1.678.221-.883-.578-1.29-.954-1.678M121.987 50.399c-.353.114.219.777.167 1.251.3.088.493.333.864.315-.207-.734-.392-1.5-1.03-1.566M96.531 55.81l.222 1.042c.411.209.91.28 1.304.514.176-.238-.134-.792-.146-1.153-.476-.112-.784-.481-1.38-.403M93.786 58.375c.318-.067.393.24.728.143-.224-.98-.09-1.845-.919-1.982-.376.327.187 1.264.191 1.84M135.708 48.373c.184.218.415.37.619.566.596-.3 1.074-.67 1.69-.955-.48-1.308-1.506.064-2.31.39M37.19 68.72c.03.453.571.13.918.103l-.06-.285c-.184-.11-.732.007-.857.182M72.563 61.202c.477.863 1.547.817 2.345 1.186l-.222-1.044c-.683-.088-1.397-.12-2.123-.142M34.805 69.228c.026.173.16.174.179.36.27-.07.634-.084.741-.259-.162-.255-.52-.21-.92-.101M104.238 54.568c-.124.283.095 1.107.282 1.329.126-.282-.094-1.108-.282-1.33M32.271 69.965c.257.149 1.313.288 1.454-.21-.244-.388-1.118.123-1.454.21M131.052 48.969c-.448 1.158.934 1.655 1.452 2.168.368-.012.325-.285.63-.331-.607-.747-1.434-1.156-2.082-1.837M77.564 60.338c-.229.318.052.963-.006 1.385.516.236 1.272.712 1.726.626-.183-.528-.076-.869-.186-1.348-.551-.163-1.024-.441-1.534-.663M167.112 41.402c.54 1.011 1.749 1.008 2.614 1.524-.26-.944-1.462-1.53-2.614-1.524M119.343 51.556c-.086.383.067 1.487.589 1.362-.096-.606-.237-1.144-.589-1.362M100.75 55.508c-.19.178.106.666.108.97.424-.025.603.327 1.054.27-.13-.453-.181-.368-.297-.93-.35-.008-.595-.183-.864-.31M169.65 41.159c.875.587 1.925.91 2.96 1.256-.65-.935-1.519-1.533-2.96-1.256M109.828 55.56c.363.162.762.26 1.096.46.153-.365-.187-1.049-.225-1.537-.366-.198-.79-.3-1.115-.557-.44.39.28 1.046.244 1.633M86.109 60.7c-.087-.436-.24-.916-.165-1.25-.216-.132-.498-.166-.676-.355-.388.663.174 2.017.84 1.604M24.786 72.248c1.12.74 2.502.98 3.8 1.472 1.18.445 2.43 1.432 3.817 1.072-1.738-.961-4.378-2.392-6.44-3.092-.365-.122-.799.563-1.177.548M135.1 48.8l-.288.061c.111.213.225.416.486.393.02-.284-.187-.215-.197-.454M105.542 55.083c-.176.24.135.796.149 1.158.442.2.873.422 1.399.495-.113-.411-.307-.702-.357-1.214-.456-.054-.812-.264-1.191-.44M88.287 58.75c-.454.338.185 1.012.43 1.099.187-.375-.155-1.013-.43-1.099M81.898 60.109c-.109.347-.123 1.178.358 1.212.284-.278.01-1.178-.358-1.212M99.015 57.66c.48.146.871.426 1.4.495l-.22-1.041c-.617-.22-1.8-1.047-1.18.546M72.765 62.148c-.205.061-.154.285-.092.518.432.052.826.16 1.322.114-.345-.31-.877-.33-1.23-.632M57.89 65.31c-.077.062-.153.12-.15.23.965.646 2.098 1.042 3.211 1.501 1.346.555 2.471 1.249 4.084 1.41-2.357-1.083-4.786-2.06-7.145-3.14M40.346 69.04c-.156.007-.143.124-.261.158.076.211.152.428.458.297-.017-.23-.093-.362-.197-.456M36.057 69.95l-.86.184c.087.288.214.515.353.72.348.005.336-.222.649-.238l-.142-.665M173.089 40.927c.546.415 1.315.494 1.882.884.156-.37-.533-.52-.604-.958-.4-.018-.841.033-1.278.074M133.902 49.257l-.858.182c.296.297.643.516.963.783.19-.176-.104-.668-.105-.965M124.177 51.324c-.085.297.031 1.37.473 1.285-.245-.3-.23-.988-.473-1.285M75.574 61.75c-.47.003.163.71-.13.822.404.346.886.572 1.592.454-.082-.19.013-.265.016-.401-.363-.492-1.041-.498-1.478-.875M162.93 43.284c-.114.34.479.68.846.71-.19-.377-.543-.515-.847-.71M139.417 48.479c.095.442.309.12.614.067l-.06-.285c-.186-.125-.457.053-.554.218M114.045 54.761c.385.29.917.357 1.324.612.18-.24-.13-.796-.144-1.158-.617-.22-1.803-1.047-1.18.546M37.663 70.007l.04.188.477-.102c-.06-.131-.487-.32-.517-.086M127.478 50.917l.201.946c.3.046.523.206.769.333a.992.992 0 0 0-.97-1.28M121.09 52.274c-.372.324.153 1.325.494 1.381.136-.42-.165-1.255-.494-1.38M69.91 63.253c-.244.046-.102.095-.055.21 1.932.727 3.614 1.838 5.533 2.589-.485-1-1.714-1.299-2.56-1.736-.899-.462-1.782-1.091-2.917-1.063M175.382 40.93c.277.838 1.225 1.73 2.653 1.224-.817-.515-1.8-.768-2.653-1.224M117.792 53.171c-.201.652.297 1.305.78 1.322.2-.646-.295-1.303-.78-1.322M155.953 45.162c-.21.027.024.344.004.493.105-.04.173-.014.211.054.25-.19-.236-.292-.215-.547M138.981 48.769c-.733.237-1.201.644-1.788.973.358.418 1.97-.52 1.788-.973M130.495 50.573c-.172.146.046.756.181.852.203-.201-.101-.672-.18-.852M103.034 56.41c-.395.045.02.61-.008.892.363-.052.478.272.843.217l-.182-.852a.91.91 0 0 1-.653-.257M177.52 40.677c1.164.437 2.14 1.168 3.475 1.34-.36-.362-1.698-1.04-2.482-1.353-.202-.081-.587-.095-.992.013M79.98 61.41c-.07.416-.006.922.112 1.46.448.064.939.619 1.288.422-.161-.513-.138-.907-.188-1.349-.446-.113-.82-.336-1.212-.533M21.54 74.325c.55.871 1.365-.172 2.001-.425-.585-.732-1.466.022-2.002.425M83.435 60.773c-.52.87.422 1.474 1.124 1.545l-.242-1.136a5.355 5.355 0 0 1-.882-.41M125.596 51.912c-.18 1.364 1.06 1.645 1.896 1.875-.19-.256-.25-.705-.339-1.118-.488-.299-1.092-.421-1.557-.757M111.883 56.31c.285.24.698.278.998.485.154-.366-.188-1.05-.226-1.54-.282-.154-.65-.171-.883-.405-.393.207.128 1.01.11 1.46M96.995 57.99l.342 1.611c.513.056.835.396 1.38.404l-.343-1.614c-.507-.058-.795-.454-1.38-.4M199.433 36.414c.68 1.293-.712 2.706-.67 3.414.066.964 1.86.989 2.883 1.37.978-1.106-1.592-3.82-2.213-4.784M180.365 40.467c1.57.783 3.068 1.675 5.366 1.338-.223-.325-.77-.592-1.272-.82-1.13-.518-2.261-.834-4.094-.518M107.826 55.985c-.395.096.061.748.034 1.085.474.277 1.1.324 1.536.665.177-.241-.135-.797-.146-1.16-.51-.141-.982-.34-1.424-.59M38.799 70.657l-.764.162c.211.164.275.236.217.549l.668-.142-.121-.57M140.233 49.494c.078.041.694-.028.624-.33-.204-.122-.727.01-.624.33M122.721 52.917c-.149.738.298 1.64 1.01 1.472-.114-.413-.308-.702-.357-1.213-.299.039-.426-.185-.653-.259M101.28 58.469c.308.196.723.235 1 .48.178-.239-.136-.795-.147-1.16-.618-.21-1.331-.552-.852.68M129.417 51.596c-.299.683.485 1.837 1.187 1.828-.216-.889-.67-1.407-1.187-1.828M32.871 72.314c.202.526.815.433 1.459.284-.267-.484-.983-.84-1.459-.284M22.752 74.86c.693.426 1.712.82 2.821 1.09 1.706.412 3.186 1.05 4.833-.238-1.895-.87-4.09-1.277-6.25-1.742-.533.257-.815.672-1.404.89M139.754 49.596c-.284.171-.51.378-.894.486.214.108.994-.118.894-.486M77.78 62.769c-.126.06-.029.257-.016.398.306-.048.466.126.804.028-.23-.19-.577-.205-.788-.426M131.575 51.433c-.39.48.51 1.43 1.003.977-.217-.504-.863-.357-1.003-.977M104.782 57.128c-.155.287.069 1.064.49.889-.167-.295-.187-.805-.49-.889M88.577 60.573c-.24 1.44.545 2.973.733 4.403.78-.394.07-1.809-.11-2.853-.094-.564.027-1.105-.301-1.422-.094-.064-.273.002-.322-.128M135.107 51.177c.3-.051.43-.212.627-.332-.117-.313-.856-.07-.627.332M94.822 60.435c-.043-.56-.236-.896-.603-.963-.423.326.132 1.184.603.963M185.103 40.252c1.332.524 2.37 1.487 4.087 1.413-.343-.472-1.138-.696-1.809-1.006-.615-.28-1.385-.731-2.278-.407M120.08 54.074c-.373.248.04 1.319.528 1.079-.15-.402-.242-.89-.528-1.08M19.268 76.297c.07.187.298.128.367.318.539-.225.708-.689 1.308-.873-.61-.63-1.275.14-1.675.555M133.221 51.68c.12.377.989.193.953-.203-.253-.142-.733.07-.953.203M113.654 55.737c-.07.405.076 1.556.533 1.573.135-.5-.39-1.076-.533-1.573M99.6 60.41c.557.028.863.439 1.478.38-.076-.64-.374-.937-.44-1.591-.455-.06-.811-.268-1.19-.442-.383.27.158 1.137.152 1.654M85.528 61.715c-.135.712.277 1.673.934 1.587-.096-.86-.34-1.49-.934-1.587M82.192 62.425c-.105.315-.058.729.05 1.177.221-.084.245.13.498-.004-.098-.52-.159-1.097-.548-1.173M75.613 63.823l.241 1.137c.495.164.946.399 1.345.707.26-.294-.107-.997.006-1.389-.53-.158-.862-.612-1.592-.455M188.52 39.925a6.53 6.53 0 0 0 1.768.813c-.316-.687-.934-.916-1.767-.813M169.452 43.978c.225.325.509.563.774.827l1.047-.222c-.567-.26-1.053-.65-1.82-.605M171.76 43.584c.578.537 1.315.835 2.412.58-.637-.441-1.359-.764-2.412-.58M191.037 39.588c.59.41 1.227.863 2.05.256-.284-.693-1.293-.28-2.05-.256M166.65 44.868c.23.362.607.5.946.694.088-.351-.537-.682-.946-.694M128.131 53.056c-.17.35.229.905.36 1.214.344.006.333-.22.647-.238-.116-.658-.639-.697-1.007-.976M124.793 53.765c-.112.39.108 1.343.494 1.383.14-.423-.232-1.147-.494-1.383M114.497 55.954c-.369 1.027.677 1.956 1.436 2.075.155-.367-.185-1.05-.225-1.54-.425-.143-.85-.29-1.21-.535M106.248 58.404c.383.208.83.317 1.21.534.203-.115-.073-.54-.065-.777-.45.006-1.563-1.01-1.145.243M104.214 59.627c.187-.209-.118-.733-.124-1.063-1.246-.806-.717 1.068.124 1.063M36.335 72.67c-.113.434.598.244.612.067.113-.438-.595-.243-.612-.067M110.23 56.963c-.189.209.115.728.122 1.062.443.123.773.41 1.287.42-.021-1.18-.833-1.149-1.41-1.482M20.153 76.704c.741.386 1.764.474 2.835.685 1.197.237 2.541.844 3.54.238a43.757 43.757 0 0 0-4.876-1.837c-.613.231-.901.67-1.5.914M118.192 56.459c.372.1.652.342 1.073.365l-.242-1.135c-.268-.094-.574-.124-.767-.337-.327.172-.008.763-.064 1.107M91.77 61.084c-.213-.027.17 1.035.208 1.441.217.027-.17-1.034-.209-1.441M175.009 43.39c.503.317 1.023.613 1.876.398-.383-.506-1.044-.587-1.876-.397M121.706 54.72c-.183.544.242 1.22.668 1.247.076-.376-.278-1.168-.668-1.246M78.443 64.015c.292.223.603.415 1 .484.235-.585-.638-.412-1-.484M32.867 73.703c.052.184.767.37.688-.046-.23.016-.39-.075-.688.046M83.631 63.11c-.208.056.047.412.028.589.312.067.58.197 1.01.082-.209-.431-.728-.391-1.038-.671M192.905 40.382c.318.631.931.383 1.392-.001-.391-.568-.858-.403-1.392.001M178.637 43.113c-.255.46 1.248.333 1.931.186-.422-.402-1.326-.066-1.931-.186M126.48 55.59c.575.164.93.668 1.705.528-.022-.463-.245-.629-.316-1.022-.303.031-.408.315-.667.141-.237-.298-.309-.651-.774-.826-.402.124.077.815.052 1.179M101.96 61.198c.314.15.673.226.98.385.126-.522-.243-1.339-.343-1.612-.268-.09-.576-.125-.768-.332-.39.24.143 1.074.131 1.559M94.582 61.18c-.373.286.065 1.37.548 1.17-.096-.518-.16-1.095-.548-1.17M80.185 64.24l.18.852c.481.01.896.68 1.286.423l-.222-1.045c-.43-.054-.674-.39-1.244-.23M77.967 65.998c.564.192.894.73 1.782.415l-.201-.948c-.516-.22-1.028-.437-1.461-.78-.5.14.048.96-.12 1.313M38.707 73.056l.142.665c.096-.16.398-.184.65-.238-.144-.326-.325-.593-.792-.427M17.684 78.22c.862.233 1.773.686 2.78.893.946.196 2.05.62 2.928.174-1.084-.132-3.68-2.251-4.99-1.915-.325.083-.668.43-.718.848M105.186 59.028c-.167.423.15 1.186.549 1.168.138-.384-.209-1.1-.55-1.168M97.671 60.72c-.202.089.062.476.05.684.405.214.941.233 1.304.516.262-.99-.95-.808-1.354-1.2M33.982 74.258c.23.279.608.328.903.502.406-.091.634-.3 1.126-.338-.531-.273-1.108-.482-2.03-.164M133.182 53.371c.094.25.537.296.708.049-.214-.328-.292-.139-.708-.049M109.84 59.82c.235-1.031-1.01-.884-1.47-1.274-.495.95 1.042.908 1.47 1.274M170.747 45.387c.427.357.991.495 1.612.548.077-.62-.809-.855-1.612-.548M123.467 56.427c.364.03.573.301.958.293-.148-.231-.238-.557-.295-.93-.54-.397-1.095-.431-.663.637M112.522 58.852c.286.153.608.244.883.408.186-.209-.119-.73-.125-1.063-.638-.217-1.184-.543-.758.655M194.247 41.085c.756.395 1.542.742 2.326 1.092-.05-.306.129-.461.029-.799-.823-.131-1.713-1.36-2.355-.293M191.5 41.275c.124.184.304.282.629.162-.126-.18-.342-.231-.63-.162M132.1 53.9c-.345-.028-.087.326-.09.514.068-.091.191-.147.358-.176-.04-.187-.286-.066-.268-.338M130.192 54.306c-.407.08.025.704.086.873.347.004.334-.22.648-.239-.154-.349-.5-.409-.734-.634M120.466 56.373c.08.378.16.757.242 1.137.172.112.438.084.558.278.055-.466-.216-1.512-.8-1.415M32.674 75.131c.39.202.89.224 1.359.306-.363-.233-.85-.676-1.36-.306M83.8 64.362c.11.585.742.374.963.789.293-.086.062-.508.028-.8-.38.08-.61-.067-.99.011M75.999 66.12c.191.673.746.786 1.442.685-.373-.312-1.06-.804-1.442-.684M117.914 58.896c.732.048 1.308.873 2.088.45-.179-.398-.295-.893-.475-1.289-.633-.236-1.324-.401-1.861-.793-.428.37.306 1.003.248 1.632M106.7 59.595c-.19.178.107.668.108.968.44.121.767.413 1.285.42l-.181-.855c-.393-.193-.85-.29-1.211-.533M176.229 44.915c-.397.15.328.525.446.699l.668-.142c-.296-.3-.82-.256-1.114-.557M173.465 45.502c.131.218.307.366.651.258-.225-.073-.353-.297-.651-.258M178.558 44.617c.318.687 1.061.725 1.916.586-.572-.298-1.102-.659-1.916-.586M103.9 60.486c-.153.366.19 1.05.226 1.538.24.057.467.128.653.26.155-.366-.187-1.05-.225-1.54-.237-.055-.464-.124-.653-.258M82.638 65.006c-.475.047-.1.642-.083 1.01l.476-.101c-.067-.4-.133-.799-.393-.91M35.443 75.037c.725.36 1.236 1.043 2.136 1.132-.604-.54-.797-1.712-2.136-1.132M151.5 50.469c.188.337.476.526.678.848.06-.207-.101-.476-.085-.876-.278.131-.319-.104-.593.028M85.996 64.392c-.321.118-.006.651.01.99.3-.12.462-.03.689-.05.016-.68-.22-.783-.699-.94M29.845 76.824c.585.448 1.417-.311 2.073-.543-.652-.646-1.305.326-2.073.543M168.682 46.915c-.13.411.566.641.867.806.132-.414-.586-.607-.867-.806M39.312 75.903c-.37-.645-.942-.989-1.634-1.142-.104.39.658 1.576 1.634 1.142M181.48 44.295c-.282.336.955.438 1.249.724l1.144-.243c-.514-.598-1.43-.58-2.394-.48M125.416 56.212c-.4.07.039.68.01.987l.572-.121c0-.586-.353-.633-.582-.866M101.461 62.59c-.094-.906-.983-.59-1.408-.987-.43.727.838.957 1.408.988M122.19 56.996c-.168.27.148.858.17 1.254.357.094.713-.082 1.05-.223-.246-.59-.717-.835-1.22-1.03M114.374 58.658c-.397.071.043.681.01.988.749.24 1.39.642 2.171.828l-.201-.947c-.635-.329-1.367-.508-1.98-.87M112.01 60.648c.292-.914-.792-.8-1.143-1.148-.51.77.78.884 1.143 1.148M19.683 81.065c-1.024-.567-2.235-.849-3.21-1.501-2.272 1.38 2.039 1.322 3.21 1.5M60.45 70.318l-.287.061c2.738 2.046 6.493 1.979 10.75 2.274 7.288.51 16.23-1.38 24.184-2.958-5.636.999-11.047 1.222-16.19 1.655-2.827.239-5.38.673-7.87.486a35.17 35.17 0 0 1-3.485-.448c-2.146-.385-4.692-.841-7.102-1.07M98.046 63.418c.477.148.888.402 1.477.379l-.182-.854c-.606-.078-1.892-1.11-1.295.475M190.846 42.898c.476.245.758.535 1.436.191-.193-.498-1-.453-1.436-.191M188.103 43.581c-.087-.202-.476.062-.69.046.123.316.491.05.69-.046M95.026 63.265c-.371.055-.008.855.105.97.185-.255.25-.822-.105-.97M47.545 73.357c-.937.758 1.243 1.931 1.504 2.855.308-1.222-1.134-1.851-1.504-2.855M108.862 61.317c.538.18.98.505 1.61.548-.025-1.26-1.072-.957-1.6-1.443-.395.047.018.613-.01.895M200.052 44.015c.568-.619.732-1.492 1.24-2.147-.632-.208-1.337-.302-1.919-.582-.238.722-.112 2.516.68 2.729M105.745 61.187c-.346.21.074 1.267.226 1.536.253-.136.274.08.498-.007-.146-.655-.193-1.463-.724-1.53M76.3 67.541c-.083.275.014.664-.102.916.477.066.772.412 1.436.193-.144-.83-.932-.671-1.333-1.109M188.872 43.912c.135.211.435.174.423.604.363-.204.704-.42 1.18-.547-.33-.615-1.01-.396-1.603-.057M172.62 47.168c-.127.504 1.31.752 1.905.984-.516-.513-1.318-.58-1.904-.984M78.23 67.231c.042.777 1.239.869 1.848 1.194-.284-.905-1.174-.88-1.849-1.194M177.694 46.19c.565.517 1.438.57 2.018 1.057-.098-.73-.935-1.41-2.018-1.057M27.814 78.048l-.48.102c-.082.322.685.16.48-.102M102.318 62.409c-.211.057.047.412.025.59.335.072.522.374 1.033.18-.072-.687-.753-.445-1.058-.77M32.682 77.51c.555-.09.637-.136 1.026-.32 1.107-.516-1.47.29-1.026.32M112.94 60.348c-.265.645.638 1.167 1.06.768-.12-.612-.7-.519-1.06-.768M195.303 43.239c.463-.155.69.55 1.035.18-.168-.333-.985-.804-1.035-.18M193.261 43.476c-.181-.217-.589.103-.763.162.228.244.497-.162.763-.162M150.529 52.46c-.217.18.07.632.385.413-.016-.306-.312-.192-.385-.413M107.26 61.756c-.2.116.076.54.066.778l1.05-.223c-.261-.353-.82-.253-1.117-.555M54.957 73.07c.303.501.728.813.838 1.607.662-.441.169-2.69-.838-1.606M100.225 63.35c.022.43.4.311.747.237-.167-.202-.455-.223-.747-.237M80.966 67.443c.183.31.614.233.809.522.205-.056.153-.28.09-.512-.315.025-.556-.073-.899-.01M202.742 41.658c-.159.007-.146.126-.265.158-.218 2.123-1.668 3.45-2.6 5.11.637.16.539 1.103 1.2 1.432-.008.487-.299.79-.447 1.183.414.07 1.07.325 1.415.095.01-.637-.248-1.05.196-1.428.26-.225.798-.132 1.125-.337.682-.434.82-1.275 1.222-1.75-.442-1.754-1.263-2.921-1.846-4.463M39.074 76.646c1.728 1.964 3.357 4.079 5.3 5.714 0-.341-.484-.887-.894-1.398-1.113-1.382-2.555-2.938-3.646-4.478l-.76.162M193.5 44.119c.11.303.967.074.838-.275-.32-.076-.575.101-.838.275M182.439 46.47c.16.348.517-.011.666-.142-.207-.252-.443-.009-.666.142M138.845 55.639c-1.735.754-4.852 1.903-6.468 2.86.342.575.994-.106 1.43-.304.523-.24 1.11-.439 1.56-.632.337-.214.11.422.443.207.933-.765 1.906-1.497 3.035-2.131M111.27 61.398c-.125.057-.029.257-.013.4l.57-.122c-.082-.249-.435-.084-.557-.278M82.857 67.438c-.292.084-.058.508-.028.798l.572-.122-.14-.66c-.155.022-.357.12-.404-.016M33.42 78.643c-.56.185-.71-.26-1.3-.024 1.787.864 3.713 1.52 5.416 2.515-.338-.908-1.545-1.572-2.129-2.518.689-.035 1.25.767 1.774 1.307.843.873 1.43 1.95 2.66 2.209.158.46-.237.61.104.969l.767-.163a79.931 79.931 0 0 1-4.356-5.023c-.738-.494-1.658-.208-2.753.19.085.271-.108.365-.183.538M185.13 45.997c.299.327.906.297 1.393 0-.235-.57-.987-.31-1.394 0M168.462 49.638c.176.36.525.46.83.619.148-.362-.478-.608-.83-.62M191.045 45.234c.254.474 1.337-.157 1.486-.515-.469-.055-.89.408-1.486.515M178.397 47.628c.124.149.29.225.39.409a.437.437 0 0 1 .266-.15.882.882 0 0 0-.656-.259M85.153 67.448c-.364-.019-.056.401-.072.61.294-.05.165-.553.072-.61M13.061 83.662c1.437-.352 2.884.709 3.935-.241-1.017-.69-3.423-1.523-3.935.241M197.033 43.866c.156.314.678.56.882.402-.074-.435-.614-.66-.882-.402M180.918 47.291c.082.617.427.164.708.048-.193-.314-.364-.185-.708-.048M147.717 54.245c-.08.004-.082.058-.072.118-.057.235-.594.161-.84.274.807.396 1.187 1.455 1.537 2.548.415-.831-.026-2.365-.625-2.94" fill="#FFFFFE"/><path d="M28.236 80.037c2.705 1.35 5.62 2.379 8.355 3.681 1.034-.245 1.903-.23 2.976-.537-.915-1.172-2.932-1.586-4.67-2.278-1.632-.648-3.027-1.37-4.358-1.751-.397.128-.463.47-.757.66-.515-.132-.974.018-1.546.225M183.532 46.934c.196.327.76.332 1.112.06-.331-.263-.768-.459-1.112-.06M123.14 59.572c-.507.27-1.39.303-1.75.665.287.19 1.475-.317 1.75-.665M86.261 67.506c.014.607.598.345 1.054.271-.172-.36-.56-.4-1.054-.27M194.919 44.711c.154.35.603.246.808.52.19-.067.137-.295.208-.44-.193-.355-.775-.5-1.016-.08M174.325 49.089c.109.795 1.444.804 2.057 1.245-.123-.775-1.433-.824-2.057-1.245M189.617 46.032c.065.24.405.15.5-.004-.121-.148-.385-.177-.5.004M179.153 48.358c.327.869 1.384 1.369 2.107.543-.586-.33-1.434-1.113-2.107-.543M181.556 47.946c.345.497.872.31 1.397 0-.28-.6-.905-.258-1.397 0M118.533 61.342c.258.341.866-.243 1.336-.284-.28-.207-.95.097-1.336.284M26.607 81.28c-.468.045-.723-.236-1.302-.022 2.42 1.028 4.921 1.934 7.316 3.003.867-.196 1.57-.14 2.423-.317-2.604-1.166-5.37-2.084-7.969-3.26-.429.019-.177.485-.468.595M20.615 82.155c-.248-.235-.588.158-.86.183.19.36.667-.056.86-.183M196.452 44.88c-.955.54.545.968 1.117 1.048.197-.804-.815-.616-1.117-1.048M115.713 62.139c.206.355.804.11 1.3.022-.115-.517-.96-.224-1.3-.022M188.365 46.696c-.356.041-.506.219-.721.354.163.152.777-.093.721-.354M113.37 62.837c.109.368 1.029-.006.932-.298-.333.027-.666.05-.933.298M130.076 59.385c.092.068.147.193.173.36.364.061.911-.37 1.393-.496-.35-.54-1.052-.085-1.566.136M193.062 46.293c1.289.584 2.467 1.335 3.865 1.757.054-.4.293-.682.254-1.147-1.371-.281-2.619-2.01-4.119-.61M109.386 63.783c.332.158.991-.178 1.45-.21-.21-.369-1.167.09-1.45.21M199.602 44.705l-.287.061c-.083.135-.033.357.025.588.195-.146.288-.36.262-.649M127.218 60.485c-.021.15.216.468.006.496.705.042 1.452-.59 2.23-.772-.523-.656-1.456.147-2.236.276M21.754 83.299c.383.502 1.072.54 1.427 1.084-.866.107-1.474-.84-2.203-.522-.104.287.642.518 1.058.765.458.274.914.647 1.347.708.157.094.15.435.31.527 1.834-.463 3.472-.62 5.264-1.018-1.54-.63-3.92-1.788-5.586-2.381-.475-.169-1.09.734-1.617.837M17 83.913c.24.173.852.27.86-.183-.285-.17-.563.12-.86.183M191.618 46.996c.81.647 2.03.668 2.562 1.737-1.357 1.065-2.675-1.613-4.44-.743 1.173.717 2.61 1.03 3.688 1.893.836-.359 1.652-.734 2.452-1.116-1.393-.552-2.82-1.708-4.262-1.771M117.283 64.38c3.218-.675 6.585-1.966 9.503-3.107-.059-.077-.116-.154-.229-.15-3.04.468-6.1 2.33-9.274 3.258M64.717 74.466c.317.697.654 1.647.504 2.371 1.794-.129.525-2.582-.504-2.371M177.995 50.883c.126.231.617.277.805.027-.228-.213-.637-.406-.805-.027M187.911 48.775c.657.41 1.436.69 2.211 1.017.675.286 1.465.863 2.222.62-1.249-.692-2.616-1.192-3.882-1.854-.236.04-.46.086-.55.217M155.792 56.595c.224.245.496-.164.762-.162-.273-.306-.466.05-.762.162M95.401 69.729c.603.106 1.92-.376.668-.142-.223.04-.435.095-.668.142M135.488 61.405c.47.603 1.036 1.598.829 2.498.834-.335.202-1.906-.143-2.543-.29.108-.37-.102-.686.045M204.843 46.862c-.22.266-.31.616-.506.9.201.198.483.272.844.217-.059-.457-.198-.785-.338-1.117M180.912 51.949c.173.364.643.273 1.131.154-.296-.177-.597-.341-1.131-.154M72.755 75.236c.408.8.744 1.711.986 2.762.74-.052 1.037-.572.963-1.096-.094-.682-1.408-2.188-1.949-1.666M173.883 54.038l-.476.101c-.086.322.684.159.476-.101M129.232 64.323c.164.417.679.964.587 1.36.738.28.478-.78.313-1.354-.273-.036-.69-.265-.9-.006M53.927 80.426c-.098.24.304.79.435 1.096.573.046 1.176.045 1.797.014-.68-.469-1.566-.615-2.232-1.11M81.814 75.192c.393.701.683 1.556.852 2.594.873.146.858-3.16-.852-2.594M122.187 66.81c.36.79.829 1.41 1.098 2.342.488-.063.465-.46.64-.728-.644-.44-.638-1.876-1.738-1.614M205.142 49.674c-.225.191.151.51.387.414.026-.375-.266-.265-.387-.414M115.138 68.804c.236.642.41 1.38.557 2.162.986-.207.431-2.46-.557-2.162M148.232 62.761c.854.088 1.824.48 2.79 0 .277.031-.153.27-.226.346 2.903.742 5.683 1.215 8.606 2.037 1.519.427 2.747 1.127 4.974.428-4.233-1.207-9.79-3.07-14.208-4.018-.595-.127-1.356 1.239-1.936 1.207M90.237 74.492c.393.615.437 1.762.885 2.29l.572-.121c-.085-.84-.269-2.592-1.457-2.17M45.614 83.977c3.033-.155 6.513-.332 9.343-.596-.57-.486-1.518-.186-2.22-.123-2.218.198-4.765.388-7.123.719M99.718 72.675c-.421.13.33.336.404.511.323.636.704 1.185.845 2.099.606-.657-.173-2.921-1.25-2.61M147.12 65.97c2.05.273 3.844.682 5.92 1.123 1.047.219 1.75.7 3.232.202-.992-.62-2.48-.476-3.283-1.381 2.582-.166 4.546 1.548 6.981.496-3.213-.986-6.594-1.717-9.834-2.666-1.05.713-2.227 1.344-3.015 2.225M23.517 90.658c.06.934 1.886.776 2.876.873 3.315.335 7.173.664 10.466.95-.203-.613-.686-.795-.896-1.399-4.51.414-8.31-.263-12.446-.424M31.968 89.156c-.172.197.763.234 1.244.233.627.001 1.363-.04 1.736-.269 6.735-.058 13.482.194 20.088-.206 3.408-.206 6.726-.262 9.977.059 1.558.154 3.071.473 4.61.606 7.69.672 15.37 2.027 22.878 3.068 6.05.839 11.943 2.462 18.016 2.71 1.114.6 2.752.396 3.965.844.428-.175-.559-.717-.242-1.138 1.294.601 2.29 2.092 3.38 3.247.527.554 1.103 1.211 1.661 1.727.45.407 1.203 1.27 1.866.794.091-.4-.632-.887-1.086-1.356-1.284-1.323-2.665-3.027-3.701-4.764-6.19-1.719-12.528-3.275-19.068-4.373-3.242-.544-6.546-1.06-9.824-1.677a64.58 64.58 0 0 0-10.2-1.102c-7.018-.202-14-1.093-21.376-.712-3.702.195-7.469.154-11.328.622-4.014.493-8.33 1.217-12.596 1.687M202.96 53.01c-.106.068-.17.163-.128.325.542-.05 1.093.715 1.434.189-.3-.378-.93-.25-1.305-.514M198.736 54.7c.285.01.968-.132 1.47-.115-.399-.688-1.152-.514-1.47.114M197.68 55.818c.388.08.681.296 1.225.135a.493.493 0 0 1 .224-.343c-.552-.237-1.127-.436-1.45.208M144.973 67.121c2.083.542 4.42.694 6.456 1.304a8.378 8.378 0 0 0 1.695-.46 105.872 105.872 0 0 0-6.725-1.642c-.605.183-.887.575-1.426.798M199.923 56.53c.496.08.87.345 1.38.401.146-.234.385-.406.569-.617-.607-.247-1.815-.917-1.949.217M142.675 68.5c2.252.212 4.209 1.362 6.887.517-2.217-.216-4.647-1.898-6.887-.516M196.363 57.587c.501.374 1.019-.496 1.442-.706-.681-.39-1.124.367-1.442.706M206.77 54.975c-.291.197-.217.626-.528.81.118.234.476.105.577.371.201-.252.04-.74-.05-1.18M37.094 91.24c.563.856 1.14 1.693 2.406 1.47-.397-.44-.725-.983-1.107-1.449-.49.086-.816-.088-1.299-.021M140.53 69.65c1.748.294 3.427 1.475 5.492.519-1.735-.223-3.621-1.313-5.493-.519M197.95 58.041c.38.383.993.41 1.52.57.434-.131.453-.527.85-.679-.73-.853-1.633-.713-2.37.11M195.374 58.094c-.249.276-.778.37-.833.77.582-.032.756-.33 1.196-.452-.024-.255-.384.001-.363-.318M41.623 92.854c-.438-.544-.855-1.12-1.338-1.599-.15-.021-.467.215-.494.007-.04.536.843 1.798 1.832 1.592M202.38 57.299c.25.243.636.281.976.386.36-.095.278-.477.684-.543-.464-.617-1.343-.535-1.66.157M138.17 70.748c1.44.394 3.067 1.412 4.805.564-1.556-.248-3.015-1.445-4.805-.564M41.679 91.258c.28.58.94 1.663 1.857 1.685-.452-.563-.904-1.128-1.358-1.692-.149-.025-.47.214-.5.007M135.527 71.905c1.447.349 3.29 1.496 4.88.447-1.552-.27-3.005-1.433-4.88-.447M43.667 91.23c.011.585 1.137 1.604 1.819 1.993-.144-.663-.997-1.32-1.414-1.979-.154.023-.358.123-.405-.014M196.13 59.32c.37.53 1.097.502 1.578.852.284-.224.568-.45.85-.675-.652-.532-1.59-.927-2.428-.176M204.431 58.048c.23.194.508.313.864.314-.027-.576.508-.284.756-.658-.544-.475-1.311-.265-1.62.344M200.752 59.03c.519.478 1.206.269 1.644-.25-.488-.8-1.263-.364-1.644.25M132.235 73.298c1.847.171 3.693 1.317 5.757.361-1.718-.44-3.665-1.63-5.757-.36" fill="#FFFFFE"/><path d="M49.658 93.625c-.58-.788-1.086-1.687-1.707-2.411-.153.023-.354.122-.404-.017-.168.002-.163.113-.15.23.845.594 1.306 1.777 2.261 2.198M129.667 74.337c1.953.124 3.836 1.37 5.968.417-1.924-.222-3.833-1.667-5.968-.417M49.154 91.254c.793.843 1.374 2.006 2.343 2.574-.838-.768-1.054-2.494-2.343-2.574M206.461 58.213c-.22.08-.11.366-.417.388.06.238.217.337.46.297-.145-.314.068-.395-.043-.685M54.884 94.298c-.045-.954-.984-1.952-.876-3.182-.514.028-1.07.124-1.492.018-.152.692 1.432 2.852 2.368 3.164M202.807 59.784c.121.109.295.134.44.204.388-.134.489-.45.875-.584-.422-.593-1.036.001-1.315.38M198.992 60.595c.138.376.583.283.81.52.351-.236.576-.554.927-.791-.655-.545-1.156-.307-1.737.27M54.599 91.088c.677 1.23.958 3.065 2.22 3.394-.16-1.14-1.141-2.11-1.435-3.463-.345.15-.48-.017-.785.069M56.283 91.027c.813 1.143 1.122 3.056 2.349 3.563-.442-1.206-1.07-2.216-1.167-3.615-.393.016-.723-.061-1.182.052M121.728 77.315c.576.607 2.511.401 2.14 1.626.64.14 1.299-.417 1.982-.518-1.204-.63-2.45-1.192-4.122-1.108M205.122 59.888c-.326-.234-.483.336-.819.37.127.31.495.249.693.448.381-.053-.115-.676.126-.818M197.192 61.968c.296.265.678.389 1.096.461.231-.179.362-.421.682-.54-.39-.74-1.299-.466-1.778.08M119.025 78.189c1.207.539 2.692.652 3.856 1.261.214-.11.404-.23.742-.256-1.51-.374-2.526-1.5-4.598-1.005M202.015 60.744c-.521.155-.669.55-1.024.813.366.07.972-.407 1.024-.813M115.366 79.26c-.202.348.685.392 1.115.558.465.18.984.66 1.36.307-.732-.433-1.69-.514-2.475-.864M61.252 90.964c.45.676.91 1.49 1.38 2.282.41.688.733 1.764 1.587 1.842-.71-1.465-1.532-2.765-2.28-4.175-.292.112-.373-.094-.687.05M106.273 81.49c1.25.335 2.8 1.775 4.36 1.752 1.218-.02 2.238-.79 3.427-1.225-1.138-.259-2.382-1.379-3.782-1.379-1.27.005-2.405.706-4.005.852M194.358 63.166c.487.344 1.099.496 1.651.74.558-.189.893-.517 1.332-.78-.728-.873-1.675-.28-2.983.04M202.182 61.997c.501.49 1.303.517 1.882.89.347-.24.616-.531.93-.793-.894-.517-1.952-1.16-2.812-.097M66.152 95.27c-.672-1.396-1.473-2.605-1.994-4.232-.301.16-.675-.212-.785.068.377.755.844 1.573 1.289 2.303.42.696.76 1.593 1.49 1.862M126.573 78.069c.306.008.328-.17.553-.215-.123-.2-.708-.177-.553.215M65.36 91.08c-.177.01-.175.131-.074.116.887 1.53 1.51 3.468 2.82 4.356-.319-1.4-1.506-2.555-1.825-4.37-.352.034-.664.01-.92-.102M117.809 80.43c.121.185.312.27.33.623.292-.084.713-.086.837-.28-.372-.143-.654-.426-1.167-.343M200.477 63.351c.628.379 1.401.54 2.073.848.355-.096.4-.393.68-.542-.914-.268-1.916-1.339-2.753-.306M67.408 91.338c-.05.678.733 1.598 1.213 2.418.463.793.76 2.086 1.725 2.014-.59-1.447-1.39-2.569-1.731-4.39-.454.064-.792-.045-1.207-.042M72.294 96.048c-.654-1.338-1.375-2.581-1.653-4.504a2.99 2.99 0 0 1-1.014-.082c-.168 0-.163.113-.148.228.44.702.859 1.589 1.305 2.4.412.744.69 1.781 1.51 1.958M205.42 62.695c-.172.163-.452.254-.376.576.147.07.375.016.442.205.198-.114-.077-.54-.067-.78M199.433 64.068c-.225.348-.74.505-1.024.81.625.474 1.403.708 2.115 1.04.61-.15.67-.659 1.213-.852-.716-.414-1.464-.778-2.304-.998M196.27 65.136c-.283-.096-.894.295-1.429.304.348.57.975-.2 1.43-.304M71.465 91.664c.521 1.883 1.54 3.005 2.266 4.572.352.133.737.216 1.152.254-.718-1.46-1.486-2.84-1.91-4.749-.46-.09-.974-.096-1.508-.077M203.508 64.492c.607.375 1.304.603 2.053.75.042-.325.144-.616.086-1.008-.843.463-1.522-.775-2.14.258M196.38 66.106c.674.642 1.61.883 2.459 1.26.486-.095.546-.466.966-.598-1.016-.539-2.07-1.726-3.426-.662M76.23 92.04c1.157 1.792 2.29 3.614 3.441 5.415.298-.08.372.185.71.05-.47-1.478-2.5-3.677-1.704-5.192-.718-.24-1.612-.215-2.447-.273M201.598 66.285c.306.497.954.467 1.367.801.57-.289 1.006-.66 1.48-1.01-.98-.612-2.087-.955-2.847.21M79.06 92.231c-.085.003-.081.057-.078.117.551.91.968 1.98 1.524 2.947.528.912.984 2.008 1.826 2.487-.415-1.71-1.69-3.194-2.048-5.412a3.242 3.242 0 0 1-1.224-.139M83.748 97.877c.281.026.605-.007.823.12-.387-1.73-1.683-3.489-1.55-5.416-.638.093-1.434-.234-1.891.004.777 1.908 1.748 3.524 2.618 5.292M199.837 67.848c.466.21.866.514 1.423.588.195-.224.39-.457.775-.56-.515-.743-1.677-.92-2.198-.028M205.23 66.504c-.495.223-.716.627-1.213.853.214.34.59.44 1 .48-.03-.51.307-.784.214-1.333M83.768 92.815c.303.986.777 2.047 1.238 3.01.43.907.621 2.247 1.686 2.319-.68-1.63-1.645-3.244-1.815-5.266-.427.066-.63-.207-1.109-.063M197.58 69.417c.437.255.964.372 1.423.592.478-.263.769-.65 1.306-.873-.717-1.017-1.882-.403-2.728.281M85.7 93c-.085.002-.081.057-.076.116.174.915.855 2.074 1.354 3.083.446.898.777 2.404 1.86 2.182-.8-1.457-1.555-2.984-1.894-5.148-.4-.095-.885-.069-1.244-.234M202.142 68.845c.38.216.762.427 1.21.536.183-.292.56-.458.852-.678-.57-.58-1.468-.508-2.062.142M89.965 98.538c.477.153.973.272 1.553.263-.67-1.655-1.476-3.104-1.816-5.263a7.327 7.327 0 0 1-1.837-.203c-.105.005-.183.059-.17.133.21 1.787 1.744 3.43 2.27 5.07M200.171 70.356c.09.283.368.277.35.716.733-.29 1.226-.738 1.863-1.088-.721-.802-1.517-.22-2.213.372M90.64 93.736c.476 2.075 1.337 3.57 2.027 5.32.497.16 1.089.176 1.571.357-.495-1.59-1.712-3.16-1.973-5.53-.583.014-1-.225-1.625-.147M92.972 93.932c-.104.043-.03.107.02.096.465 1.102 1.074 2.188 1.682 3.213.578.973 1.06 2.198 2.054 2.634-1.054-1.782-2.074-3.615-2.836-5.84a5.124 5.124 0 0 1-.92-.103M100.864 100.582c-1.182-1.88-2.896-3.604-3.391-6.119-.378-.009-.729-.058-1.034-.175-.115.009-.168.055-.173.134 1.113 2.11 2.29 4.122 3.564 5.983.332.08.666.155 1.034.177M98.104 94.628c1.417 2.192 2.864 4.327 4.426 6.292.327-.034.624-.028.825.125-.857-1.819-3.194-3.704-3.316-6.235-.715.046-1.196-.269-1.935-.182M100.553 94.9c-.086 0-.082.055-.075.113.866 1.134 1.673 2.453 2.563 3.62.85 1.114 1.783 2.39 3.166 2.697-.866-1.74-2.792-3.605-3.412-5.72.724-.112 1.106.739 1.448 1.182 1.131 1.45 2.204 3.281 3.548 4.497.359-.128.502.073.878-.086-1.113-1.696-2.697-3.32-3.4-5.225.677-.198 1.083.608 1.404.99 1.14 1.35 2.26 2.871 3.392 4.235.51.013.96.119 1.586-.04-.615-.727-1.213-1.633-1.824-2.486-.569-.788-1.475-1.536-1.421-2.474 1.067.377 1.676 1.5 2.395 2.367.72.87 1.489 1.731 2.15 2.615.37-.024.643.104 1.09-.035-1.275-1.525-2.336-3.378-3.551-4.993-3.292-.45-6.847-.503-9.937-1.257M111.595 96.218c.974 1.696 2.532 3.585 3.955 5.008.372-.147.564-.021.879-.087-1.33-1.446-2.47-3.176-3.703-4.762-.386-.038-.807-.022-1.13-.159M113.856 96.531c1.583 1.476 2.647 3.74 4.657 4.563.003-.334-.42-.71-.72-1.039-.898-.974-2.057-2.204-2.83-3.461-.363-.03-.7-.102-1.107-.063M121.337 95.635c-.168.001-.162.111-.15.231 1.331 1.15 2.834 2.769 4.443 4.013 1.025.793 1.67 1.204 3.294.983.05-.298-.593-.764-1.04-1.166-1.216-1.09-2.575-2.511-3.77-3.659-.917-.147-1.923-.156-2.777-.402M125.528 96.133c-.176.008-.175.133-.075.116.913.91 1.872 1.834 2.86 2.663.937.784 1.941 1.734 3.21 1.992.013-.399-.557-.663-.906-.997-1.045-.996-2.191-2.444-3.155-3.592-.703.026-1.312-.087-1.934-.182M128.687 96.45c.64.62 3.443 4.081 4.901 4.313.394.062.726-.128 1.07-.13-1.1-1.416-2.501-2.376-3.521-3.909a22.968 22.968 0 0 1-2.45-.274M132.647 96.8c.028.539.905 1.376 1.515 1.959.64.612 1.472 1.132 2.042 1.645.629-.041 1.305-.154 1.946-.213.15-.284-.326-.534-.56-.774-.723-.73-1.71-1.68-2.493-2.346-.852-.04-1.691-.093-2.45-.271M131.28 24.733c1.062.947 2.65 1.718 4.12 2.496 1.441.763 2.895 1.656 4.436 2.127-.334-.748-1.258-.896-1.962-1.266-2.056-1.083-4.391-2.383-6.595-3.357zm-39.75 5.675c-.114.01-.167.059-.17.134.795 1.25 1.999 2.173 2.903 3.348.264.345.394 1.044 1.005.978-.552-2.05-2.492-3.06-3.738-4.46zm-3.39-.468c-.113.007-.163.055-.17.133 1.663 1.792 3.498 3.428 5.203 5.24.518.556.92 1.394 1.736 1.615-2.057-2.64-4.427-4.791-6.768-6.988zm-4.335-1.654c-.112.036-.046.188-.036.301 3.183 3.36 6.931 6.463 9.956 10.274.367.461.701 1.217 1.372 1.297-1.393-2.554-3.53-4.381-5.424-6.282-1.91-1.92-3.792-3.85-5.868-5.59zm-1.18-4.608c5.589.356 13.01.316 18.667 1.086 1.265.175 3.094.697 3.594 1.912.464 1.123.825 3.13.968 4.554.159 1.545-.647 2.623-.84 3.55.151.103.435.002.687-.05-.273 1.129-.654 2.118-1.436 3.083-.6.736-2.37 1.437-1.54 2.607.477-.048.303-.514.547-.713.324-.119.59-.274 1.027-.317 2.706-2.095 4.452-7.787 2.697-12.171-.16-.393-.506-.716-1.063-.765-.324-.717-.598-1.512-1.11-1.946-1.049.056-2.166.218-2.773-.401-4.026-.461-8.004-.984-12.132-1.286-.057.105.133.174.135.169-.03.2-2.505 0-3.479.047-1.611.078-2.983.296-3.949.64zm-20.82-2.316c.102.303.513.132.821.123-.857.436-1.132 1.599-1.944 2.098-.275.173-.662.099-.936.298-1.214.881-2.246 3.607-2.097 5.6 1.123-1.13 1.426-2.788 2.328-4.061.29-.11.37.1.686-.048 1.141-1.634 2.87-2.891 4.137-4.447 4.152-.881 7.914-1.89 11.841-2.419 2.166-.29 4.63.21 6.964.404 3.135.257 6.103.386 8.91.189-.502-.462-1.239-.298-1.88-.395a160.879 160.879 0 0 0-9.816-1.184c-1.337-.12-2.704-.382-4.037-.232-2.086.235-4.402.931-6.654 1.511-1.938.503-4.058 1.538-5.85 1.543-.483.563-1.642.686-2.473 1.02zm4.633 2.586a5.594 5.594 0 0 0-3.56 4.818c.64-.799.932-1.792 1.538-2.607.61-.814 1.533-1.3 2.022-2.211zm1.561 39.213c1.723.885 3.939 2.096 5.845 3.122.83.447 2.261.708 2.007 1.949-3.061-1.36-6.03-3.3-8.977-4.728-1.017-.498-2.11-1.01-3.222-1.103.711.904 1.87 1.167 2.846 1.673 2.976 1.555 5.792 3.327 8.787 4.777-.49.04-.994.094-1.468.112-.186-.264-.433-.43-.64-.658-3.008-1.008-5.388-2.977-8.341-4.073 2.523 1.748 5.25 3.19 7.963 4.648-1.087-.01-2.125-.096-3.208-.109-1.078-1.413-3.01-1.513-3.954-3.125-1.992-1.003-4.317-2.172-6.344-3.11-.579-.271-1.917-.442-1.601-1.444 1.445.674 2.741 1.587 4.248 2.172.891-1.1-1.215-1.649-2.26-2.199-1.022-.539-2.314-.87-2.086-1.834.635.198 1.258.95 1.937.68.076-1.498-2.287-.749-2.11-2.43.208-.209.65.156.723-.351-.248-.738-1.053-.97-.707-1.931.24-.239.509.554 1.054.27.467-1.002-.83-1.158-1.168-1.733.032-4.233.48-8.637.167-12.82-.313.015-.157.335-.534.31-.21 1.717-.092 3.648-.477 5.255-1.569-.95-1.381-2.221-1.327-4.375.155-6.535.606-14.003 3.543-18.496.979-1.497 2.752-2.82 3.603-4.134 4.16-1.97 10.121-2.902 15.175-3.624 6.089-.87 11.58.158 16.697.712.329.578 1.109.477 1.8.51.216.09.111.668.427.604.298-.054.208-.357.628-.332 2.083.53 4.437.53 6.83.728 2.281.19 4.737.508 7.206.154 1.446-.208 2.867-.86 4.388-.932.456-.022.96.234 1.437.187 1.75-.165 2.787-1.14 3.817-2.197.338.11.603.333 1.128.155.155-.84.003-2.462-.63-3.433.494-.125.448.574.978.386-7.17-7.876-20.802-6.53-34.374-4.191 5.264-.158 10.724-.918 15.685-.754 5.118.165 9.462.717 13.504 2.58 1.098.507 2.494.83 2.254 1.702-1.253.192-1.828-.447-2.76-.8-1.968-.75-4.06-1.45-6.25-1.747-3.28-.446-6.164-.298-9.883-.077-2.189.13-5.453.964-7.9 1.28-2.448.316-5.197.736-7.502.803-1.003.027-1.814.187-2.997.439-1.794.38-3.685 1.207-5.299 1.325 1.945-1.23 4.02-2.582 6.286-3.718 2.237-1.119 4.7-2.447 7.19-3.213.745-.229 1.778-.242 2.302-.885-.371-.142-1.006.116-1.396 0 .57-.166.012-.735-.255-.74 1.48-.045 2.726.268 4.075.423-.296.054-.519.154-.626.33 4.212-.448 8.118-.039 11.57.518 1.05.168 2.255.46 3.29.487.16.007.381-.2.554-.215.554-.055 1.37.395 2.09.447.408.031.783-.161 1.067-.128.411.047.805.366 1.19.441 1.073.207 2.187-.008 3.253.301 1.318 1.247 3.52.852 5.066 1.796 1.54.943 2.294 3.058 2.694 5.179-.451.099-.648-.182-1.109-.063a3.008 3.008 0 0 1-2.02 2.211c.129 1.311-2.182 1.61-2.59 2.832.301-.074 1.247.147 1.738-.27.686.46 1.941.714 2.345 1.189-1.489-.492-3.296-.485-5.016-.622-.34 0-.037.412-.418.388-.577-.288-1.316-.331-2.065-.355-.203.307.198.335.312.53-.687.049-1.993-.699-2.37.106.633.276 1.38.482 2.128.637 2.365.489 4.773 1.233 6.979 1.888-.923.456-1.991-.05-2.852-.288-2.82-.784-5.646-1.504-8.372-1.889.189.475.599.628.965.788 1.888.83 4.264 1.138 6.439 1.703 2.2.572 4.412 1.183 6.591 1.474-.749-.583-.225-.97.155-1.619 1.91-.483 3.302-1.306 4.16-2.467a767.402 767.402 0 0 1 10.051 5.097c.216.803.59 1.36.844 2.1-3.465-1.312-7.266-3.871-10.758-5.147 3.447 2.515 7.41 4.245 11.268 6.13.178 1.516 1.937 3.21 1.96 4.538.015.925-1.489 2.04-2.129 2.635-.93.857-1.908 1.508-2.363 2.482 1.92-1.294 3.546-2.783 4.826-4.493.098.604.433.84.512 1.476-2.37 2.181-5.631 4.22-7.035 6.749 2.843-1.793 4.836-4.132 7.366-6.122.14.247.236.559.371.81-3.38 2.535-6.563 5.2-10.255 7.535-.53-.847-1.886-1.444-2.396-2.369-.574-1.033-.783-2.625-1.25-3.996-1.283-3.772-2.74-8.06-4.29-11.28 1.13 5.181 3.222 9.565 4.42 14.227-.457-.31-.6-1.095-1.386-.895.154.914 1.347 1.18 1.817 1.994.701 1.208.754 2.79 1.193 4.205-1.066-1.134-2.267-2.056-3.434-3.035-1.006-4.163-2.342-7.815-3.343-11.979-.062-.336.358.137.266-.155-.968-.657-.66-3.26-1.554-4.03.046 1.039.457 2.314.512 3.357-.909.19-1.466-1.285-.899-1.888-.992-.743-2.565-.596-3.345-1.666-.115.086.066.367-.108.42-.568-.222-1.241-.282-1.354-1.202 1.773.096 3.347 1.168 5.001 1.02-2.743-1.581-6.221-2.037-9.472-2.844-.147-.195-.183-.56-.35-.718 2.865.456 5.866 1.088 8.466 1.867.847.253 1.763.855 2.606.536-.927-.805-2.224-1.093-3.399-1.457-3.657-1.142-7.542-1.859-11.326-2.648.306-.05.575-.12.625-.332-3.26.427-6.52.182-9.304.293.397.233 1.52.018 1.572.36-9.244-.889-18.128-3.001-29.757.18 1.18.066 2.462.999 3.489.943 3.791-.204 7.646-.562 11.46-.455 3.794.108 7.357.46 10.734.792.233.06.34.321.579.374.171-.08.114-.307.434-.29 4.562 1.205 10.146 2.074 11.351 8.39.123.244-.464.028-.342.27.493.357.595.772.514 1.477.702.31.587 1.86 1.043 2.552-.474.015-.784-.223-1.17-.344-.527-1.79-1.082-3.54-1.777-5.075.457 2.667.097 4.256.628 6.706-.282-.32-.312-1.028-.59-1.36-.001.5-.677.897-.595 1.413.008.047.423.327.503.49.318.635.36 1.675.715 2.427-.072.26-.703-.338-.88.085.584.449 1.339.638 1.474 1.768-.655.039-1.06-.303-1.593-.456-.292-1.182-.542-2.433-1.011-3.352-.65.536.17 2.272.361 3.094-.53.102-.966-.612-1.438-.187.319.682 1.286.38 1.315 1.504-.445-.028-.73-.305-1.167-.346-.32-.812-.444-1.917-1.002-2.365-.139.497.037 1.495.328 2.01-.074.23-.89-.372-.953.203.609.453 1.37.673 1.492 1.866-.413.11-.799-.358-.971.106.77.326 1.432.821 1.475 2.264-2.132-.046-1.533-4.271-2.719-5.767-.373 1.29.699 3.508.664 5.012a11.797 11.797 0 0 0-1.629-.643c-.442-.666-.306-2.217-.872-2.687-.43.457.117 1.548.198 2.335-.372.06-.765-.496-1.11-.062.682.507 1.782 1.042 1.539 2.548-.454-.185-.902-.383-1.399-.493-.333-.565-.22-1.95-.963-2.177-.115.47-.04 1.067.06 1.672-.272-.01-.221-1.592-.822-1.51-.316.913.147 2.332.364 3.59.006.22-.526.096-.417.384.412.215.94.908.743 1.628-.385-.204-.861-.267-1.207-.536-.339-1.41-.588-2.958-1.153-4.017.51-.323 1.05-.632 1.018-1.308-4.81 1.534-10.214 2.274-14.558 2.3-2.373-4.114-6.54-6.158-8.356-10.71 2.664 3.063 5.953 5.846 8.488 9 .343.426.382 1.172 1.217 1.028-.358-1.714-1.76-2.804-2.836-3.957-2.054-2.199-4.26-4.096-5.206-7.615 2.71 3.28 5.862 6.583 8.387 9.915.32.424.656 1.293 1.426 1.086.016-1.17-.964-1.964-1.58-2.74-1.932-2.438-4.19-4.62-5.114-8.129 2.534 2.903 5.494 5.832 7.74 8.761.173.338 1.07 1.707 1.972 1.762.028-1.52-1.383-2.547-2.239-3.491-1.943-2.143-3.755-4.031-5.686-6.124-1.878-2.036-3.774-3.916-4.513-7.168 4.267 4.21 8.554 8.73 12.492 13.302.564.654 1.036 1.438 1.801 1.897-.005-1.04-.926-1.677-1.5-2.359-4.193-4.974-8.717-9.677-13.396-13.804-.638-1.074-.878-2.762-1.815-3.379.068 2.122 1.858 4.439 2.269 6.456-.661-.616-1.21-1.29-1.913-1.973-.63-.609-1.588-1.138-2.086-1.838-.727-1.019-.705-2.558-1.814-3.377.106 2.063 1.843 4.462 2.193 6.569-.547-1.004-1.837-1.526-2.53-2.538-.747-1.073-.775-2.71-1.872-3.167-.08.712.537 1.439.751 2.12-.163.18-.799-.82-1.035-.176 1.554 1.182 2.695 3.667 3.332 5.835-.566-.87-1.647-1.23-2.358-2.176-1.145-1.536-1.277-3.979-2.862-5.045.149 1.292.997 2.574 1.494 3.748-.017.482-.417-.386-.898-.005-.196-.773-.635-1.512-.98-2.272-.33-.718-.503-1.763-1.303-1.904.363 1.914 1.461 3.378 1.682 5.096-.323-.468-.813-.682-1.213-1.03-.56-1.202-.87-2.778-1.74-3.495-.173 1.336 1.023 2.504.765 3.6.605.54 1.15 1.84 1.269 2.705-1.38-.839-2.142-2.305-2.82-4.353-.148-.454-.055-1.22-.682-1.346-.223 1.934 1.024 4.315 1.768 5.972.104.311-.392.235-.167.626 4.59 4.747 9.584 9.548 13.751 14.526-.378-.137-.814-.186-1.246-.235-4.21-5.074-8.463-10.088-13.36-14.11-.751-1.5-.825-3.892-1.742-5.376-.089.974.312 2.535.532 3.452-.254.24-.754-.044-1.184.056-.97 1.216-1.256 4.592.257 5.893.338.656.853 1.708 1.356 1.694-.517-.728-1.664-1.937-1.754-3.097-.052-.681.408-.895.576-1.511 3.807 3.388 7.55 7.553 10.715 11.5-1.722-.624-2.5-2.15-3.766-3.66-1.528-1.821-3.078-3.42-4.643-4.958-.722-.71-1.569-1.93-2.58-1.833.333 1.044 1.502 1.472 1.762 2.206-.049-.269-.636-.144-.572.121.695 1.537 2.738 2.76 3.562 4.097-1.009-.311-2.421-2.565-3.4-1.455 1.035 1.5 2.72 2.394 4.152 3.575 2.458 2.033 4.432 4.484 7.738 4.996 1.144.804 2.89.69 4.16 1.297 1.5.013 2.732.428 4.192.5-.08-.244-.133-.47.207-.442.427-.132.438.38.5.49 1.183-.52 2.56.401 4.032-.262-.408-.245-.798.296-1.245-.235.69-.092 1.266-.012 2.042-.237.177.024.089.456.293.437.368-.144 1.036-.093 1.218-.359-.232.017-.432-.01-.538-.183l.952-.202c.251-.01.046.685.486.393.526-.076-.39-.573.28-.556.269.168.467.455 1.034.178-.062-.696.895-.734 1.594-.934.395.826.322 1.682.489 2.768-.696-.104-1.345-.289-1.54-1.157-.658.285-1.302.577-2.021.824.082.297.126.571-.047.705-.873-.98-1.976.043-3.42.33-.953.19-2.235-.16-2.443.221-.35.64.406.27-.115-.074-.493-.324-3.477.388-3.974.052.084.49.316 1.08.09 1.367a2.033 2.033 0 0 0-.98-.385c-.126-.307-.064-.907-.316-1.021-.15-.106-.462.034-.611-.068.08.293.124.567-.05.703-.411-.125-.702-.44-.965-.79-.86.36-2.224-.464-3.235-.2.736.234 1.301.753 1.21 1.923-.052.135-1.056-.323-1.146.244.64.621 1.562.557 1.44 2.07-.661-.263-1.321-.118-1.653-.738-.51-.95.238-3.674-.998-3.753.296 2.155.51 4.255.527 6.232-.48-.356-1.225-.304-1.651-.738-.184-1.118-.256-2.424-.4-3.284-.148-.893.208-2.19-.584-2.753-.122.85.11 1.926.109 2.854-.858-.238-1.752-.422-2.625-.634-.36-1.207-.46-3.486-1.34-3.48.292 1.171.278 2.143.61 3.338-2.188-.215-4.258-.603-6.527-.694 2 .8 4.477.859 6.67 1.36.252.98.354 1.862.485 2.769-3.032-.256-6.165-1.034-8.863-1.387 1.018 1.078 2.71 1.212 4.201 1.485 1.55.283 3.191.653 4.749.776.09.413.244.867.032 1.084-1.478-.022-3.015-.29-4.57-.416-1.556-.128-3.26-.403-4.493-.039 2.873.838 6.28.86 9.362 1.381-.065.507.27 1.27.054 1.674-2.423-.378-5.408-.581-7.939-.79-.752-.06-2.009-.483-2.425.318 3.36.637 7.02.814 10.525 1.231.235.37-.531.091-.3.46.284.28.575.545.72 1.039-1.366.406-2.423-.732-3.757-.79-.382.44.744.561.259.74-1.301-.242-1.966-.267-3.46.138l.041.19c.898.091 1.62.458 2.662.325zM102.508 3.296c.725.566 2.05 1.299 3.378 1.364-.905-.794-1.823-1.567-3.378-1.364M117.392 4.392c.555 1.035 2.134 1.59 3.254 2.185-.417-1.253-2.368-1.24-3.254-2.185" fill="#FFFFFE"/><path d="M94.014 11.641c1.116.602 2.253 1.162 3.593 1.418-.847-.506-2.29-1.187-3.593-1.418M125.214 8.38c-.075.247.453.642.678.85-.232.014-.391-.077-.688.045.386.934 1.54 1.03 2.291 1.395.798.391 1.507.933 2.344 1.185.206.148.236.562.598.47-.06-.584-.284-.906-.398-1.403-1.719-.68-3.14-1.816-4.825-2.541M110.651 12.071c1.196.931 3.229 1.221 4.744 2.164.39.241.634.85 1.232.628.097-.246-.738-.633-1.177-.84-1.455-.686-3.324-1.292-4.799-1.952M70.564 28.819c.198 1.202 1.136 2.367 1.944 3.055-.167-1.255-1.047-2.505-1.944-3.055M128.426 20.683c-1.623-.687-3.42-1.374-5.127-2.084-.46-.192-1.148-.78-1.647-.245 1.518.822 3.266 1.285 4.672 2.28-.773.035.223.405-.239.747-2.523-.36-4.432-1.364-6.708-1.55-.854-.071.603.32.882.405 1.555.484 3.281.986 4.644 1.69 1.345-.48 2.325-.688 3.523-1.243M107.25 24.193c.779.486 2.637 1.486 3.542 2.615-.7-1.104-2.05-2.302-3.542-2.615M121.822 21.492c.237.028 1.388.796 2.244.713-.668-.362-1.475-.509-2.244-.713M112.27 25.306c.037.319.77.66.95 1.187.194-.148-.092-.604-.086-.875-.256-.16-.62-.14-.865-.312M164.481 17.776c2.88-.008 6.593.044 8.962-.021-2.891-.139-5.497-.714-8.962.021M151.64 24.87c-.445.13-.804.135-1.166.144 2.99 1.125 6.157 1.965 9.131 3.115-.36-.52-1.119-.512-1.745-.719-1.835-.61-3.925-1.46-5.892-1.92-.12-.187-.314-.271-.328-.62M148.474 25.44c.504.734 1.255 1.093 2.075 1.343-.165-.756-1.23-1.213-2.075-1.344M196.6 39.495c-.306-1.75-1.096-2.762-1.744-3.99-7.9-3.89-15.706-8.065-24.357-10.982-1.165-.39-2.526-.556-3.496-1.435.604-.746 1.628.05 2.356.292.882.292 1.788.525 2.551.745-.009-.22-1.896-.338-1.827-1.096.768-.563 1.682.14 2.372.385 5.36 1.917 11.006 4.008 15.958 6.62-4.028-3.351-9.658-5.279-15.105-7.295-2.605-.966-6.184-1.075-10.093-.136 10.018 3.347 19.647 7.292 28.71 12.237 1.242.676 2.816 1.101 3.6 2.405-.722.769-1.548-.147-2.09-.445-8.204-4.6-17.354-8.666-26.543-11.903-1.737-.61-3.614-1.086-5.11-1.99-.415.031-.616.202-.93.299 9.217 3.144 18.218 6.672 26.821 10.85 2.82 1.373 5.693 2.804 8.175 4.708-.744.337-1.631-.088-2.28-.41-2.1-1.034-4.17-2.257-6.38-3.301-8.577-4.043-17.549-8.06-26.936-10.927 1.147 1.56 3.424 1.848 5.531 2.591a222.667 222.667 0 0 1 13.362 5.188c6.026 2.587 11.48 5.66 17.455 7.59M158.99 24.297l-.12-.571c-.191-.083-.616.206-1.05.223.578.373 1.366.424 1.96.775.058-.172-.6-.973-.79-.427M151.79 26.52c.04.356.687.874 1.12 1.048.044-.486-.652-.923-1.12-1.049M150.847 27.71c.548.628 1.362 1.935 2.452 2.157-.733-.852-1.317-1.926-2.452-2.156M162.8 26.756c.86 1.897 2.646 2.16 4.814 2.943 6.561 2.371 12.795 5.013 19.24 8.002 1.6.743 2.531 1.612 4.467 1.328.072-.268-.385-.427-.506-.484-4.161-2.173-8.807-4.042-13.232-6.009-4.869-2.17-9.936-3.946-14.782-5.78M115.092 37.194c-.103.5.224 1.422.556 1.667-.042-.274-.227-1.41-.556-1.667M160.756 28.38c1.102.698 2.531.902 3.703 1.492-.767-.708-2.48-1.059-3.703-1.491M149.361 31.497c.06.284.59.937 1.1.957-.296-.428-.64-.784-1.1-.957M162.768 30.333c.652 1.216 2.637 1.486 4.014 2.022-.906-1.342-2.725-1.281-4.014-2.022M151.448 33.827c.728.735 1.464 1.45 2.169 2.217-.44-.67-1.304-1.777-2.169-2.217M156.187 33.614c.195.583 1.023 1.281 1.72 1.518-.153-.648-1.033-1.266-1.72-1.518M159.412 34.715c0 .373.69.776.947 1.183-.007-.368-.66-.827-.947-1.183M28.132 63.61c-.003.214.704.427 1.096.46-.075-.601-.744-.29-1.096-.46M158.759 36.337c.177.529.944 1.24 1.603 1.447-.177-.527-.939-1.24-1.603-1.447M193.327 30.18c-.202.184.466.512.256.739-.185.394-.425-.178-.708-.046 2.238 2.229 4.21 4.87 5.578 8.426 1.006-3.883-3.014-7.115-5.126-9.12M166.225 37.232c.614 1.444 2.489 2.05 3.947 2.627-.567-1.518-2.483-2.065-3.947-2.627M161.062 38.724c.032.578.874 1.005 1.368 1.292-.093-.481-.849-1.043-1.368-1.292" fill="#FFFFFE"/><path d="M191.133 32.53c.06.278 1.71.77.423.108-.149-.078-.2.049-.423-.107M159.601 39.826c.444.666 1.273 1.823 2.24 2.102-.708-.76-1.326-1.66-2.24-2.102M127.14 47.915c-.133-.274.104-.312-.027-.59-.237-.054-.463-.125-.65-.258-.206.09.06.478.043.685.3.046.523.205.769.334.128-.061-.029-.17-.134-.171M148.1 43.857a117.22 117.22 0 0 1-7.093 5.075c.673.27 1.478-.328 2.037-.729 1.71-1.214 3.513-2.973 5.056-4.346M170.793 39.034c.164.627 1.006 1.305 2.094.942-.622-.428-1.432-.574-2.094-.942M123.426 49.2c-.05.047.142.783.298.932.098-.122-.168-.745-.298-.932M163.518 41.374c.398.687 1.29 1.71 2.144 2.12-.38-.72-1.267-1.748-2.144-2.12M151.078 45.208c-.474.146-1.553.899-1.15 1.63.452-.5.7-1.133 1.15-1.63M56.142 65.982c-.006.507.75.943 1.232 1.124.225-.85-.868-.764-1.232-1.124M149.57 47.013c-.662.651-1.74 1.82-2.61 2.737-.227.244-.673.61-.525.804a64.72 64.72 0 0 1 1.74-1.657c.526-.48 1.552-.936 1.394-1.884M57.715 66.836c.236 1.03 1.887.962 2.864 1.275-.532-.488-2.123-1.106-2.864-1.275M73.354 63.512c.177.44 1.23.628 1.71 1.02.161-.17-.07-.589.03-.798-.55-.118-1.194-.097-1.74-.222M164.88 45.442c-.018.373.645.776 1.005.978.038-.396-.625-.799-1.005-.978M10.012 86.192c-.596-1.752.976-3.51 1.625-5.002-1.563-.83-3.256-1.462-4.932-2.127-.522.402-.62 1.275-.86 2.068-.199.677-.683 1.644-.624 2.215.106 1.032 1.024 1.768 1.481 2.756 1.057.145 2.373.626 3.581.429.173-.026.377-.215.552-.218 1.223-.004 2.661.913 3.669-.086-1.258-.334-2.921-.05-3.72-1.09 1.163-.34 3.692-.633 4.326.667.472-.35.91-.723 1.48-1.01-1.544-.608-3.774-.168-5.19-.976 1.695.037 1.712-.88 2.33-1.687-.217-.461-.79-.38-1.133-.652-1.17 1.372-1.367 3.372-2.585 4.713M41.6 73.531c-.05.349-.424.488-.407.88.469.576 1.288.622 1.9.984-.234-.523-1.238-.95-1.492-1.864M39.33 74.114c.226.202.643.106.866.31.054-.307-.405-.645-.866-.31M174.237 46.33c.823 1.337 2.507 1.358 3.732 2.083-.689-1.046-1.844-2.46-3.732-2.084M43.94 74.224c-.486.603.398 1.141.725 1.53 1.172 1.39 2.376 3.131 3.642 4.48.362.383.97.531.951 1.185a.496.496 0 0 1-.227.346c-.687.197-1.24-.536-1.597-.95-1.226-1.416-2.39-3.15-3.588-4.69-.065.159-.528.47-.741.26 1.21 1.957 3.168 3.863 4.783 5.623 1.056-.31 2.453.167 3.186-.48-.254-.352-.415-.102-.897-.007-2.51-1.774-4.224-4.763-6.237-7.297M160.32 49.782c.399.316 1.01.301 1.422.59-.044-.349-.948-.474-1.422-.59M39.901 75.378c-.18.7 1.06.304 1.422.59.04.302-.44.262-.724.353 1.55 1.984 3.153 3.887 4.728 5.836.395-.016.726.06 1.186-.055-1.758-1.998-3.442-4.119-5.117-6.248a10.251 10.251 0 0 1-1.495-.476M45.32 74.626c.635.912 1.347 1.704 2.036 2.539-.28-.457-1.201-2.095-2.035-2.54M15.213 81.12c.72.452 1.925 1.245 3.243 1.198-.916-.655-2.03-.998-3.243-1.197M37.872 78.487c.933 1.458 2.491 3.055 3.813 4.344.566-.16 1.059-.198 1.544-.228-1.775-1.81-3.418-3.819-5.107-5.755l-1.335.284c.418.667 1.68.678 1.792 1.402-.138.322-.57.048-.707-.047M163.22 50.752c.211.264.625.217.882.406.131-.288-.559-.393-.883-.406M176.557 48.808c-.027.346.835.397 1.135.653.03-.343-.877-.33-1.135-.653" fill="#FFFFFE"/><path d="M100.313 71.26c-4.705-.589-3.126 6.275-.393 6.13.697-.034 1.595-.717 1.96-1.11 1.412-1.53.51-4.696-1.567-5.02zm8.252-1.953c-1.911.064-3.267.745-3.456 2.024-.364 2.487 2.246 4.66 4.431 3.022 1.402-1.048.528-4.214-.975-5.046zm-17.592 9.588c.66-.153 1.306-.21 1.675-.555.752-.697.747-3.093.455-3.96-.447-1.326-2.06-2.154-3.42-1.554-.81.36-1.614 1.757-1.52 2.703.161 1.6 1.557 2.87 2.81 3.366zm24.664-11.485c-1.475-.14-2.633.932-2.767 1.975-.183 1.382.868 3.118 1.813 3.379 1.272.356 2.895-1.026 3.015-2.224.153-1.517-.93-3.025-2.061-3.13zm6.956-1.972c-3.893-.089-2.952 4.705-.574 5.272 2.732.653 3.948-2.853 2.532-4.501-.33-.384-1.084-.752-1.958-.771zM78.818 75.63c.081 1.478 1.118 2.384 1.012 3.352.551.425 1.102 1.195 1.987 1.366 2.806.545 3.115-1.627 2.881-3.785-.413-3.787-4.152-3.404-5.88-.933zm48.8-11.858c-.297.927-.544 3.411.659 4.025 1.146-.753 3.181-.769 3.2-2.27.014-.67-.43-1.571-.86-2.192-.764.05-2.162-.447-3 .437zm6.142-2.989c-1.457 2.473 1.582 6.112 3.712 3.868 1.001-1.051.095-4.095-1.349-4.472-.363.041-.543.194-.491.502-.584-.028-1.153-.084-1.872.102zm13.748-6.59c-3.205-1.393-3.105 4.21-.96 4.861.904-.478 1.58-.146 2.144.238.05-.186.213-.296.071-.608.534-.037.708-.304.985-.507.257-1.538-.502-4.295-1.941-4.443-.215.077-.433.155-.3.46zm2.915-4.09c-1.25 1.25-.6 3.544 1.17 3.62.29.18-.158.244.025.587 2.33 1.443 2.712-2.395 1.35-3.955-.963.096-1.294-.786-2.545-.252zm-7.706 8.278c-.46-1.012-1.733-1.313-2.952-.76-.716.926-.512 3.986.873 4.572.36.155.727-.045 1.13.157.068.27.079.635.257.74.664-.173.749-.716 1.056-1.12.757.11 1.087-.478 1.406-.89-.222-1.374-.338-3.897-1.8-3.78.026.692.947 2.242.318 2.904-.125-.782-1.688-2.391-.288-1.823zM52.606 69.507c.324.382.895.648 1.404.992.464.31 1.212.638 1.195.934-2.39.324-2.657 4.215-.726 5.01 2.048.846 3.248-1.905 3.134-3.538 2.06 1.077 4.801 1.11 5.417 4.398.718.292 1.211.878 1.98.868 2.016-.03 2.994-2.032 2.099-3.719 1.328.181 2.87.048 4.302.079-1.125 1.505.253 4.77 1.927 4.843 2.252.096 3.103-2.228 2.155-3.925-.349-.624-1.16-.816-1.22-1.527 12.539-.849 26.074-3.677 38.588-6.913 8.273-2.14 15.592-4.484 21.801-7.61 4.45-2.236 8.652-4.522 12.116-7.233 1.152-.902 2.06-2.116 3.255-2.973.203-.145.365-.297.742-.253-.18-.363.058-.454.164-.63 1.001-.695 1.722-1.995 2.555-2.526.287 1.527 1.504 2.742 1.69 4.2.088.713-.388 1.724.538 2.068-1.11.802-1.675 2.147-2.601 3.227-.903 1.048-1.545 2.382-2.489 3.303-.902.88-2.666 1.856-4.193 2.775-1.537.927-3.242 1.671-4.885 2.329-7.058 2.822-13.598 6.077-21.261 8.285-3.952 1.137-7.839 2.687-11.484 3.628-3.873 1.005-7.696 1.736-11.898 2.629-7.107 1.51-13.45 3.034-18.934 2.338-8.617-1.085-17.56-2.142-25.392-4.115-.156.303.103.772.297.925-.546-.124-1.055-.311-1.44-.682.473-2.394-.137-5.486.546-7.748.395.148.574 1.294.929 1.09-.119-.083-.509-.377-.311-.529zM171.895 50.792c.068.822 1.474.676 2.19.922-.344-.394-1.544-.566-2.19-.922M169.204 52.651c.563.397 1.837.792 2.877.878-.88-.416-1.863-.668-2.877-.878" fill="#FFFFFE"/><path d="M188.113 79.26c.465.594 3.037.261 2.588-.946-.62-.09-1.945.534-2.588.946zm11.725-6.256c-1.565.9-2.89 2.134-4.982 2.346-1.59.163-3.432-.955-4.663.1 1.54.742 3.263 1.204 5.553.802.286-.172.213-.57.43-.788 1.828-.425 3.13-1.195 3.662-2.46zm-79.626 15.932c-.154.106.022.177.061.286 1.433.447 2.675 1.848 4.092 1.905-1.195-1.02-2.794-1.418-4.153-2.19zm34.823 1.619c-.944-1.087-2.457-1.423-3.71-1.988-3.89-1.75-7.82-3.722-11.888-5.302-.16.008-.148.124-.267.156 3.939 1.845 7.723 3.845 11.76 5.626 1.295.575 2.63 1.344 4.105 1.508zm23.125-5.61c-3.693-2.934-7.861-5.146-12.026-7.355-.116.008-.166.055-.172.136 2.97 1.935 6.05 3.657 9.066 5.606.972.625 1.859 1.6 3.132 1.614zm-58.789 3.774c.59-.3.702-.91 1.226-1.254 3.03.521 4.75 3.04 7.744 3.61-.021-.419-.9-.747-1.52-1.066a32.733 32.733 0 0 1-1.81-1.003c-1.827-1.071-4.762-3.46-5.64-.287zm5.874-2.833l-.284.06c.231.579.929.734 1.403.989 1.396.746 2.847 1.648 4.307 2.452 1.942 1.07 3.879 2.256 6.093 2.87-.611-.958-1.819-1.212-2.751-1.695-2.843-1.467-5.775-3.155-8.673-4.697l-.095.02zm48.404-11.382c-.116.062-.115.201-.246.251 2.932 1.687 5.686 3.835 8.589 5.71.896.578 1.778 1.514 2.9 1.462-.563-.918-1.632-1.414-2.527-2.04-2.635-1.843-5.513-3.798-8.485-5.233-.045-.097-.204-.022-.231-.15zm-52.903 10.849c-.159.007-.145.126-.264.156 3.057 1.608 5.88 3.46 8.963 5.132.969.527 2.096 1.284 3.339 1.174-4.03-2.13-7.92-4.467-12.038-6.462zm48.777-10.567c-.168.003-.165.113-.15.23 4.273 2.061 8.29 4.698 12.314 7.296.49.318 1.098.9 1.748.719-.048-.723-.883-1.057-1.393-1.388-3.853-2.489-8.046-5.177-12.52-6.857zm-10.984 2.238c1.166 1.067 2.758 1.515 4.153 2.19 3.453 1.67 6.993 3.533 10.268 5.647.593.381 1.332 1.037 2.147.734-4.827-3.92-10.696-6.25-16.568-8.571zm-33.792 6.984c1.015.94 2.384 1.44 3.631 2.103 3.03 1.606 6.027 3.305 9.213 4.88.52.255 1.262.988 1.877.394-1.026-.862-2.309-1.32-3.498-1.932-3.524-1.81-7.307-3.935-11.033-5.486l-.19.04zm5.53-1.176c4.05 2.183 8.208 4.569 12.668 6.626 1.822.838 3.327 1.812 5.468 1.81-6.255-2.409-11.81-5.886-17.87-8.59-.16.003-.146.122-.267.154zm2.057-.636l-.19.04c.458.77 1.49.822 2.227 1.11 5.109 2.024 10.182 5.206 15.24 7.47.315.14 1.023.12 1.038.671.199-.147-.087-.605-.083-.873-5.907-3.066-11.678-6.341-18.232-8.418zm45.383-9.646l-.285.06c.414.888 1.52 1.103 2.332 1.587 2.39 1.43 4.764 3.348 7.273 4.697.073-.961-1.12-1.46-1.796-1.898-2.328-1.502-4.976-3.145-7.428-4.467l-.096.02zm-3.546.656c1.827 1.514 4.001 2.5 5.986 3.782 1.982 1.281 3.819 2.782 5.836 4.013.215-.105.404-.228.74-.257-4.094-2.655-7.777-5.943-12.562-7.538zm8.293-1.762c.323.769 1.233.845 1.85 1.191 1.839 1.03 3.56 2.475 5.523 3.484-1.75-2.517-4.512-3.481-7.087-4.736l-.286.06zM126.99 82.838l-.192.04c.116.738 1.273.85 1.945 1.171 4.867 2.354 9.545 5.855 15.029 7.413-.238-.911-1.282-.98-1.963-1.266-4.969-2.096-9.593-5.33-14.723-7.379l-.096.02zm11.823-2.514c-.16.006-.148.126-.267.156.47.689 1.614.797 2.535 1.146 2.629.999 5.257 2.299 7.839 3.587 3.39 1.695 6.727 3.72 10.393 4.829-1.438-1.19-3.211-1.895-4.864-2.733-3.275-1.658-6.584-3.35-10.013-4.91-1.826-.83-3.605-1.567-5.623-2.075zm26.58-5.748l-.383.081c1.068.91 2.411 1.332 3.617 2.008 3.543 1.98 7.008 4.326 10.471 6.594.387-.048.492-.28.933-.298-.06-.282-.477-.026-.634-.162-4.279-3.335-9.003-5.99-14.003-8.223zm14.038-2.885c3.15 1.882 6.409 3.595 9.087 6.195 1.317.155 4.179.848 5.04-.674-1.223-.556-3.117-.089-4.704-.09-2.849-2.214-5.744-4.361-9.178-5.682-.117.06-.116.2-.245.25zm3.188-3.75c1.281 1.1 2.847 1.758 4.255 2.663 1.41.909 2.658 2.018 3.951 3.126.315-.095.642-.188.817-.373-2.703-2.147-5.438-4.246-8.66-5.593-.21 0-.24.12-.363.177zm.726-1.739c-.187.093-.172.19-.035.305 2.595 1.39 5.397 2.658 8.04 4.534 1.013.72 1.86 2.155 3.364 1.762-3.455-2.712-6.992-5.298-11.369-6.601zm-.997-1.872c-.15.365.52.544.679.845.123-.314-.508-.556-.68-.845zm-19.333-6.101c-.47.429.464.421.222 1.045 2.065.922 4.836 1.34 7.722 1.629 3.604.36 7.323.754 11.251-.508.646-.206 1.673-.18 1.923-.807-2.335.74-4.384.506-6.666.526-1.55.013-3.194-.022-4.533-.226-3.446-.525-6.691-1.338-9.92-1.66zm-9.71 1.669c3.866-.858 6.723-2.368 9.88-3.686a.68.68 0 0 0-.325-.128c-.077-.1-.254-.155-.422-.11-2.788.726-6.435 2.9-9.132 3.924zm20.697 5.016c.451-.168 1.095.28 1.125-.338-.35-.758-1.485-.321-2.429-.177-3.647-1.36-7.76-2.378-11.658-3.272-1.304-.297-2.81-.982-4-.535 1.023.589 2.267.788 3.413 1.058 3.577.841 7.073 1.908 10.488 2.925-1.497-.06-2.636.491-4.18.49-1.157.003-2.653-.732-3.913-1.051-4.174-1.056-7.94-2.202-12.167-2.865.45-.855 1.58-1.27 2.157-2.044.36-.17.348.223.708.05.199-.257.415-.499.642-.733 2.458-.892 4.467-2.077 6.826-3.039-.146-.395-.044-.626.126-.819 6.824.842 13.503 2.693 21.996 1.275 4.04-.677 7.972-2.17 10.988-3.628-1.046 1.02-2.286 1.91-3.255 2.974 1.117.396 2.085-.616 2.835-1.198 1.69-1.308 3.2-2.67 4.503-4.128.562-.63 1.156-2.035 2.183-1.455-.936 1.332-1.495 2.908-3.074 3.826.047 1.108-1.756 1.41-1.486 2.395.81-.08 1.27-1.016 2.11-1.341.15.352-.562.82.238.646-1.197 1.654-2.851 3.014-4.446 4.412-.507.073-.91-.57-1.415-.096-.031.55.432.345.542.679-.657.508-1.288.71-1.67 1.049 1.364 1.1 4.737-.885 5.669.876-.427.162-.637.46-1.064.622-.649-.22-1.407-.81-2.11-.543.033.737 1.03.564.93 1.09-1.2.39-2.493.638-2.962.136.451 1.738 2.434 1.14 3.35 2.163-1.59.98-2.151-.16-3.132.268.816.95 2.507.873 2.93 2.055 1.463-.103 2.227.863 3.283 1.383-1.397 1.521-2.846.212-4.078-.42-1.89-.975-3.389-1.901-5.075-2.79-.85-.447-1.788-1.088-2.686-.913 1.336 1.307 3.638 1.8 4.81 2.94-.347-.154-.964-.75-1.243-.23 1.58 1.35 3.94 1.505 5.495 2.894.241-.008.172-.215.458-.196.668.656 1.66.807 2.46 1.264-.709.25-1.352 1.098-2.144 1.147-.312.021-1.162-.471-1.654-.738-2.735-1.489-5.17-3.2-7.509-4.847-1.008-.71-1.856-1.646-2.962-1.747 1.66 1.529 3.637 2.676 5.528 3.975 2.083 1.43 4.733 2.944 6.469 4.177 1.873.331 2.799-2.177 4.135-1.177-1.244 1.05-3.509 1.443-4.522 2.646 1.666.111 3.28-.947 4.704-1.79 1.75-1.04 3.573-2.142 4.338-3.5-.93 2.373-1.738 5.26-3.882 6.572.782-1.018 1.428-2.13 1.64-3.518-2.464 4.76-8.123 7.714-13.082 11.106-4.038 2.761-9.903 3.363-15.472 4.576-5.179-3.272-10.847-6.277-16.194-9.145-.739-.396-1.479-1.11-2.4-.978 5.394 3.308 11.445 6.455 16.814 9.71.247.148.735.385.75.73-.39.077-.783.148-1.027.32-4.447-3.1-9.619-5.695-14.386-8.143-.647-.332-1.455-.851-2.244-.712 4.674 2.976 10.27 5.42 14.847 8.438.207.137.672.325.64.66l-1.909.405c-4.057-2.993-8.975-5.113-13.42-7.356-1.54-.777-2.976-1.734-4.63-2.09 1.274.999 2.843 1.661 4.309 2.455 3.973 2.153 8.252 4.202 12.039 6.462.25.15.736.382.749.731-.584.06-1.37.42-1.831.29.171.037.374-.277.15-.23-3.87-2.426-7.886-4.955-11.947-6.974-1.407-.703-2.835-1.598-4.264-1.773 5.335 2.939 10.653 5.903 15.719 9.25-.754.244-1.391.57-2.113.843-.294-.302-.637-.531-.812-1.016-5.348-2.926-10.79-6.326-16.4-8.705-.79-.338-1.664-.824-2.548-.747 1.593.898 3.285 1.583 4.9 2.427 3.298 1.726 6.492 3.525 9.69 5.274 1.612.882 3.234 1.754 4.696 2.868-3.978.993-7.78 2.463-12.048 2.858-.947.09-1.987-.12-3.024-.15-3.209-.095-6.45-.114-9.424-.274-4.258-.23-8.509-.179-12.469-.522-3.942-.343-7.85-1.169-11.64-1.79-3.9-.64-7.69-1.434-11.417-2.133-14.372-2.691-28.6-5.161-44.704-4.965-1.018.01-2.399.314-2.965-.364 7.067-.39 14.1.498 21.052.58 7.078.087 13.935.374 20.392 1.712-4.41-2.045-10.196-1.985-15.512-2.65 6.8-.17 13.898.337 21.065-1.703 2.245-.637 4.152-1.753 6.566-2.387 7.489-1.96 14.56-4.715 21.596-7.167 6.377-2.22 12.28-4.98 17-8.172.536.268 1.489-.102 1.875.396-1.299.83-3.11 1.646-4.085 2.35-.973.71-1.818 1.03-3.045 1.147-.072.327.649.339.199.453-.878 1.137-2.749.332-3.604.863.112.504.725.236.998.482-.347.128-.546.357-1.008.413-.348-.473-1.204-.162-1.762-.32-.15.15-.127.41-.279.555-1.912.594-3.268 1.548-5.234 2.105-9.058 4.762-22.046 6.986-32.93 10.571 2.275-.39 4.243-.298 6.53-.696 1.35.903 3.078 1.233 4.51 2.015-.124.078-.515-.008-.455.192 5.93-.985 11.859-2.516 17.213-4.352 4.936-1.692 8.88-2.98 13.096-4.962 2.132-1.004 5.604-2.64 7.733-2.533.317-.1.042-.574.354-.673 3.325-1.235 6.365-1.746 9.931-2.507 4.667-.997 8.391-2.265 11.651-2.377.44-.51 2.477-1.273 3.503-1.34 1.235-.079 2.54.602 3.374.867-.536-.56-1.495-.477-2.02-1.057zM27.277 83.017c.881.496 2.159 1.47 3.607 1.516-1.138-.606-2.446-.948-3.607-1.516M15.462 86.52c2.234.143 4.788-.205 7.353-.572-1.146-.295-2.088-.912-3.169-1.309-.888.546-1.931.992-2.87 1.504-.162-.217.55-.572.718-.846-.326-.009-1.345.922-2.032 1.223" fill="#FFFFFE"/><path d="M183.872 51.814c-.03.12.154.643-.008.896-.365.056-.445-.325-.77-.333-1.431 1.567-5.094.725-6.38 1.853 4.106.014 10.29-1.536 13.992-3.074-1.283-.712-2.742-1.163-4.07-1.811-.336.139-.601.319-1.008.413 0 .168.113.16.232.148-.554.011-1.373.431-2.131.75.444.575 1.43.321 1.806 1.005.081.27-.11.365-.186.533-.637.095-1.066-.127-1.477-.38M57.01 78.98c.553.163 2.112.947 3.446.752-1.125-.287-2.295-.505-3.447-.752M108.34 71.042c-.02.5.529 1.567.463 2.181.84-.443-.018-1.847-.464-2.181M19.713 90.575c.712.29 1.653.231 2.394.48-.125-.691-1.558-.46-2.394-.48M206.387 53.175c.181.179-1.061.6-1.425.799.331.249.686.457 1.187.44.198-.335.048-.897.238-1.24M45.56 91.225c.413.667 1.27 1.746 2.07 2.235-.184-.763-1.057-1.564-1.57-2.24-.152-.023-.47.215-.5.005M58.887 91.562a.491.491 0 0 1 .226-.344c1.106.278 1.591 1.501 2.224 2.502-.109-.802-1-2.006-1.1-2.84-.599.077-1.087-.011-1.68.058.274.966.587 1.869 1.114 2.44.018-.534-.676-1.056-.784-1.816M112.166 80.142c1.087.553 2.473.651 3.325 1.571l1.046-.222c-.492-.334-1.255-.255-1.649-.738.004-.347.8.116.475-.101-.99-.288-1.664-1.059-3.197-.51M119.593 79.455c-.045-.064.851.515 1.155.744.053-.196-.354-.256-.08-.377-.253-.288-.667-.323-1.075-.367M75.406 91.918c-.43-.096-.875-.168-1.417-.093.2 1.008.778 1.954 1.198 2.814.412.846.621 1.95 1.477 2.265-.35-1.437-2.38-3.243-2.04-4.918.846.293 1.13 1.447 1.667 2.223-.028-.672-.74-1.382-.885-2.29M94.927 94.212c.53 1.03 1.208 2.507 1.753 3.097-.203-.54-.643-1.293-.92-1.985-.18-.455-.053-1.375-.833-1.112M117.507 94.962c1.658 2.243 3.976 4.56 6.376 6.08.138-.239.023-.639.45-.692-1.644-1.508-3.13-3.246-4.641-4.959a25.12 25.12 0 0 1-2.185-.43M136.724 97.223c.72.95 2.181 1.854 3.259 2.674.85-.253 1.503-.202 2.307-.389-.619-.726-1.37-1.254-2.082-1.835-1.257-.01-2.342-.271-3.484-.45M127.785 75.333c.564.927 2.257.679 3.525.64-.865-.61-2.372-.887-3.525-.64zm.606-.427c1.607-.308 3.202.724 4.77.869-1.362.622-3.088 1.006-4.552 1.563-1.348-.618-3.273-.348-4.747-.774 1.78-.383 3.022-1.366 4.53-1.658z" fill="#FFFFFE"/></g></svg>