<svg width="201" height="191" viewBox="0 0 201 191" xmlns="http://www.w3.org/2000/svg"><title>Fill 10 Copy 2</title><path d="M96 130.038c.732.688 1.222 1.184 2 .861-.443-.745-1.005-1.005-2-.86zm50 24.684c.878-.005 1.485.26 2-.381-.565.146-1.198-.548-2 .381zm2-67.094c.399.212.713.42 1-.208-.32-.12-.674-.618-1 .208zm-38-65.293c-.342-.069-.663-.185-1 .013.457.554.457.554 1-.013zm83 75.186h2v-.042h-2v.042zm8-.067h-4v.092h4v-.092zM81.716 20c.669-1.486.044-2.753-.716-4 .26 1.33-.034 2.753.716 4zm92.028 50.137c.212-.177.318-.489.218-.841-.079-.28-.284-.324-.469-.283-.72.16-1.441.376-2.129.774a.694.694 0 0 0-.357.734c.06.527.37.494.635.466.774.051 1.454-.319 2.102-.85zm-154.962-2.08c-1.092-.495-2.189-.999-3.424-1.057-.1-.004-.243.126-.305.227-.104.175-.051.4.12.475 1.013.442 2.026.895 3.068 1.263.384.134.705-.125.759-.587-.07-.107-.114-.275-.218-.322zM112.996 82c-2.662 1.561-3.912 2.813-3.996 4 2.438-1.226 4.094-2.886 3.996-4zm-2.532 47c-.474.449-.55.952-.385 1.314.701 1.524.486 3.587 1.921 4.686-.367-2.045-.234-4.296-1.536-6zM67.87 176.853c.124-.317.317-.7-.293-.835-.45-.098-.667.222-.82.47-1.074 1.74-1.743 3.566-1.757 5.512 1.275-1.633 2.152-3.364 2.87-5.147zm116.917-66.499a19.114 19.114 0 0 0-1.928-.344c-.436-.053-.836.086-.857.704-.029.533.328.66.692.73.593.11 1.193.207 1.786.322 1.078.208 2.149.43 3.52-.067-1.164-.826-2.178-1.112-3.213-1.345zm-95.73 28.19c.025.211.159.414.348.448.266.05.505-.143.604-.363.098-.215.079-.48.114-.723.157-1.073.275-2.151.639-3.184.13-.372.269-.742.232-1.152-.05-.551-.296-.7-.794-.457-.33.164-.594.374-.649.762-.183 1.31-.375 2.621-.551 3.86.02.32.028.565.058.81zM60.798 37.987c.293.614.707 1.165 1.085 1.732.202.3.507.355.803.192.31-.17.391-.461.243-.81-.082-.194-.145-.4-.24-.586-.72-1.413-1.685-2.65-2.551-3.958-.197-.296-.466-.571-1.137-.555.424 1.54 1.194 2.725 1.797 3.985zm-36.481 71.008c1.497-.196 3.024-.062 4.505-.44.201-.051.42-.051.613-.125.306-.115.601-.325.563-.693-.037-.33-.279-.578-.608-.685-.37-.121-.71 0-1.07.085-1.171.275-2.355.484-3.524.762-.535.129-1.115.194-1.795.798.618.148.981.341 1.316.298zm13.776-83.231c-.903-.59-1.632-1.328-2.38-2.06a3.408 3.408 0 0 0-.73-.532c-.264-.146-.58-.29-.847-.018-.269.275-.087.531.118.765 1.086 1.231 2.162 2.469 3.263 3.688.156.172.41.312.647.365.485.109.8-.08.837-.717-.108-.506-.352-1.129-.908-1.491zm69.155 12.215c.26.084.435-.083.572-.317.182-.313.338-.64.35-1.031.046-1.237.332-2.427.5-3.641.157-1.097.092-2.23.313-3.324.058-.279-.02-.547-.28-.641-.292-.107-.39.17-.48.414-.053.147-.124.294-.15.45a2698.11 2698.11 0 0 0-1.059 7.437c-.006.265-.084.552.234.653zm62.45 70.055c-.433.053-.719.26-.696.586.016.278.332.418.68.443 2.163.153 4.256.57 6.364.922.41.067.796-.075.92-.385.138-.336-.147-.585-.557-.651-2.07-.332-4.147-.64-6.155-.948-.232.012-.394.012-.557.033zM38.47 164.358c2.034-1.441 3.372-3.46 5.05-5.195.26-.27.746-.634.297-1.01-.509-.428-.824.153-1.186.382-.087.054-.15.142-.221.217-1.517 1.602-3.031 3.209-4.72 4.663-.498.431-.707.94-.689 1.58.7.052 1.053-.342 1.47-.637zM32.035 59.434c-.114.277.068.491.286.648.34.246.672.52 1.053.69 1.751.779 3.322 1.847 5.003 2.738.934.495 1.896.941 2.855 1.392.307.145.645.177.752-.242.074-.295-.113-.491-.417-.525a1.874 1.874 0 0 1-1.126-.52c-1.112-1.037-2.429-1.788-3.848-2.38-.485-.203-.882-.471-1.294-.803-.753-.606-1.69-1.007-2.44-1.432-.437.11-.717.176-.824.434zm8.377 83.463c1.599-1.467 3.22-2.907 4.822-4.37.387-.354 1.09-.765.596-1.325-.454-.515-1.017.072-1.391.446-1.712 1.72-3.51 3.326-5.493 4.708-.356.248-.65.644-.873 1.032-.186.327-.01.587.447.612.59-.377 1.32-.578 1.892-1.103zm100.042 3.502c-1.622-1.588-3.007-3.387-4.477-5.104-.314-.367-.627-.74-.98-1.067-.244-.225-.573-.345-.864-.064-.237.228-.107.516.008.742.122.232.329.416.482.637 1.209 1.776 2.808 3.22 4.14 4.895.834 1.042 1.745 2.162 3.237 2.562-.474-.914-.811-1.874-1.546-2.6zM50.162 19.615c1.39 2.863 3.349 5.445 4.848 8.256.482.904 1.088 1.754 1.662 2.616.191.29.44.69.893.427.383-.223.582-.607.307-1.047-.109-.175-.26-.334-.337-.52-.556-1.352-1.85-2.238-2.596-3.475a238.513 238.513 0 0 0-3.52-5.636c-.32-.498-.777-.91-1.32-1.236-.218.29-.019.444.063.615zM75.76 38.389a51.157 51.157 0 0 1-1.005-2.75c-.61-1.864-1.416-3.648-2.212-5.433-.212-.477-.389-1.476-1.162-1.138-.776.34-.157 1.139.047 1.618 1.052 2.471 1.987 4.98 2.881 7.51.156.437.338.866.54 1.283.133.273.304.599.68.504.433-.108.463-.5.47-.918.019-.23-.145-.439-.239-.676zm67.96 74.771c-.465-.221-.916-.469-1.388-.647-2.764-1.038-5.349-2.56-8.234-3.26-.487-.12-.974-.302-1.49-.24-.279.032-.53.171-.594.43-.064.263.122.513.33.68.157.126.343.253.53.296 2.133.467 4.13 1.352 6.157 2.135 1.232.475 2.578.562 3.745 1.276.258.16.573.23.88.11.194-.076.358-.192.344-.453 0-.195-.15-.262-.28-.327zm-14.781-73.31c-1.17 1.557-1.835 3.446-2.912 5.038-1.358 2.012-2.333 4.243-3.576 6.312-.217.352-.318.781-.434 1.187a.509.509 0 0 0 .224.552c.195.122.412.043.578-.082.16-.118.347-.264.412-.44.347-1.054 1.192-1.833 1.438-2.945.159-.681.506-1.265.903-1.834 1.366-1.983 2.587-4.074 3.786-6.172.405-.702.975-1.405.397-2.466-.448.226-.6.565-.816.85zm18.26 65.625c1.189.267 2.393.478 3.598.686 3.448.596 6.897 1.18 10.353 1.77.308.052.685.204.82-.224.143-.461-.24-.557-.55-.651-.203-.063-.414-.091-.617-.158-4.299-1.406-8.749-1.933-13.13-2.834-.58-.12-1.16-.113-1.672.403.18.655.685.892 1.197 1.008zM31.785 131.557c-1.396 1.003-2.954 1.642-4.477 2.363-.476.225-.948.48-1.386.779-2.503 1.703-4.95 3.502-7.665 4.842-.508.25-1.036.538-1.258 1.459 5.999-2.646 11.173-6.51 17-9.494-1.005-.949-1.659-.345-2.214.051zm39.792-14.54c-.602-.097-1.007.234-1.436.595-2.917 2.456-5.61 5.164-8.694 7.439-.814.601-1.495 1.383-2.222 2.097-.194.191-.326.476-.127.713.222.264.483.1.709-.067.995-.744 1.973-1.512 2.99-2.223 2.975-2.079 5.66-4.502 8.445-6.807.44-.362.704-.806.757-1.494.008-.164-.21-.22-.422-.253zm-34.824-10.433c3.495-.434 6.842-1.584 10.332-2.057.417-.056.911-.166.914-.68.003-.587-.59-.625-1.005-.793-.246-.1-.505-.04-.769.018-2.65.599-5.302 1.194-7.96 1.763-1.535.329-3.064.673-4.533 1.237-.325.126-.835.139-.715.618.11.441.596.27.94.297.053.003.106 0 .381 0 .692.086 1.53-.294 2.415-.403zm33.831 63.179c2.138-4.663 3.68-9.536 5.327-14.37.035-.102.058-.207.069-.312.044-.438.057-.903-.48-1.053-.442-.123-.702.174-.887.54-.384.758-.841 1.48-1.1 2.304-1.25 4.004-2.297 8.06-3.377 12.11-.086.325-.282.699.045 1.016a.38.38 0 0 0 .403-.235zm61.741-33.65c-1.714-2.03-3.699-3.825-5.39-5.883-1.124-1.37-2.337-2.667-3.505-4.004-.412-.478-.86-.916-1.505-1.055-.277-.06-.614-.36-.846.013-.18.294-.03.606.18.854.674.795 1.333 1.61 2.044 2.366 1.872 1.96 3.796 3.857 5.503 5.969.966 1.193 2.164 2.236 4.193 2.627-.367-.483-.51-.692-.674-.887zM104.81 43.409c-.498 2.516-.732 5.076-1.184 7.596-.569 3.178-.977 6.38-1.571 9.551-.058.3-.051.613-.054.92-.004.282.105.49.432.521.304.026.51-.123.603-.377.065-.186.017-.408.064-.602.815-3.391.72-6.912 1.58-10.308.54-2.12.576-4.347 1.12-6.491.242-.977.352-2.071-.177-3.219-.617.804-.66 1.634-.813 2.41zm1.375 105.156c.704 3.17 1.268 6.367 1.756 9.58.362 2.342.732 4.683 1.108 7.022.055.369-.021.94.606.816.48-.094.32-.52.32-.877.007-1.039-.188-2.051-.3-3.075-.543-4.877-1.455-9.676-2.584-14.433-.132-.544-.25-1.115-.996-1.598-.174.977-.084 1.772.09 2.565zM85.654 65.04c-1.382-4-3.185-7.85-4.767-11.78-.43-1.066-.862-2.14-1.423-3.145-.24-.427-.373-1.341-1.127-1.063-.704.26-.112.94.043 1.362 1.007 2.753 2.028 5.503 3.143 8.218 1.075 2.62 2.266 5.2 3.41 7.794.126.289.258.625.671.568.315-.045.42-.304.376-.677.095-.414-.175-.836-.326-1.277zm93.85-16.037c-.37.03-.681.219-.985.404-1.622.977-3.324 1.776-5.07 2.505a11.82 11.82 0 0 0-1.76.935c-2.925 1.854-5.843 3.706-8.907 5.333-.579.305-1.086.748-1.615 1.145-.173.13-.231.337-.08.53.16.198.42.18.537.027.478-.615 1.216-.805 1.868-.988 1.253-.355 2.303-1.098 3.317-1.789 2.18-1.492 4.316-2.948 6.858-3.853 1.999-.71 3.83-1.88 5.743-2.845.398-.205.622-.51.586-.974-.022-.303-.188-.456-.492-.43zM85.99 159.233c.277-1.534.544-3.072.883-4.595.835-3.764 1.458-7.56 2.09-11.355.042-.256.043-.52.029-.778-.011-.2-.034-.426-.313-.484-.297-.062-.578.013-.75.23-.122.157-.125.389-.21.577-1.023 2.285-1.154 4.728-1.477 7.138-.303 2.263-.628 4.524-.948 6.784-.187 1.327-.457 2.648-.166 4.25.638-.658.761-1.2.862-1.766zM50.554 70.155c3.312 2.088 6.854 3.802 10.28 5.704a25.79 25.79 0 0 0 2.072 1.043c.334.148.74.17.967-.212.24-.402.129-.771-.237-1.06-.117-.091-.284-.12-.416-.198-2.237-1.318-4.676-2.285-6.888-3.658-1.77-1.1-3.85-1.7-5.436-3.138-.974-.884-1.61-.798-2.896-.033.683.898 1.742 1.04 2.554 1.552zm1.71 80.426c3.296-3.454 6.165-7.285 9.06-11.09.987-1.3 2.048-2.526 3.091-3.772.349-.416.884-1.046.377-1.53-.56-.532-1.047.193-1.375.585a52.205 52.205 0 0 0-2.785 3.603c-1.297 1.848-2.732 3.578-4.175 5.297-1.884 2.248-3.865 4.406-5.788 6.618-.373.429-.712.91-.664 1.709 1.086-.084 1.657-.791 2.258-1.42zm94.663-70.898c2.072-.878 4.262-1.361 6.341-2.174 4.498-1.754 8.989-3.538 13.575-5.038.243-.08.501-.156.708-.305.243-.172.568-.383.405-.761-.17-.407-.479-.498-.9-.311-.619.276-1.238.573-1.887.759-2.507.715-4.97 1.56-7.344 2.671-1.084.508-2.227.912-3.37 1.253-2.949.879-5.883 1.808-8.781 2.853-.65.233-1.224.54-1.674 1.107a3.834 3.834 0 0 0 2.927-.054zm29.448 61.163c-2.285-1.473-4.585-2.93-7.05-4.107-2.225-1.063-4.152-2.617-6.445-3.574-2.129-.884-4.168-1.96-6.17-3.084a30.401 30.401 0 0 0-1.95-1.01c-.224-.102-.581-.12-.708.134a.544.544 0 0 0 .194.689c.841.53 1.645 1.139 2.538 1.547 2.769 1.256 5.463 2.655 8.106 4.135 3 1.68 6.126 3.18 8.842 5.327.626.499 1.549.598 2.285 1.003.395.214.827.067.983-.453.007-.413-.38-.448-.625-.607zm-8.206-55.573c3.89-.519 7.734-1.217 11.557-2.011 1.744-.364 3.503-.585 5.262-.861.772-.121 1.566-.164 2.33-.326.313-.066.765-.255.669-.689-.097-.445-.505-.417-.89-.34-.253.05-.513.11-.773.149-4.973.76-9.93 1.63-14.926 2.227-2.605.31-5.166.856-7.771 1.158-.594.07-1.67.13-1.626.856.06.928 1.077.404 1.596.524 1.618-.04 3.073-.486 4.572-.687zm-52.537 27.39c1.064.64 2.047 1.381 3 2.168a250.497 250.497 0 0 1 5.273 4.487c2.859 2.498 5.873 4.825 8.968 7.046.568.41 1.196.905 2.127.464-6.633-5.876-13.591-11.333-21-16.827.222 1.388.739 2.124 1.632 2.663zM23.13 70.76c2.265.945 4.526 1.899 6.805 2.814 2.035.817 4.071 1.629 6.136 2.382 3.686 1.346 7.545 2.22 11.154 3.76.332.142.7.232 1.059.278.257.032.549-.058.672-.308.131-.26-.056-.472-.235-.657-.336-.351-.818-.457-1.255-.603-2.621-.882-5.28-1.664-7.874-2.614-4.794-1.752-9.681-3.276-14.39-5.245-.877-.366-1.794-.793-3.202-.427.593.328.848.502 1.13.62zM83.1 25.342c.338 1.953.616 3.926 1.101 5.843 1.005 3.956 1.475 8 2.16 12.008.404 2.366.923 4.708 1.361 7.068.143.766.177 1.554.3 2.326.026.176.13.419.393.413.245-.005.323-.2.392-.403.241-.706.223-1.467.13-2.156-.501-3.713-1.265-7.38-1.842-11.083-.454-2.922-1.331-5.776-2.045-8.654a25.992 25.992 0 0 1-.345-1.666c-.3-1.668-.475-3.39-1.41-5.038-.457.487-.262.953-.195 1.342zm-75.303 55c5.663 1.422 11.34 2.768 17.08 3.78 1.654.292 3.309.572 4.967.826.452.07 1.036.182 1.144-.524.108-.708-.48-.798-.93-.895-.97-.21-1.954-.36-2.93-.547-3.077-.59-6.214-.844-9.156-2.159-.85-.38-1.797-.645-2.748-.63-2.634.041-5.214-.417-7.793-.908-.565-.109-1.133-.18-1.698-.273-.367-.06-.599.101-.732.524.821.72 1.862.57 2.796.805zm177.631 47.216c-3.738-1.384-7.475-2.771-11.213-4.157-1.065-.396-2.123-.827-3.202-1.19-6.528-2.19-13.035-4.446-19.46-6.94-.243-.093-.492-.154-.742-.227-.338-.1-.639-.045-.771.309-.125.347.066.6.36.76.77.414 1.505.996 2.328 1.184 3.032.693 5.874 2.023 8.9 2.664 1.792.38 3.59.728 5.162 1.606 2.247 1.252 4.641 2.095 7.072 2.775 2.394.67 4.766 1.389 7.057 2.32 1.623.657 3.187 1.44 5.082 1.327-.169-.336-.382-.36-.573-.43zm-47.48 37.703c-1.145-2.316-2.083-4.732-3.42-6.954a701.396 701.396 0 0 1-4.745-8.03c-1.921-3.278-3.82-6.57-5.742-9.846-.236-.403-.546-.766-.857-1.126-.266-.314-.643-.413-.975-.167-.281.21-.237.565-.104.873.082.194.222.365.296.561.458 1.195 1.3 2.152 1.914 3.251 1.286 2.298 2.475 4.676 3.998 6.81 2.387 3.354 4.448 6.896 6.458 10.48.917 1.634 1.892 3.236 2.853 4.887.45-.324.406-.563.325-.739zm-12.37-84.657c1.106-.699 2.132-1.56 3.298-2.096 1.635-.744 3.188-1.57 4.622-2.664 1.42-1.082 2.891-2.12 4.66-2.575 1.902-.49 3.61-1.402 5.238-2.487 2.928-1.957 5.885-3.846 9.185-5.127.297-.117.609-.209.854-.394.32-.237.765-.524.468-1.012-.223-.372-.602-.256-.98-.108-3.032 1.21-5.93 2.672-8.657 4.483-2.326 1.54-4.749 2.982-7.223 4.202-4.072 2.003-7.847 4.517-11.882 6.552-.371.186-.706.456-1.018.736-.141.128-.193.373-.082.59.112.212.305.272.35.279.58.09.862-.188 1.166-.379zm20.1 56.3c.979 1.363 2.34 2.335 3.518 3.496 1.9 1.87 3.923 3.59 6.094 5.096 2.311 1.602 4.402 3.456 6.55 5.245 1.436 1.198 2.82 2.453 4.233 3.68.566.488 1.148.885 1.928.25-.927-1.235-1.914-2.315-3.062-3.204-5.88-4.546-11.209-9.779-17.34-14.011-.706-.485-1.31-1.163-2.598-1.456.375.496.53.697.677.904zm-104.685-9.513c2.731-1.414 5.497-2.78 8.126-4.366 5.225-3.154 10.68-5.89 16.059-8.767 2.76-1.475 5.532-2.93 8.293-4.402.687-.367 1.363-.76 1.53-1.609-.553-.433-1.033-.212-1.494.023-1.065.542-2.162 1.039-3.17 1.67-1.853 1.158-3.76 2.219-5.684 3.253-3.3 1.777-6.659 3.453-9.914 5.303-4.986 2.834-9.861 5.85-14.945 8.519-.336.176-.827.28-.791.906.782.273 1.399-.224 1.99-.53zm37.995-33.714c.083-.371-.242-.527-.552-.594-.669-.144-1.346-.25-2.02-.371-2.848-.507-5.691-1.036-8.545-1.512-2.273-.38-4.391-1.294-6.68-1.624a37.454 37.454 0 0 1-4.586-.945c-1.101-.302-2.232-.586-3.402-.684-2.405-.202-4.791-.54-7.196-.751-2.458-.216-4.933-.449-7.312-1.15-.289-.084-.542-.073-.658.203-.143.334.17.448.404.504 1.636.391 3.264.824 4.918 1.125 4.714.858 9.485 1.389 14.184 2.36 5.462 1.127 10.986 1.993 16.48 2.977 1.4.251 2.797.523 4.195.785.301-.02.685.06.77-.323zm34.46 48.307c.803 1.656 1.368 3.386 1.993 5.11 1.004 2.754 2.15 5.448 2.9 8.298.55 2.133 1.57 4.119 2.247 6.209 1.108 3.44 2.335 6.83 3.607 10.212.848 2.253 1.547 4.562 2.298 6.85.41 1.248.789 2.506 1.19 3.755.157.483.558.674.997.54.558-.17.238-.65.149-.934-.632-2.004-1.31-3.994-1.971-5.987-1.346-4.035-3.213-7.89-4.232-12.038-.29-1.18-.662-2.33-1.116-3.446-1.056-2.581-2.097-5.165-2.99-7.81-1.153-3.435-2.633-6.755-3.726-10.214-.29-.913-.67-1.859-1.57-2.529-.498.803-.044 1.439.223 1.984zM25.49 37.054c2.205 1.903 4.449 3.76 6.623 5.7 5.336 4.76 11.189 8.89 16.37 13.84 2.53 2.417 5.557 4.244 7.981 6.795.212.224.517.363.784.53.201.126.408.105.574-.06a.548.548 0 0 0 .143-.587c-.091-.24-.198-.578-.387-.661-.95-.409-1.554-1.25-2.356-1.84-2.237-1.648-4.31-3.49-6.31-5.424-1.696-1.64-3.114-3.588-5.202-4.804-.445-.259-.782-.708-1.151-1.087-2.04-2.081-4.278-3.937-6.51-5.797-.924-.77-2.047-1.303-2.94-2.104-2.085-1.875-4.391-3.453-6.587-5.182-.438-.347-1.022-.663-1.523.081.158.195.296.431.491.6zm15.081-5.588c1.478 1.948 2.93 3.916 4.435 5.843.864 1.105 1.577 2.315 2.55 3.35 2.205 2.35 4.39 4.724 6.5 7.16 4.801 5.544 9.69 11.017 14.097 16.893.683.913 1.489 1.737 2.262 2.581.332.362.679.988 1.268.566.697-.502.061-1.02-.2-1.465-.287-.486-.668-.916-1.01-1.37-2.653-3.53-5.506-6.896-8.72-9.923-2.164-2.04-3.963-4.35-5.775-6.68-1.681-2.164-3.171-4.488-5.355-6.263-1.28-1.04-2.593-2.137-3.458-3.578-.568-.948-1.366-1.677-2.01-2.541-1.234-1.657-2.413-3.356-3.586-5.056-.386-.56-.678-1.19-1.562-.917-.062.587.252.99.564 1.4zm101.244 26.221c-4.797 3.544-9.474 7.235-14.122 10.97-.9.72-1.832 1.41-2.636 2.224-1.37 1.385-2.897 2.62-4.588 3.517-2.748 1.456-4.871 3.585-7.098 5.622-.209.193-.536.473-.276.788.32.401.641.079.946-.117 1.237-.784 2.503-1.513 3.71-2.333 2.197-1.499 4.483-2.914 6.151-5.043.365-.465.857-.757 1.341-1.068 2.987-1.93 5.921-3.916 8.386-6.505 1.378-1.437 2.957-2.642 4.693-3.643.588-.34 1.184-.645 1.72-1.087 1.631-1.36 3.434-2.538 4.826-4.172.254-.296.596-.39.954-.512 1.065-.368 1.378-1.161 1.057-2.328-1.49 1.531-3.388 2.453-5.064 3.687zM13.836 126.36c1.595-.7 3.27-1.166 4.957-1.558 2.792-.644 5.341-1.873 7.952-2.959 4.456-1.852 8.917-3.679 13.63-4.851 1.577-.394 3.19-.78 4.663-1.436 2.495-1.114 5.065-2.024 7.633-2.945 2.865-1.028 5.69-2.162 8.632-2.98.319-.088.694-.138.697-.672.001-.55-.357-.704-.725-.883-.299-.146-.603-.057-.911.063-1.318.51-2.684.877-3.954 1.536-1.34.694-2.7 1.41-4.196 1.728-.986.207-1.92.508-2.844.884-1.454.594-2.901 1.204-4.38 1.743-4.333 1.577-8.664 3.17-13.029 4.661-2.87.981-5.697 2.068-8.552 3.075-2.672.944-5.344 1.871-7.967 2.943-1.207.492-2.498.797-3.76 1.158-.398.113-.835.092-1.238.201-.245.068-.472.292-.441.573.032.31.304.378.661.355 1.007-.228 2.147-.185 3.173-.636zm83.76 64.09c-.014-3.505.416-6.994.367-10.508-.075-5.394-.02-10.79-.082-16.184-.07-6.02-.144-12.044.045-18.065.123-3.927.142-7.854-.345-11.767-.055-.436.055-1.035-.808-.909-.755.11-.868.488-.713 1.129.184.76.341 1.568.255 2.333-.258 2.304-.076 4.594.061 6.89.075 1.25.227 2.526.03 3.747-.47 2.919-.338 5.837-.252 8.752.115 3.91.286 7.818.33 11.729.04 3.284-.377 6.568.056 9.857.087.67.328 1.303.359 1.994.163 3.596.152 7.19.103 10.787-.003.295.003.61.378.765.288-.12.215-.36.215-.55zm24.92-123.99c.265-.387.56-.754.842-1.133 1.204-1.65 2.727-3.032 3.998-4.619 2.44-3.064 4.82-6.16 7.598-8.948 2.476-2.475 4.62-5.283 6.933-7.917 1.079-1.224 1.862-2.736 3.052-3.784 1.855-1.64 3.045-3.72 4.442-5.671.783-1.093 1.493-2.198 2.616-3.044.732-.547 1.552-1.041 2.173-1.733.813-.898 1.567-1.847 2.343-2.77.318-.374.562-.767.466-1.29-.045-.215-.096-.422-.31-.518-.237-.11-.392.08-.525.226-.688.79-1.36 1.604-2.055 2.389-1.996 2.24-4.058 4.42-5.972 6.724-1.508 1.82-2.904 3.74-4.508 5.484-1.604 1.74-3.208 3.485-4.716 5.313-1.404 1.709-2.816 3.404-4.375 4.966-1.042 1.038-2.195 1.976-3.149 3.095-3.296 3.89-6.526 7.838-9.792 11.76-.318.381-.43.835-.547 1.295-.133.517.192.64.768.702.274.077.495-.205.717-.527zm9.085 29.678c-.59.034-1.586-.241-1.601.543-.015.928 1.115.47 1.683.8.142.086.404-.054.614-.068.793-.052 1.593-.185 2.379-.124 4.877.382 9.777.325 14.662.597 4.593.257 9.179-.152 13.772.049 4.331.19 8.67-.155 13.001.051.808.038 1.579.003 2.364-.165 2.499-.534 5.005-.837 7.548-.224.778.185 1.579.121 2.327-.277.254-.136.71-.044.643-.544-.06-.485-.426-.36-.74-.333-2.7.234-5.401.075-8.102.116-7.196.107-14.393.115-21.59-.123-5.767-.191-11.527-.485-17.295-.43-2.64.025-5.281.08-7.668.215-.837-.04-1.421-.119-1.997-.083zM95.396.459c-.06 2.808-.565 5.596-.337 8.416.136 1.707.033 3.43.156 5.139.174 2.391-.103 4.778.011 7.168.16 3.329.33 6.657.224 9.989-.105 3.267-.158 6.535-.34 9.797-.306 5.468.402 10.918.254 16.38-.01.362.029.729.093 1.087.06.348.348.557.737.565.477.01.549-.317.564-.642.038-.778.104-1.558.088-2.336-.057-3.115-.19-6.228-.412-9.34-.23-3.242.264-6.49.06-9.74-.055-.88-.103-1.78.032-2.648.5-3.182.56-6.386.384-9.572-.35-6.345.071-12.687-.148-19.027-.067-1.9-.134-3.81-.864-5.695-.48.155-.5.314-.502.46zm33.876 5.438c-2.745 7.043-5.475 14.094-8.368 21.078a664.204 664.204 0 0 0-3.7 9.187c-1.634 4.153-3.107 8.366-4.542 12.595-1.11 3.28-2.05 6.621-3.381 9.825-.244.593-.34 1.215-.244 1.855.044.27.155.516.466.556.281.037.533-.073.651-.336.163-.384.281-.79.414-1.185.563-1.692 1.021-3.413 1.54-5.112.865-2.847 1.967-5.621 2.973-8.423 1.273-3.536 3.026-6.897 3.803-10.613.074-.34.355-.635.548-.951.185-.315.473-.607.54-.945.422-2.026 1.413-3.828 2.205-5.701 1.642-3.912 3.262-7.831 4.742-11.809 1.117-3 2.227-5.993 2.908-9.132.118-.561.318-1.096.007-1.786-.414.282-.451.619-.562.897zm-81.687 174.72c1.372-2.103 2.69-4.245 4.085-6.324 2.132-3.18 3.581-6.747 5.883-9.816.093-.122.115-.293.19-.43 1.223-2.312 2.472-4.596 4.039-6.722 1.425-1.934 2.788-3.935 3.817-6.128.601-1.279 1.205-2.562 1.923-3.778 2.793-4.732 5.297-9.625 8.237-14.278.976-1.544 1.798-3.186 2.805-4.718.143-.219.27-.451.377-.688.116-.267.066-.517-.195-.678-.215-.131-.41-.015-.564.132-.19.18-.386.364-.533.58-.914 1.339-1.868 2.656-2.713 4.04-2.146 3.511-4.238 7.054-6.355 10.582-.456.758-1.026 1.442-1.344 2.288-.425 1.128-1.07 2.134-1.816 3.097-.996 1.285-1.759 2.717-2.476 4.177-1.404 2.852-2.809 5.707-4.292 8.52-1.285 2.44-2.883 4.71-4.026 7.234-.404.89-.755 1.874-1.498 2.551-1.383 1.259-2.363 2.795-3.34 4.344-1.328 2.11-1.964 4.597-3.635 6.524-.214.248-.208.577.036.874.76-.17 1.028-.82 1.395-1.384zM59.191 95.68c.386-.018.804-.091.809-.506.005-.366-.1-.77-.627-.873-.362-.072-.762-.264-1.076-.185-1.237.313-2.504.13-3.739.172-1.667.058-3.384.85-5.052-.066-.188-.101-.52-.024-.777.016-2.922.454-5.868-.293-8.79.154-.2.032-.42-.012-.628-.048-2.185-.38-4.417.021-6.605-.31-.248-.037-.519.067-.781.076-2.195.078-4.363.5-6.574.387-2.106-.107-4.21-.038-6.316.062-1.036.05-2.064.164-3.136-.009-2.155-.347-4.349-.527-6.546-.324-1.268.118-2.536.022-3.765-.134-1.406-.177-2.796.21-4.182-.08-.187-.04-.426.021-.614.095-.383.15-.862.328-.783.772.064.36.548.386.902.452.309.057.637.152.936.111 1.996-.266 3.994-.115 5.993-.068 3.373.08 6.745-.26 10.12-.005 1.206.091 2.42.108 3.631.142 1.896.052 3.795.07 5.69.14 2.894.109 5.789.376 8.687.19 1.746-.11 3.474-.053 5.213.066.84.058 1.69.126 2.526.072 3.683-.235 7.368-.252 11.404-.115 1.13-.05 2.606-.116 4.08-.184zM97 126.926h-1c.165-.784.748-.498 1-.852v.852z" fill="#33302D" fill-rule="evenodd" opacity=".097"/></svg>