<svg width="85" height="94" viewBox="0 0 85 94" xmlns="http://www.w3.org/2000/svg"><title>Group 30</title><g fill="none" fill-rule="evenodd" opacity=".321"><path d="M73.504 16.219c.195.698-.639 1.64.091 2.166.087-.78.81-1.871-.09-2.166M72.012 15.982c-.098.625.552.88.733 1.367.417-.457-.452-1.248-.733-1.367M74.655 17.453c-.36.124-.335 1.205-.6 1.741.232.16.292.405.55.559.259-.61.203-1.068.487-1.69-.097-.225-.41-.349-.437-.61M71.946 16.98c-.57.81-.027 1.668.559 2.142.122-.403.114-.745.206-1.135a6.74 6.74 0 0 1-.765-1.006M69.79 16.515c-.408.478-.516 1.402-.129 1.721.378-.464.496-1.39.129-1.72M73.203 18.713c-.095.185-.444 1.089-.07 1.276.24-.532.332-.989.07-1.276M68.392 17.613c-.185.05-.43.71-.063.721-.112-.177.177-.548.063-.72M74.023 19.83c-.427.533-.348 1.409.149 1.722.35-.77.264-1.327-.149-1.723M71.274 20.274c.33.3.586.633.765 1.007.602-.8.06-1.639-.366-2.166-.454.027-.223.82-.4 1.16M69.24 18.648c-.29.307-.238 1.034.237 1.194-.084-.166.075-.449.146-.691-.156-.155-.3-.315-.383-.503M72.931 20.845c-.373-.05-.145.685-.342.996.293-.148.268-.725.342-.996M68.044 19.162c-.3.174-.297.788-.259 1.025.227-.139.226-.752.26-1.025M38.526 9.092c-.051.233.299.268.302.475.395-.132-.159-.379-.302-.475M73.53 21.794c-.282.143-.09.638-.341.995.153.225.382.412.406.699.365-.229.147-.76.4-1.163-.301-.104-.385-.316-.464-.53M74.745 22.305c-.332 1.429-1.596 4.273-.522 5.015.413-1.191.46-2.202.115-3.025.28-.427.458.365.579.2.52-1.01.073-1.55-.172-2.19M68.78 20.25c-.119.568-.217 1.12.153 1.445.375-.415.432-1.268-.153-1.444M71.239 21.191c-.65.706.277 1.242.508 1.75.636-.703-.338-1.213-.508-1.75M27.14 6.376c-.374.644-.64 1.515-.966 2.264.813.048.946.944 1.594 1.293.35-.653.704-1.293.99-2.071-.553-.49-1.136-.963-1.619-1.486M33.43 8.823c-.87.719-.569 1.73.174 2.192.573-1.039.317-1.674-.174-2.192M67.693 20.99c-.387-.06-.384.751-.313.91.335-.142.11-.6.313-.91M37.454 11.133c-.322.412-.34.618-.566 1.106.179.28.26.61.658.78.157-.285.176-.86.425-.965-.012-.384-.415-.58-.517-.92M75.611 24.364c-.38.49-.369 1.375-.156 1.801.505-.548.342-1.362.156-1.8M70.6 23.848c.42.299.513.76.932 1.06.405-.932-.247-1.35-.534-1.947-.45-.045-.181.603-.397.887M68.515 22.105c-.44.356-.22.981.042 1.22.491-.377.148-.943-.042-1.22M72.958 23.73c-.202.606-.043 1.032.373 1.335-.018-.268.106-.603.23-.942-.37-.048-.334-.293-.603-.393M34.37 12.019c.103-.494.342-.71.483-1.132-.3-1.141-1.247 1.019-.483 1.132M38.655 12.754c-.399-.02-.37.844-.593 1.188.351-.032.628-.824.593-1.188M35.204 11.749c-.138.383-.245.825-.455 1.052.206.31.5.581.598.949.344-.145.435-.811.625-1.274-.326-.185-.337-.813-.768-.727M79.105 26.866c-.458.8-.616 2.049-.834 2.959.5-.008.914-.196 1.442-.15-.016-1.028-.478-1.839-.608-2.81M67.094 22.73c-.072.289-.358.681.02.75.082-.29.248-.626-.02-.75M32.553 10.836c-.376.035-.374.838-.648 1.077.209.333.547.607.682.973.356.026.3-.792.591-.904-.095-.438-.488-.73-.625-1.146M76.258 26.256c-.866 1.475.835 3.205.922 4.587.467-.713-.051-1.552-.256-2.224-.24-.793-.444-1.565-.666-2.363M72.664 25.392c-.533.47-.084 1.048.067 1.415.521-.464.191-1.106-.067-1.415M30.476 13.368c.31-.352.515-.924.709-1.517-.446-.223-.513-.989-.96-.981-.911 1.032-.422 1.879.251 2.498M68.079 23.904c-.446.36-.118.932.265 1.112.192-.504.002-.829-.265-1.112M75.091 26.414c-.263.52-.69 1.715-.383 2.184.43-.601.674-1.708.383-2.184M71.127 26.622c.572-.67-.311-1.224-.51-1.749-.813.524.309 1.268.51 1.75M25.805 9.443l-.228.663c.536.45.968.953 1.344 1.478.216-.21.371-.554.506-.935-.254-.542-.869-.907-1.622-1.206M36.599 13.343c-.574.439-.753 1.641-.214 1.968.266-.354.463-.843.651-1.353-.165-.196-.386-.362-.437-.615M33.7 12.624c-.28.187-.706 1.021-.348 1.272.225-.243.385-.63.536-1.022-.142-.043-.193-.133-.189-.25M27.893 11.183c-.336-.031-.335.625-.508.937.5.306.544.84 1.098 1.12l.287-.832a4.022 4.022 0 0 1-.877-1.225M31.73 12.689c-.394.137-.486.89-.733 1.321.27.282.39.642.71.898.691-.816.62-1.688.023-2.219M34.489 13.825c-.861.426-.335 1.343.038 1.774.742-.578.267-1.306-.038-1.774M75.71 28.11c-1.033 1.493-.056 2.601.434 3.582.164-.093.361-.114.584-.077-.146-1.263-.732-2.311-1.017-3.505M73.558 27.368c-.557.734-.366 1.696-.025 2.219.498-.701.303-1.663.025-2.219M67.562 25.676c-.141.322-.012.511-.203.855.207.132.33.302.383.505.472-.44.262-1.14-.18-1.36M25.234 11.101c-.351-.015-.351.69-.535 1.02.625.37.84 1.28 1.454 1.429.115-.515.353-.786.51-1.215-.383-.457-1.02-.79-1.429-1.234M70.02 26.612c-.286.877.521 1.218.757 1.838.539-.722-.25-1.395-.758-1.838M78.18 30.352c-.1.463.182.74.268 1.112.678.166 1.173-.046 1.828.074.205-1.292-1.076-1.03-2.096-1.186M29.261 13.136c-.327-.147-.27.484-.424.69.265.376.59.724.82 1.114.284.07.295-.432.423-.686-.336-.343-.56-.737-.819-1.118M32.959 14.503l-.25-.087c-.057.62-.84 1.183-.235 1.493.178-.433.67-1.08.485-1.406M35.523 15.664c-.119.272-.296.43-.368.8.225.19.237.482.52.642.33-.664.332-1.174-.152-1.442M26.451 14.023c.489.336.445.935.848 1.312.314-.2.426-.818.674-1.159a6.213 6.213 0 0 1-.873-1.228c-.366.048-.41.759-.649 1.075M74.342 29.398c-.321.252-.37.96-.348 1.275.277-.229.469-1.01.348-1.275M33.73 17.643c.554-.945.474-1.496-.034-2.05-.81.548-.674 1.664.034 2.05M71.688 28.764c-.113.309-.1.554-.092.804.167.139.455-.166.443.06.34-.239-.153-.66-.35-.864M69.75 28.469c-.58.813.177 1.57.67 2.088.536-1.07-.37-1.43-.67-2.088M30.204 15.778c.267.262.453.56.628.867.206-.14.343-.425.45-.773-.386-.392-.828-1.485-1.078-.094M73.036 29.693c-.603.35-.296 1.362-.049 1.748.586-.586.156-1.27.049-1.748M67.238 27.696c-.324-.077-.194.707-.456 1.048.191.209.227.489.52.645.183-.663.397-1.347-.064-1.693M78.743 32.492c.041.256.148.482.213.724.598.047 1.14-.018 1.745.045.24-1.238-1.186-.651-1.958-.77M24.161 13.142c-.034.891.81 1.353 1.253 2.01l.315-.915a21.238 21.238 0 0 0-1.568-1.095M74.88 30.791c-.883.693-.048 1.72.113 2.36.285.16.382-.073.638.032-.118-.861-.568-1.562-.75-2.392M28.412 14.79c-.322.143-.405.772-.648 1.08.288.418.648 1.138 1.038 1.282.105-.494.345-.71.484-1.133-.348-.383-.587-.817-.874-1.229M34.823 19.038c.138-.379.244-.82.456-1.047-.107-.202-.306-.358-.355-.588-.606.335-.803 1.645-.1 1.635M78.077 32.542l-.25-.086c-.015.217-.02.426.19.53.15-.215-.044-.254.06-.444M31.857 16.627c-.246.219-.642.857-.29 1.105.35-.084.557-.907.29-1.105M23.876 13.97c-.184-.048-.25.149-.31.36.307.24.563.505.962.702-.118-.4-.519-.665-.652-1.062M76.943 32.338l-.747-.258c.09.37.258.703.378 1.057.23-.05.23-.566.37-.8M68.493 29.428c-.203.192-.613 1.078-.233 1.217-.047-.343.281-.872.233-1.217M26.222 14.964c-.36-.215-.202.628-.48.579.152.455.415.855 1.015 1.09.025-.184.135-.198.2-.304-.052-.55-.572-.87-.735-1.365M71.225 30.647l-.285.827c.208.176.306.401.436.616a.899.899 0 0 0-.151-1.443M21.166 13.503c-.212-.079-.123.028-.141.137 1.149 1.461 1.93 3.105 3.057 4.577.09-1.002-.717-1.802-1.164-2.535-.477-.775-.865-1.673-1.752-2.18M73.707 31.78c-.198.034-.315.608-.256.746.248-.062.232-.568.256-.746M29.778 16.745c-.25.29-.436.713-.595 1.186.315.257.434.917.793.923.115-.47.318-.765.485-1.131-.29-.294-.474-.642-.683-.978M32.73 17.857c-.803.43-.359 1.338.148 1.72l.344-.997a4.627 4.627 0 0 1-.492-.723M69.314 30.546c-.774.975.048 1.768.586 2.334-.025-.288.135-.665.26-1.024-.238-.457-.645-.834-.846-1.31M72.402 32.07c-.55.396-.48 1.654.063 1.971.25-.79.139-1.402-.063-1.97M27.45 16.78c-.123-.014-.141.183-.199.301.259.105.3.315.607.393-.09-.254-.349-.427-.408-.694M74.138 32.947c-.524.193-.271 1.348.32 1.224.065-.493-.5-.677-.32-1.224M76.978 34.388c.253.1.43.036.635.034.057-.296-.626-.449-.635-.034M75.292 33.904c-.084.346.671.607.828.285-.131-.227-.598-.287-.828-.285M33.907 19.557c-.437.49-.569 1.427-.022 1.666.328-.713.433-1.315.022-1.666M31.006 18.558c-.226.197-.383.54-.51.94.211.037.129.215.386.225.168-.45.387-.924.124-1.165M25.29 16.59l-.342.997c.304.356.542.748.707 1.171.338-.106.382-.823.65-1.075-.335-.368-.38-.874-1.014-1.092M70.732 32.612c-.293.191-.244.806-.286 1.105.262.166.358-.013.608.117.216-.565-.166-.839-.322-1.222M67.833 31.614c-.268.248-.54 1.089-.261 1.299.302-.264.352-1 .261-1.3M27.382 18.053c.12.31.27.6.544.84.451-.344-.3-.615-.544-.84M31.798 19.76c-.188-.054-.157.341-.255.469.212.197.358.424.741.534.04-.435-.378-.645-.486-1.003M68.284 33.809c.369.393.405.947 1.068 1.201.196-.373.101-.602.23-.942-.248-.114-.462.057-.579-.2-.042-.34.066-.646-.212-.998-.366-.089-.32.668-.507.939M28.618 19.037l-.257.746c.368.227.374.944.793.923l.315-.913c-.307-.242-.337-.616-.851-.756M26.092 19.373c.344.41.348.981 1.18 1.148l.287-.83c-.296-.408-.591-.815-.765-1.282-.448-.125-.407.768-.702.964M74.474 35.199c-.043.237.276.477.522.367-.012-.357-.16-.245-.522-.367M73.396 35.103c-.25-.179-.216.212-.308.36.096-.039.217-.029.359.028.055-.164-.191-.181-.05-.388M71.74 34.533c-.35-.126-.308.56-.342.719.266.164.36-.014.61.116.042-.342-.194-.548-.268-.835M31.343 20.81c-.184.503.399.633.377 1.056.264.07.282-.364.393-.607-.33-.113-.44-.335-.77-.45M24.521 18.553c-.166.612.208.956.791 1.2-.143-.414-.442-1.116-.79-1.2M30.152 20.771c-.39-.187-.377.452-.536.744l.415.143c.134-.345.268-.682.12-.887M24.094 19.795c-.193.174-.3.52-.507.663.337.273.406.677 1.016.816.276-.71-.404-.953-.51-1.48M25.721 20.45c-.328.621.549 1.249.871 1.784.2-.835-.497-1.23-.87-1.784M27.73 21.884c-.004.324.364.466.38.78.183.052.25-.15.309-.358-.255-.126-.397-.311-.69-.422M77.782 39.585c-1.685-.22-4.618-.776-6.308-.783-.005.606.813.38 1.242.427.513.058 1.058.177 1.495.235.355-.011-.112.378.245.365 1.071-.16 2.162-.279 3.326-.244M29.188 22.757c-.263-.07-.28.365-.393.606l.498.172.198-.578c-.127-.054-.33-.07-.303-.2M30.951 23.83c-.272-.182-.227.286-.335.44.247.097.38-.354.335-.44M69.289 38.42c.038.096.024.217-.03.36.247.215.87.135 1.298.264-.019-.582-.772-.554-1.268-.624M72.517 42.5c.082.686.057 1.72-.523 2.323.797.125 1.042-1.385 1.074-2.038-.276-.05-.24-.252-.55-.285M17.79 24.12c-.06.81-.226 1.674-.528 2.6.592.301 1.065.036 1.251-.405.245-.571-.065-2.35-.724-2.195M24.783 28.288c-.025.729-.2 1.526-.552 2.41.604.518 2.13-2.05.552-2.41M74.754 51.342c1.634 1.205 2.607 3.009 5.062 3.595-1.607-1.196-2.696-3.63-5.062-3.595M72.568 51.234c1.208 1.04 1.954 2.736 3.987 2.952-1.234-.977-2.177-2.698-3.987-2.952M70.242 50.993c.923.972 1.704 2.517 3.435 2.668-1.08-.915-1.65-2.52-3.435-2.668M67.668 50.664c.95.941 1.837 2.687 3.548 2.611-1.069-.929-1.648-2.506-3.548-2.61M6.186 34.13c-.355.503-.179 1.579-.19 2.438-.011.83-.385 1.972.391 2.363.22-1.396.126-2.637.708-4.21-.379-.16-.59-.4-.909-.59M7.76 40.052c.117-1.343.138-2.643.82-4.262a2.69 2.69 0 0 1-.743-.534c-.13-.078-.179.013-.221.108.015.751-.078 1.632-.108 2.468-.03.767-.298 1.7.253 2.22M9.157 36.266c-.472 1.7-.208 3.047-.378 4.598.211.267.466.51.768.732.128-1.466.177-2.893.738-4.57-.313-.285-.707-.529-1.128-.76M12.652 38.767c.056 1.928.085 3.868.134 5.799.267.077.199.316.522.367.324-1.364-.215-4.013 1.103-4.818-.444-.517-1.143-.912-1.759-1.348M14.742 40.229c-.067-.037-.09.009-.112.056-.001.961-.177 1.984-.197 2.993-.02.952-.177 2.014.25 2.774.474-1.519.183-3.26.936-5.148a2.882 2.882 0 0 1-.877-.675M15.727 46.785c.206.153.469.276.58.474.503-1.518.324-3.485 1.322-4.919-.534-.224-.995-.847-1.459-.877-.287 1.843-.29 3.544-.443 5.322M18.094 42.868c-.224.907-.35 1.947-.443 2.907-.09.903-.567 2.034.221 2.583.235-1.58.24-3.279 1.048-4.927-.358-.145-.388-.455-.826-.563M72.359 28.16c.026-.272.226-.193.253-.467-.157-.155-.298-.316-.38-.507-.201-.024-.177.401-.286.555.21.174.306.402.438.615.125.012.056-.143-.025-.196M68.904 27.436c-.062.01-.258.672-.205.86.132-.048.216-.655.205-.86M23.696 15.3c-.07.425.655 1.06.843 1.59.203-.057.218-.493.394-.607-.367-.347-.875-.63-1.237-.983M12.075 38.292c-.288-.275-.598-.537-1.047-.732-.314.875-.312 1.88-.387 2.742-.075.842-.428 1.8.084 2.442.4-1.28-.325-3.622.715-4.763.516.62.2 1.649.252 2.498.289-.534.072-1.415.383-2.187" fill="#231F20"/><path d="M82.357 50.932c.11-2.973.128-5.931-.041-8.644-.257-4.144-.733-8.18-.629-12.718.035-1.495-.088-3.478.575-4.655.39-.691.777-.394 1.24-1.085-.317-.624.294-.735.577-1.218-.399-.39-.053-.857-.105-1.27-.482-3.709-8.75-4.746-12.086-6.553-.908.606-1.538-.129-2.297.293-.696.39-1.569 2.262-2.028 3.733-.882 2.832-.973 5.987-.963 8.755.01 2.824.267 5.562.488 8.09.447 5.035.409 11.11-.077 16.706-.55 6.375-3.509 12.282-7.264 16.623-2.746 3.18-5.58 5.338-9.154 6.66-1.093.404-2.262.912-3.618 1.092-3.274.427-7.963-.664-11.917-2.537-1.78-.846-3.555-1.559-5.182-2.422-3.074-1.628-5.827-4.024-7.594-6.3-.749-.96-1.271-2.411-1.96-3.645-.751-1.344-1.34-2.565-1.644-3.803-.549-2.231-.354-5.076.119-7.8 1.358-7.817 5.085-14.872 8.765-19.822.754-1.019 1.753-1.913 2.399-2.993.272-.458.412-1.014.657-1.457 1.062-1.925 2.547-3.135 3.744-5.191.335-.583.476-1.263.789-1.852 1.705-3.217 4.099-6.16 5.742-9.637.316-.67.802-1.195.923-1.724.21-.925-.286-2.46-.825-3.09-.745-.874-2.724-1.616-4.413-2.079C33.068 1.433 28.81.71 26.03.22c-1.137 1.616-1.203 3.808-.862 5.266-.914 2.415-1.986 4.101-3.344 5.85-.812 1.043-1.71 2.132-2.558 2.939-5.495 5.253-10.213 11.594-14.049 19.837C2.506 39.945.811 46.846.282 52.207c-.74 7.48 1.422 13.535 4.441 18.998 2.31 4.172 5.305 7.923 10.481 10.604.93 1.13 1.812 2.394 3.335 3.22.512.28 1.308.446 1.874.71.865.404 1.592 1.022 2.512 1.448.936.431 1.945.8 3.041 1.183 6.1 2.124 13.538 5.325 18.657 5.034.864-.051 1.638-.476 2.38-.536 2.246-.178 4.183.041 6.125-.437 1.878-.461 3.734-.93 5.679-1.468 3.902-1.078 6.415-3.912 9.5-6.632 4.26-3.756 8.39-9.395 10.801-16.683.784-2.368 1.74-4.94 2.233-7.54.565-2.968.905-6.186 1.016-9.176" fill="#FFFBF8"/><path d="M35.917 3.848l.557.181c-.114.348-.21.723-.395.927-.202-.14-.243.046-.423-.05.185-.404.058-.648.26-1.058M37.9 4.502c.344.112.687.227 1.032.343-.205.469-.743.274-1.216.215.063-.187.122-.37.184-.558M34.386 3.426c.031.357-.29 1.179-.368 1.376-.181-.097-.22.088-.423-.051-.062-.39.323-1.001.289-1.403.123-.062.31.002.502.078M34.942 3.61c.157.05.315.104.474.157-.203.427-.207 1.254-.712 1.085.06-.404.154-.827.238-1.241M33.486 3.216a323.67 323.67 0 0 1-.5 1.509c-.257.007-.513.027-.845-.105.173-.572.155-1.047.366-1.638.389.197.616.078.98.234M36.899 4.344c.198.054.382.115.448.24-.176.22-.3.541-.66.396.07-.21.139-.422.212-.636M32.007 2.903c-.282.65-.262 1.146-.5 1.774-.221-.14-.279.058-.502-.08.137-.619.206-1.203.341-1.826.158-.082.43.068.66.132M30.316 2.431c.21.07.462.12.529.264-.278.69-.263 1.232-.449 1.878-.803-.322-.17-1.37-.08-2.142M28.542 1.934c-.105.736-.295 1.517-.39 2.248-.717-.346-1.106-.858-1.589-1.318-.041-.311.23-.777.187-1.085.418-.306 1.195.098 1.792.155M29.02 2.088c.266.09.529.177.793.265-.322.744-.275 1.627-.525 2.114-.21-.069-.423-.14-.634-.207.118-.723.079-1.364.366-2.172M75.065 17.423c.103.036.211.07.315.106-.185.373-.37.755-.501 1.247-.15-.347.162-.92.186-1.353M76.013 17.737c.451.152.9.298 1.35.447-.862.834-1.654 1.8-2.586 2.493.496-.885 1.044-1.826 1.236-2.94M78.55 18.58c-.84.651-1.412 1.837-2.452 2.096.615-.804 1.307-1.441 1.9-2.28.182.063.368.124.552.185M71.866 16.451c-.103.24-.293.302-.423.478-.13-.183.105-.743.423-.478M74.243 17.24c.27.768-.515 2.348-.975 2.938-.333-.227-.995-.643-1.477-.577.48-.85 1.691-1.375 2.294-2.414l.158.053M80.06 19.343c-.83.63-1.723 1.134-2.534 1.803l-.475-.159c.618-.74 1.329-1.305 1.871-2.197.478.133.785.356 1.138.553M39.779 6.533c.396.266.173.84.186 1.295-.204-.06-.414-.122-.473.107-.109-.364.38-1.028.287-1.402M83.074 21.398c-.124.37-.246.74-.368 1.11-.615.226-1.442.024-2.353-.338.776-.59 1.955-2.13 2.72-.772M37.242 6.488c.055.15.167.268.106.472-.262.049-.433.275-.815.081.18-.293.506-.302.71-.553M36.582 6.355c-.512.16-.878.623-1.504.56.473-.242.757-.865 1.504-.56M32.753 5.969c-.296.25-.685.307-.977.555.03-.253.547-.662.977-.555M39.755 8.464c-.56 2.005-1.97 3.75-3.107 5.4a265.758 265.758 0 0 0-5.612 8.448c-.941 1.475-1.708 3.079-2.634 4.502-1.177 1.798-2.653 3.372-3.848 5.242-1.234 1.928-2.426 3.87-3.345 6.116-.027.15-.132.138-.106.052 2.444-5.67 5.404-10.837 8.85-15.564 3.44-4.721 5.947-10.146 9.802-14.196M31.377 5.866c-.355.256-.725.483-1.268.372.379-.211.699-.54 1.268-.372M36.665 8.233c-.111 1.154-1.772.789-2.852.642-2.12-.289-4.428-.921-6.766-1.624.255-.375.55-.662.845-.954 3.188 1.32 6.018 1.794 8.773 1.936M78.716 23.126c-1.825.747-4.666-.7-6.446-1.783 1.932.174 4.59.945 6.446 1.783M68.859 19.951c.072.006.065.054.053.105-.596 8.58 1.24 17.134 1.655 25.562.062 1.229.252 2.458.216 3.596-.073 2.36-.546 5.291-1.07 7.75-.593 2.768-1.739 5.599-2.996 7.992-2.833 5.385-6.902 9.557-11.5 11.872-.83.415-1.62 1.058-2.376 1.328-1.215.434-2.745.648-4.172.907-1.44.261-2.948.501-4.438.378-2.585-.204-5.624-1.411-8.51-2.464 3.833 1.364 6.855 1.643 9.854 1.592 2.836-.05 5.726-.678 7.975-2.03 1.764-1.06 3.522-2.726 5.199-4.266a29.778 29.778 0 0 0 4.615-5.433c2.8-4.224 4.724-10.26 5.626-15.931 1.22-7.674-.764-14.36-.96-21.547-.032-1.213.057-2.484.097-3.752.06-1.76-.265-3.75.732-5.659M36.958 10.532c-.428.994-1.562 1.716-2.16 2.808.195-1.457 1.355-2.126 2.16-2.808M70.951 22.138c.09.37.138 1.056-.209 1.43-.265-.393.155-1.031.21-1.43M80.386 25.263c-.363 6.182.54 11.725.45 17.768-.11-2.577-1.107-5.41-1.254-8.166-.086-1.637.08-3.36.072-4.998-.011-1.587-.278-3.296.232-4.681.189.076.376.14.5.077M33.999 10.167c-.264.178-.521.369-.952.216.278-.152.484-.449.952-.216M32.362 9.803c-.164.112-.292.293-.583.16.166-.112.294-.294.583-.16M34.397 10.566c.06.215-.333.646-.475.898-.295-.025-.265-.22-.527-.262.308-.26.673-.417 1.002-.636M77.505 24.924c-1.699 1.533-3.437 2.99-5.064 4.67-.152-.587.522-.95.873-1.3 1.143-1.16 2.49-2.37 3.716-3.525.158.053.32.104.475.155M78.59 25.372c-.822 1.232-2.004 2.087-3.033 3.053-1.032.956-1.974 2.032-3.14 2.83-.157-1.351 1.265-2.039 2.716-3.415 1.272-1.203 2.442-3.102 3.457-2.468M29.64 9.253c-1.028.236-2.362-.137-3.434.008.204-.164.235-.676.448-.82 1.042.365 1.948.459 2.986.812M32.947 12.022c.22.087.282.256.502.344-.369.8-.832 1.411-1.186 2.247.07-.784.57-1.784.684-2.591M78.305 28.89c.182.24.012.656.135.928-1.857 1.563-3.835 2.898-5.648 4.558-.231-.1.03-.458-.157-.58 1.79-1.832 3.836-3.158 5.67-4.906M71.066 30.28c.251.075.159.323.082.557-.176-.108-.077-.355-.082-.556M71.203 31.475c.25.272.277.854.054 1.158-.175-.305-.197-.693-.054-1.158M71.443 33.135c.066.28.257.765-.076 1.034-.17-.263-.299-.889.076-1.034M78.632 35.608c.146.957-1.258 1.867-2.216 1.906.726-.66 1.476-1.275 2.216-1.906M78.69 36.768c.095.02.134.066.132.133-.217.55-.994 1.087-1.531 1.431.097-.774 1.035-.886 1.399-1.564M78.848 37.617c.362.923-.895 1.144-1.238 1.877-.363-.739.919-1.226 1.238-1.877M78.98 38.805c-.107.66-.968.96-1.315 1.592.1-.69.928-1.046 1.316-1.592M76.208 38.679c.593 1.068.816 2.323.693 3.751-.15-.122-.202-.293-.502-.34-.257-.025-.37.229-.452.556-.211-1.197-.427-2.506.26-3.967M78.983 39.597c.097.017.136.066.133.131-.13.815-.979 1.288-1.531 1.697.34-.86.974-1.138 1.398-1.828M20.945 21.7c-.052 1.183-.957 2.925-1.555 3.892-.176-.228-.758-.35-1.03-.342.81-1.286 1.453-2.901 2.585-3.55M15.449 22.085c-.21.807-1.375.856-1.899 1.485.265-.7 1.36-.886 1.899-1.485" fill="#231F20"/><path d="M79.435 43.271c.077.013.069.053.057.106.26 1.61.52 3.478.748 5.445.205 1.781.563 3.834.432 5.606-.154 2.077-.736 4.272-1.203 6.56-.304 1.471-.242 2.566-1.421 3.224-.046-.622.362-2.128.892-2.431.035-.239-.376-.251-.158-.582.523-2.294 1.301-4.71.834-6.507-.74 3.437-1.607 8.33-3.576 11.327.16.09.191-.066.239-.188-.305 1.14-1.216 3.622-2.317 4.078-.173.351.31.372.105.738-1.663 2.536-3.552 4.773-5.246 7.071-.883 1.201-1.7 2.31-2.688 3.339a126.26 126.26 0 0 1-2.9 2.918c-1.879 1.836-4.47 2.923-6.89 3.795-2.493.9-5.001 1.881-7.709 2.028-.036-.312.005-.667-.134-.926 1.328-.81 2.987-.852 4.542-1.228 1.445-.347 3.129-.684 4.41-1.356.467-.247.871-.681 1.37-.956 3.237-1.771 6.46-4.106 9.05-7.397 3.211-4.083 5.967-8.8 8.192-14.64 2.39-6.281 2.107-12.512 1.66-18.039.54-.725 1.19-1.23 1.711-1.985" fill="#231F20"/><path d="M76.961 47.298c.176 2.668.198 5.412.093 8.22-1.096-.518-1.279.781-1.846 1.326.331-3.23.784-6.524.592-9.494.249.075.949.58 1.161-.052M12.048 26.772c.116.728-1.043 1.159-1.553 1.512.053-.902 1.03-1.105 1.553-1.512M11.046 28.467c-.085.926-1.035 1.274-1.608 1.668.06-.983 1.047-1.252 1.608-1.668M9.995 30.321c.024.75-.848.855-1.267 1.165-.165-.296.278-.488.29-.873.468.191.673-.153.977-.292M9.15 31.801c.028.896-.833 1.15-1.344 1.406-.008-.848.855-1.107 1.345-1.406M8.23 33.523c.089.45-.672.326-.897.583-.086-.434.66-.348.897-.583M7.703 34.583c.032.763-.725 1.092-1.266 1.166.26-.713.726-1.015 1.266-1.166M18.383 39.794c.177.482.79.746.373 1.531-.335-.405-.735-.78-.373-1.531M18.175 41.485c.228.303.394.64.134 1.19-.37-.233-.401-.637-.134-1.19M75.9 61.39c.098.019.14.063.132.131-1.437 4.777-3.63 8.045-5.684 11.595-.38-.436-1.582-.724-2.036-.496 1.246-1.916 2.603-3.486 3.61-6.117.692-1.811 1.287-3.447 2.05-5.396.245.357 1.47 1.512 1.928.283M17.755 43.016c.274.304.388.69.107 1.27-.276-.297-.412-.674-.107-1.27M78.735 64.267c.221.84-.783 1.276-1.295 1.51.19-.988.873-.989 1.295-1.51M8.959 41.69c.132.588.695 1.188 1.53 1.214-.991 3.521-1.561 6.828-1.91 10.025-.563-.633-1.615-1.139-2.3-.498-.165-3.124 1.631-7.164 2.68-10.742M17.282 44.71c.277.37.473.78.345 1.349-.297-.355-.566-.73-.345-1.35M78.183 65.933c.104.739-.747.706-1.003 1.166-.078-.681.759-.677 1.003-1.166M16.968 46.193c.314.544.891.963.425 1.905-.313-.549-.759-1.03-.425-1.905M77.393 67.521c.121.602-.57.71-.847.956-.037-.437.579-.694.847-.956M16.6 48.1c.79.288.402 1.23.322 2.217-.114 1.416-.15 3.729-.229 5.212-.561-.9-.477-2.22-.456-3.41.028-1.312.263-2.742.363-4.02M76.84 68.924c.04.388-.615.534-.87.764-.042-.383.61-.528.87-.764M15.44 48.947c-.06 1.684-.252 3.433-.176 5.05-.62-.573-.25-1.588-.163-2.429.09-.875.114-1.803.34-2.62M76.286 70.063c.056.857-.887.866-1.238 1.35-.022-.79.851-.934 1.238-1.35M75.366 71.78c-.014.817-.935.952-1.401 1.303.07-.698.962-.898 1.4-1.303M73.44 74.67c.011.635-.769.834-1.16 1.112.03-.56.753-.869 1.16-1.112M16.457 56.241c.509.187.373.692.53 1.058-.489.066-.67-.586-.53-1.058M14.925 56.353c.284.319.743.55.607 1.079-.441-.24-.752-.542-.607-1.079M72.387 76.258c-.018.576-.78.815-1.212 1.01.054-.505.834-.708 1.212-1.01M14.98 57.778c.285.3.752.504.741.952-.465.051-.91-.471-.741-.952M16.724 59.148c.212.136.262.356.345.557-.264.147-.513-.27-.345-.557M15.034 58.94c1.22.6.725 2.064 1.195 3.038-.166.41-.164-.42-.477-.154.56 2.341 1.947 4.267 3.101 6.309-.109 0-.196.05-.236.186-2.68-2.378-3.383-5.753-3.583-9.379M71.28 77.741c.115.558-.96.971-1.506 1.088.41-.545.996-.738 1.506-1.088M65.359 76.22c-.117.787.036 1.439 1.033 1.665-.02.138-.122.111-.158.212.261.084.267-.346.582-.16-1.444 2.064-3.88 3.994-6.174 5.354-.38.228-1.944 1.355-2.27 1.275-.314-.076-.802-1.617-1.797-.947 2.344-2.141 5.557-3.685 7.728-6.6.44-.092.738-.461 1.056-.799M70.382 79.121c-.137.602-1.141.62-1.583 1.06.161-.564 1.126-.656 1.583-1.06M5.764 60.1a8.635 8.635 0 0 1-2.349.453c.029-.212.008-.4-.081-.552.643-.388 1.533-.282 2.218-.588.333.095 0 .529.212.687M5.793 61.342a8.719 8.719 0 0 0-2.085.455c-.112-.255-.2-.517-.162-.845.772.196 2.468-1.019 2.247.39M5.843 61.713c.128.16.185.35.163.582-.76.068-1.402.37-2.166.429.057-.208-.054-.328-.107-.477.651-.28 1.45-.273 2.11-.534M6.083 62.586c.057.235.206.425.11.74-.73.039-1.322.357-2.116.265-.044-.083.024-.228-.078-.29.573-.479 1.51-.244 2.084-.715M20.941 67.678c.115.119.166.27.315.373-.357.19-.917.687-1.213.212.216-.358.635-.312.898-.585M21.945 68.894c-.286.305-.642.475-1.108.423.034-.255.781-.755 1.108-.423M6.325 63.722c.15.144.208.337.158.581-.729.039-1.378.238-2.06.374a.776.776 0 0 1-.159-.582c.702-.094 1.417-.162 2.061-.373M19.7 68.766c-.082.278-.393.095-.474.373-.323-.015-.162-.272-.423-.315.258-.234.539-.363.896-.058M6.75 64.83c-.626.425-1.443.462-2.22.585.178-.786 1.5-.322 2.033-.823.192.017.061.19.187.239M23.64 70.69c-.791.187-1.69 1.097-2.457.507.755-.269 1.743-1.38 2.457-.508M20.361 69.426c.353.335-.302.285-.368.58-.147-.034-.135-.152-.292-.181.148-.281.463-.222.66-.399M6.828 65.385c.988 2.723 2.388 5.238 3.977 7.658-.55.226-1.074.498-1.692.585-1.76-2.042-3.4-4.152-3.997-6.784.69-.162 1.34-.405 1.872-.877-.688-.464-1.768.61-2.242.139.538-.548 1.497-.269 2.082-.72M24.857 71.531c-.811.228-1.692.878-2.564.562.798-.28 1.693-1.24 2.564-.562M26.52 72.611c-.341.198-.637.489-1.161.32-.054.316-.633.411-.974.557-.46-.145-.6-.449-1.033-.605.945-.43 2.058-1.32 3.169-.272M29.376 74.348c-.853-.077-1.935-.612-2.88-.866.814-.916 1.792.568 2.88.866M39.767 79.376c-4.904.327-10.342-3.258-14.67-5.388.203-.214.767-.393.898-.318 4.702 1.844 8.673 4.06 13.772 5.706M19.202 72.127c-.034.32-.832.652-1.37.956-.507.281-1.194.9-1.61.345.375-.358.998-.612 1.529-.901.445-.242 1.045-.837 1.45-.4M20.42 72.968c-.867.645-1.866 1.029-2.745 1.648a4.21 4.21 0 0 0-.635-.476c.776-.735 1.78-1.023 2.639-1.592.384.072.398.328.74.42M21.188 73.843c-1.057.421-1.922 1.538-3.25 1.037.848-.682 1.906-.948 2.8-1.541.192.145.257.355.45.504M21.98 74.632c-.64.518-1.402.805-2.083 1.243-.384-.068-.4-.324-.74-.416.918-.26 1.934-1.755 2.823-.827" fill="#231F20"/><path d="M13.894 72.218c.923.9 1.785 1.835 3.015 2.582-.006.137.227.154.052.372.899.404 1.795.893 2.697 1.421 2.148 1.248 4.327 2.708 6.878 3.685-2.474-.946-4.912-1.27-7.722-2.465-.514-.221-.952-.624-1.61-.447-1.274-.988-2.923-1.876-3.754-3.007-.136-.18-.038-.578-.423-.579.45-.163.875-.903.867-1.562" fill="#231F20"/><path d="M22.746 75.236c-.556.605-1.349.733-1.924 1.3-.32-.037-.348-.221-.609-.288.807-.36 1.56-1.409 2.533-1.012M52.43 85.24c.223.461-.16 1.227.586 1.428-1.586.36-3.353.349-4.967.645-.086-.155-.255-.27-.398-.393-.399-.137-.538.247-.87.238-.273-.457-1.241-.567-1.718-.922 1.828-.176 3.642-.381 5.306-.885.74.455 1.404 0 2.062-.111M23.62 76.055c-.719.363-1.186 1.24-2.296.823.436-.337 1.681-1.649 2.296-.823M11.678 73.86c-.575.227-1.501.829-2.036.294.54-.353 1.41-.927 2.036-.294M12.287 74.416c-.621.142-1.372.68-1.98.401.558-.276 1.39-.607 1.98-.4M13.107 75.13c-.742.056-1.576.889-2.22.323.614-.3 1.458-.751 2.22-.323M13.74 75.604c-.676.174-1.55.959-2.166.427.691-.203 1.31-.556 2.167-.427M14.587 76.233c-.687.252-1.476.725-2.244.402.656-.312 1.335-.588 2.244-.402M15.405 76.948c-.745.004-1.299.39-2.11.268.57-.28 1.41-.685 2.11-.268M16.04 77.42c-.64.084-1.143.443-1.926.242.559-.174 1.398-.442 1.927-.242M35.15 83.748c-.588.096-1.187.177-1.926-.021.599-.076 1.149-.258 1.927.021M37.555 84.987c.226-.067.857-.054 1.35.18.405.194-.588.034-1.35-.18M16.439 77.816c-.444.258-.998.298-1.586.27.467-.218 1.032-.23 1.586-.27M47.259 88.903c.108.32.12.688-.026 1.137-7.592-2.626-17.163-4.676-24.634-8.245 2.872.832 6.27 1.353 8.962 2.701 4.909.93 11.095 3.23 15.698 4.407M18.028 79.398c-.08.246-.665.164-.768-.078.077-.33.525.076.768.078M17.66 81.303c.583.391 1.1.814 1.823 1.133-.027.143-.23.898-.445 1.085-.186-.879-1.675-1.1-1.377-2.218M46.287 91.31c-1.01.445-2.424.09-3.7.01.22-.353.388-.81.683-1.007.936.295 2.453.592 3.017.997M20.914 83.174c.105.031.21.067.315.102-.231.202-.302.722-.553.875-.353-.22.196-.684.238-.977M22.182 83.593c-.21.336-.365.766-.609 1.032-.214-.166.19-1.26.609-1.032M23.29 83.96c-.252.421-.4 1.05-.817 1.142-.327-.282.32-.718.314-1.22.127-.06.311.003.503.078M23.898 84.25c.186.064.37.123.555.186-.362.418-.447 1.394-1.16 1.11.2-.433.45-.77.605-1.296M24.982 84.695c.239.078.477.158.714.237-.249.428-.533.786-.761 1.244-.189-.06-.372-.12-.558-.184.138-.56.467-.732.605-1.297M26.173 85.09c.447.194.848.413 1.402.552-.454.333-.874.723-1.322 1.062-.26-.113-.664-.153-.763-.344.236-.398.412-.93.683-1.27M37.431 88.82c.08.513-.407.91-.5 1.507l-.631-.21.472-1.43c.273.154.387-.024.66.132M38.068 89.03c.133.042.263.087.396.131-.201.566-.354 1.233-.736 1.428-.42-.22.17-1.258.34-1.559M39.017 89.346c.105.036.213.068.318.102-.296.246-.3 1.073-.603 1.294-.305-.264.241-.956.285-1.396M28.762 86.035c-.586.326-.882 1.232-1.796.906.515-.467.842-1.313 1.796-.906M30.429 86.587c.137.473-.917.79-1.265 1.165.128-.443.934-.672 1.265-1.165M31.538 86.954c-.527.397-.928 1.047-1.612 1.141.511-.433.916-1.081 1.612-1.141M36.295 88.53c-.158.478-.314.954-.473 1.43-1.546-.316-3.309-1.058-4.943-1.549.45-.465.91-.909 1.45-1.195 1.321.44 2.643.876 3.966 1.314M73.214 16.899c-.176.854-1.653 1.668-2.375 2.386.407-.514 1.612-1.706 2.375-2.386M34.971 6.174a3.101 3.101 0 0 1-.844.426c-.085.128.45-.646.844-.426M74.599 23.875c.167.215-.745.642-.528.532.128-.267.341-.372.528-.532M75.842 24.375c-.563.55-1.205.94-1.74 1.54.311-.526 1.007-1.416 1.74-1.54M76.476 24.585c-.008.393-.562.572-.897.848-1.04.851-2.152 2-3.166 2.918 1.096-1.245 2.585-2.839 4.063-3.766M77.512 28.1c-1.638 1.354-3.324 2.601-4.88 4.106 1.589-2.097 3.903-3.9 5.747-5.934.358 1.183-.437 1.899-1.238 2.412-.117-.163.302-.358.37-.584M11.159 47.794c.954-.253 1.89-.537 2.505-1.458-.953.248-1.86.593-2.505 1.458zm2.663-2.996c-.737.777-2.222.754-2.56 1.884 1.061-.392 2.137-.746 2.877-1.777l-.317-.107zm-1.954.324c1.188-.051 2.082-.68 2.876-1.515-.882.046-2.33.796-2.876 1.515zm.078-1.034c1.185-.23 2.297-.603 3.088-1.62.084.024.097-.078-.055-.103-.984.631-2.277.648-3.033 1.723zm3.242-3.152c-.755.604-1.854.522-2.426 1.485 1.04-.118 1.896-.612 2.638-1.328-.1-.037-.073-.138-.212-.157zm3.95-8.733c-1.986 1.128-2.837 4.799-3.82 7.544-.823.464-1.854.517-2.48 1.379.941.197 1.81-.87 2.746-1.116 1.242-2.515 2.635-5.34 3.712-7.756-.052-.018-.105-.036-.157-.051zm4.682-11.22c.129.264.416.45.874.55.287-.184.662-.555.605-1.034-.554-.42-1.337-.346-1.48.484zm-1.857-3.964c-.175.332-.05.511-.182.82.397-.052.5.124.872.022.541-.523-.171-1.256-.69-.842zm4.31.81c-.685.074-1.428.14-2.112.27-.67.126-1.499.184-1.927.769 1.195-.21 3.02-.296 4.25-.881-.101-.038-.074-.14-.21-.158zm-1.058-.792c-.626.084-1.477.069-1.876.612 1.422-.065 2.853-.113 4.015-.694a11.79 11.79 0 0 0-2.139.082zm2.135-1.142c-1.354.37-3.04.086-4.168.91 1.521-.127 3.006-.329 4.382-.753-.1-.039-.076-.138-.214-.157zm-3.222-.36c1.012-.13 2.914-.034 3.539-.592.105-.093.16-.1 0-.263-1.163.314-2.481.324-3.54.854zm.687-1.01c1.45.122 3.235-.22 4.568-.777-1.471-.16-3.206.281-4.568.777zm5.54-3.714c-.038.322-.854.716-1.318 1.064-.528.39-1.044.794-1.452 1.19-.729.086-1.504.075-2.085.454.415.55 1.525-.179 2.005.05.456-.064.76-.425 1.27-.375-.058-.145-.342-.229-.053-.368.993-.48 1.617-1.698 2.901-1.593-.42 1.242-1.428 2.915-1.472 3.65-2.157 3.483-4.7 6.486-7.01 9.747-1.093 1.541-1.913 3.389-3.137 4.688.713.01.996-.823 1.4-1.299 2.155-2.561 4.483-5.577 6.561-8.661.842-1.245 1.963-2.687 2.345-3.89.17-.539-.138-.753.263-1.06.167-.391.055.199.184.24.823-.43 1.005-2.128 1.608-2.995.302.284-.122.691-.211.898-1.13 2.725-2.275 4.973-3.766 7.123-3.224 4.654-6.53 9.2-9.192 15.014-1.825 3.979-4.055 8.149-5.317 13.125-.747 2.952-.795 6.035-.699 9.019.09 2.775-.016 5.774.913 8.14.467 1.186 1.26 2.382 1.934 3.458.706 1.13 1.499 2.178 2.49 3.116-.996.348-1.809 1.05-2.773 1.459-.676-.66-1.394-1.094-1.932-1.87-.355-.518-.434-1.244-.848-1.69-.165-.18-.476-.288-.633-.477-1.104-1.335-1.815-3.816-2.307-5.785-.575-2.28-.74-4.285-.62-6.633.328-6.415 1.107-12.8 3.797-20.236-.434.28-.642 1.002-.95 1.535-.197.136-.444-.3-.766-.34-.586-.078-.908.42-1.238.82 1.407-3.25 3.686-5.912 5.373-9.052.319.304.738.08 1.162.207-.544 1.902-1.72 2.546-2.371 4.236 1.573-1.254 2.581-3.476 3.928-5.483 1.455-2.167 3.453-4.544 3.711-7.488-.329-.12-.491-.004-.714-.238-3.471 2.982-6.355 8.095-9.277 12.606-1.306 2.02-2.441 3.773-3.398 6.274-.903 2.359-1.505 4.971-2.205 7.459-1.245 4.42-1.342 7.853-.721 11.48-.318.278-.079.53-.105.847-.785.06-1.528.204-2.297.296-.094-4.903-.075-10.424 2.006-15.894 1.346-3.542 3.06-6.997 4.66-10.087 1.443-2.787 2.633-5.34 4.453-7.863a203.289 203.289 0 0 1 8.592-11.07c.334-1.49 1.717-2.692 2.45-4.212 1.333.028 2.779.27 4.12.308-.806.809-2.06 1.864-3.297 2.254 1.638.405 2.637-1.593 4.039-2.098zM70.689 24.255c.365-.005.342.754.318 1.163-.329-.276-.213-.773-.318-1.163M78.41 28.312c-.5.648-.711.227 0 0" fill="#231F20"/><path d="M34.324 14.504c.002-.027.026-.052.026-.078-.019.396-1.453 2.654-2.003 3.388-1.092 1.46-2.499 3.248-3.213 4.663.78-1.701 2.373-3.934 3.636-5.934.5-.79 1.006-1.767 1.554-2.039M78.336 31.191c-1.866.759-3.641 2.85-5.435 4.19-.152-.728.724-1.016 1.16-1.377 1.376-1.138 2.895-2.512 4.407-3.473-.064.364-.023.671.027.977-.284.185-.658.181-.87.504-.022-.26.568-.442.711-.82" fill="#231F20"/><path d="M72.949 49.316c-.119 3.946-1.545 8.97-3.277 13.622-.608 1.62-1.074 3.304-1.738 4.708-.204.435-.957.996-.631 1.381 2.603-3.238 4.86-9.286 5.682-13.71.136-.72.409-1.493.423-2.063.003-.319-.152-.625-.137-.926.063-1.188.41-2.243-.006-3.17a15.652 15.652 0 0 1-.237-.08c-.027.077-.054.157-.08.238zm1.853-14.626c1.253-.273 2.441-1.804 3.615-2.677.414 1.05-.868 1.39-1.503 1.877-.738.568-1.5 1.109-2.005 1.804.627.066 1.267-.67 1.873-1.142.621-.484 1.172-1.188 1.796-1.17-.005.967-1.064 1.296-1.743 1.804-.688.516-1.493 1.074-1.766 1.882 1.368-.395 2.387-2.18 3.616-2.413-.134.801-.98 1.018-1.531 1.432-.58.434-1.14.936-1.635 1.482-.306.398.369.3.24.608-.687 1.765-.5 3.693-.494 5.475.01 2.984-.118 5.76-.382 8.859-.13 1.526-.127 3.142-.547 4.574-.199.68-.59 1.263-.736 1.957-.16.765-.277 1.874-.734 3.018-1.76 4.379-3.85 8.955-6.824 12.097-2.139 2.264-4.304 4.262-6.673 6.07-.794.61-1.51 1.38-2.268 1.803-.939.529-2.343.763-3.67 1.254-1.286.475-2.59 1.187-3.775 1.302-1.613.16-3.477-.086-5.23-.145-1.792-.062-3.627-.172-5.418-.65-.447-.163-.08.27-.263.265-6.08-1.813-11.478-3.97-16.047-6.544-.08-.362.918-.794 1.266-1.17 3.878 1.967 8.088 4.246 13.164 5.418 1.01.234 2.186.245 3.226.362 3.345.39 5.632-.2 8.53-.787.895-.176 1.8-.28 2.72-.507.843-.205 1.621-.63 2.508-.93 1.668-.57 3.595-1.106 4.855-2.18.51-.433.978-1.13 1.531-1.7 3.303-3.363 7.1-8.722 9.172-14.137.564-1.479.9-2.763 1.339-4.317 1.883-6.648.872-12.043.525-17.792-.059-.95-.064-1.878-.11-2.853-.04-.862-.293-1.835.1-2.698.111.474.224.946.003 1.585.06.147.282.213.212.424.338 3.977.566 8.008 1.29 11.79.659-1.375.379-2.895.359-4.286-.008-.732.067-1.487.026-2.193-.045-.698-.376-1.331-.402-1.98-.009-.303.167-.526.185-.82.056-.94-.398-1.853-.323-2.75.834-.71 1.667-1.427 2.533-2.071.234-.29-.402.664-.605.77zM22.12 13.635c.177-.04-.254.448-.398.662-.575.861-1.302 1.997-2.11 2.385.6-.961 1.703-2.058 2.507-3.047M19.35 17.476c-.436 1.15-1.76 1.672-2.639 2.387.477-1.08 1.74-1.718 2.639-2.387M19.886 38.439c-.237.406-.014-.383-.421-.32-.757.58.396 1.112-.236 2.044-.426-.19-.414-.588-.583-.9 2.795-5.898 5.851-11.269 9.515-15.437.266-.07-.202.315-.373.583-2.65 4.215-5.714 8.779-7.902 14.03M79.146 41.503c-.657.09-.99.836-1.425 1.378-.264-.939.977-1.432 1.422-2.173.228.525.14 1.207.293 1.772-.57.707-1.192 1.312-1.687 2.173-.22-.332.022-.895-.108-1.272.564-.354 1.532-1.216 1.505-1.878M17.005 20.314c-.062.458-1.239.942-1.767 1.345.314-.469 1.21-.922 1.767-1.345M14.184 23.779c-.227.692-1.262.912-1.795 1.432-.195-.227.218-.348.212-.636.688.053 1.055-.526 1.583-.796M13.027 25.421c-.14.56-1 .828-1.56.982.458-.456 1.127-.476 1.56-.982M7.124 36.065A79.127 79.127 0 0 0 3.128 47.07c-.877 3.092-.832 6.353-.779 9.256.057 2.839.269 5.306.806 7.93.002.003.22.276-.054.157-2.488-5.514-2.053-13.33.442-21.52a38.937 38.937 0 0 1 1.5-3.997c.465-1.065.791-2.702 2.08-2.832M74.39 73.397c-.04.54-.794.792-1.211 1.01.037-.536.842-.688 1.211-1.01M14.844 54.738c.553-.055.49.766.581 1.162-.484.02-.585-.718-.581-1.162M6.448 58.302c.677.378 1.289-.386 1.662-1.038.277.763-.438 2.312.479 2.54-.357 3.507 1.272 6.018 2.577 8.689-.466.096-1.472-.602-1.636.431C7.276 66 6.939 62.112 6.448 58.302M16.781 60.314c.708.074.703.973.953 1.635.667 1.749 2.032 3.616 2.861 5.175-.295.206-.61.365-.95.48-1.698-2.057-2.39-4.618-2.864-7.29M69.753 80.23c-2.421 3.125-5.014 5.909-8.366 7.184.983-.844 2.157-1.66 3.298-2.782 1.53-1.498 2.538-3.183 4.171-4.082.323-.18.708-.536.897-.32M22.5 69.606c.156.317-.449.237-.58.423-.096-.2.459-.22.58-.423M32.693 82.935c-.536.121-1.197-.021-1.77.03.031-.206.792-.09 1.057-.267l.713.237M15.255 80.33c-.904-.25-2.237-1.502-3.042-2.238-.028-.007-.054-.021-.08-.026.346.061 1.978 1.292 2.565 1.815.26.114.725.121.557.45M29.712 86.35c-.283.268-.637.397-.922.667.067-.176.506-.744.922-.667" fill="#231F20"/></g></svg>