<svg width="67" height="75" viewBox="0 0 67 75" xmlns="http://www.w3.org/2000/svg"><title>Group 25</title><g transform="translate(0 2)" stroke-width="2.6" fill="none" fill-rule="evenodd" stroke-linejoin="round"><path d="M20.864 44.373l-6.42 27.2M51.358 44.373l3.67 12.8M16.852 64.373h32.901M0 28.373h10.432M10.934 21.973h50.355a1.6 1.6 0 0 1 1.534 2.053c-4.785 16.231-13.689 24.347-26.712 24.347S14.184 40.257 9.4 24.026a1.6 1.6 0 0 1 1.535-2.053z" stroke="#FFFBF8"/><ellipse stroke="#FFFBF8" cx="57.778" cy="64.373" rx="7.222" ry="7.2"/><path d="M24.049 14.95c1.336-.951 1.336-3.41 0-7.375C22.044 1.627 24.55 0 24.55 0M36.086 14.95c1.336-.951 1.336-3.41 0-7.375C34.08 1.627 36.587 0 36.587 0" stroke="#78B068" stroke-linecap="round"/><path d="M46.44 41.175c5.04-3.56 7.902-7.451 8.588-11.674" stroke="#FFFBF8"/><path d="M48.123 14.95c1.336-.951 1.336-3.41 0-7.375C46.118 1.627 48.624 0 48.624 0" stroke="#78B068" stroke-linecap="round"/></g></svg>