<svg height="41" viewBox="0 0 221 41" width="221" xmlns="http://www.w3.org/2000/svg"><g fill="none" fill-rule="evenodd"><g fill="#fff" fill-rule="nonzero"><path d="M108.471 23.605l-3.094-10.543-3.148 10.56zm-6.438 10.46H95.42c-.25.025-.5-.06-.68-.231s-.277-.415-.26-.662v-1.338a.81.81 0 0 1 .267-.643.837.837 0 0 1 .673-.208h1.217l6.022-19.51c.312-1.064.903-1.51 1.773-1.51h2.924c.906 0 1.462.446 1.773 1.51l6.025 19.51h1.217a.837.837 0 0 1 .677.21.81.81 0 0 1 .264.648v1.337a.834.834 0 0 1-.26.663.861.861 0 0 1-.68.23h-7.694a.861.861 0 0 1-.681-.23.834.834 0 0 1-.26-.663v-1.302a.81.81 0 0 1 .264-.649.837.837 0 0 1 .677-.21h1.983l-1.322-4.421h-7.974l-1.321 4.422h1.982c.595 0 .941.31.941.858v1.302a.83.83 0 0 1-.258.664.857.857 0 0 1-.683.23zM139.483 34.168h-2.192c-1.567 0-2.099-.448-2.644-1.92l-7.204-18.69v17.425h2.021a.88.88 0 0 1 .683.213.853.853 0 0 1 .29.645v1.337c.003.25-.1.49-.285.66a.903.903 0 0 1-.688.233h-7.379a.903.903 0 0 1-.687-.233.876.876 0 0 1-.285-.66v-1.337a.853.853 0 0 1 .29-.645.88.88 0 0 1 .682-.213h2.011V13.145h-2.017c-.248.03-.497-.047-.683-.21s-.292-.399-.29-.645v-1.337a.877.877 0 0 1 .285-.66.903.903 0 0 1 .688-.233h6.749c1.462 0 1.986.445 2.507 1.886l6.854 18.551V13.145h-2.017a.85.85 0 0 1-.67-.214.825.825 0 0 1-.271-.64v-1.338a.848.848 0 0 1 .265-.657.875.875 0 0 1 .676-.236h7.375a.886.886 0 0 1 .696.226c.187.172.29.415.28.667v1.337c0 .548-.385.855-.976.855h-2.018v19.068c0 1.303-.766 1.955-2.053 1.955M157.584 34.43c-5.774 0-9.183-3.016-9.183-8.468v-7.81c0-5.452 3.41-8.467 9.183-8.467 5.774 0 8.743 2.536 8.743 7.713v.689c.034.242-.044.487-.213.667s-.41.275-.658.26h-2.399a.821.821 0 0 1-.649-.244.796.796 0 0 1-.222-.649v-.72c0-3.153-1.115-4.525-4.595-4.525-3.2 0-4.731 1.644-4.731 4.904v8.571c0 3.257 1.531 4.904 4.731 4.904 3.497 0 4.595-1.378 4.595-4.525v-.961c-.028-.238.054-.476.222-.649s.407-.262.649-.244h2.399c.248-.014.49.081.658.26s.247.425.213.667v.927c0 5.17-2.994 7.713-8.743 7.713M170.453 10.953c-.003-.25.102-.49.287-.66s.436-.254.689-.233h8.316a.875.875 0 0 1 .674.238c.179.17.275.41.263.655v1.337c.01.242-.088.476-.268.64s-.425.243-.67.215h-1.982v6.996h9.047v-6.996h-2.018a.865.865 0 0 1-.665-.22.839.839 0 0 1-.276-.635v-1.337a.866.866 0 0 1 .271-.65.892.892 0 0 1 .67-.243h8.348c.249-.02.495.065.676.236s.276.41.264.657v1.337a.821.821 0 0 1-.27.642.847.847 0 0 1-.67.213h-1.983v17.838h1.983a.85.85 0 0 1 .67.215c.182.166.28.4.27.643v1.337c.012.247-.084.486-.264.657s-.427.257-.676.236h-8.348a.896.896 0 0 1-.669-.243.869.869 0 0 1-.272-.65v-1.337a.842.842 0 0 1 .276-.636.868.868 0 0 1 .665-.222h2.018v-7.72h-9.047v7.72h1.983a.85.85 0 0 1 .669.217c.18.165.278.4.268.641v1.337c.012.246-.084.485-.263.656s-.425.257-.674.237h-8.316a.907.907 0 0 1-.689-.233.88.88 0 0 1-.287-.66v-1.337c0-.246.106-.48.292-.645a.883.883 0 0 1 .684-.213h1.976V13.145h-1.983a.88.88 0 0 1-.683-.21.853.853 0 0 1-.293-.645zM89.79 31H87.77l-4.858-6.679c3.55-.582 5.246-2.364 5.246-5.452v-2.877c0-3.943-2.798-5.932-8.145-5.932H69.448a.903.903 0 0 0-.69.233.877.877 0 0 0-.286.66v1.337a.85.85 0 0 0 .291.646c.187.163.437.24.685.209h1.983v17.838h-1.983a.88.88 0 0 0-.685.212.853.853 0 0 0-.29.646v1.337a.88.88 0 0 0 .286.66c.186.17.436.254.689.233h8.347a.867.867 0 0 0 .655-.247.841.841 0 0 0 .251-.646v-1.337a.814.814 0 0 0-.254-.632.84.84 0 0 0-.652-.226h-2.017V13.08h4.255c2.473 0 3.76.89 3.76 2.844v3.053c0 1.954-1.287 2.812-3.725 2.812h-1.321c-.731 0-1.148.376-1.148 1.062v.138c.019.528.21 1.035.546 1.447l6.228 9.02c.235.39.66.63 1.12.637h4.297a.903.903 0 0 0 .688-.234.877.877 0 0 0 .284-.659v-1.337c.002-.246-.103-.48-.29-.644s-.434-.24-.682-.21M219.6 31h-2.02l-4.854-6.679c3.546-.582 5.245-2.364 5.245-5.452v-2.877c0-3.943-2.797-5.932-8.14-5.932h-10.573c-.252-.021-.502.064-.688.234s-.29.41-.287.659v1.337c-.001.246.105.48.292.644a.88.88 0 0 0 .683.21h1.983v17.84h-1.983a.883.883 0 0 0-.683.212.856.856 0 0 0-.292.645v1.337a.88.88 0 0 0 .287.66c.186.17.436.254.688.233h8.351a.867.867 0 0 0 .655-.247.841.841 0 0 0 .251-.646v-1.337a.814.814 0 0 0-.254-.632.84.84 0 0 0-.652-.226h-2.031V13.08h4.245c2.469 0 3.756.89 3.756 2.844v3.053c0 1.954-1.287 2.812-3.72 2.812h-1.309c-.73 0-1.15.376-1.15 1.062v.138c.023.528.218 1.036.556 1.447l6.228 9.02c.236.388.66.629 1.119.637h4.298a.903.903 0 0 0 .69-.232c.186-.17.29-.41.286-.66v-1.338a.85.85 0 0 0-.292-.646.876.876 0 0 0-.684-.209"/></g><path d="M51.165 39.503V1.038" stroke="#fff" stroke-linecap="round" stroke-linejoin="round" stroke-width="1.578"/><path d="M29.627 33.396h4.707c.252 0 .44-.314.44-.783v-.94c0-.473-.188-.748-.44-.748h-3.557l-5.507-7.28c3.787-.289 5.875-2.026 5.875-5.207v-2.443-3.598c.325-.455.57-.89.751-1.165.29-.385.481-.833.557-1.306v.065c.503-2.26-.591-3.866-3.172-4.649-.801-.168-2.606-.475-2.798.362v.042c-.063.197-.033.412.082.585s.304.286.513.307c0 0 .748.145.99.217 2.405.707 1.748 2.81.53 3.747H7.547c-1.21-.938-1.874-3.04.532-3.747.241-.072.99-.217.99-.217.209-.021.397-.134.512-.307s.145-.388.082-.585v-.042c-.189-.837-1.993-.53-2.797-.362-2.581.783-3.68 2.389-3.172 4.65v-.066c.075.473.266.921.556 1.306.178.272.42.69.741 1.151v6.055c0 3.181 2.098 4.918 5.875 5.208L5.34 30.938H1.783c-.251 0-.44.276-.44.748v.941c0 .469.189.782.44.782H6.49c.378-.032.708-.263.864-.603l6.694-9.16c.24-.28.378-.63.391-.996v-.066c0-.448-.259-.706-.783-.706H12.12c-2.71 0-4.309-1.062-4.309-3.374v-2.54c0-2.281 1.598-3.374 4.344-3.374l4.434.031v18.452h-2.252c-.178-.023-.357.03-.49.148s-.211.285-.21.462v.772c-.003.18.07.352.204.475a.646.646 0 0 0 .496.166h7.441c.182.016.362-.044.496-.166s.208-.296.204-.475v-.783a.606.606 0 0 0-.209-.462.625.625 0 0 0-.49-.148h-2.246v-18.44l4.435-.032c2.741 0 4.343 1.093 4.343 3.374v2.54c0 2.312-1.602 3.374-4.308 3.374h-1.536c-.524 0-.783.258-.783.706v.066c.014.366.152.717.392.996l6.693 9.16c.185.316.5.536.864.603" fill="#fff" fill-rule="nonzero"/><path d="M29.627 33.396h4.707c.252 0 .44-.314.44-.783v-.94c0-.473-.188-.748-.44-.748h-3.557l-5.507-7.28c3.787-.289 5.875-2.026 5.875-5.207v-2.443-3.598c.325-.455.57-.89.751-1.165.29-.385.481-.833.557-1.306v.065c.503-2.26-.591-3.866-3.172-4.649-.801-.168-2.606-.475-2.798.362v.042c-.063.197-.033.412.082.585s.304.286.513.307c0 0 .748.145.99.217 2.405.707 1.748 2.81.53 3.747H7.547c-1.21-.938-1.874-3.04.532-3.747.241-.072.99-.217.99-.217.209-.021.397-.134.512-.307s.145-.388.082-.585v-.042c-.189-.837-1.993-.53-2.797-.362-2.581.783-3.68 2.389-3.172 4.65v-.066c.075.473.266.921.556 1.306.178.272.42.69.741 1.151v6.055c0 3.181 2.098 4.918 5.875 5.208L5.34 30.938H1.783c-.251 0-.44.276-.44.748v.941c0 .469.189.782.44.782H6.49c.378-.032.708-.263.864-.603l6.694-9.16c.24-.28.378-.63.391-.996v-.066c0-.448-.259-.706-.783-.706H12.12c-2.71 0-4.309-1.062-4.309-3.374v-2.54c0-2.281 1.598-3.374 4.344-3.374l4.434.031v18.452h-2.252c-.178-.023-.357.03-.49.148s-.211.285-.21.462v.772c-.003.18.07.352.204.475a.646.646 0 0 0 .496.166h7.441c.182.016.362-.044.496-.166s.208-.296.204-.475v-.783a.606.606 0 0 0-.209-.462.625.625 0 0 0-.49-.148h-2.246v-18.44l4.435-.032c2.741 0 4.343 1.093 4.343 3.374v2.54c0 2.312-1.602 3.374-4.308 3.374h-1.536c-.524 0-.783.258-.783.706v.066c.014.366.152.717.392.996l6.693 9.16c.187.309.499.523.857.59z" stroke="#fff" stroke-width=".948"/></g></svg>