<svg width="72" height="64" viewBox="0 0 72 64" xmlns="http://www.w3.org/2000/svg"><title>Artboard</title><g fill="none" fill-rule="evenodd"><g opacity=".037"><path d="M63.765 63.476h6.618c.354 0 .62-.438.62-1.093v-1.315c0-.66-.266-1.045-.62-1.045h-5l-7.744-10.171c5.325-.405 8.26-2.832 8.26-7.277v-3.414-5.028c.458-.636.802-1.242 1.057-1.628a4.097 4.097 0 0 0 .782-1.825v.092c.708-3.16-.83-5.404-4.46-6.497-1.125-.236-3.662-.665-3.933.506v.057a.946.946 0 0 0 .116.818c.162.242.427.4.72.43 0 0 1.052.202 1.392.303 3.382.987 2.458 3.925.747 5.235H32.722c-1.701-1.31-2.635-4.248.747-5.235.34-.101 1.392-.303 1.392-.303a.986.986 0 0 0 .72-.43.946.946 0 0 0 .116-.818v-.057c-.266-1.17-2.803-.742-3.934-.506-3.628 1.093-5.172 3.337-4.459 6.497v-.092c.106.661.374 1.288.782 1.825.25.38.59.963 1.042 1.609v8.461c0 4.445 2.95 6.872 8.26 7.277l-7.768 10.19h-5c-.355 0-.62.386-.62 1.045v1.315c0 .655.265 1.093.62 1.093h6.617c.53-.045.995-.367 1.215-.842l9.41-12.801c.338-.39.532-.88.55-1.392v-.091c0-.626-.363-.988-1.1-.988h-2.159c-3.81 0-6.057-1.483-6.057-4.714v-3.55c0-3.188 2.247-4.714 6.106-4.714l6.234.043V60.23H42.27a.882.882 0 0 0-.69.207.845.845 0 0 0-.293.646v1.078a.873.873 0 0 0 .287.664.911.911 0 0 0 .696.232h10.463a.911.911 0 0 0 .696-.232.873.873 0 0 0 .287-.664v-1.093a.845.845 0 0 0-.294-.645.882.882 0 0 0-.69-.207h-3.156v-25.77l6.234-.043c3.855 0 6.107 1.526 6.107 4.714v3.55c0 3.231-2.252 4.714-6.057 4.714H53.7c-.737 0-1.101.362-1.101.988v.091c.019.512.213 1.002.55 1.392l9.41 12.8c.261.441.705.75 1.215.843" fill="#FFFBF8" fill-rule="nonzero"/><path d="M63.765 63.476h6.618c.354 0 .62-.438.62-1.093v-1.315c0-.66-.266-1.045-.62-1.045h-5l-7.744-10.171c5.325-.405 8.26-2.832 8.26-7.277v-3.414-5.028c.458-.636.802-1.242 1.057-1.628a4.097 4.097 0 0 0 .782-1.825v.092c.708-3.16-.83-5.404-4.46-6.497-1.125-.236-3.662-.665-3.933.506v.057a.946.946 0 0 0 .116.818c.162.242.427.4.72.43 0 0 1.052.202 1.392.303 3.382.987 2.458 3.925.747 5.235H32.722c-1.701-1.31-2.635-4.248.747-5.235.34-.101 1.392-.303 1.392-.303a.986.986 0 0 0 .72-.43.946.946 0 0 0 .116-.818v-.057c-.266-1.17-2.803-.742-3.934-.506-3.628 1.093-5.172 3.337-4.459 6.497v-.092c.106.661.374 1.288.782 1.825.25.38.59.963 1.042 1.609v8.461c0 4.445 2.95 6.872 8.26 7.277l-7.768 10.19h-5c-.355 0-.62.386-.62 1.045v1.315c0 .655.265 1.093.62 1.093h6.617c.53-.045.995-.367 1.215-.842l9.41-12.801c.338-.39.532-.88.55-1.392v-.091c0-.626-.363-.988-1.1-.988h-2.159c-3.81 0-6.057-1.483-6.057-4.714v-3.55c0-3.188 2.247-4.714 6.106-4.714l6.234.043V60.23H42.27a.882.882 0 0 0-.69.207.845.845 0 0 0-.293.646v1.078a.873.873 0 0 0 .287.664.911.911 0 0 0 .696.232h10.463a.911.911 0 0 0 .696-.232.873.873 0 0 0 .287-.664v-1.093a.845.845 0 0 0-.294-.645.882.882 0 0 0-.69-.207h-3.156v-25.77l6.234-.043c3.855 0 6.107 1.526 6.107 4.714v3.55c0 3.231-2.252 4.714-6.057 4.714H53.7c-.737 0-1.101.362-1.101.988v.091c.019.512.213 1.002.55 1.392l9.41 12.8c.263.432.702.732 1.205.824z" stroke="#FFFBF8" stroke-width="1.33"/></g><path fill="#D8D8D8" opacity=".01" d="M0 0h1v1H0z"/></g></svg>