<svg width="35" height="33" viewBox="0 0 35 33" xmlns="http://www.w3.org/2000/svg"><title>Group</title><g fill="#FFFBF8" fill-rule="nonzero"><path d="M15.778 10.26l-1.901-1.172L19.904.08H12.69c-.922 0-1.786.467-2.27 1.241l-2.57 4.054-1.844-1.139 2.766 6.355 7.007-.33zM29.399 7.744l-3.032-5.717c-1.256-2.369-4.633-2.483-6.05-.216l-1.453 2.311 4 7.209 6.535-3.587zM13.401 23.753l-10.914-.66 3.607 6.172a2.696 2.696 0 0 0 2.225 1.32l4.84.172-.08 2.152 4.183-5.546-3.791-5.83-.07 2.22zM6.132 21.808l4.31-7.027-6.397-3.792-3.492 5.444c-1.44 2.255.139 5.204 2.835 5.295l2.744.08zM34.654 18.118l-2.27-4.225 1.924-1.013-6.95-.809-3.215 6.161 1.982-1.036 4.876 9.668 3.607-6.172a2.655 2.655 0 0 0 .046-2.574zM27.407 23.958l-8.31-.182-.126 7.38 6.523.261c2.697.114 4.495-2.722 3.216-5.068l-1.303-2.391z"/></g></svg>