<svg height="20" viewBox="0 0 24 20" width="24" xmlns="http://www.w3.org/2000/svg"><path d="m23.4819848 11.7941682h-18.46959945l-.84221517-2.53547192c-.05375841-.16340506-.18457056-.28910126-.3494297-.33578842l-3.15920285-.90142134c-.27416791-.08260036-.5626714.0808047-.64151708.35554069-.07884567.27653164.08242957.56563291.35659749.64284629l2.89399466.82779927 3.54805539 10.65903793-.54116805 1.7453815c-1.56795376.0179566-2.8384443 1.2982622-2.8384443 2.8730561 0 1.5855678 1.28661806 2.8748517 2.86890741 2.8748517 1.40488657 0 2.57144418-1.0181392 2.81694094-2.355906h6.02273441c.2454968 1.3377668 1.4120544 2.355906 2.8169409 2.355906 1.5822894 0 2.8689074-1.2910796 2.8689074-2.8748517 0-1.5855678-1.286618-2.8748517-2.8689074-2.8748517-1.4048865 0-2.5714441 1.0181392-2.8169409 2.3559059h-6.02273441c-.18457056-1.0019783-.88701385-1.8172079-1.81882637-2.1655659l.43902705-1.4167758h12.85184503c.6845238 0 1.2274838-.4991935 1.2686986-1.1528137l2.1144977-7.4124846c.0447986-.1580181.0125436-.3268102-.0842215-.4560977-.0967652-.1328788-.2508727-.2082966-.4139398-.2082966zm-5.5156134 11.4958155c1.0106582 0 1.83137.8224123 1.83137 1.8351646s-.8207118 1.8351645-1.83137 1.8351645-1.83137-.8224122-1.83137-1.8351645.8207118-1.8351646 1.83137-1.8351646zm-9.82524631 1.8351646c0 1.0127523-.8207118 1.8351645-1.83137 1.8351645s-1.83137-.8224122-1.83137-1.8351645.8207118-1.8351646 1.83137-1.8351646 1.83137.8224123 1.83137 1.8351646zm12.71028121-5.4821501c-.0125436.0466872-.0197114.09517-.0197114.1436528 0 .1544268-.1469397.195727-.2329531.195727h-12.85363703l-2.23276616-7.1485226h17.27974649z" fill="#fffbf8" transform="translate(0 -8)"/></svg>