<?xml version="1.0" encoding="UTF-8"?>
<svg width="24px" height="20px" viewBox="0 0 24 20" version="1.1" xmlns="http://www.w3.org/2000/svg" xmlns:xlink="http://www.w3.org/1999/xlink">
    <!-- Generator: Sketch 55.1 (78136) - https://sketchapp.com -->
    <title>Shape</title>
    <desc>Created with Sketch.</desc>
    <g id="ver-2.0-(R2)" stroke="none" stroke-width="1" fill="none" fill-rule="evenodd">
        <g id="Ranchr-v2.3.2-Copy" transform="translate(-1047.000000, -35.000000)" fill="#FFFBF8" fill-rule="nonzero">
            <g id="Header" transform="translate(122.000000, 24.000000)">
                <g id="Group-18" transform="translate(925.000000, 0.000000)">
                    <g id="Group-20" transform="translate(0.000000, 3.000000)">
                        <path d="M23.4819848,11.7941682 L5.01238535,11.7941682 L4.17017018,9.25869628 C4.11641177,9.09529122 3.98559962,8.96959502 3.82074048,8.92290786 L0.661537635,8.02148652 C0.387369719,7.93888616 0.0988662262,8.10229122 0.0200205511,8.37702721 C-0.0588251241,8.65355885 0.102450121,8.94266012 0.376618036,9.0198735 L3.2706127,9.84767277 L6.81866809,20.5067107 L6.27750004,22.2520922 C4.70954628,22.2700488 3.43905574,23.5503544 3.43905574,25.1251483 C3.43905574,26.7107161 4.7256738,28 6.30796315,28 C7.71284972,28 8.87940733,26.9818608 9.12490409,25.644094 L15.1476385,25.644094 C15.3931353,26.9818608 16.5596929,28 17.9645794,28 C19.5468688,28 20.8334868,26.7089204 20.8334868,25.1251483 C20.8334868,23.5395805 19.5468688,22.2502966 17.9645794,22.2502966 C16.5596929,22.2502966 15.3931353,23.2684358 15.1476385,24.6062025 L9.12490409,24.6062025 C8.94033353,23.6042242 8.23789024,22.7889946 7.30607772,22.4406366 L7.74510477,21.0238608 L20.5969498,21.0238608 C21.2814736,21.0238608 21.8244336,20.5246673 21.8656484,19.8710471 L23.9801461,12.4585625 C24.0249447,12.3005444 23.9926897,12.1317523 23.8959246,12.0024648 C23.7991594,11.869586 23.6450519,11.7941682 23.4819848,11.7941682 Z M17.9663714,23.2899837 C18.9770296,23.2899837 19.7977414,24.112396 19.7977414,25.1251483 C19.7977414,26.1379006 18.9770296,26.9603128 17.9663714,26.9603128 C16.9557132,26.9603128 16.1350014,26.1379006 16.1350014,25.1251483 C16.1350014,24.112396 16.9557132,23.2899837 17.9663714,23.2899837 Z M8.14112509,25.1251483 C8.14112509,26.1379006 7.32041329,26.9603128 6.30975509,26.9603128 C5.29909689,26.9603128 4.47838509,26.1379006 4.47838509,25.1251483 C4.47838509,24.112396 5.29909689,23.2899837 6.30975509,23.2899837 C7.32041329,23.2899837 8.14112509,24.112396 8.14112509,25.1251483 Z M20.8514063,19.6429982 C20.8388627,19.6896854 20.8316949,19.7381682 20.8316949,19.786651 C20.8316949,19.9410778 20.6847552,19.982378 20.5987418,19.982378 L7.74510477,19.982378 L5.51233861,12.8338554 L22.7920851,12.8338554 L20.8514063,19.6429982 Z" id="Shape"></path>
                    </g>
                </g>
            </g>
        </g>
    </g>
</svg>