<?xml version="1.0" encoding="UTF-8"?>
<svg width="32px" height="28px" viewBox="0 0 32 28" version="1.1" xmlns="http://www.w3.org/2000/svg" xmlns:xlink="http://www.w3.org/1999/xlink">
    <!-- Generator: Sketch 55.1 (78136) - https://sketchapp.com -->
    <title>Group 17</title>
    <desc>Created with Sketch.</desc>
    <g id="ver-2.0-(R2)" stroke="none" stroke-width="1" fill="none" fill-rule="evenodd">
        <g id="Ranchr-v2.3.2-Copy" transform="translate(-148.000000, -6330.000000)">
            <g id="Footer" transform="translate(0.000000, 6294.000000)">
                <g id="Group-17" transform="translate(149.000000, 37.000000)">
                    <path d="M25.275,25.6776099 L29.48125,25.6776099 C29.70625,25.6776099 29.875,25.3925497 29.875,24.9665256 L29.875,24.1113449 C29.875,23.6821883 29.70625,23.4315858 29.48125,23.4315858 L26.303125,23.4315858 L21.38125,16.8156822 C24.765625,16.5525497 26.63125,14.9737545 26.63125,12.0824292 L26.63125,9.86146536 C26.63125,9.79568223 26.63125,9.73303163 26.63125,9.67038103 L26.63125,6.59110392 C26.921875,6.17760994 27.140625,5.78291115 27.303125,5.53230874 C27.5620394,5.18263742 27.7325329,4.77526161 27.8,4.34507982 L27.8,4.40459789 C28.25,2.34965814 27.271875,0.889899099 24.965625,0.178814762 C24.25,0.025320786 22.6375,-0.253474395 22.465625,0.507730425 L22.465625,0.545320786 C22.4092535,0.724737651 22.4362865,0.920049789 22.5392567,1.07730587 C22.6422268,1.23456196 22.8102361,1.33711847 22.996875,1.35664609 C22.996875,1.35664609 23.665625,1.48821235 23.88125,1.55399548 C26.03125,2.19616416 25.44375,4.10700753 24.35625,4.95905573 L5.54375,4.95905573 C4.4625,4.10700753 3.86875,2.19616416 6.01875,1.55399548 C6.234375,1.48821235 6.903125,1.35664609 6.903125,1.35664609 C7.08976391,1.33711847 7.25777315,1.23456196 7.36074331,1.07730587 C7.46371347,0.920049789 7.49074649,0.724737651 7.434375,0.545320786 L7.434375,0.507730425 C7.265625,-0.253474395 5.653125,0.025320786 4.934375,0.178814762 C2.628125,0.889899099 1.646875,2.34965814 2.1,4.40459789 L2.1,4.34507982 C2.16746709,4.77526161 2.33796063,5.18263742 2.596875,5.53230874 C2.75625,5.77977862 2.971875,6.15881476 3.259375,6.5785738 L3.259375,10.1214654 L3.259375,10.1214654 L3.259375,12.0824292 C3.259375,14.9737545 5.134375,16.5525497 8.509375,16.8156822 L3.571875,23.444116 L0.39375,23.444116 C0.16875,23.444116 -7.38964445e-13,23.6947184 -7.38964445e-13,24.123875 L-7.38964445e-13,24.9790557 C-7.38964445e-13,25.4050798 0.16875,25.6901401 0.39375,25.6901401 L4.6,25.6901401 C4.93714202,25.6604644 5.23215591,25.4509428 5.371875,25.1419473 L11.353125,16.8156822 C11.5677002,16.5617573 11.6909596,16.2429376 11.703125,15.910381 L11.703125,15.850863 C11.703125,15.443634 11.471875,15.2086943 11.003125,15.2086943 L9.63125,15.2086943 C7.209375,15.2086943 5.78125,14.243875 5.78125,12.1419473 L5.78125,9.83327259 C5.78125,7.75953765 7.209375,6.76652561 9.6625,6.76652561 L13.625,6.79471838 L13.625,23.5662846 L11.6125,23.5662846 C11.4538075,23.5454313 11.2938838,23.5945045 11.1740296,23.7008311 C11.0541754,23.8071576 10.9861422,23.9603123 10.9875,24.1207425 L10.9875,24.8224292 C10.9841198,24.9857845 11.0504394,25.1428232 11.1697979,25.2540941 C11.2891565,25.3653651 11.4502105,25.4202933 11.6125,25.4050798 L18.2625,25.4050798 C18.4247895,25.4202933 18.5858435,25.3653651 18.7052021,25.2540941 C18.8245606,25.1428232 18.8908802,24.9857845 18.8875,24.8224292 L18.8875,24.1113449 C18.8888578,23.9509148 18.8208246,23.7977601 18.7009704,23.6914335 C18.5811162,23.5851069 18.4211925,23.5360337 18.2625,23.5568871 L16.25625,23.5568871 L16.25625,6.79471838 L20.21875,6.76652561 C22.66875,6.76652561 24.1,7.75953765 24.1,9.83327259 L24.1,12.1419473 C24.1,14.243875 22.66875,15.2086943 20.25,15.2086943 L18.878125,15.2086943 C18.409375,15.2086943 18.178125,15.443634 18.178125,15.850863 L18.178125,15.910381 C18.1902904,16.2429376 18.3135498,16.5617573 18.528125,16.8156822 L24.509375,25.1419473 C24.6747572,25.428629 24.9565994,25.6287959 25.28125,25.6901401" id="Path" fill="#FFFBF8" fill-rule="nonzero"></path>
                    <path d="M25.275,25.6776099 L29.48125,25.6776099 C29.70625,25.6776099 29.875,25.3925497 29.875,24.9665256 L29.875,24.1113449 C29.875,23.6821883 29.70625,23.4315858 29.48125,23.4315858 L26.303125,23.4315858 L21.38125,16.8156822 C24.765625,16.5525497 26.63125,14.9737545 26.63125,12.0824292 L26.63125,9.86146536 C26.63125,9.79568223 26.63125,9.73303163 26.63125,9.67038103 L26.63125,6.59110392 C26.921875,6.17760994 27.140625,5.78291115 27.303125,5.53230874 C27.5620394,5.18263742 27.7325329,4.77526161 27.8,4.34507982 L27.8,4.40459789 C28.25,2.34965814 27.271875,0.889899099 24.965625,0.178814762 C24.25,0.025320786 22.6375,-0.253474395 22.465625,0.507730425 L22.465625,0.545320786 C22.4092535,0.724737651 22.4362865,0.920049789 22.5392567,1.07730587 C22.6422268,1.23456196 22.8102361,1.33711847 22.996875,1.35664609 C22.996875,1.35664609 23.665625,1.48821235 23.88125,1.55399548 C26.03125,2.19616416 25.44375,4.10700753 24.35625,4.95905573 L5.54375,4.95905573 C4.4625,4.10700753 3.86875,2.19616416 6.01875,1.55399548 C6.234375,1.48821235 6.903125,1.35664609 6.903125,1.35664609 C7.08976391,1.33711847 7.25777315,1.23456196 7.36074331,1.07730587 C7.46371347,0.920049789 7.49074649,0.724737651 7.434375,0.545320786 L7.434375,0.507730425 C7.265625,-0.253474395 5.653125,0.025320786 4.934375,0.178814762 C2.628125,0.889899099 1.646875,2.34965814 2.1,4.40459789 L2.1,4.34507982 C2.16746709,4.77526161 2.33796063,5.18263742 2.596875,5.53230874 C2.75625,5.77977862 2.971875,6.15881476 3.259375,6.5785738 L3.259375,10.1214654 L3.259375,10.1214654 L3.259375,12.0824292 C3.259375,14.9737545 5.134375,16.5525497 8.509375,16.8156822 L3.571875,23.444116 L0.39375,23.444116 C0.16875,23.444116 -7.38964445e-13,23.6947184 -7.38964445e-13,24.123875 L-7.38964445e-13,24.9790557 C-7.38964445e-13,25.4050798 0.16875,25.6901401 0.39375,25.6901401 L4.6,25.6901401 C4.93714202,25.6604644 5.23215591,25.4509428 5.371875,25.1419473 L11.353125,16.8156822 C11.5677002,16.5617573 11.6909596,16.2429376 11.703125,15.910381 L11.703125,15.850863 C11.703125,15.443634 11.471875,15.2086943 11.003125,15.2086943 L9.63125,15.2086943 C7.209375,15.2086943 5.78125,14.243875 5.78125,12.1419473 L5.78125,9.83327259 C5.78125,7.75953765 7.209375,6.76652561 9.6625,6.76652561 L13.625,6.79471838 L13.625,23.5662846 L11.6125,23.5662846 C11.4538075,23.5454313 11.2938838,23.5945045 11.1740296,23.7008311 C11.0541754,23.8071576 10.9861422,23.9603123 10.9875,24.1207425 L10.9875,24.8224292 C10.9841198,24.9857845 11.0504394,25.1428232 11.1697979,25.2540941 C11.2891565,25.3653651 11.4502105,25.4202933 11.6125,25.4050798 L18.2625,25.4050798 C18.4247895,25.4202933 18.5858435,25.3653651 18.7052021,25.2540941 C18.8245606,25.1428232 18.8908802,24.9857845 18.8875,24.8224292 L18.8875,24.1113449 C18.8888578,23.9509148 18.8208246,23.7977601 18.7009704,23.6914335 C18.5811162,23.5851069 18.4211925,23.5360337 18.2625,23.5568871 L16.25625,23.5568871 L16.25625,6.79471838 L20.21875,6.76652561 C22.66875,6.76652561 24.1,7.75953765 24.1,9.83327259 L24.1,12.1419473 C24.1,14.243875 22.66875,15.2086943 20.25,15.2086943 L18.878125,15.2086943 C18.409375,15.2086943 18.178125,15.443634 18.178125,15.850863 L18.178125,15.910381 C18.1902904,16.2429376 18.3135498,16.5617573 18.528125,16.8156822 L24.509375,25.1419473 C24.67605,25.4223849 24.9549195,25.6174935 25.275,25.6776099 Z" id="Path" stroke="#FFFBF8" stroke-width="0.870399961"></path>
                </g>
            </g>
        </g>
    </g>
</svg>