<?xml version="1.0" encoding="UTF-8"?>
<svg width="68px" height="68px" viewBox="0 0 68 68" version="1.1" xmlns="http://www.w3.org/2000/svg" xmlns:xlink="http://www.w3.org/1999/xlink">
    <!-- Generator: Sketch 55.1 (78136) - https://sketchapp.com -->
    <title>Group 9</title>
    <desc>Created with Sketch.</desc>
    <g id="ver-2.0-(R2)" stroke="none" stroke-width="1" fill="none" fill-rule="evenodd">
        <g id="Ranchr-v2.3.2-Copy" transform="translate(-764.000000, -232.000000)">
            <g id="Hero" transform="translate(-186.000000, -15.000000)">
                <g id="Group-39" transform="translate(951.000000, 242.000000)">
                    <g id="Group-9" transform="translate(0.000000, 6.000000)">
                        <path d="M51.779966,46.4920026 C51.779966,47.0288447 51.5674922,47.3871797 51.284068,47.3871797 L45.9948669,47.3871797 C45.9948669,47.3871797 45.3419723,47.2871705 45.0245825,46.6990029 L37.5051614,36.2453945 C37.1753176,35.7689353 37.0653067,35.4753233 37.0653067,35.1092517 L37.0653067,35.0354713 C37.0653067,34.5220276 37.3583545,34.2286042 37.9455823,34.2286042 L39.6693372,34.2286042 C42.7134111,34.2286042 44.5111356,33.018681 44.5111356,30.3774933 L44.5111356,27.4798668 C44.5111356,24.8756637 42.7134111,23.6289446 39.6327298,23.6289446 L34.6505402,23.6655518 L34.6505402,44.7188197 L37.1507869,44.7188197 L37.1809785,44.7188197 C37.6213993,44.7188197 37.9512432,44.9756359 37.9512432,45.4152992 L37.9512432,46.2959467 C37.9512432,46.7359874 37.6213993,47.0294108 37.1809785,47.0294108 L37.1507869,47.0294108 L28.8492131,47.0294108 L28.8190215,47.0294108 C28.3787894,47.0294108 28.0487568,46.7359874 28.0487568,46.2959467 L28.0487568,45.4152992 C28.0487568,44.9756359 28.3787894,44.7188197 28.8190215,44.7188197 L28.8492131,44.7188197 L31.3494598,44.7188197 L31.3494598,23.6655518 L26.3672702,23.6289446 C23.2865889,23.6289446 21.4888644,24.8756637 21.4888644,27.4798668 L21.4888644,30.3774933 C21.4888644,33.018681 23.2865889,34.2286042 26.3304741,34.2286042 L28.0546064,34.2286042 C28.6416455,34.2286042 28.9346933,34.5220276 28.9346933,35.0354713 L28.9346933,35.1092517 C28.9346933,35.4753233 28.8248711,35.7689353 28.4950273,36.2453945 L20.9754175,46.6990029 C20.6204768,47.3871797 20.0049444,47.3871797 20.0049444,47.3871797 L14.715932,47.3871797 C14.4323191,47.3871797 14.220034,47.0288447 14.220034,46.4920026 L14.220034,45.4175636 C14.220034,44.8809102 14.4323191,44.567485 14.715932,44.567485 L18.7114205,44.567485 L24.9001443,36.2453945 C20.6455736,35.9163075 18.2981722,33.9348034 18.2981722,30.3039016 L18.2981722,27.8402775 L18.2957191,27.8402775 L18.2957191,23.3964703 C17.9356836,22.8800074 17.6624491,22.3924151 17.4605424,22.0821978 C16.8638798,21.1664527 16.8378395,20.5916825 16.8378395,20.5916825 L16.8542562,20.666029 C16.2851434,18.0871113 17.5167744,16.2522246 20.416117,15.3595005 C21.3163945,15.1702377 23.3445191,14.819828 23.5545398,15.7719915 L23.565673,15.8216187 C23.678703,16.3344963 23.4230174,16.7250985 22.8976826,16.8409583 C22.8976826,16.8409583 22.0598641,17.004747 21.7877618,17.0860753 C19.0848536,17.8927537 19.8317197,20.2922209 21.190533,21.3621312 L26.2265016,21.3577911 C26.2744308,21.3574137 26.3189635,21.3540172 26.3672702,21.3540172 L31.5649528,21.3540172 L34.4348585,21.3540172 L39.6327298,21.3540172 C39.6808478,21.3540172 39.7255692,21.3574137 39.7733097,21.3577911 L44.8096557,21.3621312 C46.1680916,20.2922209 46.9151464,17.8927537 44.2124269,17.0860753 C43.9399472,17.004747 43.1023174,16.8409583 43.1023174,16.8409583 C42.5769826,16.7250985 42.3211083,16.3344963 42.434327,15.8216187 L42.4452715,15.7719915 C42.6554809,14.819828 44.6836055,15.1702377 45.583883,15.3595005 C48.4832256,16.2522246 49.7150453,18.0871113 49.1457438,20.666029 L49.1621605,20.5916825 C49.1621605,20.5916825 49.1359315,21.1664527 48.5394576,22.0821978 C48.3354752,22.3954343 48.0586554,22.8896309 47.6935251,23.4119434 L47.6935251,27.275697 C47.6957894,27.3564592 47.7020165,27.4345796 47.7020165,27.5166627 L47.7020165,30.3039016 C47.7020165,33.9348034 45.3542377,35.9163075 41.0998557,36.2453945 L47.2883908,44.567485 L51.284068,44.567485 C51.5674922,44.567485 51.779966,44.8809102 51.779966,45.4175636 L51.779966,46.4920026 Z M32.9998113,2.4 C16.1272033,2.4 2.4,16.1271187 2.4,33 C2.4,49.8728813 16.1272033,63.6 32.9998113,63.6 C49.8729854,63.6 63.6,49.8728813 63.6,33 C63.6,16.1271187 49.8729854,2.4 32.9998113,2.4 L32.9998113,2.4 Z" id="Fill-1" fill="#FFFFFF"></path>
                        <path d="M51.779966,46.4920026 C51.779966,47.0288447 51.5674922,47.3871797 51.284068,47.3871797 L45.9948669,47.3871797 C45.9948669,47.3871797 45.3419723,47.2871705 45.0245825,46.6990029 L37.5051614,36.2453945 C37.1753176,35.7689353 37.0653067,35.4753233 37.0653067,35.1092517 L37.0653067,35.0354713 C37.0653067,34.5220276 37.3583545,34.2286042 37.9455823,34.2286042 L39.6693372,34.2286042 C42.7134111,34.2286042 44.5111356,33.018681 44.5111356,30.3774933 L44.5111356,27.4798668 C44.5111356,24.8756637 42.7134111,23.6289446 39.6327298,23.6289446 L34.6505402,23.6655518 L34.6505402,44.7188197 L37.1507869,44.7188197 L37.1809785,44.7188197 C37.6213993,44.7188197 37.9512432,44.9756359 37.9512432,45.4152992 L37.9512432,46.2959467 C37.9512432,46.7359874 37.6213993,47.0294108 37.1809785,47.0294108 L37.1507869,47.0294108 L28.8492131,47.0294108 L28.8190215,47.0294108 C28.3787894,47.0294108 28.0487568,46.7359874 28.0487568,46.2959467 L28.0487568,45.4152992 C28.0487568,44.9756359 28.3787894,44.7188197 28.8190215,44.7188197 L28.8492131,44.7188197 L31.3494598,44.7188197 L31.3494598,23.6655518 L26.3672702,23.6289446 C23.2865889,23.6289446 21.4888644,24.8756637 21.4888644,27.4798668 L21.4888644,30.3774933 C21.4888644,33.018681 23.2865889,34.2286042 26.3304741,34.2286042 L28.0546064,34.2286042 C28.6416455,34.2286042 28.9346933,34.5220276 28.9346933,35.0354713 L28.9346933,35.1092517 C28.9346933,35.4753233 28.8248711,35.7689353 28.4950273,36.2453945 L20.9754175,46.6990029 C20.6204768,47.3871797 20.0049444,47.3871797 20.0049444,47.3871797 L14.715932,47.3871797 C14.4323191,47.3871797 14.220034,47.0288447 14.220034,46.4920026 L14.220034,45.4175636 C14.220034,44.8809102 14.4323191,44.567485 14.715932,44.567485 L18.7114205,44.567485 L24.9001443,36.2453945 C20.6455736,35.9163075 18.2981722,33.9348034 18.2981722,30.3039016 L18.2981722,27.8402775 L18.2957191,27.8402775 L18.2957191,23.3964703 C17.9356836,22.8800074 17.6624491,22.3924151 17.4605424,22.0821978 C16.8638798,21.1664527 16.8378395,20.5916825 16.8378395,20.5916825 L16.8542562,20.666029 C16.2851434,18.0871113 17.5167744,16.2522246 20.416117,15.3595005 C21.3163945,15.1702377 23.3445191,14.819828 23.5545398,15.7719915 L23.565673,15.8216187 C23.678703,16.3344963 23.4230174,16.7250985 22.8976826,16.8409583 C22.8976826,16.8409583 22.0598641,17.004747 21.7877618,17.0860753 C19.0848536,17.8927537 19.8317197,20.2922209 21.190533,21.3621312 L26.2265016,21.3577911 C26.2744308,21.3574137 26.3189635,21.3540172 26.3672702,21.3540172 L31.5649528,21.3540172 L34.4348585,21.3540172 L39.6327298,21.3540172 C39.6808478,21.3540172 39.7255692,21.3574137 39.7733097,21.3577911 L44.8096557,21.3621312 C46.1680916,20.2922209 46.9151464,17.8927537 44.2124269,17.0860753 C43.9399472,17.004747 43.1023174,16.8409583 43.1023174,16.8409583 C42.5769826,16.7250985 42.3211083,16.3344963 42.434327,15.8216187 L42.4452715,15.7719915 C42.6554809,14.819828 44.6836055,15.1702377 45.583883,15.3595005 C48.4832256,16.2522246 49.7150453,18.0871113 49.1457438,20.666029 L49.1621605,20.5916825 C49.1621605,20.5916825 49.1359315,21.1664527 48.5394576,22.0821978 C48.3354752,22.3954343 48.0586554,22.8896309 47.6935251,23.4119434 L47.6935251,27.275697 C47.6957894,27.3564592 47.7020165,27.4345796 47.7020165,27.5166627 L47.7020165,30.3039016 C47.7020165,33.9348034 45.3542377,35.9163075 41.0998557,36.2453945 L47.2883908,44.567485 L51.284068,44.567485 C51.5674922,44.567485 51.779966,44.8809102 51.779966,45.4175636 L51.779966,46.4920026 Z M32.9998113,2.4 C16.1272033,2.4 2.4,16.1271187 2.4,33 C2.4,49.8728813 16.1272033,63.6 32.9998113,63.6 C49.8729854,63.6 63.6,49.8728813 63.6,33 C63.6,16.1271187 49.8729854,2.4 32.9998113,2.4 Z" id="Stroke-3" stroke="#FFFFFF" stroke-width="0.6"></path>
                        <path d="M32.9999054,64.7738375 C15.4799474,64.7738375 1.22654081,50.5202417 1.22654081,33.0000946 C1.22654081,15.4801365 15.4799474,1.22635167 32.9999054,1.22635167 C50.5200526,1.22635167 64.7738375,15.4801365 64.7738375,33.0000946 C64.7738375,50.5202417 50.5200526,64.7738375 32.9999054,64.7738375 M33.0000946,0 C14.7746628,0 0,14.7748519 0,33.0000946 C0,51.2255264 14.7746628,66 33.0000946,66 C51.2255264,66 66,51.2255264 66,33.0000946 C66,14.7748519 51.2255264,0 33.0000946,0" id="Fill-5" fill="#FFFFFF"></path>
                        <path d="M32.9999054,64.7738375 C15.4799474,64.7738375 1.22654081,50.5202417 1.22654081,33.0000946 C1.22654081,15.4801365 15.4799474,1.22635167 32.9999054,1.22635167 C50.5200526,1.22635167 64.7738375,15.4801365 64.7738375,33.0000946 C64.7738375,50.5202417 50.5200526,64.7738375 32.9999054,64.7738375 Z M33.0000946,0 C14.7746628,0 0,14.7748519 0,33.0000946 C0,51.2255264 14.7746628,66 33.0000946,66 C51.2255264,66 66,51.2255264 66,33.0000946 C66,14.7748519 51.2255264,0 33.0000946,0 Z" id="Stroke-7" stroke="#FFFFFF" stroke-width="0.6"></path>
                    </g>
                </g>
            </g>
        </g>
    </g>
</svg>