<?xml version="1.0" encoding="UTF-8"?>
<svg width="295px" height="42px" viewBox="0 0 295 42" version="1.1" xmlns="http://www.w3.org/2000/svg" xmlns:xlink="http://www.w3.org/1999/xlink">
    <!-- Generator: Sketch 55.1 (78136) - https://sketchapp.com -->
    <title>Fill 1</title>
    <desc>Created with Sketch.</desc>
    <g id="ver-2.0-(R2)" stroke="none" stroke-width="1" fill="none" fill-rule="evenodd">
        <g id="Ranchr-v2.3.2-Copy" transform="translate(-821.000000, -1150.000000)" fill="#78B068">
            <g id="Difference" transform="translate(-126.000000, 1085.000000)">
                <g id="Group" transform="translate(468.000000, 0.000000)">
                    <g id="Group-3-Copy" transform="translate(479.000000, 65.000000)">
                        <path d="M20.3756143,33.089915 L20.4072798,32.8607549 L20.1284686,32.9487814 L20.3756143,33.089915 Z M274.120054,8.28751801 L274.06908,8.07945519 L273.829658,8.2024014 L274.120054,8.28751801 Z M167.84588,15.0139123 L167.503737,15.0139123 C167.508371,15.1019389 167.513005,15.190693 167.516867,15.2794471 C167.625765,15.2736271 167.745477,15.286722 167.841246,15.2488924 C167.874456,15.2343425 167.84588,15.0888441 167.84588,15.0139123 L167.84588,15.0139123 Z M70.0990023,33.7279258 L70.3878537,33.8748792 L70.4357382,33.654449 L70.0990023,33.7279258 Z M113.138645,19.7695299 C113.011983,19.7520701 112.884548,19.714968 112.758659,19.7236979 C112.678336,19.7287903 112.602648,19.8029945 112.524643,19.8473716 C112.651305,19.8648314 112.780284,19.901206 112.904629,19.8924761 C112.985724,19.8873836 113.062184,19.8131794 113.138645,19.7695299 L113.138645,19.7695299 Z M98.7632638,16.383053 L98.2519812,16.6645925 C98.3570181,16.714062 98.4821356,16.8275508 98.5640026,16.8035435 C98.7485895,16.7497091 98.9123235,16.6282179 99.0837808,16.5365539 C98.9771992,16.4856294 98.87139,16.4339774 98.7632638,16.383053 L98.7632638,16.383053 Z M152.077987,30.7772168 C152.331311,30.7379322 152.583863,30.6964651 152.837188,30.657908 C152.729834,30.5967986 152.627886,30.5044071 152.513581,30.4869473 C152.386147,30.4665775 152.239404,30.4942222 152.118148,30.5422367 C152.077215,30.5575141 152.089572,30.6950101 152.077987,30.7772168 L152.077987,30.7772168 Z M122.310066,16.0076669 C121.991866,15.8883582 121.833538,15.8308863 121.674438,15.7719594 C121.690657,15.8505286 121.693746,15.9909346 121.726184,15.9967545 C121.855163,16.0236717 121.991866,16.0076669 122.310066,16.0076669 L122.310066,16.0076669 Z M192.715683,13.5036382 C193.910478,13.6258569 194.27579,13.6906037 194.641102,13.6891488 C194.811787,13.6876938 194.984789,13.5611101 195.157019,13.4912708 C195.026495,13.4643536 194.896743,13.4127017 194.766992,13.4141567 C194.361519,13.4192491 193.95759,13.4468938 192.715683,13.5036382 L192.715683,13.5036382 Z M147.01768,31.2086197 C147.0841,31.3890378 147.150521,31.5709109 147.216169,31.751329 C147.705826,31.6472976 148.200117,31.5534511 148.682051,31.4246849 C148.772414,31.4021327 148.902165,31.1897049 148.874362,31.1496928 C148.756195,30.9801871 148.546121,30.6935551 148.441084,30.7182899 C147.954516,30.8325062 147.489574,31.0369315 147.01768,31.2086197 L147.01768,31.2086197 Z M162.682852,13.5640201 C162.645008,13.3559573 162.607164,13.1478944 162.570092,12.9420141 C162.104377,13.0336781 161.639434,13.1289796 161.173719,13.2220987 C161.196117,13.3370425 161.217742,13.4498038 161.240912,13.5640201 L162.682852,13.5640201 Z M274.841411,16.5089091 C276.762196,16.6820523 276.762196,16.6820523 277.653465,15.8199739 C277.193928,15.8003316 276.797723,15.6977552 276.460987,15.7901467 C275.975964,15.9203678 275.533418,16.190995 274.841411,16.5089091 L274.841411,16.5089091 Z M33.6790013,27.1928619 C33.7060328,26.9724317 33.7338367,26.7505466 33.7600959,26.5293889 C32.7174502,26.4115351 31.6748045,26.2478493 30.6275248,26.2107472 C30.4274913,26.2020173 30.1525418,26.66252 30.0274243,26.9506069 C29.9918971,27.0342686 30.3641602,27.4212945 30.5394792,27.4154746 C31.5883035,27.3812824 32.6324939,27.2750685 33.6790013,27.1928619 L33.6790013,27.1928619 Z M251.551022,10.5325594 C255.757132,10.765357 255.757132,10.765357 259.072746,9.61009911 C258.902833,8.80403758 258.193834,8.65271917 257.523451,8.59451978 C255.674493,8.43883642 255.415762,8.54941526 251.551022,10.5325594 L251.551022,10.5325594 Z M38.3655007,23.2440334 C42.095083,23.373527 44.864659,23.4419113 47.5902121,22.711509 C48.1014947,22.5761954 48.5695267,22.2495513 48.1184859,21.4078427 C45.094041,21.183775 42.1669097,21.8778027 38.3655007,23.2440334 L38.3655007,23.2440334 Z M141.649213,12.717219 C138.216205,11.3546258 134.571579,11.5532312 130.946262,11.7569291 C129.549116,11.8354982 128.163556,12.1745097 126.635115,13.1355271 C131.944884,13.9794182 136.758046,13.4701736 141.649213,12.717219 L141.649213,12.717219 Z M147.623959,12.2210692 C149.733193,12.5047912 151.850922,12.7470462 153.952432,13.0816926 C156.308039,13.4570787 158.450483,12.8248878 160.538092,11.9475321 C160.97523,11.764204 161.499643,11.3233436 161.583054,10.9261328 C161.745244,10.1571734 160.991449,9.77596737 160.348871,9.64647373 C159.718649,9.51916257 159.018146,9.63192388 158.357804,9.71122055 C156.478724,9.93747067 154.599645,10.1746332 152.729834,10.4569002 C151.020667,10.7158875 149.225772,10.664963 147.623959,12.2210692 L147.623959,12.2210692 Z M122.127796,11.1974874 C118.70869,10.7238899 115.898181,11.331346 113.382701,13.2475609 C112.093682,14.2289481 110.52199,14.6850858 108.761078,14.4195511 C108.155571,14.3271596 107.447344,14.5519547 106.853422,14.7854797 C106.547579,14.905516 106.137472,15.4555002 106.217022,15.6475582 C106.390024,16.0651388 106.79318,16.4645321 107.208694,16.7046046 C107.519171,16.8835677 108.02273,16.8995725 108.4004,16.8173659 C111.417893,16.1575303 114.53579,15.7239449 117.398046,14.6763559 C119.285621,13.9852382 121.070476,13.8571995 122.978904,13.8419222 C123.482463,13.8368297 124.08797,13.7517131 123.89257,12.9194618 C122.64294,11.9169774 120.668864,14.1554714 119.452444,11.9402571 C120.239449,11.7227369 120.967756,11.520494 122.127796,11.1974874 L122.127796,11.1974874 Z M70.9601504,36.6990045 C73.3041724,36.2472318 75.9046081,36.8692378 78.360618,34.941383 C76.0837887,35.3284089 74.2286516,35.606311 72.3974568,35.9831521 C71.9077995,36.0842735 71.4868796,36.4894867 71.0173028,36.7404716 C70.5678067,36.6757248 70.1167658,36.610978 69.6672697,36.5440487 C69.672676,36.6844547 69.67731,36.8255882 69.6827163,36.9645393 C70.1090425,36.8765127 70.5338241,36.7870311 70.9601504,36.6990045 L70.9601504,36.6990045 Z M170.35518,12.2378015 C170.254005,12.2814511 170.135838,12.3083683 170.053971,12.3738426 C169.996047,12.4196746 169.986779,12.5186136 169.955113,12.5942728 C170.065556,12.4509568 170.176,12.3069133 170.298028,12.1774196 C170.532044,12.141045 170.76606,12.1039429 170.998531,12.0690233 C170.784596,12.1250402 170.569888,12.1825121 170.35518,12.2378015 L170.35518,12.2378015 Z M54.6995112,17.565228 C54.1635141,17.9275192 53.6653611,18.3625597 53.0807072,18.6280944 C52.3747974,18.949646 51.5955163,19.1256992 50.8865172,19.3526768 C50.6694924,20.9393376 51.3475983,21.8385182 52.7161674,22.1113278 C53.9109621,22.3484903 55.2246957,22.5878353 56.380874,22.3594027 C60.5954796,21.5286064 64.8741887,22.0233012 69.094973,21.6115405 C72.6530981,21.2645267 76.1888256,21.0870185 79.7739822,21.238337 C81.6491998,21.3169061 83.5622616,20.7305473 85.4521535,20.4009933 C88.1290498,19.9353981 90.7989952,19.4305184 93.5330439,18.9300037 C93.4148774,18.8761693 93.1924463,18.7233959 92.94839,18.6804738 C92.6857978,18.6353693 92.4008079,18.6819288 92.1289477,18.7059361 C90.6491631,18.8332472 89.6513126,17.9922661 87.8958061,17.1287326 C92.964609,15.901453 97.3923778,15.4162156 101.913599,15.5900863 C102.458864,15.8534385 102.859703,16.566381 104.093114,15.8090615 C103.072866,15.7443147 102.449596,15.7050301 101.824008,15.6642905 C101.573001,14.8684139 101.084888,14.1685662 100.188985,14.1038194 C98.312223,13.9706883 97.0262933,12.8299803 95.313265,11.7816638 C95.7643058,11.4528373 96.0956354,11.1021859 96.5103767,10.9246778 C99.1957687,9.76796495 102.130623,9.90764349 104.970481,9.60718914 C105.862523,9.51334263 106.90903,9.80943202 107.726928,10.2117353 C109.192038,10.9319527 110.599996,10.8381062 112.11608,10.4990948 C115.685018,9.70758309 119.236192,8.94808107 122.983538,9.19906593 C124.714329,9.31473722 126.516948,8.82877232 128.249285,8.45847871 C131.054388,7.85466005 133.809289,7.19409699 136.751867,7.27848611 C138.929066,7.33959546 141.122484,6.92783479 143.308178,6.71613451 C143.717513,6.67612243 144.11758,6.55099375 144.526915,6.52262155 C150.276913,6.13777809 156.027683,5.75511711 161.779226,5.39282592 C162.26116,5.36081625 162.753907,5.47794252 164.22674,5.62344099 C161.502732,6.64556776 159.636782,6.74232424 157.74998,6.57572849 C154.708544,6.30582882 151.752064,6.63465537 148.794039,7.33741299 C147.086417,7.74335372 145.296928,7.83574525 142.647836,8.19076152 C144.129937,8.35226483 144.774061,8.48466844 145.417412,8.48175847 C150.223622,8.46502614 155.026744,8.42428657 159.831409,8.37990954 C160.379764,8.3740896 160.954378,8.38136452 161.470294,8.23950351 C165.865625,7.01877133 170.445543,7.10534293 174.933553,6.5655436 C177.372572,6.27163668 179.864109,6.28618653 182.330159,6.31383124 C182.845304,6.31892369 183.451583,6.92928977 183.802993,7.40143232 C183.912664,7.54984076 183.312563,8.15147694 183.060784,8.55741767 C182.946479,8.74292822 182.890099,8.96117593 182.727137,9.35765926 C184.691945,9.48060547 186.594194,9.66247856 188.499533,9.6879408 C189.21471,9.69958067 189.740667,9.17142122 189.756886,8.40464428 C189.773877,7.60876764 188.953663,6.97512179 188.079385,7.11843779 C187.824516,7.15917736 187.58046,7.30322085 187.354167,7.43489696 C187.249902,7.49673381 187.222871,7.71279904 187.124785,7.73753378 C186.804268,7.82337788 186.467532,7.85247758 186.137747,7.90194706 C186.242784,7.44871932 186.235833,6.92783479 186.487613,6.56699858 C186.676833,6.2985539 187.183482,6.16615029 187.575053,6.09340106 C188.787612,5.86860592 190.005576,5.60889115 191.233581,5.52450203 C197.661685,5.08364166 204.085928,4.59185683 210.545697,4.71189307 C212.73757,4.75336013 214.936394,4.58021695 217.127495,4.43617347 C217.929946,4.38452151 218.827393,4.30813481 219.483874,3.93420374 C220.405264,3.40895426 221.258689,3.49843582 222.234142,3.54863279 C224.010501,3.63665936 225.796901,3.53335545 227.578666,3.52462554 C228.791225,3.51953309 229.540385,2.9382667 230.274099,2.04126862 C232.035011,-0.108471293 232.459793,-0.119383678 234.979134,1.23884455 C235.318959,1.42217263 235.670369,1.5865859 236.045722,1.77573391 C235.239409,2.82623288 233.887059,1.66151761 233.087697,2.56069817 C233.252204,2.69455676 233.417482,2.94626912 233.581216,2.94481413 C237.703915,2.92153438 241.825841,2.88806973 245.947767,2.814593 C247.041386,2.79422321 248.147363,2.71056159 249.223991,2.5286885 C251.799713,2.0914656 254.317509,1.68625235 256.972008,2.35263535 C258.32513,2.69310178 259.865929,2.35845529 261.505586,2.17949217 C260.235103,-0.00807734757 257.977581,1.34724091 256.253741,0.166520818 C259.102867,-0.238692425 261.597493,0.20726039 264.34081,0.332389076 C264.216465,1.63969284 264.110655,2.76221355 263.978587,4.14881398 C264.709983,4.27030521 265.463778,4.4805505 266.223751,4.50383025 C268.834227,4.5853094 271.456287,4.48928041 274.055178,4.67333597 C276.647118,4.85884653 279.218978,5.29606943 281.796244,5.64090081 C282.058064,5.67436546 282.377036,5.76966696 282.537681,5.94572011 C282.870555,6.30946629 283.237412,6.72049947 283.339359,7.16354231 C283.390333,7.38106253 282.895269,7.72589391 282.623409,7.99142862 C282.536908,8.07509024 282.375491,8.11946727 282.243423,8.13037966 C278.323847,8.47739351 274.483822,9.95274801 270.449169,8.72183094 C268.831137,8.22786363 267.182985,8.49921828 265.63678,9.20052092 C264.185571,9.85744651 263.479662,11.0338017 262.731274,12.4887864 C264.536982,13.1297071 265.869251,12.6546546 267.315825,12.1425 C267.124288,11.4935768 266.985268,11.0214343 266.829257,10.4940023 C267.987753,9.70976557 269.255146,9.56863205 270.655381,9.82325437 C273.256589,10.2968519 275.829993,10.0145849 278.438152,9.65083868 C280.731973,9.33146954 283.089124,9.37511908 285.421561,9.33583449 C286.055644,9.32492211 286.694361,9.5824544 287.268975,9.70467312 C287.418807,10.7915467 286.692044,11.1829376 286.092716,11.1080059 C283.873039,10.8301038 281.758399,11.1873025 279.582745,11.5255865 C278.158569,11.7489266 276.61777,11.2309521 275.123311,11.1414705 C274.522438,11.1050959 273.906119,11.331346 273.133789,11.4659321 C273.714581,12.8467126 274.839094,12.5913628 275.675527,12.717219 C278.113001,13.0816926 280.521899,13.3865119 282.618003,14.8305843 C283.351717,15.336919 284.396679,15.5937238 285.324248,15.6613805 C286.89285,15.7755968 288.216624,16.1822651 289.449263,17.1592873 C290.012292,17.6066951 290.987745,17.5819604 291.767026,17.8002081 C292.661384,18.0511929 293.543385,18.334915 295,18.7772303 C293.324044,19.6451287 291.969376,19.5665595 290.738282,19.8153619 C289.532675,20.0597993 288.280728,20.3537063 287.072803,20.2802295 C283.4722,20.0583444 279.999804,20.7647394 275.800645,21.3940203 C277.596312,21.8690728 278.790335,22.1557048 279.964276,22.5056286 C281.093423,22.8417301 282.201717,23.2411234 283.547116,23.6899862 C281.844128,25.4847098 279.957325,24.2683426 277.997924,24.6430012 C277.733015,24.8990785 277.281201,25.3566712 276.806991,25.7917116 C274.802022,27.6344498 273.048832,27.4307519 271.537382,25.1937129 C271.321902,24.8757987 271.078618,24.5746169 270.769686,24.1570363 C269.855247,24.1570363 268.907598,24.0850146 267.976168,24.1679487 C262.368278,24.6640985 256.759617,25.1595208 251.160223,25.7255098 C245.834234,26.2609442 240.517514,26.8829502 235.196931,27.4714915 C234.515736,27.5464232 233.819866,27.7792207 233.158752,27.710109 C229.590586,27.3456353 226.129775,27.8526975 222.64116,28.5023481 C221.008454,28.80644 219.439851,29.042875 217.963156,29.8278392 C217.031726,30.3232615 215.952781,30.799769 214.917086,30.8521485 C211.232299,31.0325666 207.544422,30.8565134 203.826425,30.7597569 C203.919877,29.657606 204.625786,30.1413884 205.021992,29.9937075 C205.375719,29.8620314 205.715544,29.7005281 206.031427,29.5637595 C205.98277,28.5038031 205.165645,28.5729149 204.553187,28.56855 C201.118635,28.5532726 197.683311,28.5881922 194.249531,28.614382 C192.600606,28.6260218 190.943185,28.56273 189.306618,28.7082285 C186.603462,28.9475735 183.799131,28.5118055 181.23654,29.846754 C180.559979,30.1988603 179.633955,30.1712156 178.814512,30.22796 C174.161223,30.5436917 169.68557,32.135445 164.950414,31.9346571 C164.337184,31.9070124 163.700011,32.3900673 163.073651,32.6366872 L163.174827,32.5435682 C162.084297,32.6010401 160.744304,32.2984033 159.950348,32.7843682 C156.868751,34.6729383 153.192459,33.4783959 150.039035,34.7376851 C146.928862,34.1120417 143.831818,34.7405951 140.727823,34.795157 C140.519294,34.799522 140.304586,34.5529021 140.078293,34.4132236 C140.016507,33.514043 140.795016,33.468211 141.41288,33.2565107 C141.992127,33.0571778 142.870267,33.3554497 143.059488,32.1972818 C141.293169,32.1972818 139.524533,32.4249869 137.857072,32.135445 C136.006569,31.8146209 134.32984,32.2649386 132.573561,32.463544 C130.944717,32.6497821 129.29193,32.6977966 127.649956,32.707254 C124.11114,32.7239863 120.641833,33.3903693 117.130047,33.6660889 C113.598181,33.942536 110.116517,34.7937021 106.614,35.3997032 C101.881161,36.2181321 97.081901,36.4000052 92.2949987,36.65972 C91.3821045,36.7099169 90.4105131,36.3847278 89.5192441,36.0886385 C88.1468134,35.6325007 86.8477541,35.6630554 85.5154846,36.18394 C81.5124973,37.7509585 77.3403698,38.2398334 73.0269059,38.0019434 C71.8128029,37.9357416 70.5693513,38.1852714 69.352159,38.3642345 C65.4217708,38.942591 61.5029676,39.5922416 57.5664008,40.1284035 C56.6481002,40.2549872 55.6618346,40.1225836 54.7327214,39.9698102 C52.9694916,39.6824507 51.2402444,39.5267673 49.5326224,40.1182186 C49.6384317,40.7671418 49.7156647,41.2421943 49.8261079,41.9129423 C48.3517296,41.942042 47.033362,42.2970582 45.5574391,41.3265834 C44.541825,40.656563 42.9732224,40.4557751 41.6695291,40.5037896 C38.532324,40.6187334 35.4028422,40.9810246 32.2756774,41.2945738 C31.6060671,41.3607756 30.9719841,41.7157918 30.3016015,41.8096384 C29.6404869,41.9020299 28.953113,41.8292806 27.8401853,41.8292806 C28.5345101,40.6842077 29.039614,39.8526839 29.7169475,38.7359831 C28.5615416,38.6508665 27.6671833,38.5861197 26.6121803,38.5068231 C26.3132885,37.9022769 25.9827312,37.228619 25.5463647,36.3461707 C24.4836384,36.7244668 23.4023762,37.1085827 22.2894484,37.5057936 C21.8577158,36.8328631 21.5333372,36.3250735 21.2128202,35.8260137 C16.7950916,37.5239809 16.7950916,37.5239809 15.3817275,37.1042178 C15.9710154,36.7244668 16.3587251,36.4509296 16.7711494,36.2181321 C17.1974757,35.9773321 17.6469718,35.7758167 18.1304505,35.5357443 C17.8284694,35.1981878 17.6593291,34.8664513 17.5218543,34.8766362 C13.2894851,35.1952778 9.06097743,35.5371992 4.83246981,35.8994904 C3.17736628,36.0420789 1.56319624,35.9642373 0,35.4535376 C0.0316655365,34.4466882 0.756111226,34.4292284 1.43112779,34.3768489 C6.73780831,33.9578133 12.0460335,33.5475076 17.3511694,33.1190147 C17.4160451,33.1131947 17.4631572,32.9014944 17.6230296,32.5748504 C14.8889808,32.277306 12.1904592,33.0513579 8.60221331,32.3238655 C10.9462353,31.8422656 12.4105733,31.559271 13.8640987,31.2318995 C14.3807876,31.1176832 15.2064085,31.0078318 15.3176241,30.7059225 C16.1223921,28.5307204 18.1327675,29.037055 19.8056346,28.7671554 C21.6947542,28.4608811 23.6000927,28.2106237 25.4544574,27.7704908 C25.8885069,27.6693694 26.1441482,26.9033199 26.6755114,26.1787376 C25.4096622,25.8084439 24.5168486,25.5480017 23.3220538,25.1980779 C23.6502941,24.7586725 23.844149,24.186136 24.2164121,24.0537324 C26.5001924,23.2382134 28.7862897,22.3855924 31.1465307,21.8152384 C33.3963284,21.2718016 35.7380335,21.0593738 38.0380327,20.6999926 C39.4035124,20.4868374 40.6369237,20.2067528 41.3984412,18.8485246 C41.7220475,18.2745331 42.6928665,17.7914782 43.4312142,17.6947217 C46.1281911,17.3426154 48.8475656,17.0829006 51.5677124,16.9745042 C52.6242601,16.9330372 53.7039776,17.3819 54.7744272,17.6066951 L54.6995112,17.565228 Z" id="Fill-1"></path>
                    </g>
                </g>
            </g>
        </g>
    </g>
</svg>