<?xml version="1.0" encoding="UTF-8"?>
<svg width="201px" height="191px" viewBox="0 0 201 191" version="1.1" xmlns="http://www.w3.org/2000/svg" xmlns:xlink="http://www.w3.org/1999/xlink">
    <!-- Generator: Sketch 55.1 (78136) - https://sketchapp.com -->
    <title>Fill 10 Copy 2</title>
    <desc>Created with Sketch.</desc>
    <g id="ver-2.0-(R2)" stroke="none" stroke-width="1" fill="none" fill-rule="evenodd" opacity="0.0971912202">
        <g id="Ranchr-v2.3.2-Copy" transform="translate(-1168.000000, -2273.000000)" fill="#33302D">
            <g id="Difference" transform="translate(-126.000000, 1085.000000)">
                <path d="M1390,1318.03841 C1390.73184,1318.72571 1391.22242,1319.22209 1392,1318.899 C1391.55695,1318.15394 1390.99462,1317.89351 1390,1318.03841 Z M1440,1342.72201 C1440.87764,1342.71701 1441.48523,1342.98201 1442,1342.34101 C1441.4346,1342.48701 1440.80169,1341.79301 1440,1342.72201 Z M1442,1275.62772 C1442.39888,1275.83972 1442.71348,1276.04772 1443,1275.41972 C1442.67978,1275.29972 1442.32584,1274.80172 1442,1275.62772 Z M1404,1210.33509 C1403.65761,1210.26609 1403.33696,1210.15009 1403,1210.34809 C1403.45652,1210.90209 1403.45652,1210.90209 1404,1210.33509 Z M1487,1285.521 C1487.66667,1285.521 1488.33333,1285.521 1489,1285.521 C1489,1285.507 1489,1285.492 1489,1285.479 C1488.33333,1285.479 1487.66667,1285.479 1487,1285.479 C1487,1285.492 1487,1285.507 1487,1285.521 Z M1495,1285.454 C1493.66667,1285.454 1492.33333,1285.454 1491,1285.454 C1491,1285.486 1491,1285.515 1491,1285.546 C1492.33333,1285.546 1493.66667,1285.546 1495,1285.546 C1495,1285.515 1495,1285.486 1495,1285.454 Z M1375.71641,1208 C1376.38483,1206.51407 1375.75953,1205.24652 1375,1204 C1375.26083,1205.32994 1374.96592,1206.7528 1375.71641,1208 Z M1467.74431,1258.13672 C1467.95586,1257.96021 1468.06163,1257.648 1467.96247,1257.29593 C1467.88314,1257.01599 1467.6782,1256.97233 1467.49309,1257.01314 C1466.77249,1257.17257 1466.05189,1257.38893 1465.36435,1257.7875 C1465.13957,1257.9194 1464.96108,1258.14526 1465.00735,1258.52105 C1465.06685,1259.04772 1465.37757,1259.01451 1465.64201,1258.98699 C1466.4155,1259.03823 1467.09643,1258.66814 1467.74431,1258.13672 Z M1312.78229,1256.05617 C1311.68976,1255.56156 1310.59328,1255.05804 1309.35759,1255.00011 C1309.25731,1254.99566 1309.11546,1255.12551 1309.05345,1255.22673 C1308.94921,1255.40178 1309.00199,1255.62649 1309.1722,1255.7016 C1310.18622,1256.14401 1311.19892,1256.59661 1312.2413,1256.96454 C1312.62527,1257.09886 1312.9459,1256.84041 1313,1256.37827 C1312.93073,1256.27069 1312.88587,1256.10264 1312.78229,1256.05617 Z M1406.99589,1270 C1404.33429,1271.56133 1403.08383,1272.81344 1403,1274 C1405.43805,1272.77371 1407.09369,1271.11439 1406.99589,1270 Z M1404.46436,1317 C1403.99039,1317.44902 1403.91456,1317.95204 1404.07887,1318.31387 C1404.78033,1319.8376 1404.56547,1321.9006 1406,1323 C1405.63347,1320.95474 1405.76618,1318.70426 1404.46436,1317 Z M1361.86954,1364.85309 C1361.99403,1364.53603 1362.18699,1364.15255 1361.57698,1364.01833 C1361.12792,1363.91972 1360.91006,1364.23952 1360.75622,1364.4881 C1359.68293,1366.22884 1359.01423,1368.05382 1359,1370 C1360.27515,1368.36677 1361.15193,1366.63561 1361.86954,1364.85309 Z M1478.78657,1298.35411 C1478.15103,1298.20914 1477.50835,1298.08984 1476.85852,1298.01031 C1476.42292,1297.95729 1476.02303,1298.09647 1476.00161,1298.71448 C1475.97304,1299.24716 1476.33009,1299.37474 1476.69428,1299.44433 C1477.28698,1299.55451 1477.88682,1299.65061 1478.47951,1299.76576 C1479.5578,1299.9737 1480.62894,1300.19654 1482,1299.69866 C1480.83603,1298.87271 1479.82201,1298.5869 1478.78657,1298.35411 Z M1383.05771,1326.54477 C1383.08152,1326.75499 1383.2157,1326.95826 1383.40471,1326.99237 C1383.67091,1327.0411 1383.91042,1326.84897 1384.00925,1326.629 C1384.10736,1326.41389 1384.08789,1326.14867 1384.12324,1325.90573 C1384.27978,1324.83301 1384.39809,1323.75472 1384.76168,1322.72168 C1384.89226,1322.34995 1385.03077,1321.97962 1384.99398,1321.5703 C1384.9442,1321.01897 1384.6982,1320.86931 1384.20043,1321.11295 C1383.8693,1321.27654 1383.60598,1321.48746 1383.55116,1321.8752 C1383.36792,1323.1853 1383.17602,1324.49609 1383,1325.73587 C1383.02092,1326.0547 1383.02813,1326.30043 1383.05771,1326.54477 Z M1354.79657,1225.98594 C1355.09003,1226.59982 1355.50375,1227.15148 1355.88239,1227.71831 C1356.08423,1228.0188 1356.38915,1228.07268 1356.68547,1227.90953 C1356.9954,1227.73956 1357.07628,1227.44893 1356.92812,1227.09988 C1356.8458,1226.90562 1356.78282,1226.69998 1356.68762,1226.51408 C1355.96828,1225.10117 1355.00343,1223.86354 1354.13663,1222.55611 C1353.9398,1222.26017 1353.67139,1221.98472 1353,1222.00066 C1353.42373,1223.54105 1354.1939,1224.72631 1354.79657,1225.98594 Z M1318.3157,1296.99381 C1319.81313,1296.79794 1321.34011,1296.93188 1322.82054,1296.55406 C1323.02222,1296.50296 1323.24015,1296.50296 1323.4337,1296.42941 C1323.73954,1296.31405 1324.03504,1296.10424 1323.99662,1295.73571 C1323.96042,1295.40667 1323.71812,1295.15815 1323.38864,1295.05131 C1323.01927,1294.92976 1322.67871,1295.05131 1322.3182,1295.13647 C1321.14803,1295.41132 1319.96383,1295.61958 1318.79514,1295.8983 C1318.25955,1296.02682 1317.67964,1296.09185 1317,1296.69574 C1317.61759,1296.84362 1317.98105,1297.03717 1318.3157,1296.99381 Z M1332.09206,1213.76287 C1331.18928,1213.17323 1330.45969,1212.43531 1329.71241,1211.7022 C1329.50238,1211.49559 1329.24665,1211.31849 1328.98135,1211.1709 C1328.71825,1211.02469 1328.40136,1210.88192 1328.13531,1211.15306 C1327.86632,1211.42832 1328.04762,1211.68435 1328.25323,1211.91774 C1329.33877,1213.1492 1330.41547,1214.38684 1331.5165,1215.60594 C1331.67199,1215.77755 1331.92625,1215.91827 1332.16281,1215.97112 C1332.64773,1216.07958 1332.96389,1215.8915 1333,1215.25449 C1332.8924,1214.7479 1332.64773,1214.12531 1332.09206,1213.76287 Z M1401.24693,1225.97794 C1401.50681,1226.06209 1401.68223,1225.89454 1401.81866,1225.66104 C1402.00058,1225.34793 1402.15651,1225.02117 1402.1695,1224.62997 C1402.21498,1223.39345 1402.50085,1222.20317 1402.66977,1220.98863 C1402.8257,1219.89161 1402.76073,1218.75971 1402.98163,1217.66496 C1403.0401,1217.38596 1402.96214,1217.11758 1402.70226,1217.02357 C1402.40989,1216.91667 1402.31244,1217.19415 1402.22148,1217.43827 C1402.1695,1217.58459 1402.09804,1217.73243 1402.07205,1217.88861 C1401.71471,1220.36544 1401.36387,1222.84455 1401.01303,1225.32518 C1401.00654,1225.58977 1400.92857,1225.87711 1401.24693,1225.97794 Z M1463.69644,1296.03262 C1463.26392,1296.08599 1462.97814,1296.29237 1463.00131,1296.61853 C1463.01676,1296.89726 1463.33343,1297.03721 1463.681,1297.06212 C1465.84363,1297.21453 1467.93674,1297.63143 1470.04531,1297.98369 C1470.45466,1298.05071 1470.84085,1297.90897 1470.96443,1297.59882 C1471.10345,1297.26316 1470.81768,1297.01409 1470.40832,1296.94767 C1468.33837,1296.61557 1466.2607,1296.30719 1464.25255,1296 C1464.02084,1296.01245 1463.85864,1296.01245 1463.69644,1296.03262 Z M1332.47047,1352.35795 C1334.50356,1350.91696 1335.84165,1348.89789 1337.5196,1347.16291 C1337.7808,1346.89224 1338.26578,1346.52899 1337.8167,1346.15302 C1337.30804,1345.72546 1336.99338,1346.30567 1336.6306,1346.53535 C1336.54429,1346.58906 1336.48167,1346.67669 1336.40987,1346.7516 C1334.89307,1348.35372 1333.37856,1349.96078 1331.68992,1351.4152 C1331.19196,1351.84629 1330.98345,1352.35442 1331.00102,1352.9954 C1331.70061,1353.04699 1332.05423,1352.65336 1332.47047,1352.35795 Z M1326.03543,1247.43445 C1325.92063,1247.71065 1326.1031,1247.925 1326.32054,1248.08181 C1326.66038,1248.3278 1326.99262,1248.60185 1327.37428,1248.7716 C1329.12519,1249.55059 1330.69592,1250.61945 1332.37689,1251.50992 C1333.31127,1252.00479 1334.27302,1252.45147 1335.23248,1252.90174 C1335.53888,1253.04703 1335.8772,1253.07868 1335.98364,1252.66006 C1336.05814,1252.36515 1335.87112,1252.16879 1335.56701,1252.13498 C1335.11844,1252.08751 1334.76187,1251.91344 1334.44104,1251.61494 C1333.32875,1250.57773 1332.01196,1249.82679 1330.59252,1249.23482 C1330.10823,1249.03198 1329.71136,1248.76369 1329.2993,1248.4321 C1328.54586,1247.82574 1327.6092,1247.4251 1326.85805,1247 C1326.42241,1247.11005 1326.14187,1247.17551 1326.03543,1247.43445 Z M1334.41225,1330.89737 C1336.01089,1329.43035 1337.6321,1327.98952 1339.23356,1326.52686 C1339.6207,1326.17338 1340.32447,1325.76244 1339.83014,1325.2024 C1339.376,1324.68745 1338.81256,1325.27368 1338.43882,1325.64752 C1336.72735,1327.36765 1334.92985,1328.97359 1332.94619,1330.35624 C1332.59007,1330.60426 1332.29672,1330.99992 1332.07318,1331.38832 C1331.88701,1331.71489 1332.0633,1331.97454 1332.51955,1332 C1333.11049,1331.62324 1333.84035,1331.42177 1334.41225,1330.89737 Z M1434.45414,1334.39911 C1432.83174,1332.81117 1431.44659,1331.01191 1429.97725,1329.29458 C1429.66349,1328.92784 1429.34972,1328.5542 1428.99769,1328.22804 C1428.7528,1328.00294 1428.42373,1327.88273 1428.13293,1328.16373 C1427.89569,1328.39189 1428.02579,1328.67977 1428.14058,1328.9064 C1428.26302,1329.13839 1428.46965,1329.32214 1428.62271,1329.54265 C1429.83185,1331.31894 1431.43128,1332.7637 1432.76287,1334.43816 C1433.59702,1335.4802 1434.5077,1336.59957 1436,1337 C1435.52553,1336.08582 1435.1888,1335.12571 1434.45414,1334.39911 Z M1344.16229,1207.61503 C1345.55134,1210.47829 1347.51051,1213.06043 1349.00953,1215.87088 C1349.4923,1216.77488 1350.09831,1217.62465 1350.67155,1218.48656 C1350.86341,1218.77695 1351.11143,1219.17793 1351.56535,1218.91394 C1351.94829,1218.69133 1352.14717,1218.30675 1351.87186,1217.86653 C1351.76345,1217.69172 1351.61136,1217.53261 1351.53493,1217.34782 C1350.97884,1215.99503 1349.68573,1215.10887 1348.93934,1213.87167 C1347.79986,1211.97591 1346.6136,1210.10442 1345.41875,1208.23649 C1345.09898,1207.73775 1344.64194,1207.32607 1344.09833,1207 C1343.88073,1207.29039 1344.08039,1207.44379 1344.16229,1207.61503 Z M1369.7592,1226.38946 C1369.4045,1225.48112 1369.05636,1224.56617 1368.7542,1223.63876 C1368.14405,1221.77515 1367.33756,1219.99071 1366.54203,1218.20555 C1366.32964,1217.72901 1366.15302,1216.73049 1365.38011,1217.06846 C1364.60428,1217.40863 1365.22319,1218.20701 1365.42682,1218.68648 C1366.47926,1221.15712 1367.4142,1223.66662 1368.30826,1226.19592 C1368.46372,1226.63286 1368.64618,1227.06174 1368.84835,1227.47889 C1368.98118,1227.75235 1369.15197,1228.07786 1369.52857,1227.98328 C1369.96137,1227.87478 1369.99129,1227.48256 1369.99859,1227.06467 C1370.01684,1226.83594 1369.85335,1226.62626 1369.7592,1226.38946 Z M1437.71988,1301.15998 C1437.25447,1300.93893 1436.80338,1300.69138 1436.33081,1300.51272 C1433.56697,1299.47485 1430.98214,1297.95248 1428.09658,1297.253 C1427.60969,1297.13339 1427.12279,1296.95095 1426.60726,1297.01227 C1426.32801,1297.04482 1426.07741,1297.18411 1426.01296,1297.44225 C1425.94852,1297.7057 1426.13469,1297.95627 1426.34233,1298.12206 C1426.49986,1298.24924 1426.68602,1298.37641 1426.87219,1298.41881 C1429.00593,1298.88589 1431.00362,1299.77085 1433.02996,1300.55436 C1434.26151,1301.02901 1435.60763,1301.11607 1436.77474,1301.82994 C1437.0325,1301.98967 1437.34755,1302.05932 1437.65544,1301.93971 C1437.84877,1301.86401 1438.01345,1301.74818 1437.99913,1301.48701 C1437.99913,1301.2917 1437.84877,1301.22508 1437.71988,1301.15998 Z M1422.93797,1227.85005 C1421.7675,1229.40746 1421.10278,1231.29553 1420.02623,1232.88767 C1418.66791,1234.90031 1417.69251,1237.13111 1416.44979,1239.20037 C1416.23303,1239.55216 1416.13188,1239.98096 1416.01628,1240.38711 C1415.95848,1240.59773 1416.05963,1240.82346 1416.24026,1240.93896 C1416.43534,1241.06126 1416.65209,1240.98199 1416.81827,1240.85743 C1416.97722,1240.73891 1417.16508,1240.59321 1417.2301,1240.41655 C1417.57691,1239.36268 1418.42225,1238.58359 1418.66791,1237.47234 C1418.82686,1236.79064 1419.17367,1236.20708 1419.57105,1235.63787 C1420.9366,1233.65468 1422.15765,1231.56353 1423.35703,1229.46634 C1423.76164,1228.76426 1424.33242,1228.06067 1423.75441,1227 C1423.30645,1227.22648 1423.15472,1227.56468 1422.93797,1227.85005 Z M1441.19712,1293.47523 C1442.38672,1293.74184 1443.59137,1293.95331 1444.79602,1294.1615 C1448.24434,1294.75725 1451.69265,1295.34065 1455.1485,1295.93064 C1455.45719,1295.9833 1455.83364,1296.13471 1455.96916,1295.70682 C1456.11222,1295.24602 1455.72823,1295.14975 1455.41954,1295.05594 C1455.21626,1294.99341 1455.00544,1294.96461 1454.80216,1294.89795 C1450.50306,1293.49169 1446.05337,1292.96506 1441.67145,1292.06403 C1441.09172,1291.94307 1440.51198,1291.9513 1440,1292.46723 C1440.1807,1293.12223 1440.68515,1293.35921 1441.19712,1293.47523 Z M1325.78609,1319.55738 C1324.3896,1320.55965 1322.83199,1321.1988 1321.30854,1321.91959 C1320.83265,1322.14508 1320.36121,1322.40012 1319.92318,1322.6987 C1317.42047,1324.40154 1314.97345,1326.2008 1312.25841,1327.54131 C1311.74985,1327.79168 1311.22198,1328.0786 1311,1329 C1316.99878,1326.35398 1322.17272,1322.49032 1328,1319.50606 C1326.9955,1318.55745 1326.34143,1319.16083 1325.78609,1319.55738 Z M1365.57824,1305.01712 C1364.97633,1304.92007 1364.57095,1305.2514 1364.14245,1305.61155 C1361.22542,1308.0681 1358.53111,1310.77637 1355.44837,1313.05095 C1354.63376,1313.6522 1353.95324,1314.4339 1353.22649,1315.14812 C1353.03228,1315.33919 1352.89972,1315.62351 1353.09856,1315.86082 C1353.32128,1316.12543 1353.58177,1315.96091 1353.80759,1315.7941 C1354.80254,1315.05031 1355.78054,1314.28226 1356.79861,1313.57108 C1359.77268,1311.49211 1362.45774,1309.06892 1365.24299,1306.764 C1365.68228,1306.40159 1365.9474,1305.95804 1365.9998,1305.27036 C1366.00751,1305.10583 1365.7894,1305.05048 1365.57824,1305.01712 Z M1330.75365,1294.58351 C1334.24894,1294.14994 1337.59583,1293.00027 1341.08592,1292.52696 C1341.50289,1292.4706 1341.99702,1292.36149 1342,1291.84699 C1342.00296,1291.26023 1341.41015,1291.22193 1340.9954,1291.05356 C1340.74908,1290.95384 1340.49014,1291.0131 1340.22601,1291.07235 C1337.5758,1291.67067 1334.9241,1292.2661 1332.26647,1292.8348 C1330.73065,1293.16358 1329.20151,1293.50754 1327.73321,1294.0719 C1327.4075,1294.19836 1326.89779,1294.21064 1327.01798,1294.69046 C1327.12779,1295.13125 1327.6145,1294.95927 1327.95802,1294.98745 C1328.0107,1294.99034 1328.06412,1294.98745 1328.33938,1294.98745 C1329.03087,1295.07344 1329.86926,1294.69335 1330.75365,1294.58351 Z M1364.58526,1357.76291 C1366.7232,1353.10035 1368.26485,1348.22706 1369.91223,1343.39216 C1369.94722,1343.29131 1369.96976,1343.18594 1369.98065,1343.08057 C1370.02496,1342.64254 1370.03818,1342.17816 1369.50097,1342.02839 C1369.05861,1341.90496 1368.79895,1342.20225 1368.61392,1342.56728 C1368.22987,1343.32593 1367.77274,1344.04845 1367.51463,1344.87183 C1366.26374,1348.87583 1365.21731,1352.93252 1364.13746,1356.98167 C1364.05117,1357.30681 1363.85525,1357.68087 1364.18177,1357.99773 C1364.3909,1358.01729 1364.51763,1357.90816 1364.58526,1357.76291 Z M1426.32614,1324.11305 C1424.61154,1322.08248 1422.6274,1320.2881 1420.93526,1318.22975 C1419.81217,1316.85947 1418.59922,1315.56304 1417.4312,1314.22566 C1417.01939,1313.74818 1416.57015,1313.31019 1415.92624,1313.17053 C1415.64921,1313.1113 1415.31228,1312.81077 1415.08017,1313.18369 C1414.90048,1313.47763 1415.05023,1313.78986 1415.25987,1314.03847 C1415.93373,1314.83256 1416.59261,1315.64859 1417.30391,1316.40393 C1419.17574,1318.36429 1421.09999,1320.26104 1422.8071,1322.37277 C1423.77296,1323.5661 1424.97093,1324.6088 1427,1325 C1426.63312,1324.51667 1426.49086,1324.30755 1426.32614,1324.11305 Z M1398.80866,1231.40939 C1398.31083,1233.92549 1398.07733,1236.48515 1397.62502,1239.00488 C1397.05597,1242.18304 1396.64845,1245.38443 1396.05369,1248.55606 C1395.99642,1248.85659 1396.00303,1249.16875 1396.00009,1249.47582 C1395.99642,1249.75821 1396.10509,1249.96655 1396.43184,1249.99704 C1396.73583,1250.02318 1396.94289,1249.87436 1397.03467,1249.61955 C1397.10002,1249.43371 1397.05156,1249.2123 1397.09929,1249.01775 C1397.91359,1245.62689 1397.81887,1242.10609 1398.67943,1238.71015 C1399.21839,1236.58969 1399.2551,1234.36323 1399.79846,1232.21881 C1400.04077,1231.24242 1400.15091,1230.14771 1399.62223,1229 C1399.00545,1229.80434 1398.96139,1230.63409 1398.80866,1231.40939 Z M1400.18438,1336.56499 C1400.88804,1339.73436 1401.45235,1342.93221 1401.94003,1346.14465 C1402.30231,1348.487 1402.67156,1350.8279 1403.04777,1353.16734 C1403.1035,1353.53596 1403.02687,1354.10677 1403.65389,1353.98268 C1404.1346,1353.88852 1403.97436,1353.4637 1403.97436,1353.10603 C1403.98133,1352.06733 1403.78626,1351.05491 1403.67479,1350.03082 C1403.13137,1345.15413 1402.21871,1340.35481 1401.09008,1335.59783 C1400.9577,1335.05403 1400.83927,1334.48322 1400.09381,1334 C1399.91964,1334.97665 1400.01021,1335.77155 1400.18438,1336.56499 Z M1379.65367,1253.0395 C1378.27207,1249.04016 1376.46892,1245.18949 1374.88715,1241.26081 C1374.45618,1240.19437 1374.02522,1239.12057 1373.46394,1238.11521 C1373.22452,1237.68834 1373.09107,1236.77351 1372.33747,1237.05172 C1371.63332,1237.31152 1372.22521,1237.99157 1372.37986,1238.41402 C1373.38701,1241.16734 1374.4083,1243.91698 1375.523,1246.63202 C1376.59766,1249.25286 1377.78929,1251.83175 1378.93304,1254.4261 C1379.05864,1254.7146 1379.19052,1255.05095 1379.60421,1254.99354 C1379.919,1254.94938 1380.02341,1254.68958 1379.98023,1254.31717 C1380.07522,1253.90281 1379.80517,1253.48109 1379.65367,1253.0395 Z M1473.50375,1237.00283 C1473.13442,1237.03308 1472.82302,1237.22173 1472.51886,1237.40679 C1470.89668,1238.38392 1469.19485,1239.1832 1467.44956,1239.91191 C1466.84125,1240.16609 1466.24741,1240.49228 1465.68979,1240.84655 C1462.76408,1242.70073 1459.84561,1244.55346 1456.78231,1246.1801 C1456.20296,1246.4854 1455.69603,1246.92825 1455.16738,1247.325 C1454.99357,1247.45534 1454.93564,1247.66199 1455.08772,1247.85425 C1455.24704,1248.05299 1455.50774,1248.03499 1455.62361,1247.88162 C1456.10158,1247.26668 1456.84025,1247.0773 1457.49201,1246.8944 C1458.74485,1246.53869 1459.79492,1245.7963 1460.80878,1245.10503 C1462.98858,1243.61305 1465.12493,1242.15708 1467.66682,1241.25195 C1469.66557,1240.54197 1471.49776,1239.37114 1473.40961,1238.40696 C1473.80791,1238.20247 1474.03241,1237.89788 1473.9962,1237.43343 C1473.97447,1237.12956 1473.80791,1236.97691 1473.50375,1237.00283 Z M1379.99008,1347.23378 C1380.26737,1345.69899 1380.53435,1344.16053 1380.87344,1342.6375 C1381.70767,1338.87363 1382.33117,1335.07816 1382.96259,1331.28344 C1383.00458,1331.02703 1383.00616,1330.76327 1382.9919,1330.50465 C1382.98081,1330.30482 1382.95784,1330.07926 1382.67896,1330.02122 C1382.38187,1329.95877 1382.10062,1330.03371 1381.92871,1330.25192 C1381.8067,1330.40841 1381.80353,1330.63984 1381.71955,1330.82792 C1380.69597,1333.11284 1380.56525,1335.55572 1380.24202,1337.96627 C1379.93859,1340.22915 1379.61376,1342.48982 1379.2937,1344.74976 C1379.10673,1346.07736 1378.83736,1347.39835 1379.12812,1349 C1379.76588,1348.34171 1379.88947,1347.7995 1379.99008,1347.23378 Z M1344.55392,1258.15435 C1347.86595,1260.24212 1351.408,1261.95642 1354.83467,1263.85815 C1355.50773,1264.23232 1356.19854,1264.58683 1356.90636,1264.90063 C1357.23993,1265.04875 1357.64598,1265.07052 1357.87305,1264.68862 C1358.11268,1264.28708 1358.00174,1263.91782 1357.63563,1263.6293 C1357.51877,1263.53804 1357.35161,1263.50855 1357.21996,1263.43063 C1354.98334,1262.11296 1352.54406,1261.1456 1350.33185,1259.77318 C1348.56119,1258.67243 1346.48211,1258.07362 1344.89636,1256.63451 C1343.92228,1255.75138 1343.28694,1255.83703 1342,1256.60151 C1342.68341,1257.50008 1343.74181,1257.64189 1344.55392,1258.15435 Z M1346.26312,1338.57957 C1349.56029,1335.1263 1352.42924,1331.29535 1355.32361,1327.48998 C1356.31138,1326.18917 1357.37172,1324.9636 1358.41537,1323.71771 C1358.76374,1323.30166 1359.29863,1322.67195 1358.79205,1322.18819 C1358.23248,1321.65628 1357.74477,1322.38079 1357.41744,1322.77276 C1356.44201,1323.93288 1355.50505,1325.13137 1354.63195,1326.37575 C1353.335,1328.22427 1351.90016,1329.95391 1350.45733,1331.67303 C1348.57324,1333.92104 1346.5919,1336.07877 1344.66934,1338.29067 C1344.29557,1338.71951 1343.95664,1339.20026 1344.00454,1340 C1345.09101,1339.91574 1345.66219,1339.20853 1346.26312,1338.57957 Z M1440.92726,1267.68186 C1442.9992,1266.80423 1445.18911,1266.32093 1447.26843,1265.50814 C1451.76623,1263.75439 1456.25666,1261.97047 1460.84295,1260.47005 C1461.08627,1260.38938 1461.34434,1260.31398 1461.5508,1260.16545 C1461.79412,1259.99279 1462.11855,1259.78243 1461.95634,1259.40393 C1461.78675,1258.99678 1461.47706,1258.9063 1461.05678,1259.09253 C1460.43741,1259.36924 1459.81804,1259.66631 1459.16917,1259.85179 C1456.6622,1260.56732 1454.19947,1261.41253 1451.82522,1262.52314 C1450.74132,1263.03057 1449.59844,1263.4347 1448.45555,1263.77625 C1445.50617,1264.65464 1442.57154,1265.58429 1439.67377,1266.62855 C1439.02491,1266.86153 1438.44978,1267.16916 1438,1267.73615 C1439.02491,1268.12294 1440.02033,1268.06715 1440.92726,1267.68186 Z M1470.37466,1328.84537 C1468.08959,1327.37216 1465.78963,1325.91422 1463.32592,1324.73769 C1461.10039,1323.67459 1459.17259,1322.12067 1456.88007,1321.16447 C1454.7513,1320.28025 1452.71186,1319.2048 1450.70963,1318.07989 C1450.06951,1317.72359 1449.42195,1317.37892 1448.7595,1317.07061 C1448.5362,1316.96808 1448.17893,1316.9499 1448.05239,1317.2044 C1447.94819,1317.41382 1447.99284,1317.73086 1448.24591,1317.89301 C1449.087,1318.42238 1449.89087,1319.03173 1450.78406,1319.43966 C1453.55294,1320.69618 1456.2474,1322.09522 1458.88975,1323.57497 C1461.88937,1325.25542 1465.01553,1326.75481 1467.73231,1328.90209 C1468.35754,1329.40091 1469.28051,1329.4998 1470.01739,1329.90483 C1470.41188,1330.11934 1470.84359,1329.97245 1471,1329.45181 C1471.00734,1329.03879 1470.62029,1329.00389 1470.37466,1328.84537 Z M1462.16926,1273.27244 C1466.05854,1272.75338 1469.90329,1272.05526 1473.72577,1271.26099 C1475.47001,1270.8973 1477.22909,1270.67574 1478.98817,1270.39984 C1479.76009,1270.27861 1480.55427,1270.23611 1481.31877,1270.07377 C1481.63051,1270.00828 1482.08327,1269.81946 1481.98678,1269.3854 C1481.89029,1268.9402 1481.48206,1268.96806 1481.0961,1269.0447 C1480.84374,1269.09557 1480.58396,1269.15409 1480.32418,1269.1938 C1475.35125,1269.95324 1470.39316,1270.82414 1465.39796,1271.42054 C1462.79273,1271.73128 1460.23204,1272.27682 1457.62682,1272.5792 C1457.03304,1272.64887 1455.95681,1272.70879 1456.00134,1273.43548 C1456.06072,1274.36282 1457.07757,1273.83888 1457.59713,1273.95942 C1459.21519,1273.9197 1460.66996,1273.4731 1462.16926,1273.27244 Z M1409.63243,1300.66278 C1410.6961,1301.30113 1411.67851,1302.04311 1412.63138,1302.83043 C1414.41154,1304.30215 1416.16954,1305.79907 1417.90538,1307.31685 C1420.76398,1309.81483 1423.7777,1312.14152 1426.87267,1314.36315 C1427.44144,1314.77264 1428.06929,1315.26849 1429,1314.82733 C1422.36687,1308.95051 1415.40872,1303.49396 1408,1298 C1408.2216,1299.38824 1408.73866,1300.12375 1409.63243,1300.66278 Z M1317.13031,1258.75984 C1319.39464,1259.70474 1321.65599,1260.65883 1323.93521,1261.574 C1325.96961,1262.39079 1328.00624,1263.20262 1330.07115,1263.9557 C1333.75673,1265.30191 1337.6157,1266.17603 1341.22538,1267.71617 C1341.55651,1267.85773 1341.92485,1267.94762 1342.28351,1267.99362 C1342.54097,1268.02618 1342.83266,1267.93559 1342.95618,1267.68644 C1343.08715,1267.42527 1342.89963,1267.21435 1342.72105,1267.02891 C1342.38545,1266.67785 1341.90252,1266.57239 1341.46647,1266.42588 C1338.84497,1265.54397 1336.18551,1264.76187 1333.59228,1263.81202 C1328.79797,1262.06025 1323.91065,1260.53568 1319.20191,1258.56732 C1318.32535,1258.20069 1317.40786,1257.77389 1316,1258.13982 C1316.59306,1258.46823 1316.84829,1258.64235 1317.13031,1258.75984 Z M1377.0988,1213.34164 C1377.43743,1215.29539 1377.71515,1217.26834 1378.20026,1219.18518 C1379.20456,1223.14069 1379.67516,1227.1848 1380.36041,1231.19346 C1380.7643,1233.5585 1381.28349,1235.90064 1381.72146,1238.2605 C1381.86431,1239.02694 1381.89839,1239.81479 1382.02021,1240.58714 C1382.04704,1240.76287 1382.15074,1241.0058 1382.41396,1241 C1382.65905,1240.99473 1382.73664,1240.79979 1382.80625,1240.59748 C1383.04699,1239.89085 1383.02886,1239.12958 1382.93677,1238.44141 C1382.43499,1234.72809 1381.6707,1231.06055 1381.09423,1227.35758 C1380.63958,1224.4358 1379.7629,1221.58196 1379.04866,1218.70449 C1378.91161,1218.15071 1378.80429,1217.59988 1378.7035,1217.03797 C1378.40475,1215.36997 1378.22927,1213.64733 1377.29386,1212 C1376.83703,1212.48733 1377.03209,1212.95325 1377.0988,1213.34164 Z M1301.7958,1268.34118 C1307.45929,1269.76429 1313.13538,1271.1104 1318.87521,1272.12278 C1320.52956,1272.41398 1322.18466,1272.69395 1323.84346,1272.94825 C1324.29485,1273.01724 1324.87891,1273.13035 1324.98713,1272.42441 C1325.0946,1271.71606 1324.50683,1271.62622 1324.05766,1271.52915 C1323.08669,1271.31897 1322.10313,1271.16896 1321.12623,1270.98204 C1318.05026,1270.39162 1314.91277,1270.13812 1311.97096,1268.82331 C1311.12154,1268.44226 1310.17355,1268.17753 1309.22334,1268.19277 C1306.58912,1268.23449 1304.00901,1267.77642 1301.42965,1267.28467 C1300.86485,1267.17637 1300.2971,1267.10578 1299.73156,1267.01192 C1299.36541,1266.95256 1299.13342,1267.113 1299,1267.53576 C1299.82125,1268.25614 1300.86189,1268.10613 1301.7958,1268.34118 Z M1479.42721,1315.55837 C1475.68936,1314.17366 1471.95152,1312.78676 1468.21367,1311.40059 C1467.14886,1311.00506 1466.0914,1310.57371 1465.0119,1310.21182 C1458.48353,1308.0207 1451.97718,1305.76452 1445.55161,1303.27146 C1445.30928,1303.17788 1445.0596,1303.1172 1444.80992,1303.04409 C1444.47212,1302.94466 1444.17103,1302.99949 1444.03885,1303.35261 C1443.91401,1303.69989 1444.10494,1303.95358 1444.39868,1304.11223 C1445.16975,1304.52676 1445.9041,1305.10945 1446.72658,1305.29735 C1449.75944,1305.9897 1452.60138,1307.31958 1455.6269,1307.96148 C1457.41872,1308.34093 1459.21788,1308.68893 1460.78939,1309.56699 C1463.0365,1310.81936 1465.43048,1311.66159 1467.86118,1312.34152 C1470.25517,1313.01121 1472.62712,1313.73061 1474.91829,1314.66204 C1476.54121,1315.31857 1478.10538,1316.10231 1480,1315.98899 C1479.8311,1315.65341 1479.61814,1315.62856 1479.42721,1315.55837 Z M1431.94787,1353.26123 C1430.80246,1350.94526 1429.86396,1348.52889 1428.52642,1346.30732 C1426.92284,1343.6422 1425.34883,1340.96133 1423.7822,1338.27748 C1421.86087,1334.9987 1419.96171,1331.70794 1418.04037,1328.43142 C1417.8039,1328.02757 1417.49353,1327.66492 1417.18316,1327.30528 C1416.91713,1326.99059 1416.54025,1326.89243 1416.20772,1327.13819 C1415.92691,1327.34723 1415.97124,1327.70313 1416.10426,1328.01108 C1416.18555,1328.20514 1416.32595,1328.37597 1416.39985,1328.57228 C1416.85801,1329.7666 1417.70044,1330.72416 1418.31379,1331.82333 C1419.59961,1334.12132 1420.78936,1336.49948 1422.31164,1338.63263 C1424.69853,1341.98707 1426.76027,1345.52884 1428.77028,1349.11331 C1429.68661,1350.74745 1430.66205,1352.34937 1431.62272,1354 C1432.07349,1353.67557 1432.02916,1353.43655 1431.94787,1353.26123 Z M1419.57622,1268.60417 C1420.6834,1267.9053 1421.70885,1267.04354 1422.87548,1266.50831 C1424.51024,1265.76365 1426.06327,1264.93792 1427.49741,1263.8442 C1428.91668,1262.76249 1430.38797,1261.72432 1432.15649,1261.26867 C1434.05876,1260.77848 1435.76784,1259.86717 1437.39517,1258.78246 C1440.32289,1256.82548 1443.28033,1254.93605 1446.57958,1253.65466 C1446.87681,1253.53831 1447.1889,1253.44598 1447.43412,1253.26132 C1447.75364,1253.02411 1448.19949,1252.7366 1447.90226,1252.24942 C1447.67933,1251.87709 1447.30037,1251.99269 1446.9214,1252.14132 C1443.88965,1253.3514 1440.99166,1254.81294 1438.26457,1256.62355 C1435.93874,1258.16391 1433.51632,1259.60594 1431.04188,1260.82577 C1426.96982,1262.8293 1423.195,1265.34253 1419.1601,1267.37758 C1418.78856,1267.56375 1418.45418,1267.83399 1418.14209,1268.11399 C1418.0009,1268.24235 1417.94889,1268.48707 1418.06035,1268.70476 C1418.17181,1268.9157 1418.36501,1268.9765 1418.40959,1268.98251 C1418.98919,1269.07259 1419.27156,1268.79484 1419.57622,1268.60417 Z M1439.67712,1324.90446 C1440.656,1326.26664 1442.0176,1327.23921 1443.1952,1328.39999 C1445.09408,1330.27043 1447.11808,1331.99 1449.28928,1333.49572 C1451.60032,1335.09812 1453.69056,1336.95244 1455.83968,1338.74085 C1457.27488,1339.93899 1458.65856,1341.19424 1460.07168,1342.42021 C1460.6384,1342.90942 1461.21984,1343.30636 1462,1342.67141 C1461.07264,1341.43592 1460.0864,1340.3557 1458.93824,1339.46735 C1453.0576,1334.92089 1447.72896,1329.68821 1441.59808,1325.45592 C1440.89152,1324.9711 1440.288,1324.29294 1439,1324 C1439.37536,1324.4958 1439.52992,1324.6972 1439.67712,1324.90446 Z M1334.99217,1315.39101 C1337.72307,1313.97734 1340.48874,1312.61023 1343.11753,1311.02485 C1348.3433,1307.87083 1353.79843,1305.13443 1359.17662,1302.25834 C1361.93711,1300.78282 1364.7087,1299.32768 1367.46993,1297.8558 C1368.15654,1297.48911 1368.83279,1297.09622 1369,1296.24714 C1368.44657,1295.81351 1367.96713,1296.03542 1367.50618,1296.2697 C1366.44076,1296.81246 1365.34425,1297.30867 1364.3358,1297.93947 C1362.48314,1299.09849 1360.57573,1300.15857 1358.65204,1301.19317 C1355.35144,1302.9699 1351.99313,1304.64623 1348.73766,1306.49645 C1343.75161,1309.32961 1338.87654,1312.34612 1333.79283,1315.01486 C1333.45692,1315.19093 1332.96564,1315.2957 1333.0019,1315.92068 C1333.78395,1316.19425 1334.40101,1315.69659 1334.99217,1315.39101 Z M1372.98668,1281.67746 C1373.07034,1281.30595 1372.74466,1281.14993 1372.43541,1281.08347 C1371.76612,1280.93864 1371.08862,1280.8323 1370.41484,1280.71196 C1367.56662,1280.20472 1364.72363,1279.67648 1361.87018,1279.20003 C1359.59714,1278.82012 1357.47871,1277.90569 1355.18923,1277.57615 C1353.64299,1277.35437 1352.11692,1277.04513 1350.60429,1276.63094 C1349.5025,1276.32869 1348.37158,1276.04534 1347.20182,1275.94739 C1344.7973,1275.74519 1342.41071,1275.40656 1340.0062,1275.19597 C1337.5479,1274.97978 1335.07317,1274.7475 1332.69405,1274.04645 C1332.40497,1273.9618 1332.15249,1273.97299 1332.03596,1274.24935 C1331.89329,1274.58308 1332.20553,1274.69712 1332.44008,1274.75309 C1334.07595,1275.14419 1335.70361,1275.57657 1337.35817,1275.87812 C1342.07233,1276.73588 1346.84252,1277.26691 1351.54175,1278.23802 C1357.00438,1279.36514 1362.52752,1280.2306 1368.02228,1281.215 C1369.42286,1281.46617 1370.81896,1281.73763 1372.21655,1282 C1372.51833,1281.97971 1372.90227,1282.05947 1372.98668,1281.67746 Z M1407.4464,1329.98391 C1408.24968,1331.64014 1408.81495,1333.36993 1409.43972,1335.09377 C1410.44383,1337.84821 1411.58925,1340.54172 1412.34046,1343.39201 C1412.89086,1345.52453 1413.90984,1347.51067 1414.58668,1349.60083 C1415.69491,1353.04035 1416.92215,1356.43157 1418.19401,1359.81313 C1419.04192,1362.06602 1419.74107,1364.37538 1420.49229,1366.66244 C1420.90137,1367.91149 1421.28069,1369.16871 1421.68234,1370.4185 C1421.83853,1370.90147 1422.24017,1371.09169 1422.679,1370.95868 C1423.23683,1370.78853 1422.91701,1370.30853 1422.82776,1370.02394 C1422.19554,1368.01997 1421.5187,1366.03012 1420.85674,1364.03655 C1419.5105,1360.00186 1417.64361,1356.14698 1416.62463,1351.99935 C1416.33456,1350.81941 1415.96267,1349.66993 1415.50897,1348.55315 C1414.4528,1345.97184 1413.41151,1343.38755 1412.51897,1340.74308 C1411.36611,1337.30802 1409.88599,1333.98814 1408.79264,1330.5293 C1408.50256,1329.61611 1408.12324,1328.67022 1407.22326,1328 C1406.72493,1328.80322 1407.17864,1329.43852 1407.4464,1329.98391 Z M1319.49145,1225.05318 C1321.69626,1226.95729 1323.93979,1228.81394 1326.11407,1230.75347 C1331.44999,1235.51339 1337.30268,1239.64413 1342.48447,1244.59469 C1345.01318,1247.01119 1348.0408,1248.8377 1350.46527,1251.38908 C1350.67748,1251.61287 1350.98203,1251.75227 1351.24935,1251.91955 C1351.45039,1252.04463 1351.65665,1252.02353 1351.8227,1251.85852 C1351.98205,1251.69953 1352.0446,1251.47649 1351.96641,1251.27229 C1351.87483,1251.03192 1351.76835,1250.69359 1351.57921,1250.6107 C1350.62834,1250.2023 1350.0252,1249.36139 1349.22325,1248.77139 C1346.98642,1247.12346 1344.91266,1245.28189 1342.91336,1243.34687 C1341.21713,1241.70648 1339.79938,1239.75866 1337.71073,1238.54325 C1337.26619,1238.28405 1336.92888,1237.83495 1336.55955,1237.45594 C1334.52005,1235.37475 1332.28173,1233.51885 1330.05086,1231.65919 C1329.12604,1230.88835 1328.00316,1230.35562 1327.11036,1229.55464 C1325.02469,1227.67991 1322.71862,1226.10206 1320.52349,1224.37276 C1320.08491,1224.02614 1319.50113,1223.71042 1319,1224.45414 C1319.15786,1224.64929 1319.29636,1224.88514 1319.49145,1225.05318 Z M1334.57218,1219.46591 C1336.04999,1221.41355 1337.50202,1223.38249 1339.00709,1225.30883 C1339.87124,1226.41411 1340.58362,1227.6244 1341.5568,1228.65918 C1343.76246,1231.00927 1345.94677,1233.38287 1348.0574,1235.81888 C1352.85845,1241.3629 1357.74791,1246.83641 1362.15409,1252.71164 C1362.83701,1253.62524 1363.64295,1254.44924 1364.41575,1255.29307 C1364.748,1255.65513 1365.09498,1256.28085 1365.6836,1255.8593 C1366.38125,1255.35697 1365.74548,1254.83921 1365.48322,1254.39416 C1365.19664,1253.90799 1364.81577,1253.47763 1364.47468,1253.02376 C1361.8211,1249.49422 1358.96788,1246.12845 1355.75367,1243.1005 C1353.58999,1241.06179 1351.79098,1238.75136 1349.97944,1236.42036 C1348.29757,1234.25681 1346.80797,1231.93315 1344.6244,1230.1581 C1343.34476,1229.11892 1342.03123,1228.02098 1341.16635,1226.58008 C1340.59835,1225.63197 1339.79978,1224.90344 1339.15517,1224.03904 C1337.92194,1222.38223 1336.74322,1220.68282 1335.56967,1218.98267 C1335.18364,1218.42232 1334.8919,1217.7922 1334.00787,1218.06614 C1333.94599,1218.65293 1334.25982,1219.05538 1334.57218,1219.46591 Z M1435.81575,1245.68736 C1431.01927,1249.23127 1426.34195,1252.9223 1421.69443,1256.65723 C1420.79323,1257.3767 1419.86224,1258.06763 1419.05786,1258.88078 C1417.68744,1260.26628 1416.16061,1261.50102 1414.46992,1262.39834 C1411.72163,1263.85411 1409.59896,1265.9825 1407.37203,1268.02014 C1407.16348,1268.21263 1406.83577,1268.49296 1407.09645,1268.80841 C1407.41671,1269.2095 1407.73698,1268.88672 1408.04234,1268.69057 C1409.2787,1267.90743 1410.54485,1267.17771 1411.75142,1266.35797 C1413.94857,1264.85902 1416.23509,1263.44351 1417.90343,1261.31511 C1418.26838,1260.84962 1418.75994,1260.55758 1419.24406,1260.24652 C1422.23069,1258.31648 1425.16518,1256.3308 1427.63045,1253.74204 C1429.00832,1252.3053 1430.58729,1251.09984 1432.32266,1250.09932 C1432.91105,1249.75898 1433.50688,1249.45377 1434.04313,1249.01243 C1435.67423,1247.65181 1437.47664,1246.47417 1438.86941,1244.83981 C1439.12264,1244.54412 1439.46524,1244.4497 1439.82274,1244.32821 C1440.8878,1243.96006 1441.20061,1243.16666 1440.88035,1242 C1439.39076,1243.53116 1437.49153,1244.45263 1435.81575,1245.68736 Z M1307.83655,1314.35987 C1309.43097,1313.6597 1311.10508,1313.19365 1312.79334,1312.80249 C1315.58452,1312.15758 1318.13441,1310.92883 1320.74537,1309.84332 C1325.20098,1307.99074 1329.6618,1306.16435 1334.37433,1304.99158 C1335.95237,1304.59824 1337.56542,1304.21217 1339.03771,1303.55562 C1341.53324,1302.44248 1344.10323,1301.53219 1346.671,1300.61099 C1349.5359,1299.58292 1352.36059,1298.44869 1355.30295,1297.63146 C1355.62168,1297.54349 1355.99702,1297.49332 1356,1296.95892 C1356.00148,1296.40853 1355.64253,1296.25512 1355.27539,1296.07553 C1354.97602,1295.93012 1354.67218,1296.01882 1354.36386,1296.13879 C1353.04573,1296.64846 1351.67993,1297.01636 1350.41019,1297.67509 C1349.07046,1298.36871 1347.70913,1299.0856 1346.21375,1299.4026 C1345.22775,1299.60982 1344.29388,1299.91082 1343.37044,1300.28745 C1341.91602,1300.88073 1340.46904,1301.49147 1338.99079,1302.0295 C1334.65657,1303.60724 1330.32608,1305.19953 1325.96133,1306.69147 C1323.09195,1307.67229 1320.26429,1308.75926 1317.40906,1309.76625 C1314.73704,1310.70998 1312.06502,1311.637 1309.44214,1312.7087 C1308.23497,1313.20092 1306.94364,1313.50629 1305.68284,1313.86692 C1305.28368,1313.98034 1304.84653,1313.95853 1304.44439,1314.06832 C1304.19863,1314.13593 1303.97224,1314.35987 1304.00277,1314.64052 C1304.0348,1314.95025 1304.30662,1315.0186 1304.66408,1314.99606 C1305.67093,1314.76849 1306.81108,1314.81138 1307.83655,1314.35987 Z M1391.59517,1378.45095 C1391.58193,1374.94505 1392.01215,1371.45617 1391.96334,1367.94212 C1391.88805,1362.54786 1391.94265,1357.15285 1391.88143,1351.75784 C1391.81193,1345.73758 1391.73747,1339.71361 1391.92611,1333.69334 C1392.04938,1329.76566 1392.06841,1325.83947 1391.5811,1321.92585 C1391.52567,1321.49001 1391.63571,1320.89065 1390.77278,1321.01718 C1390.01824,1321.12744 1389.90489,1321.50481 1390.06043,1322.14561 C1390.2441,1322.90629 1390.4013,1323.71432 1390.31526,1324.47943 C1390.05712,1326.78291 1390.23914,1329.07307 1390.37648,1331.36914 C1390.45094,1332.61819 1390.60317,1333.89535 1390.40626,1335.11627 C1389.9355,1338.03465 1390.06788,1340.95303 1390.15392,1343.86845 C1390.26892,1347.77837 1390.44019,1351.68607 1390.48486,1355.59673 C1390.52375,1358.88064 1390.10676,1362.1653 1390.5403,1365.45366 C1390.62717,1366.1248 1390.86793,1366.75672 1390.89854,1367.44783 C1391.06235,1371.04401 1391.05077,1374.63797 1391.00196,1378.23489 C1390.99865,1378.53013 1391.00527,1378.84461 1391.38006,1379 C1391.66797,1378.87939 1391.59517,1378.63964 1391.59517,1378.45095 Z M1416.5152,1254.45992 C1416.78127,1254.07268 1417.0769,1253.70633 1417.35776,1253.32655 C1418.56247,1251.67687 1420.08499,1250.29504 1421.35622,1248.70803 C1423.7952,1245.64368 1426.17506,1242.54874 1428.95403,1239.75972 C1431.42997,1237.28481 1433.57332,1234.47714 1435.88666,1231.84331 C1436.96573,1230.61891 1437.74916,1229.10651 1438.93909,1228.05895 C1440.7942,1226.41896 1441.98413,1224.33876 1443.381,1222.38763 C1444.16443,1221.2953 1444.87396,1220.18954 1445.99737,1219.34418 C1446.72907,1218.79727 1447.54945,1218.30259 1448.17028,1217.61093 C1448.98328,1216.71259 1449.73715,1215.76352 1450.51319,1214.8413 C1450.831,1214.46749 1451.0749,1214.07428 1450.97881,1213.5505 C1450.93447,1213.33562 1450.88273,1213.12894 1450.6684,1213.03269 C1450.43189,1212.92301 1450.27668,1213.11252 1450.14365,1213.25877 C1449.4563,1214.04891 1448.78373,1214.86294 1448.08898,1215.64787 C1446.09345,1217.88849 1444.0314,1220.06718 1442.11716,1222.37197 C1440.60943,1224.19177 1439.21255,1226.11156 1437.60873,1227.856 C1436.00492,1229.59672 1434.4011,1231.34116 1432.89336,1233.16918 C1431.4891,1234.87781 1430.07744,1236.57301 1428.51797,1238.13465 C1427.47585,1239.17326 1426.32288,1240.11115 1425.36946,1241.23034 C1422.07313,1245.11915 1418.84332,1249.0684 1415.57656,1252.9893 C1415.25875,1253.37132 1415.14789,1253.82497 1415.02963,1254.28458 C1414.8966,1254.80165 1415.2218,1254.92476 1415.79828,1254.98743 C1416.07175,1255.06354 1416.29347,1254.78225 1416.5152,1254.45992 Z M1425.60103,1284.13752 C1425.01005,1284.17177 1424.01511,1283.89701 1424,1284.68067 C1423.98519,1285.60927 1425.11478,1285.15134 1425.68331,1285.48184 C1425.82545,1285.56706 1426.08727,1285.42689 1426.29674,1285.41256 C1427.08969,1285.36079 1427.89013,1285.22779 1428.67561,1285.28911 C1433.55306,1285.67139 1438.45295,1285.61404 1443.33787,1285.88562 C1447.93105,1286.14285 1452.51675,1285.7343 1457.10992,1285.93499 C1461.44128,1286.12533 1465.78011,1285.7797 1470.11146,1285.98596 C1470.91938,1286.02419 1471.6899,1285.98915 1472.47537,1285.82111 C1474.97394,1285.28673 1477.47999,1284.98409 1480.02345,1285.59652 C1480.80144,1285.78208 1481.60188,1285.71837 1482.34996,1285.32017 C1482.6043,1285.18399 1483.06063,1285.27637 1482.9933,1284.77624 C1482.93345,1284.29123 1482.5669,1284.41547 1482.25271,1284.44254 C1479.55216,1284.67748 1476.85161,1284.5182 1474.15106,1284.55882 C1466.95458,1284.66633 1459.75811,1284.6735 1452.56163,1284.43617 C1446.79398,1284.24504 1441.0338,1283.95117 1435.26615,1284.00692 C1432.62545,1284.03081 1429.98474,1284.08656 1427.59839,1284.22115 C1426.76054,1284.18053 1426.17704,1284.10248 1425.60103,1284.13752 Z M1389.39606,1188.45921 C1389.33633,1191.26662 1388.8307,1194.05493 1389.05869,1196.87484 C1389.19499,1198.58235 1389.09151,1200.30457 1389.21518,1202.01356 C1389.38933,1204.40511 1389.1117,1206.79226 1389.22612,1209.18234 C1389.38597,1212.51068 1389.55507,1215.83902 1389.44991,1219.17103 C1389.34474,1222.43839 1389.29174,1225.70574 1389.11002,1228.96796 C1388.80378,1234.43584 1389.51216,1239.88608 1389.36409,1245.34808 C1389.35484,1245.71031 1389.3927,1246.07694 1389.45664,1246.43549 C1389.51721,1246.78302 1389.80494,1246.99242 1390.19447,1247 C1390.67066,1247.01005 1390.74301,1246.68309 1390.75815,1246.35761 C1390.79601,1245.57953 1390.86164,1244.79997 1390.84649,1244.02189 C1390.78928,1240.90663 1390.65635,1237.7943 1390.43425,1234.68271 C1390.20373,1231.4396 1390.69842,1228.19281 1390.49482,1224.94236 C1390.43929,1224.06141 1390.39134,1223.16283 1390.52595,1222.29438 C1391.02569,1219.11152 1391.08627,1215.90808 1390.91043,1212.72155 C1390.56044,1206.37713 1390.9811,1200.03492 1390.76152,1193.69491 C1390.69506,1191.79416 1390.62775,1189.88459 1389.89833,1188 C1389.41878,1188.15503 1389.39859,1188.31447 1389.39606,1188.45921 Z M1423.27195,1193.89742 C1420.52708,1200.94013 1417.79699,1207.991 1414.90414,1214.97501 C1413.64638,1218.02388 1412.41821,1221.09132 1411.20484,1224.16173 C1409.56975,1228.31454 1408.09743,1232.52753 1406.66211,1236.75687 C1405.55232,1240.03678 1404.61269,1243.37835 1403.28095,1246.58174 C1403.03679,1247.17531 1402.94061,1247.79712 1403.03679,1248.4375 C1403.08119,1248.70643 1403.19216,1248.95308 1403.50291,1248.99319 C1403.78405,1249.02959 1404.0356,1248.92039 1404.15398,1248.65666 C1404.31675,1248.27258 1404.43513,1247.8677 1404.5683,1247.47173 C1405.1306,1245.78015 1405.58931,1244.05884 1406.10721,1242.35983 C1406.97285,1239.51303 1408.07524,1236.73904 1409.08145,1233.93682 C1410.35401,1230.40135 1412.10747,1227.04047 1412.88433,1223.32373 C1412.95831,1222.98348 1413.23946,1222.68855 1413.43182,1222.37282 C1413.61679,1222.05783 1413.90533,1221.76587 1413.97192,1221.42785 C1414.39364,1219.40196 1415.38505,1217.60042 1416.1767,1215.72683 C1417.81919,1211.81545 1419.43948,1207.89591 1420.9192,1203.91842 C1422.03639,1200.91858 1423.14618,1197.92469 1423.82685,1194.78593 C1423.94523,1194.22504 1424.14499,1193.69016 1423.83425,1193 C1423.41993,1193.28156 1423.38293,1193.61884 1423.27195,1193.89742 Z M1341.58545,1368.61606 C1342.95668,1366.51396 1344.27413,1364.37199 1345.67,1362.29276 C1347.80227,1359.11229 1349.25116,1355.5458 1351.55297,1352.47678 C1351.64633,1352.35499 1351.66798,1352.18449 1351.74267,1352.04647 C1352.96602,1349.73474 1354.21476,1347.45106 1355.78166,1345.32459 C1357.20666,1343.39077 1358.57041,1341.38979 1359.59883,1339.19689 C1360.20005,1337.9185 1360.80425,1336.63495 1361.52198,1335.4193 C1364.31522,1330.6866 1366.81942,1325.79448 1369.75904,1321.1415 C1370.73518,1319.5974 1371.55746,1317.95513 1372.56422,1316.42283 C1372.70687,1316.20435 1372.83384,1315.97185 1372.94064,1315.73492 C1373.05715,1315.46847 1373.00711,1315.21751 1372.74646,1315.05735 C1372.53061,1314.92597 1372.33643,1315.04185 1372.18183,1315.18873 C1371.99213,1315.36956 1371.79646,1315.55335 1371.64933,1315.76814 C1370.73518,1317.10779 1369.7807,1318.4253 1368.936,1319.80849 C1366.79029,1323.32037 1364.69835,1326.86325 1362.58102,1330.39136 C1362.12544,1331.14865 1361.55484,1331.83287 1361.23743,1332.67947 C1360.81247,1333.80729 1360.16644,1334.81332 1359.42108,1335.7758 C1358.42478,1337.06083 1357.66224,1338.49348 1356.94451,1339.95271 C1355.54117,1342.80546 1354.13634,1345.65969 1352.65309,1348.47333 C1351.36775,1350.91275 1349.77023,1353.1824 1348.62679,1355.7067 C1348.22275,1356.59611 1347.87247,1357.58074 1347.1286,1358.25831 C1345.74618,1359.51677 1344.76556,1361.0535 1343.78942,1362.60203 C1342.46076,1364.71225 1341.82519,1367.19891 1340.15448,1369.12609 C1339.94013,1369.37409 1339.94611,1369.70328 1340.18958,1370 C1340.94988,1369.83024 1341.218,1369.17997 1341.58545,1368.61606 Z M1353.19087,1283.68129 C1353.57747,1283.66326 1353.99535,1283.58983 1354,1283.17525 C1354.00503,1282.80875 1353.90075,1282.40552 1353.37262,1282.30204 C1353.01135,1282.22994 1352.61134,1282.03768 1352.297,1282.11712 C1351.06048,1282.42955 1349.79343,1282.2473 1348.5584,1282.28869 C1346.89133,1282.34744 1345.17436,1283.13854 1343.50581,1282.22327 C1343.3181,1282.12179 1342.98513,1282.19923 1342.72889,1282.23929 C1339.80743,1282.69325 1336.86139,1281.94622 1333.93994,1282.3935 C1333.73882,1282.42488 1333.51833,1282.38149 1333.31125,1282.34477 C1331.12649,1281.96558 1328.89405,1282.36613 1326.70631,1282.03434 C1326.45752,1281.99762 1326.18712,1282.10243 1325.92492,1282.11111 C1323.72973,1282.18855 1321.5621,1282.61181 1319.35052,1282.49832 C1317.24547,1282.3915 1315.14041,1282.4596 1313.0346,1282.55973 C1311.99921,1282.60914 1310.97051,1282.72396 1309.89936,1282.55106 C1307.74365,1282.20391 1305.54995,1282.02433 1303.35253,1282.22727 C1302.08547,1282.34477 1300.81692,1282.24864 1299.58785,1282.09309 C1298.18225,1281.91551 1296.79154,1282.30271 1295.40604,1282.01231 C1295.21907,1281.97292 1294.97996,1282.03434 1294.79225,1282.10777 C1294.40863,1282.25865 1293.92967,1282.43556 1294.00863,1282.87951 C1294.07343,1283.24068 1294.55687,1283.26605 1294.91143,1283.33214 C1295.21982,1283.38888 1295.54757,1283.48368 1295.84702,1283.44296 C1297.84332,1283.17659 1299.84112,1283.32813 1301.83965,1283.37486 C1305.21326,1283.45431 1308.58463,1283.11517 1311.95973,1283.37019 C1313.1657,1283.46098 1314.38062,1283.47767 1315.59107,1283.51172 C1317.48681,1283.56379 1319.38553,1283.58182 1321.28128,1283.65258 C1324.17518,1283.76073 1327.06982,1284.02777 1329.96818,1283.84285 C1331.7142,1283.73136 1333.44235,1283.78944 1335.18092,1283.90827 C1336.02041,1283.96568 1336.87033,1284.03444 1337.70684,1283.98037 C1341.39032,1283.74538 1345.07529,1283.72802 1349.11111,1283.86488 C1350.24185,1283.81481 1351.71673,1283.74938 1353.19087,1283.68129 Z M1391,1314.9255 C1390.69249,1314.9255 1390.38658,1314.9255 1390,1314.9255 C1390.16534,1314.1425 1390.7484,1314.4285 1391,1314.0745 C1391,1314.3585 1391,1314.6425 1391,1314.9255 L1391,1314.9255 Z" id="Fill-10-Copy-2"></path>
            </g>
        </g>
    </g>
</svg>