<?xml version="1.0" encoding="UTF-8"?>
<svg width="85px" height="94px" viewBox="0 0 85 94" version="1.1" xmlns="http://www.w3.org/2000/svg" xmlns:xlink="http://www.w3.org/1999/xlink">
    <!-- Generator: Sketch 55.1 (78136) - https://sketchapp.com -->
    <title>Group 30</title>
    <desc>Created with Sketch.</desc>
    <g id="ver-2.0-(R2)" stroke="none" stroke-width="1" fill="none" fill-rule="evenodd" opacity="0.320963542">
        <g id="Ranchr-v2.3.2-Copy" transform="translate(-259.000000, -1627.000000)">
            <g id="Difference" transform="translate(-126.000000, 1085.000000)">
                <g id="Group-30" transform="translate(428.000000, 591.500000) rotate(19.000000) translate(-428.000000, -591.500000) translate(387.000000, 549.000000)">
                    <path d="M59.0070092,1.10093061 C59.4183108,1.69771848 58.9367235,2.86002151 59.7983743,3.11932454 C59.6265648,2.35444576 59.9545648,1.08659727 59.0070092,1.10093061" id="Fill-4358" fill="#231F20"></path>
                    <path d="M57.5192949,1.3628397 C57.6299299,1.98568818 58.3275807,2.01565788 58.6568822,2.41699121 C58.9028822,1.84887 57.8238664,1.38368818 57.5192949,1.3628397" id="Fill-4359" fill="#231F20"></path>
                    <path d="M60.4973267,1.89317303 C60.19666,2.12771848 60.5728187,3.14147606 60.4973267,3.73435485 C60.7680568,3.81123364 60.9047235,4.02232454 61.1988822,4.08356697 C61.2444378,3.42293061 61.0426918,3.00856697 61.1090727,2.32838515 C60.9437711,2.14596091 60.60666,2.13162757 60.4973267,1.89317303" id="Fill-4362" fill="#231F20"></path>
                    <path d="M57.7822156,2.32838515 C57.5062791,3.27829424 58.2989457,3.91417303 59.0070092,4.17087 C58.9913902,3.74999121 58.8729457,3.42944576 58.8325965,3.03071848 C58.4538346,2.8248397 58.102406,2.59029424 57.7822156,2.32838515" id="Fill-4365" fill="#231F20"></path>
                    <path d="M55.5916441,2.59029424 C55.3612632,3.17535485 55.560406,4.08356697 56.0302791,4.25947606 C56.2359299,3.69787 56.0458981,2.78314273 55.5916441,2.59029424" id="Fill-4366" fill="#231F20"></path>
                    <path d="M59.5341521,3.55714273 C59.5042156,3.76302151 59.4690727,4.73117303 59.8842791,4.7859003 C59.9376441,4.20474879 59.875168,3.74347606 59.5341521,3.55714273" id="Fill-4370" fill="#231F20"></path>
                    <path d="M54.627168,4.08356697 C54.4683743,4.19041545 54.4527553,4.89535485 54.8028822,4.7859003 C54.6388822,4.65429424 54.791168,4.20996091 54.627168,4.08356697" id="Fill-4373" fill="#231F20"></path>
                    <path d="M60.673041,4.34547606 C60.44266,4.98917303 60.8031997,5.7918397 61.3745965,5.92605182 C61.4552949,5.08299121 61.1923743,4.58523364 60.673041,4.34547606" id="Fill-4377" fill="#231F20"></path>
                    <path d="M58.2182473,5.66153667 C58.6282473,5.83744576 58.9783743,6.06938515 59.2699299,6.36387 C59.578406,5.41135485 58.7935489,4.79502151 58.2182473,4.43538515 C57.7978346,4.60868818 58.2742156,5.28365788 58.2182473,5.66153667" id="Fill-4380" fill="#231F20"></path>
                    <path d="M55.7660568,4.7859003 C55.5916441,5.17029424 55.8779934,5.84135485 56.3791045,5.83744576 C56.245041,5.70844576 56.3036124,5.38920333 56.2918981,5.13641545 C56.0940568,5.04129424 55.9053267,4.93705182 55.7660568,4.7859003" id="Fill-4383" fill="#231F20"></path>
                    <path d="M59.9714854,5.66153667 C59.6018346,5.73580939 60.0573902,6.35605182 59.9714854,6.71438515 C60.2005648,6.4798397 59.9897076,5.94168818 59.9714854,5.66153667" id="Fill-4393" fill="#231F20"></path>
                    <path d="M54.8028822,5.66153667 C54.5751045,5.92344576 54.7781521,6.50329424 54.8913902,6.71438515 C55.0605965,6.50980939 54.8601521,5.92996091 54.8028822,5.66153667" id="Fill-4394" fill="#231F20"></path>
                    <path d="M23.6142473,5.75014273 C23.6415807,5.98729424 23.9838981,5.90650636 24.0541838,6.10065788 C24.384787,5.84787 23.7808505,5.79444576 23.6142473,5.75014273" id="Fill-4397" fill="#231F20"></path>
                    <path d="M60.8474537,6.36387 C60.6261838,6.59059727 60.9698029,6.9958397 60.8474537,7.41541545 C61.0661203,7.57829424 61.3433584,7.68123364 61.4591997,7.94444576 C61.7299299,7.60956697 61.351168,7.17826394 61.4591997,6.71438515 C61.1403108,6.71438515 60.9919299,6.54108212 60.8474537,6.36387" id="Fill-4403" fill="#231F20"></path>
                    <path d="M62.1620568,6.45117303 C62.313041,7.91056697 62.0436124,11.0117791 63.3009457,11.3635973 C63.3035489,10.1022639 63.0185013,9.13150636 62.4249775,8.46565788 C62.5512314,7.97050636 62.9768505,8.66111242 63.0367235,8.46565788 C63.2007235,7.34244576 62.6019934,6.97759727 62.1620568,6.45117303" id="Fill-4407" fill="#231F20"></path>
                    <path d="M55.8532632,6.45117303 C55.9248505,7.02580939 56.0120568,7.57959727 56.4676124,7.76723364 C56.6875807,7.25253667 56.4637076,6.42771848 55.8532632,6.45117303" id="Fill-4408" fill="#231F20"></path>
                    <path d="M58.4837711,6.53977909 C58.0985013,7.41932454 59.1501838,7.6239003 59.5341521,8.02914273 C59.906406,7.15741545 58.8195807,6.99193061 58.4837711,6.53977909" id="Fill-4410" fill="#231F20"></path>
                    <path d="M11.9637394,6.88899121 C11.8205648,7.61999121 11.8518029,8.52950636 11.7880251,9.3439003 C12.5728822,9.12499121 12.9893902,9.92896091 13.7156759,10.0475367 C13.8341203,9.31653667 13.9603743,8.59596091 13.9772949,7.76723364 C13.2952632,7.48447606 12.5898029,7.22647606 11.9637394,6.88899121" id="Fill-4419" fill="#231F20"></path>
                    <path d="M18.7085648,7.15480939 C18.1202473,8.11774879 18.7332949,8.97514273 19.5858346,9.17059727 C19.7901838,8.00177909 19.3411362,7.48447606 18.7085648,7.15480939" id="Fill-4420" fill="#231F20"></path>
                    <path d="M55.0658029,7.50402151 C54.680533,7.57308212 54.9473584,8.33926394 55.0658029,8.46565788 C55.336533,8.22329424 54.9746918,7.86235485 55.0658029,7.50402151" id="Fill-4423" fill="#231F20"></path>
                    <path d="M23.2654219,8.02914273 C23.094914,8.52299121 23.1456759,8.72365788 23.0897076,9.25920333 C23.3500251,9.46508212 23.5348505,9.75044576 23.9656759,9.78171848 C24.0216441,9.46117303 23.8524378,8.91129424 24.0541838,8.73147606 C23.9175172,8.3718397 23.4723743,8.31841545 23.2654219,8.02914273" id="Fill-4430" fill="#231F20"></path>
                    <path d="M63.6510727,8.11644576 C63.4506283,8.70280939 63.7499934,9.53674879 64.0897076,9.87032454 C64.3890727,9.18753667 63.9699616,8.47087 63.6510727,8.11644576" id="Fill-4432" fill="#231F20"></path>
                    <path d="M58.7453902,9.25920333 C59.2399934,9.40514273 59.4768822,9.81168818 59.9714854,9.95893061 C60.0508822,8.94517303 59.2985648,8.76274879 58.8325965,8.29105182 C58.39266,8.39529424 58.8573267,8.92041545 58.7453902,9.25920333" id="Fill-4437" fill="#231F20"></path>
                    <path d="M56.2059934,8.29105182 C55.9053267,8.77056697 56.3166283,9.29047606 56.6433267,9.43120333 C56.9843426,8.9139003 56.4754219,8.49041545 56.2059934,8.29105182" id="Fill-4438" fill="#231F20"></path>
                    <path d="M60.9359616,8.38096091 C60.9424695,9.01944576 61.2314219,9.36996091 61.7234219,9.52111242 C61.6192949,9.27353667 61.6271045,8.91650636 61.634914,8.55556697 C61.269168,8.63114273 61.2223108,8.38747606 60.9359616,8.38096091" id="Fill-4440" fill="#231F20"></path>
                    <path d="M20.6375172,9.87032454 C20.5737394,9.36996091 20.7299299,9.08720333 20.7260251,8.64287 C20.0713267,7.66168818 19.8786918,10.0123548 20.6375172,9.87032454" id="Fill-4441" fill="#231F20"></path>
                    <path d="M24.9288505,9.17059727 C24.5448822,9.28135485 24.8533584,10.0892336 24.7544378,10.4866579 C25.0759299,10.3420215 25.0798346,9.50287 24.9288505,9.17059727" id="Fill-4454" fill="#231F20"></path>
                    <path d="M21.3377711,9.3439003 C21.3325648,9.75044576 21.3755172,10.2039003 21.2505648,10.4866579 C21.5460251,10.7133852 21.9117711,10.8736579 22.1252314,11.1889912 C22.4024695,10.9401124 22.2723108,10.2807791 22.3009457,9.78171848 C21.9325965,9.71265788 21.7178346,9.12238515 21.3377711,9.3439003" id="Fill-4455" fill="#231F20"></path>
                    <path d="M67.7692949,9.3439003 C67.5961838,10.2495064 67.8538981,11.482173 67.9437076,12.4138397 C68.4148822,12.2431427 68.7441838,11.9304155 69.2583108,11.8027185 C68.9081838,10.83587 68.2079299,10.2195367 67.7692949,9.3439003" id="Fill-4456" fill="#231F20"></path>
                    <path d="M55.0658029,9.3439003 C55.0918346,9.64099121 54.94866,10.10487 55.3287235,10.0475367 C55.3118029,9.74523364 55.3599616,9.37387 55.0658029,9.3439003" id="Fill-4457" fill="#231F20"></path>
                    <path d="M18.5341521,9.3439003 C18.190533,9.49896091 18.4534537,10.2573245 18.272533,10.5726579 C18.578406,10.8202336 18.9871045,10.9687791 19.234406,11.2710821 C19.5793267,11.17987 19.2604378,10.4241124 19.4986283,10.2234458 C19.2656441,9.84035485 18.7996759,9.69180939 18.5341521,9.3439003" id="Fill-4459" fill="#231F20"></path>
                    <path d="M64.8784695,9.69441545 C64.5400568,11.3714155 66.7111045,12.4529306 67.2434537,13.7312033 C67.4530092,12.9050821 66.6902791,12.2809306 66.2776759,11.7115064 C65.7921838,11.0404458 65.3483426,10.3772033 64.8784695,9.69441545" id="Fill-4463" fill="#231F20"></path>
                    <path d="M61.1988822,10.0475367 C60.8474537,10.665173 61.4605013,11.0665064 61.7234219,11.3635973 C62.0644378,10.7550821 61.5438029,10.2560215 61.1988822,10.0475367" id="Fill-4471" fill="#231F20"></path>
                    <path d="M17.3952632,12.4138397 C17.5735807,11.9799306 17.5813902,11.3727185 17.5709775,10.748567 C17.0776759,10.6834155 16.7639934,9.98108212 16.3435807,10.1335367 C15.819041,11.4065973 16.557041,12.0476882 17.3952632,12.4138397" id="Fill-4473" fill="#231F20"></path>
                    <path d="M56.3791045,10.1335367 C56.074533,10.619567 56.5717394,11.0534761 56.9921521,11.0990821 C57.0090727,10.5596276 56.7240251,10.3146579 56.3791045,10.1335367" id="Fill-4474" fill="#231F20"></path>
                    <path d="M63.826787,10.2234458 C63.7473902,10.8006882 63.7330727,12.0698397 64.1756124,12.4138397 C64.3864695,11.7049912 64.2563108,10.579173 63.826787,10.2234458" id="Fill-4476" fill="#231F20"></path>
                    <path d="M60.1458981,11.7115064 C60.4686918,10.8919003 59.4534537,10.6547488 59.0955172,10.2234458 C58.496787,10.9831124 59.7996759,11.3219003 60.1458981,11.7115064" id="Fill-4477" fill="#231F20"></path>
                    <path d="M11.7008187,10.2234458 C11.7008187,10.4566882 11.7008187,10.6899306 11.7008187,10.9244761 C12.3542156,11.1746579 12.926914,11.5108397 13.4527553,11.8848094 C13.5881203,11.6150821 13.6232632,11.2398094 13.627168,10.83587 C13.21066,10.40587 12.510406,10.2612336 11.7008187,10.2234458" id="Fill-4479" fill="#231F20"></path>
                    <path d="M23.1756124,10.3967488 C22.7760251,10.9987488 22.9985965,12.1936276 23.6142473,12.3278397 C23.750914,11.9056579 23.7782473,11.3792336 23.7899616,10.83587 C23.5699934,10.7042639 23.3070727,10.619567 23.1756124,10.3967488" id="Fill-4482" fill="#231F20"></path>
                    <path d="M20.2001838,10.6612639 C19.9971362,10.9283852 19.8656759,11.8561427 20.2860886,11.9773245 C20.4201521,11.6737185 20.4448822,11.2567488 20.4605013,10.83587 C20.3121203,10.8410821 20.2340251,10.7733245 20.2001838,10.6612639" id="Fill-4484" fill="#231F20"></path>
                    <path d="M14.2415172,11.1889912 C13.9135172,11.2684761 14.1282791,11.8887185 14.0658029,12.2405367 C14.6385013,12.3669306 14.8532632,12.85687 15.468914,12.941567 C15.468914,12.6483852 15.468914,12.3578094 15.468914,12.0620215 C14.992533,11.8392033 14.5812314,11.5473245 14.2415172,11.1889912" id="Fill-4493" fill="#231F20"></path>
                    <path d="M18.3597394,11.3635973 C18.0317394,11.6215973 18.1892314,12.3630215 18.0968187,12.8516579 C18.4443426,13.030173 18.6734219,13.331173 19.0599934,13.4692942 C19.4478664,12.4724761 19.0977394,11.6711124 18.3597394,11.3635973" id="Fill-4495" fill="#231F20"></path>
                    <path d="M21.3377711,11.5395064 C20.6622473,12.2222942 21.4588187,12.9181124 21.9521203,13.2047791 C22.4649457,12.4164458 21.7790092,11.8822033 21.3377711,11.5395064" id="Fill-4499" fill="#231F20"></path>
                    <path d="M64.9643743,11.6255064 C64.4736759,13.374173 65.7583426,14.10387 66.5405965,14.8713548 C66.6655489,14.7306276 66.845168,14.6459306 67.0677394,14.6081427 C66.5184695,13.4614761 65.6229775,12.6614155 64.9643743,11.6255064" id="Fill-4501" fill="#231F20"></path>
                    <path d="M62.6878981,11.6255064 C62.4002473,12.4998397 62.8935489,13.3481124 63.3868505,13.7312033 C63.6289457,12.9063852 63.1317394,12.0607185 62.6878981,11.6255064" id="Fill-4502" fill="#231F20"></path>
                    <path d="M56.4676124,11.9773245 C56.4389775,12.3278397 56.6225013,12.4646579 56.5535172,12.8516579 C56.7930092,12.9089912 56.9648187,13.030173 57.08066,13.2047791 C57.3839299,12.6353548 56.9570092,12.0424761 56.4676124,11.9773245" id="Fill-4507" fill="#231F20"></path>
                    <path d="M11.7008187,11.9773245 C11.3637076,12.0776579 11.592787,12.7435064 11.526406,13.116173 C12.2383743,13.2621124 12.7368822,14.0530518 13.3668505,13.9931124 C13.3082791,13.4692942 13.4449457,13.1357185 13.4527553,12.6783548 C12.942533,12.3708397 12.2318664,12.2626882 11.7008187,11.9773245" id="Fill-4508" fill="#231F20"></path>
                    <path d="M59.0955172,12.0620215 C59.1111362,12.984567 59.9858029,13.0445064 60.4101203,13.5539912 C60.6847553,12.6952942 59.7202791,12.3161124 59.0955172,12.0620215" id="Fill-4509" fill="#231F20"></path>
                    <path d="M68.0296124,12.941567 C68.0855807,13.4119609 68.4422156,13.5826579 68.6452632,13.9058094 C69.3403108,13.8419609 69.7385965,13.4810215 70.3971997,13.3806882 C70.1707235,12.0919912 69.0448505,12.7565367 68.0296124,12.941567" id="Fill-4519" fill="#231F20"></path>
                    <path d="M16.1704695,12.5897488 C15.8138346,12.557173 16.0728505,13.1357185 15.9947553,13.3806882 C16.3670092,13.6504155 16.7874219,13.8732336 17.1323426,14.1664155 C17.4238981,14.1403548 17.2703108,13.6621427 17.3093584,13.3806882 C16.8798346,13.1656882 16.5388187,12.8659912 16.1704695,12.5897488" id="Fill-4521" fill="#231F20"></path>
                    <path d="M20.1116759,12.6783548 C20.0244695,12.6783548 19.9359616,12.6783548 19.8474537,12.6783548 C19.9958346,13.2829609 19.4387553,14.0699912 20.1116759,14.1664155 C20.1390092,13.6986276 20.3928187,12.9272336 20.1116759,12.6783548" id="Fill-4523" fill="#231F20"></path>
                    <path d="M22.9139934,12.941567 C22.8905648,13.2373548 22.7747235,13.4445367 22.826787,13.8185064 C23.1014219,13.9240518 23.2081521,14.1963852 23.527041,14.2563245 C23.6233584,13.5201124 23.4593584,13.0379912 22.9139934,12.941567" id="Fill-4526" fill="#231F20"></path>
                    <path d="M13.8028822,14.3436276 C14.3742791,14.5025973 14.5278664,15.0824458 15.0315807,15.30787 C15.2632632,15.0159912 15.1682473,14.3957488 15.2918981,13.9931124 C14.8441521,13.7429306 14.4289457,13.4562639 14.0658029,13.116173 C13.7351997,13.2803548 13.9252314,13.9670518 13.8028822,14.3436276" id="Fill-4530" fill="#231F20"></path>
                    <path d="M64.0897076,13.2894761 C63.8684378,13.632173 64.0519616,14.317567 64.1756124,14.6081427 C64.363041,14.3019306 64.2901521,13.500567 64.0897076,13.2894761" id="Fill-4532" fill="#231F20"></path>
                    <path d="M21.8636124,15.3964761 C22.0796759,14.3227791 21.8245648,13.8276276 21.1633584,13.4692942 C20.5763426,14.2511124 21.0683426,15.2622639 21.8636124,15.3964761" id="Fill-4539" fill="#231F20"></path>
                    <path d="M61.3745965,13.5539912 C61.3680886,13.8823548 61.4591997,14.1103852 61.5490092,14.3436276 C61.7520568,14.4205064 61.925168,14.0387185 61.9876441,14.2563245 C62.231041,13.9201427 61.6271045,13.6816882 61.3745965,13.5539912" id="Fill-4542" fill="#231F20"></path>
                    <path d="M59.4456441,13.9058094 C59.1618981,14.8635367 60.1237711,15.3326276 60.7589457,15.6622942 C60.9177394,14.4765367 59.9428505,14.4309306 59.4456441,13.9058094" id="Fill-4547" fill="#231F20"></path>
                    <path d="M17.922406,14.7814458 C18.2595172,14.9417185 18.5328505,15.1632336 18.7983743,15.3964761 C18.9480568,15.1971124 18.9845013,14.8830821 18.9714854,14.5195367 C18.4794854,14.274567 17.7063426,13.3845973 17.922406,14.7814458" id="Fill-4548" fill="#231F20"></path>
                    <path d="M62.9508187,13.9931124 C62.4952632,14.5208397 63.1148187,15.3769306 63.4740568,15.6622942 C63.8371997,14.9169609 63.2072314,14.4100821 62.9508187,13.9931124" id="Fill-4549" fill="#231F20"></path>
                    <path d="M56.819041,13.9931124 C56.4871362,14.0256882 56.8658981,14.7241124 56.7292314,15.1319609 C56.9778346,15.2674761 57.102787,15.5202639 57.430787,15.5723852 C57.3878346,14.8856882 57.3670092,14.1703245 56.819041,13.9931124" id="Fill-4550" fill="#231F20"></path>
                    <path d="M69.2583108,14.7814458 C69.38066,15.0107791 69.5550727,15.1892942 69.6956441,15.3964761 C70.2761521,15.2466276 70.7681521,15.008173 71.3603743,14.8713548 C71.1833584,13.6230518 70.0262473,14.6420215 69.2583108,14.7814458" id="Fill-4553" fill="#231F20"></path>
                    <path d="M11.3506918,14.2563245 C11.608406,15.1098094 12.5572632,15.2713852 13.1898346,15.7482942 C13.1898346,15.4251427 13.1898346,15.1059003 13.1898346,14.7814458 C12.6067235,14.578173 11.9832632,14.4139912 11.3506918,14.2563245" id="Fill-4555" fill="#231F20"></path>
                    <path d="M65.0528822,14.4309306 C64.4424378,15.3743245 65.5670092,16.0727488 65.9275489,16.6252336 C66.249041,16.68387 66.26466,16.4323852 66.5405965,16.4480215 C66.1488187,15.6727185 65.4954219,15.1567185 65.0528822,14.4309306" id="Fill-4559" fill="#231F20"></path>
                    <path d="M15.9062473,14.4309306 C15.648533,14.6706882 15.774787,15.2922336 15.6446283,15.6622942 C16.0533267,15.9645973 16.6286283,16.5275064 17.0438346,16.5366276 C16.98266,16.0349609 17.1388505,15.7535064 17.1323426,15.30787 C16.6793902,15.0589912 16.3123426,14.7267185 15.9062473,14.4309306" id="Fill-4560" fill="#231F20"></path>
                    <path d="M23.3513267,16.3594155 C23.3578346,15.9567791 23.3148822,15.5046276 23.4411362,15.22187 C23.274533,15.0655064 23.035041,14.9821124 22.9139934,14.7814458 C22.4506283,15.2948397 22.6901203,16.59787 23.3513267,16.3594155" id="Fill-4566" fill="#231F20"></path>
                    <path d="M68.6452632,15.0459609 C68.5567553,15.0459609 68.4695489,15.0459609 68.381041,15.0459609 C68.4370092,15.2557488 68.4994854,15.4551124 68.7324695,15.4850821 C68.8040568,15.2335973 68.6088187,15.2596579 68.6452632,15.0459609" id="Fill-4568" fill="#231F20"></path>
                    <path d="M19.7615489,15.0459609 C19.6001521,15.3326276 19.4335489,16.0649306 19.8474537,16.1848094 C20.1507235,15.9919609 20.0791362,15.1462942 19.7615489,15.0459609" id="Fill-4571" fill="#231F20"></path>
                    <path d="M11.3506918,15.1319609 C11.16066,15.1462942 11.1632632,15.3534761 11.1749775,15.5723852 C11.5433267,15.7000821 11.8713267,15.86687 12.3125648,15.9242033 C12.0704695,15.5841124 11.6058029,15.4642336 11.3506918,15.1319609" id="Fill-4573" fill="#231F20"></path>
                    <path d="M67.5063743,15.22187 C67.2434537,15.22187 66.9818346,15.22187 66.7163108,15.22187 C66.9219616,15.5411124 67.188787,15.8017185 67.4178664,16.0975064 C67.6183108,15.9763245 67.4517076,15.4876882 67.5063743,15.22187" id="Fill-4578" fill="#231F20"></path>
                    <path d="M58.5696759,15.22187 C58.4395172,15.4694458 58.3405965,16.4402033 58.7453902,16.4480215 C58.5891997,16.1392033 58.727168,15.5319912 58.5696759,15.22187" id="Fill-4579" fill="#231F20"></path>
                    <path d="M13.8926918,15.30787 C13.4813902,15.22187 13.9057076,15.9672033 13.627168,16.0115064 C13.9187235,16.3919912 14.2974854,16.685173 14.9417711,16.7112336 C14.9053267,16.5301124 15.0042473,16.4805973 15.0315807,16.3594155 C14.8038029,15.8564458 14.2076759,15.7222336 13.8926918,15.30787" id="Fill-4580" fill="#231F20"></path>
                    <path d="M61.5490092,15.4850821 C61.5490092,15.7769609 61.5490092,16.0701427 61.5490092,16.3594155 C61.8028187,16.4584458 61.9694219,16.639567 62.1620568,16.7998397 C62.4887553,16.1795973 62.0501203,15.567173 61.5490092,15.4850821" id="Fill-4585" fill="#231F20"></path>
                    <path d="M8.63558065,15.5723852 C8.41040605,15.567173 8.52885049,15.6388397 8.54707272,15.7482942 C10.1089775,16.7555367 11.3832314,18.0559609 12.9282156,19.0801427 C12.6861203,18.104173 11.6630727,17.6103245 11.0018664,17.0630518 C10.2990092,16.4845064 9.63910446,15.7626276 8.63558065,15.5723852" id="Fill-4587" fill="#231F20"></path>
                    <path d="M64.2654219,15.7482942 C64.088406,15.8447185 64.1651997,16.42587 64.2654219,16.5366276 C64.4801838,16.3972033 64.3005648,15.9242033 64.2654219,15.7482942" id="Fill-4592" fill="#231F20"></path>
                    <path d="M17.8338981,15.8342942 C17.6920251,16.1900215 17.6542791,16.6499912 17.6581838,17.1490518 C18.0395489,17.2897791 18.3662473,17.8748397 18.7085648,17.7640821 C18.6643108,17.2819609 18.7593267,16.9366579 18.7983743,16.5366276 C18.4287235,16.3529003 18.1410727,16.0844761 17.8338981,15.8342942" id="Fill-4595" fill="#231F20"></path>
                    <path d="M20.9876441,15.9242033 C20.3680886,16.5926579 21.0839616,17.3067185 21.6878981,17.5034761 C21.6878981,17.1490518 21.6878981,16.7998397 21.6878981,16.4480215 C21.4353902,16.2903548 21.1985013,16.1196579 20.9876441,15.9242033" id="Fill-4597" fill="#231F20"></path>
                    <path d="M59.7098664,16.0115064 C59.29466,17.1855367 60.3307235,17.6676579 61.023168,18.0272942 C60.9060251,17.7640821 60.93466,17.3549306 60.9359616,16.9744458 C60.562406,16.6200215 60.054787,16.3959003 59.7098664,16.0115064" id="Fill-4598" fill="#231F20"></path>
                    <path d="M63.1252314,16.4480215 C62.7347553,17.0005064 63.2098346,18.1680215 63.826787,18.2905064 C63.8059616,17.4617791 63.5013902,16.9197185 63.1252314,16.4480215" id="Fill-4608" fill="#231F20"></path>
                    <path d="M15.6446283,16.6252336 C15.5235807,16.6525973 15.5704378,16.8441427 15.5548187,16.9744458 C15.8333584,16.9900821 15.9400886,17.1751124 16.2563743,17.1490518 C16.0884695,16.9379609 15.7878029,16.8584761 15.6446283,16.6252336" id="Fill-4612" fill="#231F20"></path>
                    <path d="M65.0528822,16.7112336 C64.6194537,17.0643548 65.2351045,18.0742033 65.7531362,17.7640821 C65.6542156,17.2767488 65.0606918,17.287173 65.0528822,16.7112336" id="Fill-4613" fill="#231F20"></path>
                    <path d="M68.2066283,17.1490518 C68.47866,17.1607791 68.6257394,17.0435064 68.8183743,16.9744458 C68.7754219,16.6760518 68.0803743,16.7542336 68.2066283,17.1490518" id="Fill-4616" fill="#231F20"></path>
                    <path d="M66.4546918,17.2402639 C66.488533,17.5946882 67.2877076,17.5959912 67.33066,17.2402639 C67.1328187,17.0682639 66.6720568,17.1633852 66.4546918,17.2402639" id="Fill-4621" fill="#231F20"></path>
                    <path d="M22.6536759,17.1490518 C22.3998664,17.7536579 22.580787,18.6827185 23.1756124,18.7309306 C23.2537076,17.9504155 23.1573902,17.3471124 22.6536759,17.1490518" id="Fill-4624" fill="#231F20"></path>
                    <path d="M19.5858346,17.1490518 C19.4361521,17.4083548 19.3997076,17.7836276 19.4088187,18.2032033 C19.6209775,18.1693245 19.6014537,18.3647791 19.8474537,18.2905064 C19.8604695,17.8109912 19.912533,17.2910821 19.5858346,17.1490518" id="Fill-4625" fill="#231F20"></path>
                    <path d="M13.5412632,17.1490518 C13.5412632,17.5034761 13.5412632,17.8513852 13.5412632,18.2032033 C13.9447553,18.4403548 14.2974854,18.7335367 14.5916441,19.0801427 C14.8766918,18.8690518 14.6840568,18.1771427 14.8558664,17.8513852 C14.4198346,17.6129306 14.2128822,17.1490518 13.5412632,17.1490518" id="Fill-4626" fill="#231F20"></path>
                    <path d="M61.7234219,17.5034761 C61.50866,17.7797185 61.75466,18.3452336 61.8119299,18.6410215 C62.1138981,18.7126882 62.1464378,18.5120215 62.4249775,18.5537185 C62.4458029,17.9491124 61.9954537,17.8149003 61.7234219,17.5034761" id="Fill-4632" fill="#231F20"></path>
                    <path d="M58.6568822,17.5034761 C58.4837711,17.8253245 58.5006918,18.7087791 58.8325965,18.8169306 C59.033041,18.4690215 58.840406,17.757567 58.6568822,17.5034761" id="Fill-4633" fill="#231F20"></path>
                    <path d="M15.9947553,17.8513852 C16.2095172,18.104173 16.446406,18.3309003 16.7822156,18.4677185 C17.0971997,17.9960215 16.2993267,17.9842942 15.9947553,17.8513852" id="Fill-4644" fill="#231F20"></path>
                    <path d="M20.7260251,18.0272942 C20.530787,18.0377185 20.6882791,18.4012639 20.6375172,18.5537185 C20.9017394,18.6709912 21.1138981,18.8377791 21.5121838,18.8169306 C21.4080568,18.3934458 20.9446918,18.3309003 20.7260251,18.0272942" id="Fill-4646" fill="#231F20"></path>
                    <path d="M59.7983743,19.4319609 C60.2747553,19.6834458 60.4895172,20.1955367 61.1988822,20.2202942 C61.26266,19.8033245 61.09866,19.6182942 61.1090727,19.2547488 C60.8383426,19.2273852 60.6912632,19.4593245 60.4973267,19.2547488 C60.3463426,18.9459306 60.3489457,18.6214761 59.9714854,18.3791124 C59.5966283,18.4142942 59.8868822,19.1153245 59.7983743,19.4319609" id="Fill-4649" fill="#231F20"></path>
                    <path d="M17.4837711,18.3791124 C17.4837711,18.6410215 17.4837711,18.9081427 17.4837711,19.1674458 C17.9054854,19.262567 18.1449775,19.9388397 18.5341521,19.7824761 C18.5341521,19.4593245 18.5341521,19.1387791 18.5341521,18.8169306 C18.1658029,18.6879306 18.0148187,18.3439306 17.4837711,18.3791124" id="Fill-4652" fill="#231F20"></path>
                    <path d="M15.2046918,19.5192639 C15.6628505,19.7942033 15.8528822,20.3336579 16.6950092,20.2202942 C16.6950092,19.9284155 16.6950092,19.6339306 16.6950092,19.3420518 C16.282406,19.0527791 15.8711045,18.7635064 15.5548187,18.3791124 C15.0901521,18.4064761 15.4194537,19.2378094 15.2046918,19.5192639" id="Fill-4653" fill="#231F20"></path>
                    <path d="M66.1032632,18.7309306 C66.1397076,18.9693852 66.5197711,19.09187 66.7163108,18.9081427 C66.5887553,18.574567 66.4859299,18.7283245 66.1032632,18.7309306" id="Fill-4659" fill="#231F20"></path>
                    <path d="M65.0528822,18.9915367 C64.7574219,18.9042336 64.9175172,19.262567 64.8784695,19.4319609 C64.9565648,19.3642033 65.0750092,19.3342336 65.2272949,19.3420518 C65.2259934,19.1687488 64.9878029,19.2325973 65.0528822,18.9915367" id="Fill-4666" fill="#231F20"></path>
                    <path d="M63.3009457,18.9915367 C62.9286918,18.9863245 63.192914,19.6222033 63.2124378,19.7824761 C63.5170092,19.8515367 63.5482473,19.652173 63.826787,19.69387 C63.7551997,19.3563852 63.4649457,19.2391124 63.3009457,18.9915367" id="Fill-4667" fill="#231F20"></path>
                    <path d="M20.6375172,19.1674458 C20.6271045,19.7042942 21.2206283,19.6365367 21.3377711,20.0443852 C21.6098029,20.0235367 21.4861521,19.60787 21.5121838,19.3420518 C21.1633584,19.3420518 20.9876441,19.1687488 20.6375172,19.1674458" id="Fill-4670" fill="#231F20"></path>
                    <path d="M13.4527553,19.2547488 C13.494406,19.8880215 13.9603743,20.0912942 14.5916441,20.1329912 C14.320914,19.7876882 13.8093902,19.22087 13.4527553,19.2547488" id="Fill-4671" fill="#231F20"></path>
                    <path d="M19.4986283,19.5192639 C19.0691045,19.4697488 19.2890727,20.0691427 19.234406,20.3975064 C19.3814854,20.3975064 19.5272632,20.3975064 19.673041,20.3975064 C19.6873584,20.0274458 19.7042791,19.6652033 19.4986283,19.5192639" id="Fill-4678" fill="#231F20"></path>
                    <path d="M13.4527553,20.5682033 C13.3278029,20.7962336 13.3395172,21.1584761 13.1898346,21.3604458 C13.5972314,21.5089912 13.7937711,21.8686276 14.4159299,21.80087 C14.4458664,21.0399003 13.7234854,21.0320821 13.4527553,20.5682033" id="Fill-4701" fill="#231F20"></path>
                    <path d="M15.2046918,20.6581124 C15.09666,21.3526276 16.1301203,21.6601427 16.6091045,22.0614761 C16.5258029,21.2066882 15.7383426,21.0594458 15.2046918,20.6581124" id="Fill-4704" fill="#231F20"></path>
                    <path d="M17.5709775,21.3604458 C17.6725013,21.6679609 18.0668822,21.6822942 18.1840251,21.974173 C18.3740568,21.9637488 18.3714537,21.7500518 18.3597394,21.5350518 C18.0772949,21.498567 17.8833584,21.369567 17.5709775,21.3604458" id="Fill-4716" fill="#231F20"></path>
                    <path d="M70.6588187,21.80087 C68.9940886,22.1409609 66.0394854,22.5709609 64.4398346,23.1143245 C64.6324695,23.6889609 65.3327235,23.2094458 65.7531362,23.1143245 C66.2568505,23.0022639 66.8113267,22.9371124 67.2434537,22.8498094 C67.5753584,22.7234155 67.2603743,23.2433245 67.5935807,23.1143245 C68.5541521,22.6139609 69.5472632,22.1474761 70.6588187,21.80087" id="Fill-4721" fill="#231F20"></path>
                    <path d="M19.234406,21.7109609 C18.9623743,21.7305064 19.0873267,22.1474761 19.0599934,22.4119912 C19.234406,22.4119912 19.4088187,22.4119912 19.5858346,22.4119912 C19.5858346,22.2087185 19.5858346,22.0054458 19.5858346,21.80087 C19.4478664,21.7917488 19.2513267,21.842567 19.234406,21.7109609" id="Fill-4723" fill="#231F20"></path>
                    <path d="M21.2505648,22.1513852 C20.9342791,22.0679912 21.1282156,22.4953852 21.0761521,22.6765064 C21.3416759,22.6882336 21.3208505,22.2178397 21.2505648,22.1513852" id="Fill-4729" fill="#231F20"></path>
                    <path d="M62.2492632,23.4648397 C62.3169457,23.5430215 62.3429775,23.6615973 62.3377711,23.8153548 C62.6423426,23.9378397 63.2046283,23.6589912 63.6510727,23.6420518 C63.4441203,23.0973852 62.7412632,23.3697185 62.2492632,23.4648397" id="Fill-4750" fill="#231F20"></path>
                    <path d="M66.630406,26.271567 C66.9310727,26.8931124 67.2434537,27.8795064 66.8920251,28.63787 C67.6859934,28.4971427 67.4256759,26.9895367 67.2434537,26.3614761 C66.9662156,26.4044761 66.9349775,26.2012033 66.630406,26.271567" id="Fill-4764" fill="#231F20"></path>
                    <path d="M8.89980287,26.7106882 C9.10675526,27.4951124 9.23170764,28.3668397 9.24732668,29.3402033 C9.90592986,29.4327185 10.2664695,29.0274761 10.2990092,28.550567 C10.3445648,27.9303245 9.47250129,26.3497488 8.89980287,26.7106882" id="Fill-4767" fill="#231F20"></path>
                    <path d="M16.8694219,28.3746579 C17.0828822,29.0717791 17.1778981,29.8822639 17.1323426,30.832173 C17.8716441,31.1266579 18.4781838,28.2013548 16.8694219,28.3746579" id="Fill-4771" fill="#231F20"></path>
                    <path d="M71.6232949,33.9034155 C73.5613584,34.5106276 75.0685965,35.8996579 77.58066,35.6546882 C75.6712314,35.0474761 73.8490092,33.0994458 71.6232949,33.9034155" id="Fill-4787" fill="#231F20"></path>
                    <path d="M69.5212314,34.5132336 C71.0024378,35.1035064 72.2597711,36.46387 74.2525013,36.0065064 C72.7673902,35.4839912 71.3161203,34.1640215 69.5212314,34.5132336" id="Fill-4791" fill="#231F20"></path>
                    <path d="M67.2434537,35.0422639 C68.4331045,35.6612033 69.6748187,36.8678094 71.3603743,36.4469306 C70.0405648,35.9335367 68.9797711,34.6005367 67.2434537,35.0422639" id="Fill-4796" fill="#231F20"></path>
                    <path d="M64.7027553,35.5699912 C65.9080251,36.1498397 67.315041,37.5115064 68.9081838,36.8834458 C67.5948822,36.3531124 66.5340886,35.0500821 64.7027553,35.5699912" id="Fill-4798" fill="#231F20"></path>
                    <path d="M1.18789811,39.9533852 C1.01608859,40.5436579 1.53281875,41.5039912 1.80224732,42.3196882 C2.06126319,43.1080215 2.07948541,44.3094155 2.94113621,44.4266882 C2.69383462,43.0350518 2.20183462,41.8922942 2.23958065,40.2165973 C1.82958065,40.1879306 1.55104097,40.0302639 1.18789811,39.9533852" id="Fill-4828" fill="#231F20"></path>
                    <path d="M4.60456478,45.0391124 C4.27786637,43.732173 3.8743743,42.4955973 3.99151716,40.7430215 C3.65831081,40.6961124 3.36415208,40.6101124 3.11554891,40.4798094 C2.96716795,40.4485367 2.95024732,40.550173 2.94113621,40.6544155 C3.20015208,41.3593548 3.39929494,42.2219609 3.64269176,43.0233245 C3.86396161,43.7582336 3.91472351,44.7263852 4.60456478,45.0391124" id="Fill-4829" fill="#231F20"></path>
                    <path d="M4.69177113,41.0049306 C4.79980287,42.7666276 5.48704097,43.9536882 5.83196161,45.4756276 C6.11831081,45.6593548 6.43850129,45.8065973 6.7964378,45.9173548 C6.43980287,44.4905367 6.02199335,43.1249609 6.0063743,41.3567488 C5.6171997,41.1886579 5.16554891,41.0870215 4.69177113,41.0049306" id="Fill-4833" fill="#231F20"></path>
                    <path d="M8.81129494,42.2323852 C9.4920251,44.0370821 10.1506283,45.8613245 10.8261521,47.6712336 C11.1033902,47.6569003 11.116406,47.9057791 11.4391997,47.8484458 C11.3012314,46.4529003 9.92935843,44.1243852 10.9133584,42.9334155 C10.325041,42.5894155 9.53497748,42.4434761 8.81129494,42.2323852" id="Fill-4836" fill="#231F20"></path>
                    <path d="M11.2634854,42.9334155 C11.1879934,42.9203852 11.1814854,42.9712033 11.1749775,43.0233245 C11.4873584,43.9328397 11.6539616,44.9570215 11.9637394,45.9173548 C12.2552949,46.8242639 12.4518346,47.8797185 13.1026283,48.459567 C13.0570727,46.868567 12.2149457,45.3166579 12.3125648,43.2865367 C11.9090727,43.2252942 11.5563426,43.1080215 11.2634854,42.9334155" id="Fill-4838" fill="#231F20"></path>
                    <path d="M14.3287235,48.8126882 C14.5734219,48.889567 14.8623743,48.9208397 15.0315807,49.0719912 C15.0133584,47.47187 14.2037711,45.6710821 14.6801521,43.990173 C14.1022473,43.9523852 13.463168,43.5132639 13.0154219,43.6357488 C13.3434219,45.4717185 13.8952949,47.0809609 14.3287235,48.8126882" id="Fill-4839" fill="#231F20"></path>
                    <path d="M15.2918981,44.3380821 C15.3751997,45.2684458 15.5938664,46.2926276 15.819041,47.2308094 C16.0285965,48.1142639 15.9452949,49.3391124 16.8694219,49.6010215 C16.5765648,48.03087 16.0285965,46.4229306 16.2563743,44.6012942 C15.8698029,44.5804458 15.7409457,44.2976882 15.2918981,44.3380821" id="Fill-4842" fill="#231F20"></path>
                    <path d="M61.8119299,12.7643548 C61.7481521,12.4985367 61.962914,12.5076579 61.8991362,12.2405367 C61.6999934,12.1454155 61.5138664,12.038567 61.3745965,11.8848094 C61.1767553,11.9278094 61.3381521,12.3213245 61.284787,12.5024458 C61.5398981,12.59887 61.7051997,12.7825973 61.8991362,12.941567 C62.0214854,12.9115973 61.9056441,12.7878094 61.8119299,12.7643548" id="Fill-4892" fill="#231F20"></path>
                    <path d="M58.3093584,13.2047791 C58.2546918,13.2347488 58.2846283,13.9240518 58.3952632,14.0843245 C58.5045965,13.9957185 58.3861521,13.3950215 58.3093584,13.2047791" id="Fill-4895" fill="#231F20"></path>
                    <path d="M11.6136124,16.4480215 C11.6865013,16.8728094 12.5780886,17.2376579 12.9282156,17.6767791 C13.1013267,17.5569003 12.9737711,17.1399306 13.1026283,16.9744458 C12.643168,16.7659609 12.0704695,16.6643245 11.6136124,16.4480215" id="Fill-4901" fill="#231F20"></path>
                    <path d="M8.11104097,41.9704761 C7.7491997,41.8049912 7.3704378,41.6577488 6.88234256,41.6199609 C6.87062827,42.5490215 7.19992986,43.4989306 7.40948541,44.3380821 C7.61253303,45.1589912 7.59040605,46.1792639 8.28415208,46.6196882 C8.24510446,45.27887 6.79773938,43.30087 7.40948541,41.883173 C8.09932668,42.3014458 8.13446954,43.3777488 8.46116795,44.1634761 C8.56008859,43.5640821 8.06808859,42.8018094 8.11104097,41.9704761" id="Fill-4930" fill="#231F20"></path>
                    <path d="M78.6791997,31.0406579 C77.8149457,28.1935367 76.8686918,25.3907185 75.8261203,22.8810821 C74.2342791,19.0462639 72.4693267,15.3847488 71.0909457,11.0599912 C70.6366918,9.63577909 69.8752632,7.80111242 70.11866,6.47202151 C70.2618346,5.69150636 70.7251997,5.84656697 70.93866,5.04259727 C70.4349457,4.55526394 70.976406,4.25165788 71.087041,3.70308212 C70.5833267,3.46462757 70.7577394,2.90953667 70.5742156,2.53687 C68.910787,-0.81322091 60.755041,0.897657878 57.0129775,0.274809393 C56.3517711,1.14393061 55.5174537,0.653991211 54.9369457,1.30029424 C54.4058981,1.89577909 54.1898346,3.94935485 54.2340886,5.48953667 C54.3225965,8.45523364 55.2636441,11.4678397 56.1747553,14.0817185 C57.1040886,16.7477185 58.2377711,19.2534458 59.2699299,21.5715367 C61.3316441,26.18687 63.2736124,31.9436579 64.6363743,37.3929306 C66.1917711,43.5992639 65.3171045,50.1482942 63.1798981,55.4750821 C61.6179934,59.3750518 59.6421838,62.3381427 56.692787,64.7526579 C55.790787,65.490173 54.851041,66.3514761 53.6275489,66.9625973 C50.6703426,68.4324155 45.8818029,68.927567 41.5331997,68.4441427 C39.5743108,68.2239306 37.6648822,68.1275064 35.8452632,67.8408397 C32.4090727,67.3026882 29.0262473,65.9332033 26.614406,64.3565367 C25.5939616,63.6932942 24.6268822,62.4905973 23.5738981,61.5485064 C22.4258981,60.5217185 21.4718346,59.5587791 20.7819934,58.4876882 C19.5363743,56.5565973 18.7944695,53.8032942 18.354533,51.0734458 C17.0932949,43.2409306 18.3206918,35.3562942 20.1884695,29.4783245 C20.5698346,28.2691124 21.2232314,27.0989912 21.4822473,25.8676276 C21.5902791,25.3451124 21.5421203,24.7743852 21.6293267,24.2753245 C22.006787,22.1096882 23.0168187,20.4822033 23.4788822,18.1484761 C23.6064378,17.4878397 23.5179299,16.7998397 23.6220568,16.1405064 C24.1869457,12.5441427 25.4924378,8.98165788 25.9141521,5.15856697 C25.9948505,4.42235485 26.2838029,3.76823364 26.2252314,3.22877909 C26.1237076,2.28538515 25.1540251,0.995385151 24.4394537,0.575809393 C23.4502473,-0.00794818275 21.3377711,-0.0652815161 19.5897394,0.04677909 C15.9596124,0.285233635 11.6982156,0.987566969 8.91151716,1.42799121 C8.36224732,3.32650636 9.01304097,5.42047606 9.81091399,6.68832454 C9.73281875,9.26962757 9.26815208,11.2124458 8.55358065,13.3077185 C8.12535843,14.5586276 7.63075526,15.8812033 7.09189811,16.9197185 C3.60624732,23.6759306 1.2100251,31.2074458 0.266374303,40.2504761 C-0.398736808,46.6496579 0.245548907,53.7264155 1.49116795,58.9672033 C3.22618383,66.2798094 7.24158065,71.3016882 11.8752314,75.4844155 C15.4181521,78.6768397 19.4699934,81.2490215 25.2373267,82.0985973 C26.4842473,82.8634761 27.7298664,83.7716882 29.4388505,84.0570518 C30.0141521,84.1547791 30.8211362,84.0531427 31.4419934,84.1182942 C32.3908505,84.2186276 33.2798346,84.5665367 34.2885648,84.6694761 C35.3142156,84.7724155 36.3880251,84.7919609 37.549041,84.7984761 C44.0075172,84.8206276 52.0825648,85.4252336 56.8281521,83.4837185 C57.6286283,83.1540518 58.2221521,82.4999306 58.9041838,82.2015367 C60.9698029,81.3024458 62.8727235,80.8789609 64.5530727,79.7948397 C66.1787553,78.7472033 67.7810092,77.699567 69.4444378,76.5581124 C72.7830092,74.2686882 74.2368822,70.7700518 76.2673584,67.1945367 C79.0735807,62.2560518 81.1418029,55.5793245 81.0493902,47.903173 C81.0194537,45.409173 81.0858346,42.6662942 80.7057711,40.0472033 C80.2736441,37.0567488 79.5473584,33.9034155 78.6791997,31.0406579" id="Fill-4935" fill="#FFFBF8"></path>
                    <path d="M19.4400568,1.64168818 C19.6365965,1.63777909 19.8292314,1.63517303 20.0257711,1.63126394 C20.0309775,1.99741545 20.0622156,2.38311242 19.9541838,2.6359003 C19.7172949,2.56944576 19.7394219,2.75838515 19.5376759,2.72580939 C19.5806283,2.28408212 19.3814854,2.09514273 19.4400568,1.64168818" id="Fill-4936" fill="#231F20"></path>
                    <path d="M21.5278029,1.61432454 C21.8896441,1.60780939 22.2514854,1.60520333 22.6159299,1.60259727 C22.5742791,2.11208212 22.0015807,2.10296091 21.5356124,2.20199121 C21.5343108,2.00393061 21.530406,1.81108212 21.5278029,1.61432454" id="Fill-4937" fill="#231F20"></path>
                    <path d="M17.8547235,1.74071848 C18.0005013,2.06777909 17.9640568,2.94993061 17.9549457,3.16102151 C17.7518981,3.12844576 17.7766283,3.31608212 17.5384378,3.25093061 C17.3536124,2.90302151 17.5176124,2.19938515 17.354914,1.83062757 C17.4512314,1.73159727 17.6490727,1.73159727 17.8547235,1.74071848" id="Fill-4938" fill="#231F20"></path>
                    <path d="M18.4404378,1.73420333 C18.6057394,1.73029424 18.7723426,1.72899121 18.9402473,1.72768818 C18.8868822,2.19808212 19.152406,2.98120333 18.6200568,2.98511242 C18.5458664,2.58377909 18.496406,2.15377909 18.4404378,1.73420333" id="Fill-4939" fill="#231F20"></path>
                    <path d="M16.9358029,1.83453667 C16.9436124,2.36487 16.9488187,2.8939003 16.9540251,3.42423364 C16.7132314,3.51544576 16.4776441,3.61708212 16.1210092,3.60014273 C16.0988822,3.00335485 15.9270727,2.56032454 15.9335807,1.93226394 C16.3657076,1.99220333 16.5414219,1.80587 16.9358029,1.83453667" id="Fill-4940" fill="#231F20"></path>
                    <path d="M20.5294854,1.79023364 C20.7351362,1.77720333 20.9290727,1.77459727 21.0318981,1.87102151 C20.9368822,2.1368397 20.9238664,2.4808397 20.5359934,2.46129424 C20.5346918,2.23977909 20.530787,2.01696091 20.5294854,1.79023364" id="Fill-4941" fill="#231F20"></path>
                    <path d="M15.4350727,2.02087 C15.380406,2.72711242 15.5613267,3.18968818 15.5405013,3.86074879 C15.2853902,3.80080939 15.2958029,4.00668818 15.0393902,3.94935485 C14.9678029,3.31868818 14.8428505,2.74405182 14.7673584,2.11077909 C14.8897076,1.98177909 15.1955807,2.03520333 15.4350727,2.02087" id="Fill-4942" fill="#231F20"></path>
                    <path d="M13.6831362,2.12511242 C13.904406,2.12250636 14.1582156,2.08732454 14.2688505,2.20199121 C14.2311045,2.94471848 14.4211362,3.4529003 14.4562791,4.12396091 C13.5920251,4.08096091 13.8497394,2.88477909 13.6831362,2.12511242" id="Fill-4943" fill="#231F20"></path>
                    <path d="M11.8439934,2.23196091 C11.9845648,2.96296091 12.0587553,3.76302151 12.2071362,4.4849003 C11.4157711,4.39108212 10.8821203,4.03405182 10.2755807,3.75650636 C10.1350092,3.47505182 10.2391362,2.94732454 10.0985648,2.66977909 C10.3940251,2.24368818 11.2608822,2.37268818 11.8439934,2.23196091" id="Fill-4944" fill="#231F20"></path>
                    <path d="M12.346406,2.2228397 C12.6262473,2.22023364 12.9034854,2.21762757 13.1820251,2.21502151 C13.1195489,3.0229003 13.4514537,3.84250636 13.3733584,4.38456697 C13.1520886,4.38847606 12.9282156,4.38977909 12.7069457,4.39499121 C12.5832949,3.67311242 12.3372949,3.08023364 12.346406,2.2228397" id="Fill-4945" fill="#231F20"></path>
                    <path d="M60.874787,1.73159727 C60.9841203,1.73159727 61.0973584,1.72899121 61.2066918,1.72899121 C61.1533267,2.14205182 61.1025648,2.56293061 61.1390092,3.07111242 C60.8838981,2.79226394 60.9932314,2.14856697 60.874787,1.73159727" id="Fill-4946" fill="#231F20"></path>
                    <path d="M61.8731045,1.71987 C62.3494854,1.71596091 62.82066,1.70814273 63.2957394,1.70293061 C62.7516759,2.77141545 62.3169457,3.9428397 61.6622473,4.90187 C61.843168,3.90374879 62.0540251,2.83526394 61.8731045,1.71987" id="Fill-4947" fill="#231F20"></path>
                    <path d="M64.5465648,1.69120333 C63.9647553,2.57987 63.8098664,3.88680939 62.9104695,4.47056697 C63.23066,3.51023364 63.6771045,2.68280939 63.9647553,1.69641545 C64.1573902,1.69641545 64.3526283,1.69380939 64.5465648,1.69120333" id="Fill-4948" fill="#231F20"></path>
                    <path d="M57.5336124,1.85408212 C57.5140886,2.11338515 57.3552949,2.23456697 57.288914,2.44305182 C57.1066918,2.31274879 57.147041,1.7068397 57.5336124,1.85408212" id="Fill-4949" fill="#231F20"></path>
                    <path d="M60.0378664,1.82541545 C60.5428822,2.4639003 60.3151045,4.21387 60.0730092,4.92141545 C59.6838346,4.81456697 58.922406,4.63735485 58.4876759,4.85626394 C58.6646918,3.89593061 59.6395807,3.00596091 59.8712632,1.82671848 C59.9259299,1.82671848 59.9831997,1.82541545 60.0378664,1.82541545" id="Fill-4950" fill="#231F20"></path>
                    <path d="M66.2230092,1.92053667 C65.6438029,2.78705182 64.9630727,3.55323364 64.4138029,4.44971848 C64.2445965,4.45232454 64.0792949,4.45362757 63.9126918,4.45493061 C64.2563108,3.55453667 64.744406,2.78835485 64.9669775,1.76808212 C65.4615807,1.73811242 65.8247235,1.84887 66.2230092,1.92053667" id="Fill-4951" fill="#231F20"></path>
                    <path d="M23.9656759,2.92256697 C24.4264378,3.04505182 24.4030092,3.66008212 24.5631045,4.08617303 C24.3509457,4.09659727 24.1322791,4.10571848 24.1505013,4.34156697 C23.9292314,4.03274879 24.1752314,3.24571848 23.9656759,2.92256697" id="Fill-4952" fill="#231F20"></path>
                    <path d="M69.7411997,2.88217303 C69.7451045,3.27308212 69.7503108,3.66268818 69.7555172,4.05229424 C69.2465965,4.46535485 68.3992632,4.54353667 67.4204695,4.49793061 C67.9619299,3.68744576 68.5749775,1.84756697 69.7411997,2.88217303" id="Fill-4953" fill="#231F20"></path>
                    <path d="M21.552533,3.70568818 C21.6527553,3.82947606 21.7972314,3.90505182 21.8063426,4.11744576 C21.57466,4.24905182 21.4861521,4.51877909 21.0618346,4.46014273 C21.1360251,4.12396091 21.4418981,4.00929424 21.552533,3.70568818" id="Fill-4954" fill="#231F20"></path>
                    <path d="M20.8848187,3.79559727 C20.4526918,4.11223364 20.2574537,4.66993061 19.6457076,4.81456697 C20.0140568,4.43147606 20.0791362,3.74999121 20.8848187,3.79559727" id="Fill-4955" fill="#231F20"></path>
                    <path d="M17.1388505,4.67644576 C16.9410092,5.01002151 16.5908822,5.1898397 16.3956441,5.51950636 C16.3409775,5.27062757 16.6976124,4.71553667 17.1388505,4.67644576" id="Fill-4956" fill="#231F20"></path>
                    <path d="M24.5722156,4.75593061 C24.6958664,6.83426394 23.9292314,8.94387 23.3916759,10.8736579 C22.4675489,14.1937791 21.641041,17.3158397 20.83666,20.6880821 C20.42666,22.3898397 20.2236124,24.1554458 19.8110092,25.8024761 C19.2838664,27.8860215 18.4013902,29.8549003 17.8794537,32.0114155 C17.3405965,34.2369912 16.8459934,36.4599609 16.7080251,38.8835973 C16.7314537,39.0334458 16.6286283,39.0569003 16.6247235,38.9669912 C17.0893902,32.810173 18.2061521,26.96087 19.9255489,21.369567 C21.641041,15.7860821 22.2449775,9.84035485 24.5722156,4.75593061" id="Fill-4957" fill="#231F20"></path>
                    <path d="M15.8047235,5.02696091 C15.5522156,5.38529424 15.2762791,5.72017303 14.7270092,5.7918397 C15.0159616,5.46868818 15.2111997,5.05302151 15.8047235,5.02696091" id="Fill-4958" fill="#231F20"></path>
                    <path d="M21.57466,5.54426394 C21.8453902,6.67138515 20.1559299,6.8668397 19.0873267,7.07923364 C16.989168,7.49620333 14.6007553,7.64996091 12.1615807,7.74638515 C12.2800251,7.30856697 12.4661521,6.94111242 12.6496759,6.56974879 C16.0936759,6.77953667 18.9233267,6.30653667 21.57466,5.54426394" id="Fill-4959" fill="#231F20"></path>
                    <path d="M66.1839616,5.93517303 C64.7014537,7.23559727 61.5438029,6.79256697 59.5081203,6.34823364 C61.3915172,5.88305182 64.1560886,5.74623364 66.1839616,5.93517303" id="Fill-4960" fill="#231F20"></path>
                    <path d="M55.8298346,6.14235485 C55.9001203,6.12411242 55.9092314,6.17232454 55.9144378,6.22444576 C58.1440568,14.5299609 62.6644695,22.0210821 65.8012949,29.8549003 C66.2594537,30.9963548 66.8399616,32.0961124 67.1757711,33.1841427 C67.8760251,35.4396882 68.3823426,38.3649912 68.6882156,40.8602942 C69.0279299,43.6709306 68.866533,46.7200215 68.456533,49.3925367 C67.5311045,55.4060215 65.0424695,60.6754761 61.448787,64.3617488 C60.7992949,65.0236882 60.2617394,65.8889003 59.6343743,66.390567 C58.6269457,67.1971427 57.2498664,67.89687 55.9847235,68.6070215 C54.709168,69.3223852 53.3607235,70.0403548 51.9120568,70.4091124 C49.4012949,71.0580215 46.1343108,70.9059191 43.0625648,70.8495367 C47.1313267,70.8912336 50.0794219,70.1719609 52.89866,69.1464761 C55.5643108,68.1770215 58.0919934,66.6420518 59.7788505,64.6314761 C61.1012632,63.0548094 62.2206283,60.9074155 63.3048505,58.9046579 C64.4320251,56.8172033 65.2962791,54.5825064 65.9002156,52.2657185 C67.1718664,47.3598094 67.0260886,41.0257791 66.0329775,35.3706276 C64.6871362,27.7179306 60.6352949,22.0419306 58.1102156,15.3104761 C57.6845965,14.1742336 57.3552949,12.94287 56.9804378,11.7310518 C56.4637076,10.0475367 55.5083426,8.27150636 55.8298346,6.14235485" id="Fill-4961" fill="#231F20"></path>
                    <path d="M22.6003108,7.62259727 C22.5196124,8.70150636 21.6826918,9.75305182 21.4718346,10.9805064 C21.1828822,9.53935485 22.0614537,8.52950636 22.6003108,7.62259727" id="Fill-4962" fill="#231F20"></path>
                    <path d="M58.5202156,7.52877909 C58.7245648,7.84932454 58.9939934,8.48259727 58.7883426,8.94908212 C58.4095807,8.66371848 58.5983108,7.92359727 58.5202156,7.52877909" id="Fill-4963" fill="#231F20"></path>
                    <path d="M68.4578346,7.41150636 C70.1277711,13.3754761 72.786914,18.3217791 74.6690092,24.0655367 C73.7253584,21.6640518 71.8601838,19.3107791 70.8241203,16.7529306 C70.2097711,15.2322942 69.8062791,13.5500821 69.2648187,12.0033852 C68.7376759,10.5062033 67.9293902,8.97774879 67.9606283,7.50141545 C68.1636759,7.5118397 68.3615172,7.5118397 68.4578346,7.41150636" id="Fill-4964" fill="#231F20"></path>
                    <path d="M19.6834537,8.24023364 C19.4921203,8.49432454 19.3111997,8.7588397 18.8543426,8.75493061 C19.0678029,8.52038515 19.1654219,8.17247606 19.6834537,8.24023364" id="Fill-4965" fill="#231F20"></path>
                    <path d="M18.0174219,8.42917303 C17.8989775,8.58814273 17.8365013,8.8018397 17.518914,8.77056697 C17.63866,8.61029424 17.7011362,8.39659727 18.0174219,8.42917303" id="Fill-4966" fill="#231F20"></path>
                    <path d="M20.1897711,8.48780939 C20.3160251,8.67153667 20.0856441,9.20708212 20.0335807,9.49114273 C19.7459299,9.56411242 19.710787,9.36996091 19.449168,9.41556697 C19.6561203,9.07026394 19.9502791,8.8018397 20.1897711,8.48780939" id="Fill-4967" fill="#231F20"></path>
                    <path d="M65.6242791,8.02914273 C64.5166283,10.0319003 63.3478029,11.9760215 62.3559934,14.0934458 C62.0214854,13.58787 62.5408187,13.0249609 62.7581838,12.5793245 C63.461041,11.1108094 64.340914,9.52893061 65.1244695,8.03696091 C65.2910727,8.03565788 65.4602791,8.03174879 65.6242791,8.02914273" id="Fill-4968" fill="#231F20"></path>
                    <path d="M66.7957076,8.09950636 C66.4195489,9.53153667 65.5800251,10.7251124 64.9214219,11.9734155 C64.2576124,13.2139003 63.7174537,14.5377791 62.8740251,15.6714155 C62.2857076,14.4452639 63.4063743,13.3324761 64.3305013,11.5590518 C65.1413902,10.0071427 65.6294854,7.83108212 66.7957076,8.09950636" id="Fill-4969" fill="#231F20"></path>
                    <path d="M15.2645648,8.79532454 C14.3690727,9.35302151 12.986787,9.43511242 12.0210092,9.92114273 C12.1602791,9.69962757 12.0223108,9.20577909 12.1771997,8.9999003 C13.2809457,9.00511242 14.1686283,8.79923364 15.2645648,8.79532454" id="Fill-4970" fill="#231F20"></path>
                    <path d="M19.2929775,10.3368094 C19.5285648,10.3472336 19.6431045,10.4866579 19.8799934,10.4983852 C19.7914854,11.3753245 19.5519934,12.1037185 19.4895172,13.0093245 C19.300787,12.2457488 19.4478664,11.13687 19.2929775,10.3368094" id="Fill-4971" fill="#231F20"></path>
                    <path d="M67.6716759,11.5186579 C67.9215807,11.6867488 67.8968505,12.1349912 68.1011997,12.3525973 C66.8542791,14.4348397 65.4186283,16.341173 64.2445965,18.5002942 C63.9933902,18.4807488 64.1248505,18.0572639 63.9074854,18.0038397 C65.0047235,15.6883548 66.5067553,13.7689912 67.6716759,11.5186579" id="Fill-4972" fill="#231F20"></path>
                    <path d="M61.2795807,15.1905973 C61.5411997,15.17887 61.5346918,15.4433852 61.5385965,15.6896579 C61.3368505,15.6453548 61.3498664,15.3795367 61.2795807,15.1905973" id="Fill-4973" fill="#231F20"></path>
                    <path d="M61.7976124,16.2747185 C62.1230092,16.4506276 62.3377711,16.9926882 62.2258346,17.3523245 C61.9616124,17.1203852 61.814533,16.7607488 61.7976124,16.2747185" id="Fill-4974" fill="#231F20"></path>
                    <path d="M62.5655489,17.7666882 C62.7191362,18.0103548 63.0575489,18.4064761 62.8297711,18.7687185 C62.5837711,18.57587 62.2583743,18.0259912 62.5655489,17.7666882" id="Fill-4975" fill="#231F20"></path>
                    <path d="M70.1681203,17.7640821 C70.617168,18.6214761 69.5863108,19.9388397 68.6934219,20.2880518 C69.1645965,19.4267488 69.6735172,18.6019306 70.1681203,17.7640821" id="Fill-4976" fill="#231F20"></path>
                    <path d="M70.6002473,18.8416882 C70.6965648,18.8299609 70.7486283,18.8612336 70.7681521,18.9250821 C70.7421203,19.5153548 70.1824378,20.2763245 69.7867553,20.7766882 C69.62666,20.0131124 70.4765965,19.6013548 70.6002473,18.8416882" id="Fill-4977" fill="#231F20"></path>
                    <path d="M71.0258664,19.5935367 C71.6688505,20.3479912 70.5520886,20.9669306 70.4661838,21.7709003 C69.8830727,21.1910518 70.9360568,20.3128094 71.0258664,19.5935367" id="Fill-4978" fill="#231F20"></path>
                    <path d="M71.5386918,20.6737488 C71.6519299,21.3330821 70.9347553,21.8959912 70.812406,22.6074458 C70.6822473,21.9220518 71.3499616,21.3161427 71.5386918,20.6737488" id="Fill-4979" fill="#231F20"></path>
                    <path d="M68.8756441,21.45687 C69.7841521,22.27387 70.4037076,23.3879609 70.752533,24.7782942 C70.5703108,24.7118397 70.4661838,24.5672033 70.1668187,24.6206276 C69.9156124,24.680567 69.8908822,24.9568094 69.9208187,25.2929912 C69.3311997,24.2297185 68.7012314,23.0622033 68.8756441,21.45687" id="Fill-4980" fill="#231F20"></path>
                    <path d="M71.7990092,21.4216882 C71.8953267,21.4060518 71.9486918,21.4399306 71.966914,21.5024761 C72.108787,22.315567 71.4605965,23.0387488 71.0714219,23.605567 C71.1130727,22.6817185 71.6219934,22.2126276 71.7990092,21.4216882" id="Fill-4981" fill="#231F20"></path>
                    <path d="M11.0955807,23.3957791 C11.4313902,24.5307185 11.1437394,26.4722336 10.892533,27.5811124 C10.6517394,27.4234458 10.0621203,27.4977185 9.80700922,27.5928397 C10.154533,26.1139003 10.236533,24.3769609 11.0955807,23.3957791" id="Fill-4982" fill="#231F20"></path>
                    <path d="M6.02459653,25.5483852 C6.0883743,26.3797185 5.00285049,26.8058094 4.71259653,27.5706882 C4.73472351,26.8227488 5.7096124,26.2898094 6.02459653,25.5483852" id="Fill-4983" fill="#231F20"></path>
                    <path d="M73.4220886,24.7483245 C73.4988822,24.7352942 73.5040886,24.7756882 73.5105965,24.8304155 C74.2798346,26.2676579 75.1349775,27.948567 75.9901203,29.7350215 C76.7645648,31.3520821 77.7706918,33.1763245 78.2236441,34.8950215 C78.7546918,36.9082033 78.9186918,39.174173 79.2219616,41.4883548 C79.4132949,42.9790215 79.8285013,43.9940821 78.9278029,45.0000215 C78.6818029,44.4266882 78.5776759,42.869567 78.9798664,42.4109003 C78.9356124,42.1737488 78.542533,42.2962336 78.6414537,41.9118397 C78.3889457,39.5729003 78.3381838,37.0345973 77.3112314,35.4879003 C77.7316441,38.9787185 78.5034854,43.8872336 77.618406,47.3624155 C77.7980251,47.3949912 77.7771997,47.2373245 77.782406,47.1070215 C77.8657076,48.2836579 77.8123426,50.9275064 76.9194537,51.7171427 C76.8699934,52.1054458 77.33466,51.9673245 77.259168,52.3803852 C76.5120568,55.3200215 75.455168,58.04987 74.6013267,60.7745064 C74.1574854,62.1974155 73.7461838,63.51087 73.1461521,64.8060821 C72.5708505,66.0582942 71.9643108,67.2870518 71.3538664,68.5092942 C70.1759299,70.8573548 68.0790727,72.7285064 66.0759299,74.3403548 C64.0116124,76.0043245 61.9590092,77.7477791 59.4469457,78.7680518 C59.3115807,78.4852942 59.234787,78.1360821 59.0187235,77.9367185 C60.010533,76.7379306 61.5659299,76.1580821 62.9130727,75.2967791 C64.1665013,74.4980215 65.6490092,73.6315064 66.6421203,72.5786579 C67.00266,72.1929609 67.2434537,71.6509003 67.6261203,71.2287185 C70.1095489,68.500173 72.3977394,65.2425973 73.7748187,61.2879003 C75.4811997,56.3819912 76.5511045,51.0252336 76.7541521,44.7785064 C76.968914,38.0613852 74.672914,32.2629003 72.4511045,27.1823852 C72.7244378,26.3210821 73.1760886,25.6317791 73.4220886,24.7483245" id="Fill-4984" fill="#231F20"></path>
                    <path d="M72.3938346,29.3610518 C73.4285965,31.8263852 74.3436124,34.4142033 75.158406,37.1036579 C73.9531362,36.9707488 74.203041,38.2581427 73.8438029,38.95787 C73.1058029,35.7954155 72.4615172,32.5339306 71.3135172,29.7884458 C71.572533,29.7780215 72.399041,30.0282033 72.3938346,29.3610518" id="Fill-4985" fill="#231F20"></path>
                    <path d="M4.33513621,31.087567 C4.68135843,31.7377791 3.72599335,32.5222033 3.35894573,33.022567 C3.11554891,32.1521427 3.97329494,31.6426579 4.33513621,31.087567" id="Fill-4986" fill="#231F20"></path>
                    <path d="M3.93945367,33.0160518 C4.16072351,33.9190518 3.37586637,34.5575367 2.96196161,35.1165367 C2.69904097,34.1679306 3.54377113,33.5919912 3.93945367,33.0160518" id="Fill-4987" fill="#231F20"></path>
                    <path d="M3.54897748,35.1113245 C3.81580287,35.8123548 3.02573938,36.1954458 2.73027907,36.6254458 C2.47777113,36.3987185 2.83440605,36.0729609 2.71986637,35.7055064 C3.22488224,35.734173 3.30688224,35.3419609 3.54897748,35.1113245" id="Fill-4988" fill="#231F20"></path>
                    <path d="M3.23269176,36.7857185 C3.55027907,37.623567 2.818787,38.1434761 2.4191997,38.5526276 C2.13545367,37.75387 2.86694573,37.2274458 3.23269176,36.7857185" id="Fill-4989" fill="#231F20"></path>
                    <path d="M2.92291399,38.7129003 C3.15329494,39.1103245 2.39316795,39.2406276 2.26431081,39.5572639 C2.04173938,39.174173 2.77583462,39.0125973 2.92291399,38.7129003" id="Fill-4990" fill="#231F20"></path>
                    <path d="M2.76932668,39.8869306 C3.04786637,40.5983852 2.4400251,41.1560821 1.95192986,41.4023548 C1.96624732,40.6426882 2.30856478,40.206173 2.76932668,39.8869306" id="Fill-4991" fill="#231F20"></path>
                    <path d="M14.5643108,41.3372033 C14.888406,41.7359306 15.5535172,41.7854458 15.4155489,42.6636882 C14.9665013,42.3900518 14.4666918,42.1646276 14.5643108,41.3372033" id="Fill-4992" fill="#231F20"></path>
                    <path d="M14.9183426,43.0037791 C15.2320251,43.216173 15.4988505,43.4806882 15.4324695,44.0852942 C15.0068505,43.9849609 14.8454537,43.6135973 14.9183426,43.0037791" id="Fill-4993" fill="#231F20"></path>
                    <path d="M75.978406,43.0311427 C76.0773267,43.0168094 76.1306918,43.0454761 76.1463108,43.1119306 C76.3428505,48.0960215 75.3328187,51.90087 74.54666,55.9259306 C74.0455489,55.6366579 72.8155489,55.7565367 72.4602156,56.1200821 C73.0146918,53.9023245 73.786533,51.9764458 73.8815489,49.1605973 C73.9466283,47.2229912 73.9765648,45.4821427 74.0637711,43.3907791 C74.4112949,43.6487791 75.9458664,44.3419912 75.978406,43.0311427" id="Fill-4994" fill="#231F20"></path>
                    <path d="M15.0198664,44.5882639 C15.3778029,44.7863245 15.610787,45.1146882 15.5339934,45.7544761 C15.1760568,45.5629306 14.9248505,45.2515064 15.0198664,44.5882639" id="Fill-4995" fill="#231F20"></path>
                    <path d="M79.5955172,44.8280215 C80.078406,45.5499003 79.2714219,46.2900215 78.8627235,46.6770215 C78.7208505,45.6815064 79.3664378,45.4586882 79.5955172,44.8280215" id="Fill-4996" fill="#231F20"></path>
                    <path d="M6.27059653,46.1975064 C6.58688224,46.7109003 7.31446954,47.0952942 8.11364414,46.8477185 C8.32189811,50.5001124 8.85945367,53.8124155 9.57012034,56.9488094 C8.83212034,56.5331427 7.67240605,56.3976276 7.23377113,57.2263548 C6.06104097,54.3258094 6.44370764,49.921567 6.27059653,46.1975064" id="Fill-4997" fill="#231F20"></path>
                    <path d="M15.1239934,46.3434458 C15.50666,46.6040518 15.8242473,46.9272033 15.8893267,47.5070518 C15.4923426,47.2685973 15.1161838,47.0014761 15.1239934,46.3434458" id="Fill-4998" fill="#231F20"></path>
                    <path d="M79.6163426,46.5832033 C79.9547553,47.2477488 79.1399616,47.4940215 79.0475489,48.0126276 C78.7520886,47.3936882 79.5447553,47.1252639 79.6163426,46.5832033" id="Fill-4999" fill="#231F20"></path>
                    <path d="M15.3101203,47.8484458 C15.7838981,48.2602033 16.4659299,48.4686882 16.3318664,49.5111124 C15.856787,49.0941427 15.2788822,48.7840215 15.3101203,47.8484458" id="Fill-5000" fill="#231F20"></path>
                    <path d="M79.3859616,48.3422942 C79.697041,48.8713245 79.078787,49.1983852 78.8965648,49.5215367 C78.7195489,49.1202033 79.2180568,48.677173 79.3859616,48.3422942" id="Fill-5001" fill="#231F20"></path>
                    <path d="M15.5821521,49.7704155 C16.4229775,49.7860518 16.3631045,50.8037185 16.6091045,51.7627488 C16.9618346,53.1387488 17.6816124,55.3369609 18.0890092,56.7650821 C17.2651045,56.0966276 16.9149775,54.8209609 16.5479299,53.6886276 C16.147041,52.4403245 15.9036441,51.0109003 15.5821521,49.7704155" id="Fill-5002" fill="#231F20"></path>
                    <path d="M79.3208822,49.8485973 C79.4835807,50.2030215 78.9121838,50.5535367 78.7455807,50.8545367 C78.5815807,50.5053245 79.1516759,50.1561124 79.3208822,49.8485973" id="Fill-5003" fill="#231F20"></path>
                    <path d="M14.7621521,50.9496579 C15.2528505,52.5615064 15.6407235,54.2775973 16.2394537,55.7825973 C15.4663108,55.4425064 15.4858346,54.3622942 15.2945013,53.5387791 C15.0953584,52.6813852 14.8155172,51.7966276 14.7621521,50.9496579" id="Fill-5004" fill="#231F20"></path>
                    <path d="M79.1672949,51.1060215 C79.4991997,51.8982639 78.6102156,52.2135973 78.4358029,52.7856276 C78.1585648,52.0455064 78.936914,51.6246276 79.1672949,51.1060215" id="Fill-5005" fill="#231F20"></path>
                    <path d="M78.8562156,53.0292942 C79.1087235,53.8059003 78.2822156,54.2332942 77.9555172,54.7167185 C77.7954219,54.0339306 78.5724695,53.5544155 78.8562156,53.0292942" id="Fill-5006" fill="#231F20"></path>
                    <path d="M77.9763426,56.3885064 C78.1937076,56.9852942 77.520787,57.4270215 77.2409457,57.8179306 C77.0873584,57.2784761 77.6704695,56.7507488 77.9763426,56.3885064" id="Fill-5007" fill="#231F20"></path>
                    <path d="M18.0981203,57.5156276 C18.6395807,57.5260518 18.6760251,58.048567 18.9428505,58.3430518 C18.502914,58.564567 18.1189457,58.00687 18.0981203,57.5156276" id="Fill-5008" fill="#231F20"></path>
                    <path d="M16.6858981,58.1202336 C17.0581521,58.3287185 17.5670727,58.3977791 17.6113267,58.9424458 C17.1154219,58.8590518 16.7236441,58.6753245 16.6858981,58.1202336" id="Fill-5009" fill="#231F20"></path>
                    <path d="M77.4973584,58.2322942 C77.6678664,58.7834761 77.0248822,59.2577791 76.6799616,59.5822336 C76.5667235,59.0870821 77.2383426,58.6414458 77.4973584,58.2322942" id="Fill-5010" fill="#231F20"></path>
                    <path d="M17.2013267,59.4493245 C17.5683743,59.639567 18.0772949,59.6812639 18.21266,60.1086579 C17.7896441,60.3080215 17.1987235,59.9588094 17.2013267,59.4493245" id="Fill-5011" fill="#231F20"></path>
                    <path d="M19.2968822,60.1764155 C19.5415807,60.2363548 19.6600251,60.4279003 19.8045013,60.5907791 C19.6027553,60.8162033 19.2318029,60.5034761 19.2968822,60.1764155" id="Fill-5012" fill="#231F20"></path>
                    <path d="M17.6308505,60.5308397 C18.9805965,60.7002336 18.988406,62.2456276 19.7498346,63.0144155 C19.726406,63.4561427 19.4582791,62.6704155 19.2487235,63.0235367 C20.5398981,65.0549609 22.4792632,66.4244458 24.2351045,67.9789609 C24.1322791,68.0154458 24.0658981,68.0910215 24.072406,68.2317488 C20.7637711,66.8557488 19.0001203,63.8939609 17.6308505,60.5308397" id="Fill-5013" fill="#231F20"></path>
                    <path d="M76.9337711,59.9952942 C77.2240251,60.4852336 76.3415489,61.2266579 75.8638664,61.5146276 C76.0734219,60.8657185 76.5654219,60.4917488 76.9337711,59.9952942" id="Fill-5014" fill="#231F20"></path>
                    <path d="M70.8397394,60.4852336 C70.9855172,61.2670518 71.3421521,61.83387 72.3586918,61.7231124 C72.3847235,61.8599306 72.2792949,61.8677488 72.2779934,61.9745973 C72.5526283,61.9693852 72.4185648,61.5602336 72.7765013,61.6332033 C72.0827553,64.0555367 70.4076124,66.6733245 68.6817076,68.7060518 C68.39666,69.0461427 67.2851045,70.6202033 66.9505965,70.6514761 C66.6291045,70.6814458 65.6659299,69.3836276 64.9435489,70.3400518 C66.4625013,67.55287 68.9979934,65.0471427 70.1017394,61.5836882 C70.4870092,61.3543548 70.6497076,60.9074155 70.8397394,60.4852336" id="Fill-5015" fill="#231F20"></path>
                    <path d="M76.5341838,61.5928094 C76.6005648,62.2065367 75.656914,62.5505367 75.3822791,63.1095367 C75.351041,62.5244761 76.2335172,62.1231427 76.5341838,61.5928094" id="Fill-5016" fill="#231F20"></path>
                    <path d="M9.24342192,64.6458094 C8.63297748,65.1214155 7.9444378,65.5240518 7.16999335,65.8380821 C7.12834256,65.6282942 7.04764414,65.4575973 6.91358065,65.3429306 C7.39516795,64.7669912 8.27113621,64.5767488 8.81910446,64.0646579 C9.16532668,64.0464155 8.99091399,64.5650215 9.24342192,64.6458094" id="Fill-5017" fill="#231F20"></path>
                    <path d="M9.67554891,65.8107185 C8.99872351,66.1143245 8.39608859,66.4922033 7.8520251,66.9195973 C7.66329494,66.7150215 7.49408859,66.4961124 7.42380287,66.1729609 C8.21777113,66.1065064 9.42564414,64.4060518 9.67554891,65.8107185" id="Fill-5018" fill="#231F20"></path>
                    <path d="M9.84345367,66.1442942 C10.0165648,66.2550518 10.132406,66.4153245 10.1870727,66.6420518 C9.49072351,66.9534761 8.98180287,67.4473245 8.27894573,67.7522336 C8.26462827,67.5372336 8.12145367,67.4603548 8.02253303,67.336567 C8.54707272,66.8596579 9.30459653,66.60687 9.84345367,66.1442942" id="Fill-5019" fill="#231F20"></path>
                    <path d="M10.3549775,66.8922336 C10.4851362,67.0955064 10.6881838,67.2271124 10.6998981,67.5554761 C10.0217711,67.8304155 9.56621557,68.3242639 8.78526319,68.4949609 C8.71627907,68.4311124 8.7331997,68.2721427 8.61735843,68.2473852 C9.00262827,67.6075973 9.96450129,67.5242033 10.3549775,66.8922336" id="Fill-5020" fill="#231F20"></path>
                    <path d="M26.0612314,66.8687791 C26.2083108,66.9443548 26.3059299,67.0707488 26.4803426,67.1189609 C26.204406,67.4147488 25.8373584,68.067567 25.4026283,67.7144458 C25.4898346,67.3065973 25.9011362,67.2127791 26.0612314,66.8687791" id="Fill-5021" fill="#231F20"></path>
                    <path d="M27.4057711,67.6922942 C27.2352632,68.0740821 26.9541203,68.3503245 26.4959616,68.4532639 C26.4451997,68.2004761 26.9892632,67.4851124 27.4057711,67.6922942" id="Fill-5022" fill="#231F20"></path>
                    <path d="M10.9537076,67.8877488 C11.1424378,67.9750518 11.2595807,68.1379306 11.2921203,68.3855064 C10.6152949,68.6591427 10.0660251,69.059173 9.46599335,69.4096882 C9.296787,69.3028397 9.18224732,69.1399609 9.12627907,68.9106276 C9.75885049,68.5939912 10.4135489,68.2969003 10.9537076,67.8877488" id="Fill-5023" fill="#231F20"></path>
                    <path d="M25.2412314,68.3021124 C25.2542473,68.5913852 24.9015172,68.5197185 24.914533,68.8089912 C24.6047553,68.9002033 24.6737394,68.6044155 24.4121203,68.6487185 C24.5800251,68.3438094 24.8038981,68.1301124 25.2412314,68.3021124" id="Fill-5024" fill="#231F20"></path>
                    <path d="M11.7164378,68.7972639 C11.2621838,69.40187 10.5020568,69.70287 9.80700922,70.0729306 C9.71980287,69.271567 11.1216124,69.2793852 11.4613267,68.6330821 C11.6487553,68.586173 11.5810727,68.7920518 11.7164378,68.7972639" id="Fill-5025" fill="#231F20"></path>
                    <path d="M29.5937394,68.8376579 C28.9065013,69.27287 28.3533267,70.4260518 27.4357076,70.1172336 C28.0617711,69.618173 28.6344695,68.2460821 29.5937394,68.8376579" id="Fill-5026" fill="#231F20"></path>
                    <path d="M26.0820568,68.7112639 C26.5245965,68.9132336 25.8894219,69.0787185 25.9232632,69.3797185 C25.7722791,69.3953548 25.7449457,69.2793852 25.5874537,69.3028397 C25.6356124,68.9888094 25.9531997,68.9419003 26.0820568,68.7112639" id="Fill-5027" fill="#231F20"></path>
                    <path d="M11.9702473,69.2963245 C13.791168,71.5492639 15.9335807,73.4712336 18.2243743,75.2420518 C17.7779299,75.6342639 17.370533,76.0629609 16.8147553,76.3457185 C14.484914,74.9879609 12.248787,73.5272639 10.8261521,71.2326276 C11.4261838,70.8547488 11.9611362,70.4143245 12.3112632,69.7940821 C11.5094854,69.5790821 10.8378664,70.9472639 10.236533,70.6553852 C10.5671362,69.962173 11.5641521,69.9139609 11.9702473,69.2963245" id="Fill-5028" fill="#231F20"></path>
                    <path d="M31.0176759,69.2376882 C30.3252314,69.7172033 29.7043743,70.6189003 28.7763426,70.6032639 C29.4401521,70.0794458 29.9738029,68.8806579 31.0176759,69.2376882" id="Fill-5029" fill="#231F20"></path>
                    <path d="M32.9427235,69.7172033 C32.6837076,70.0155973 32.4988822,70.3869609 31.9483108,70.3986882 C32.0003743,70.7140215 31.4836441,70.99287 31.2090092,71.2417488 C30.7274219,71.2534761 30.4957394,71.0124155 30.0349775,71.0059003 C30.7885965,70.2918397 31.5513267,69.0878397 32.9427235,69.7172033" id="Fill-5030" fill="#231F20"></path>
                    <path d="M36.208406,70.4299609 C35.3766918,70.6345367 34.1792314,70.4807791 33.203041,70.5485367 C33.6742156,69.4175064 35.082533,70.5016276 36.208406,70.4299609" id="Fill-5031" fill="#231F20"></path>
                    <path d="M47.6701838,71.8007488 C43.1393584,73.7070821 36.8305648,72.0874155 32.0446283,71.4828094 C32.1669775,71.2143852 32.6420568,70.8612639 32.7904378,70.8899306 C37.8366918,71.1023245 42.3128505,71.9036882 47.6701838,71.8007488" id="Fill-5032" fill="#231F20"></path>
                    <path d="M25.8646918,71.6417791 C25.9375807,71.9558094 25.2906918,72.5291427 24.8806918,72.9917185 C24.4928187,73.4230215 24.0450727,74.2309003 23.4710727,73.8425973 C23.7092632,73.3813245 24.2155807,72.9382942 24.6229775,72.4926579 C24.9652949,72.1186882 25.3388505,71.3616276 25.8646918,71.6417791" id="Fill-5033" fill="#231F20"></path>
                    <path d="M27.2899299,72.0405064 C26.680787,72.9330821 25.860787,73.6210821 25.2321203,74.4928094 C24.9939299,74.3937791 24.7479299,74.3064761 24.4758981,74.2491427 C24.9705013,73.3018397 25.8256441,72.7024458 26.4530092,71.8854458 C26.8395807,71.8281124 26.9358981,72.0652639 27.2899299,72.0405064" id="Fill-5034" fill="#231F20"></path>
                    <path d="M28.3012632,72.6177488 C27.4396124,73.3604761 26.9853584,74.6973852 25.5666283,74.6569912 C26.1458346,73.7357488 27.0595489,73.1402639 27.7116441,72.2880821 C27.9407235,72.3623548 28.0708822,72.539567 28.3012632,72.6177488" id="Fill-5035" fill="#231F20"></path>
                    <path d="M29.3073902,73.1063852 C28.8700568,73.8048094 28.2439934,74.3234155 27.7428822,74.9592942 C27.3576124,75.0205367 27.2586918,74.7833852 26.9072632,74.8068397 C27.6908187,74.2634761 28.1645965,72.5187185 29.3073902,73.1063852" id="Fill-5036" fill="#231F20"></path>
                    <path d="M20.8757076,73.4569003 C22.0419299,74.0067791 23.1612949,74.6100821 24.5670092,74.9162942 C24.6060568,75.0479003 24.832533,74.9879609 24.7375172,75.251173 C25.718914,75.3397791 26.725041,75.5104761 27.7506918,75.7163548 C30.1872632,76.197173 32.7227553,76.8682336 35.4534854,76.9607488 C32.8060568,76.8721427 30.3955172,77.3594761 27.3498029,77.1444761 C26.7914219,77.1027791 26.2460568,76.8643245 25.681168,77.2461124 C24.1557076,76.7262033 22.3074537,76.4239003 21.1529457,75.6251427 C20.9655172,75.4987488 20.9290727,75.0909003 20.5646283,75.2159912 C20.9381838,74.9149912 21.0982791,74.0771427 20.8757076,73.4569003" id="Fill-5037" fill="#231F20"></path>
                    <path d="M30.228914,73.4282336 C29.8996124,74.1813852 29.1915489,74.560567 28.8323108,75.2837488 C28.5173267,75.3528094 28.4314219,75.1873245 28.1632949,75.2094761 C28.8088822,74.606173 29.178533,73.3695973 30.228914,73.4282336" id="Fill-5038" fill="#231F20"></path>
                    <path d="M61.552914,73.2223548 C61.9134537,73.5859003 61.8002156,74.4354761 62.5707553,74.3820518 C61.1884695,75.2381427 59.5146283,75.8036579 58.0841838,76.6089306 C57.9527235,76.4903548 57.7561838,76.4369306 57.5804695,76.366567 C57.1587553,76.36787 57.1522473,76.7757185 56.8359616,76.8747488 C56.4285648,76.5320518 55.4771045,76.7431427 54.910914,76.5633245 C56.5821521,75.8010518 58.2299616,75.0166276 59.6395807,73.9989609 C60.486914,74.1879003 60.9671997,73.5415973 61.552914,73.2223548" id="Fill-5039" fill="#231F20"></path>
                    <path d="M31.3209457,73.918173 C30.7599616,74.4954155 30.6037711,75.4752942 29.4180251,75.4440215 C29.7212949,74.9827488 30.4710092,73.3370215 31.3209457,73.918173" id="Fill-5040" fill="#231F20"></path>
                    <path d="M19.3151045,75.7306882 C18.8452314,76.1320215 18.1658029,77.0024458 17.4863743,76.6714761 C17.8807553,76.1619912 18.5172314,75.33587 19.3151045,75.7306882" id="Fill-5041" fill="#231F20"></path>
                    <path d="M20.0726283,76.0577488 C19.531168,76.3939306 18.9962156,77.1470821 18.3298029,77.0819306 C18.7684378,76.6389003 19.4478664,76.0551427 20.0726283,76.0577488" id="Fill-5042" fill="#231F20"></path>
                    <path d="M21.0800568,76.4655973 C20.3967235,76.7600821 19.8786918,77.8194458 19.0860251,77.4936882 C19.568914,77.0102639 20.2197076,76.3092336 21.0800568,76.4655973" id="Fill-5043" fill="#231F20"></path>
                    <path d="M21.8336759,76.7079609 C21.2505648,77.0923548 20.679168,78.1191427 19.9242473,77.8168397 C20.5112632,77.39987 20.9811362,76.8643245 21.8336759,76.7079609" id="Fill-5044" fill="#231F20"></path>
                    <path d="M22.8385013,77.0272033 C22.2710092,77.4884761 21.678787,78.1934155 20.8470727,78.1373852 C21.366406,77.6292033 21.9182791,77.1470821 22.8385013,77.0272033" id="Fill-5045" fill="#231F20"></path>
                    <path d="M23.8446283,77.4363548 C23.1417711,77.6826276 22.7434854,78.2285973 21.9365013,78.3771427 C22.3842473,77.9262942 23.0467553,77.27087 23.8446283,77.4363548" id="Fill-5046" fill="#231F20"></path>
                    <path d="M24.5995489,77.6761124 C24.0216441,77.9640821 23.662406,78.4670518 22.8567235,78.5322033 C23.3278981,78.1855973 24.03466,77.659173 24.5995489,77.6761124" id="Fill-5047" fill="#231F20"></path>
                    <path d="M44.7285965,77.4376579 C44.2027553,77.7204155 43.6625965,77.9914458 42.8998664,78.04487 C43.4413267,77.7777488 43.9020886,77.4272336 44.7285965,77.4376579" id="Fill-5048" fill="#231F20"></path>
                    <path d="M47.40466,77.8259609 C47.5972949,77.6891427 48.1973267,77.4962942 48.7400886,77.5562336 C49.186533,77.6083548 48.1947235,77.7803548 47.40466,77.8259609" id="Fill-5049" fill="#231F20"></path>
                    <path d="M25.1045648,77.9210821 C24.7687553,78.3093852 24.258533,78.5269912 23.6936441,78.6924761 C24.0632949,78.3341427 24.5943426,78.1386882 25.1045648,77.9210821" id="Fill-5050" fill="#231F20"></path>
                    <path d="M57.8551045,78.3693245 C58.0620568,78.6377488 58.1935172,78.9804458 58.2013267,79.4534458 C50.1679299,79.4417185 40.4502791,80.6196579 32.2242473,79.677567 C35.2113902,79.5290215 38.5942156,78.9152942 41.5774537,79.3140215 C46.5221838,78.5947488 53.1199299,78.7563245 57.8551045,78.3693245" id="Fill-5051" fill="#231F20"></path>
                    <path d="M27.1220251,78.8996579 C27.1259299,79.1576579 26.5467235,79.2710215 26.3710092,79.075567 C26.3358664,78.7380821 26.8916441,78.9765367 27.1220251,78.8996579" id="Fill-5052" fill="#231F20"></path>
                    <path d="M27.3953584,80.8203245 C28.0734854,81.0001427 28.6995489,81.2320821 29.4870092,81.2985367 C29.5078346,81.44187 29.5611997,82.2223852 29.4193267,82.4686579 C28.9572632,81.698567 27.4773584,81.9735064 27.3953584,80.8203245" id="Fill-5053" fill="#231F20"></path>
                    <path d="M57.7197394,80.9623548 C56.9088505,81.7115973 55.4575807,81.8366882 54.2236759,82.1754761 C54.3186918,81.7702336 54.3278029,81.2842033 54.5425648,81.0014458 C55.5239616,80.9753852 57.0546283,80.7629912 57.7197394,80.9623548" id="Fill-5054" fill="#231F20"></path>
                    <path d="M31.0801521,81.5304761 C31.1894854,81.5252639 31.3001203,81.5252639 31.4120568,81.5239609 C31.2584695,81.7897791 31.3612949,82.3044761 31.1738664,82.5312033 C30.7677711,82.4373852 31.1361203,81.8210518 31.0801521,81.5304761" id="Fill-5055" fill="#231F20"></path>
                    <path d="M32.4155807,81.5135367 C32.3270727,81.8992336 32.3205648,82.3565973 32.1760886,82.687567 C31.9196759,82.6002639 31.944406,81.4340518 32.4155807,81.5135367" id="Fill-5056" fill="#231F20"></path>
                    <path d="M33.5831045,81.4992033 C33.4815807,81.9800215 33.54666,82.6224155 33.1822156,82.8452336 C32.7813267,82.6849609 33.2511997,82.0621124 33.0819934,81.5904155 C33.1822156,81.4913852 33.3774537,81.4913852 33.5831045,81.4992033" id="Fill-5057" fill="#231F20"></path>
                    <path d="M34.2521203,81.5760821 C34.44866,81.5760821 34.6412949,81.572173 34.8378346,81.57087 C34.6308822,82.0842639 34.8690727,83.034173 34.1024378,82.9976882 C34.1505965,82.5233852 34.2768505,82.1233548 34.2521203,81.5760821" id="Fill-5058" fill="#231F20"></path>
                    <path d="M35.4222473,81.6438397 C35.6734537,81.6399306 35.92466,81.6373245 36.1745648,81.6347185 C36.0782473,82.1207488 35.9259616,82.5520518 35.8595807,83.0589306 C35.6617394,83.0641427 35.4691045,83.0667488 35.2725648,83.0667488 C35.2205013,82.4934155 35.4756124,82.2223852 35.4222473,81.6438397" id="Fill-5059" fill="#231F20"></path>
                    <path d="M36.6769775,81.6295064 C37.1624695,81.6672942 37.6128187,81.744173 38.1816124,81.6946579 C37.8614219,82.1572336 37.5906918,82.6628094 37.2783108,83.1292942 C36.9945648,83.1071427 36.6001838,83.2009609 36.4439934,83.0524155 C36.5377076,82.5989609 36.5311997,82.0386579 36.6769775,81.6295064" id="Fill-5060" fill="#231F20"></path>
                    <path d="M48.5357394,81.4900821 C48.7791362,81.9500518 48.4472314,82.4842942 48.55266,83.0784761 C48.3313902,83.0810821 48.1088187,83.0836882 47.8888505,83.0862942 C47.8836441,82.5872336 47.8758346,82.0829609 47.8693267,81.5799912 C48.1778029,81.6360215 48.2272632,81.4314458 48.5357394,81.4900821" id="Fill-5061" fill="#231F20"></path>
                    <path d="M49.2060568,81.4822639 C49.3453267,81.4783548 49.4832949,81.4783548 49.6238664,81.4770518 C49.6173584,82.0777488 49.6902473,82.7579306 49.3921838,83.0667488 C48.9236124,82.9950821 49.1435807,81.8223548 49.2060568,81.4822639" id="Fill-5062" fill="#231F20"></path>
                    <path d="M50.2069775,81.4718397 C50.3176124,81.4718397 50.4295489,81.4666276 50.5401838,81.4653245 C50.341041,81.7936882 50.6052632,82.5768094 50.3918029,82.8843245 C50.0169457,82.7344761 50.3085013,81.9018397 50.2069775,81.4718397" id="Fill-5063" fill="#231F20"></path>
                    <path d="M39.4324378,81.6803245 C38.9846918,82.1793852 38.9990092,83.1319003 38.0293267,83.1214761 C38.3638346,82.5116579 38.3976759,81.6060518 39.4324378,81.6803245" id="Fill-5064" fill="#231F20"></path>
                    <path d="M41.1882791,81.6594761 C41.4720251,82.0621124 40.5778346,82.7045064 40.3708822,83.1722942 C40.3487553,82.7123245 41.0359934,82.2328094 41.1882791,81.6594761" id="Fill-5065" fill="#231F20"></path>
                    <path d="M42.3558029,81.6451427 C41.9874537,82.1924155 41.8195489,82.9377488 41.2038981,83.249173 C41.5462156,82.6732336 41.7180251,81.9279003 42.3558029,81.6451427" id="Fill-5066" fill="#231F20"></path>
                    <path d="M47.366914,81.5865064 C47.3734219,82.0894761 47.3812314,82.5911427 47.3851362,83.0928094 C45.8206283,83.2973852 43.9125013,83.1696882 42.2074219,83.2374458 C42.4807553,82.6510821 42.7723108,82.0816579 43.1901203,81.6347185 C44.5815172,81.6203852 45.9742156,81.6034458 47.366914,81.5865064" id="Fill-5067" fill="#231F20"></path>
                    <path d="M58.9536441,1.83844576 C59.0655807,2.70365788 57.9345013,3.95326394 57.4854537,4.86799121 C57.7028187,4.24905182 58.4538346,2.72971848 58.9536441,1.83844576" id="Fill-5068" fill="#231F20"></path>
                    <path d="M19.3033902,4.14871848 C19.1198664,4.40802151 18.8972949,4.63344576 18.6434854,4.82629424 C18.6044378,4.9748397 18.8582473,4.06923364 19.3033902,4.14871848" id="Fill-5069" fill="#231F20"></path>
                    <path d="M62.5343108,7.98353667 C62.7620886,8.13208212 62.0397076,8.83311242 62.208914,8.65850636 C62.2427553,8.36402151 62.41066,8.19593061 62.5343108,7.98353667" id="Fill-5070" fill="#231F20"></path>
                    <path d="M63.8723426,8.05129424 C63.5196124,8.75493061 63.0393267,9.33217303 62.7282473,10.0735973 C62.8518981,9.47550636 63.2202473,8.40702151 63.8723426,8.05129424" id="Fill-5071" fill="#231F20"></path>
                    <path d="M64.5400568,8.04347606 C64.6611045,8.41744576 64.1951362,8.76796091 63.96866,9.13802151 C63.2631997,10.2807791 62.5850727,11.7284458 61.925168,12.9272336 C62.5564378,11.393567 63.4454219,9.40123364 64.5400568,8.04347606" id="Fill-5072" fill="#231F20"></path>
                    <path d="M66.6642473,11.0300215 C65.5565965,12.8438397 64.3682473,14.5716579 63.3868505,16.5014458 C64.2068505,14.0009306 65.8078029,11.5421124 66.8894219,9.01944576 C67.6131045,10.0214761 67.0937711,10.9570518 66.5041521,11.7023852 C66.3401521,11.5864155 66.6733584,11.26587 66.6642473,11.0300215" id="Fill-5073" fill="#231F20"></path>
                    <path d="M10.3380568,51.2532639 C11.1580568,50.7033852 11.9507235,50.1300518 12.2318664,49.0589609 C11.4118664,49.6036276 10.6673584,50.225173 10.3380568,51.2532639 Z M11.8804378,47.5539609 C11.4365965,48.5286276 10.0256759,48.9899003 10.0738346,50.1678397 C10.9498029,49.4524761 11.8518029,48.7670821 12.2149457,47.5513548 C12.1056124,47.5513548 11.9936759,47.5526579 11.8804378,47.5539609 Z M10.138914,48.4960518 C11.2452632,48.0608397 11.8856441,47.1747791 12.3646283,46.1271427 C11.5459299,46.4581124 10.4213584,47.6386579 10.138914,48.4960518 Z M9.87599335,47.4927185 C10.921168,46.8894155 11.8518029,46.1753548 12.2683108,44.9557185 C12.3555172,44.9518094 12.3346918,44.850173 12.182406,44.8762336 C11.4574219,45.793567 10.2404378,46.2300821 9.87599335,47.4927185 Z M11.9155807,43.4572336 C11.3975489,44.2742336 10.3315489,44.5543852 10.1050727,45.6515367 C11.0500251,45.2006882 11.6982156,44.4553548 12.166787,43.5367185 C12.0600568,43.5341124 12.0522473,43.42987 11.9155807,43.4572336 Z M12.807168,33.9138397 C11.2960251,35.6273245 11.6865013,39.3748397 11.6513584,42.2910215 C11.0239934,42.9972639 10.0660251,43.3829609 9.75494573,44.4019306 C10.7090092,44.2820518 11.182787,42.9894458 11.9884695,42.4525973 C12.3438029,39.6706276 12.740787,36.5459609 12.9724695,33.9112336 C12.9178029,33.9112336 12.8618346,33.9112336 12.807168,33.9138397 Z M13.5803108,21.7813245 C13.7885648,21.9885064 14.1204695,22.0719003 14.5864378,22.017173 C14.7972949,21.7487488 15.0315807,21.2757488 14.8220251,20.8418397 C14.1608187,20.6255367 13.4449457,20.9499912 13.5803108,21.7813245 Z M10.5345965,18.6371124 C10.4773267,19.0084761 10.653041,19.1374761 10.6296124,19.4723548 C10.9875489,19.2938397 11.1424378,19.4267488 11.4613267,19.2091427 C11.8023426,18.5380821 10.8899299,18.0768094 10.5345965,18.6371124 Z M14.8740886,17.9999306 C14.2493267,18.2931124 13.5685965,18.5980215 12.96466,18.9433245 C12.3711362,19.2808094 11.6071045,19.6052639 11.3923426,20.297173 C12.4544378,19.7108094 14.1517076,19.0345367 15.1239934,18.0807185 C15.0159616,18.0781124 15.0081521,17.972567 14.8740886,17.9999306 Z M13.6154537,17.5959912 C13.0505648,17.8787488 12.2409775,18.1419609 12.040533,18.7856579 C13.3642473,18.2605367 14.7009775,17.7497488 15.610787,16.8219912 C14.9378664,17.0122336 14.2285013,17.2897791 13.6154537,17.5959912 Z M15.2619616,15.8212639 C14.1022473,16.6109003 12.4153902,16.8923548 11.6175172,18.0377185 C13.0141203,17.4226882 14.3521521,16.7490215 15.5157711,15.8994458 C15.409041,15.8955367 15.3986283,15.7939003 15.2619616,15.8212639 Z M12.0978029,16.5288094 C13.0128187,16.0766579 14.8428505,15.5489306 15.2515489,14.8179306 C15.320533,14.6954458 15.3712949,14.6706882 15.1656441,14.5690518 C14.1686283,15.2440215 12.9256124,15.6831427 12.0978029,16.5288094 Z M12.4192949,15.35087 C13.8302156,14.9938397 15.4064378,14.0895367 16.4854537,13.1292033 C15.0419934,13.457567 13.545168,14.4387488 12.4192949,15.35087 Z M16.4490092,10.0358094 C16.5166918,10.3524458 15.8737076,10.9909306 15.5483108,11.4704458 C15.1760568,12.0112033 14.8194219,12.5610821 14.5630092,13.0679609 C13.9018029,13.3872033 13.1651045,13.629567 12.7394854,14.1768397 C13.3108822,14.5625367 14.1230727,13.5109912 14.6515172,13.5709306 C15.0615172,13.3624458 15.2307235,12.9220215 15.730533,12.8034458 C15.6277076,12.68487 15.3322473,12.6979003 15.5600251,12.4724761 C16.3422791,11.694567 16.5362156,10.3407185 17.7844378,10.0214761 C17.7922473,11.3323245 17.3835489,13.242567 17.5813902,13.9527185 C16.6754854,17.9478094 15.2489457,21.6145367 14.1256759,25.4506579 C13.5946283,27.263173 13.4202156,29.2776579 12.6861203,30.9038397 C13.3629457,30.6810215 13.3603426,29.8014761 13.5868187,29.2203245 C14.790787,26.0969609 16.0103743,22.487567 16.9709457,18.8951124 C17.3614219,17.4435367 17.9523426,15.7157185 17.9211045,14.4530821 C17.906787,13.88887 17.5462473,13.7859306 17.824787,13.3650518 C17.8560251,12.941567 17.9419299,13.5357488 18.0772949,13.5318397 C18.7150727,12.858173 18.3350092,11.1929003 18.62266,10.1778397 C19.0001203,10.3472336 18.7319934,10.8710518 18.7150727,11.095173 C18.5341521,14.0400215 18.1840251,16.5379306 17.4733584,19.0566882 C15.9400886,24.5059609 14.2948822,29.8809609 13.6701203,36.2449609 C13.2405965,40.6009912 12.4895807,45.2697488 12.9165013,50.3854458 C13.1716124,53.4202033 14.1295807,56.3507185 15.1916759,59.1405064 C16.1808822,61.7348397 17.0568505,64.6054155 18.70466,66.5404155 C19.5324695,67.50987 20.6713584,68.3829003 21.6592632,69.1803548 C22.6953267,70.0195064 23.7860568,70.7518094 25.0277711,71.3160215 C24.1999616,71.9688397 23.6598029,72.8965973 22.8814537,73.5976276 C22.0276124,73.1949912 21.2076124,73.0177791 20.4461838,72.4587791 C19.941168,72.0848094 19.6300886,71.424173 19.0938346,71.1362033 C18.8790727,71.0202336 18.5497711,71.0202336 18.3402156,70.8925367 C16.8616124,69.9895367 15.3817076,67.8747185 14.2753584,66.1729609 C12.9893902,64.2040821 12.1798029,62.3629003 11.5290092,60.1034458 C9.75104097,53.9309912 8.40910446,47.6412639 8.53145367,39.7344761 C8.21256478,40.1397185 8.25031081,40.8902639 8.13316795,41.49487 C7.99129494,41.6877185 7.61513621,41.3554458 7.29754891,41.4219003 C6.71834256,41.539173 6.57646954,42.1151124 6.39424732,42.6011427 C6.66627907,39.0699306 7.95485049,35.8110518 8.52754891,32.29287 C8.9284378,32.4765973 9.25123145,32.1286882 9.69377113,32.1104458 C9.7991997,34.0858397 8.8971997,35.0774458 8.83081875,36.8873548 C9.90983462,35.1895064 10.1402156,32.7606579 10.7597711,30.4243245 C11.4300886,27.9016579 12.5455489,25.0037185 11.8309775,22.1357488 C11.4808505,22.1292336 11.3650092,22.2921124 11.07866,22.143567 C8.76704097,26.0930518 7.70494573,31.8667791 6.41116795,37.0828094 C5.83326319,39.4178397 5.33085049,41.4453548 5.24104097,44.1217791 C5.15513621,46.6457488 5.43627907,49.3117488 5.58466002,51.8917488 C5.84627907,56.4758094 6.87192986,59.7542336 8.63948541,62.9805367 C8.42992986,63.3479912 8.73840605,63.5082639 8.81650129,63.8157791 C8.09412034,64.1285064 7.43812034,64.5063852 6.74046954,64.84387 C5.05621557,60.2389609 3.27694573,55.0125064 3.46307272,49.1632033 C3.58281875,45.3752942 4.07872351,41.5509003 4.58504097,38.1082942 C5.04189811,35.003173 5.33605684,32.2016579 6.23545367,29.2242336 C7.58129494,24.7509306 9.18745367,20.0873852 10.7558664,15.9593852 C10.58666,14.4426579 11.5029775,12.855567 11.7008187,11.17987 C12.9698664,10.7720215 14.4159299,10.5296579 15.6966918,10.1296276 C15.1981838,11.1564155 14.3547553,12.5623852 13.3134854,13.3337791 C14.9938346,13.1839306 15.2879934,10.9687791 16.4490092,10.0358094 L16.4490092,10.0358094 Z" id="Fill-5074" fill="#231F20"></path>
                    <path d="M58.9614537,9.61623364 C59.3050727,9.49244576 59.5302473,10.2169306 59.6408822,10.6117488 C59.2399934,10.4579912 59.1879299,9.94980939 58.9614537,9.61623364" id="Fill-5075" fill="#231F20"></path>
                    <path d="M67.583168,10.9375064 C67.3215489,11.7128094 66.9844378,11.3844458 67.583168,10.9375064" id="Fill-5076" fill="#231F20"></path>
                    <path d="M21.4028505,12.2353245 C21.3963426,12.2092639 21.41066,12.1779912 21.4028505,12.1532336 C21.5134854,12.5337185 20.8926283,15.13587 20.6114854,16.0089003 C20.054406,17.7445367 19.3059934,19.8932336 19.0912314,21.4633852 C19.2747553,19.6013548 20.054406,16.9718397 20.597168,14.6693852 C20.8132314,13.75987 20.9733267,12.6705367 21.4028505,12.2353245" id="Fill-5077" fill="#231F20"></path>
                    <path d="M68.4500251,13.6842942 C66.9323743,15.0094761 65.9353584,17.5647185 64.6754219,19.4150215 C64.2940568,18.7765367 65.0294537,18.2188397 65.3236124,17.7354155 C66.2542473,16.212173 67.2434537,14.4179003 68.3602156,13.0171427 C68.4174854,13.3819912 68.5567553,13.6595367 68.7038346,13.93187 C68.4955807,14.1989912 68.1402473,14.317567 68.0452314,14.6915367 C67.9398029,14.4530821 68.4383108,14.0895367 68.4500251,13.6842942" id="Fill-5078" fill="#231F20"></path>
                    <path d="M69.2570092,32.5756276 C70.4297394,36.3452942 70.7173902,41.5600215 70.5937394,46.5219609 C70.5468822,48.2523852 70.6536124,49.9958397 70.4831045,51.5399306 C70.4323426,52.0168397 69.9025965,52.7934458 70.3360251,53.0514458 C71.743041,49.1423548 71.9083426,42.6884458 71.2458346,38.2385973 C71.1391045,37.5128094 71.1456124,36.6932033 70.9738029,36.1498397 C70.8722791,35.8475367 70.6262791,35.6077791 70.5429775,35.3185064 C70.2149775,34.1744458 70.20066,33.0642639 69.5043108,32.3228397 C69.4223108,32.3241427 69.3390092,32.3254458 69.254406,32.3254458 C69.254406,32.4062336 69.254406,32.4909306 69.2570092,32.5756276 Z M66.2477394,18.1432639 C67.3436759,17.4774155 67.9684378,15.6427488 68.7936441,14.4348397 C69.5277394,15.2922336 68.4265965,16.0323548 67.9840568,16.6995064 C67.4712314,17.4761124 66.927168,18.2357791 66.6759616,19.0579912 C67.2903108,18.9159609 67.6560568,18.0116579 68.075168,17.3679609 C68.5046918,16.7086276 68.7962473,15.8629609 69.3923743,15.6779306 C69.7021521,16.5926579 68.8079616,17.2493852 68.3315807,17.9504155 C67.8486918,18.66187 67.2694854,19.4515064 67.2746918,20.3049912 C68.4396124,19.4853852 68.8209775,17.4656882 69.9078029,16.8454458 C70.0418664,17.6468094 69.3129775,18.1276276 68.926406,18.6983548 C68.5190092,19.2977488 68.1532632,19.9544761 67.8630092,20.6320518 C67.702914,21.1076579 68.3094537,20.7962336 68.2873267,21.1285064 C68.2131362,23.0205064 69.0175172,24.7835064 69.6032314,26.4657185 C70.5846283,29.284173 71.3668822,31.9514761 72.1257076,34.9666882 C72.4992632,36.4521427 73.0290092,37.9792942 73.0979934,39.4699609 C73.1318346,40.1775064 72.950914,40.8563852 73.0394219,41.5600215 C73.137041,42.3353245 73.3882473,43.4220518 73.3283743,44.6521124 C73.0901838,49.365173 72.6033902,54.3727185 70.8137076,58.3117791 C69.529041,61.1484761 68.1324378,63.7428094 66.4807235,66.2237791 C65.9288505,67.0590215 65.5019299,68.0193548 64.9240251,68.6669609 C64.2081521,69.4722336 62.9560251,70.1511124 61.8613902,71.0475973 C60.8005965,71.9154155 59.7996759,73.012567 58.7167553,73.5077185 C57.2433584,74.1839912 55.4003108,74.5579609 53.7238664,75.0726579 C52.0096759,75.5977791 50.2382156,76.0916276 48.3899616,76.2232336 C47.9135807,76.2141124 48.4016759,76.5033852 48.2272632,76.5581124 C41.8872314,76.8239306 36.0821521,76.541173 30.9239616,75.595173 C30.7300251,75.2798397 31.5331045,74.5462336 31.7400568,74.0771427 C36.0470092,74.6739306 40.769168,75.4583548 45.950787,74.9136882 C46.9816441,74.8068397 48.0971045,74.434173 49.1188505,74.2061427 C52.4079616,73.485567 54.3785648,72.1838397 56.9270727,70.6853548 C57.7171362,70.2266882 58.5397394,69.8344761 59.3350092,69.3197791 C60.0651997,68.8519912 60.6626283,68.196567 61.4032314,67.6232336 C62.7946283,66.5417185 64.4424378,65.4080821 65.2845648,63.982567 C65.6255807,63.4066276 65.8403426,62.5948397 66.1787553,61.87687 C68.2066283,57.621173 70.0522791,51.3184155 70.2475172,45.5238397 C70.2995807,43.9419609 70.1993584,42.6180821 70.1082473,41.0062336 C69.7242791,34.1066882 67.0117711,29.3349912 64.8120886,24.0121124 C64.4476441,23.13387 64.1404695,22.2569306 63.7799299,21.3500215 C63.461041,20.5486579 62.9052632,19.7108094 62.9950727,18.7674155 C63.2553902,19.179173 63.5157076,19.5883245 63.514406,20.2645973 C63.618533,20.3844761 63.8502156,20.3740518 63.8528187,20.59687 C65.466787,24.2466579 66.9948505,27.9837488 68.910787,31.3234155 C69.0865013,29.8092942 68.3263743,28.4632639 67.8551997,27.1550215 C67.6091997,26.4657185 67.434787,25.7269003 67.1653584,25.0727791 C66.8959299,24.4277791 66.3765965,23.9365367 66.1410092,23.3306276 C66.0342791,23.04787 66.1279934,22.7794458 66.0485965,22.4953852 C65.7960886,21.5884761 65.0698029,20.8731124 64.848533,20.0000821 C65.4056124,19.0579912 65.9600886,18.1093852 66.5692314,17.2181124 C66.6954854,16.8675973 66.4052314,17.9764761 66.2477394,18.1432639 L66.2477394,18.1432639 Z" id="Fill-5079" fill="#231F20"></path>
                    <path d="M9.58053303,15.3873548 C9.73542192,15.2922336 9.48681875,15.8929306 9.4204378,16.1418094 C9.15751716,17.1438397 8.83992986,18.4546882 8.20215208,19.0840518 C8.45596161,17.9803852 9.14189811,16.5835367 9.58053303,15.3873548" id="Fill-5080" fill="#231F20"></path>
                    <path d="M8.21256478,19.9205973 C8.17481875,21.1493548 7.0931997,22.0745064 6.49446954,23.0361427 C6.59339018,21.8595064 7.58129494,20.8457488 8.21256478,19.9205973" id="Fill-5081" fill="#231F20"></path>
                    <path d="M15.544406,39.5663852 C15.4519934,40.0276579 15.4064378,39.2093548 15.0419934,39.4022033 C14.5148505,40.1957488 15.7786918,40.3234458 15.484533,41.410173 C15.0198664,41.3697791 14.9014219,40.9892942 14.6398029,40.7495367 C15.3621838,34.2630518 16.5036759,28.1896276 18.6109457,23.0556882 C18.8400251,22.9032336 18.5224378,23.4192336 18.4482473,23.7280518 C17.3145648,28.5766276 15.9036441,33.8890821 15.544406,39.5663852" id="Fill-5082" fill="#231F20"></path>
                    <path d="M72.5734537,23.1703548 C71.9812314,23.4700518 71.9096441,24.2831427 71.6740568,24.9372639 C71.1195807,24.1359003 72.1322156,23.2654761 72.3118346,22.4198094 C72.698406,22.8419912 72.8376759,23.5156579 73.1656759,24.0003852 C72.8571997,24.85387 72.4654219,25.629173 72.2779934,26.6038397 C71.9617076,26.3614761 72.0072632,25.7503548 71.7612632,25.4363245 C72.1790727,24.9177185 72.8142473,23.7879912 72.5734537,23.1703548" id="Fill-5083" fill="#231F20"></path>
                    <path d="M6.918787,23.3671124 C7.00989811,23.820567 6.05453303,24.6610215 5.68618383,25.2148094 C5.83066002,24.6688397 6.53091399,23.9482639 6.918787,23.3671124" id="Fill-5084" fill="#231F20"></path>
                    <path d="M5.38031081,27.561567 C5.39072351,28.2899609 4.48351716,28.8346276 4.14900922,29.5004761 C3.89129494,29.3493245 4.24142192,29.1004458 4.14250129,28.8294155 C4.81021557,28.6561124 4.96900922,27.9889609 5.38031081,27.561567" id="Fill-5085" fill="#231F20"></path>
                    <path d="M4.82062827,29.4913548 C4.87008859,30.0659912 4.14510446,30.5989306 3.66481875,30.9272942 C3.94986637,30.3474458 4.57592986,30.1102942 4.82062827,29.4913548" id="Fill-5086" fill="#231F20"></path>
                    <path d="M2.70424732,41.4766276 C2.35151716,45.2541124 2.2864378,49.2218397 2.50900922,53.1843548 C2.68732668,56.3937185 3.79107272,59.4623548 4.786787,62.1895973 C5.76427907,64.8555973 6.76780287,67.1189609 8.13056478,69.4253245 C8.13316795,69.4279306 8.42862827,69.6142639 8.13056478,69.5908094 C3.98240605,65.18787 1.84910446,57.6550518 1.54192986,49.0993548 C1.4963743,47.7885064 1.54583462,46.2392033 1.65907272,44.8319306 C1.75148541,43.6735367 1.5276124,42.0199912 2.70424732,41.4766276" id="Fill-5087" fill="#231F20"></path>
                    <path d="M78.460533,54.8756882 C78.5985013,55.3995064 77.9672314,55.8829306 77.6431362,56.2243245 C77.5038664,55.7057185 78.2158346,55.3004761 78.460533,54.8756882" id="Fill-5088" fill="#231F20"></path>
                    <path d="M16.0832632,56.6191427 C16.5882791,56.3872033 16.796533,57.1833548 17.0112949,57.5286579 C16.5596441,57.70587 16.2238346,57.0400215 16.0832632,56.6191427" id="Fill-5089" fill="#231F20"></path>
                    <path d="M9.30459653,62.7225367 C10.0686283,62.8593548 10.3979299,61.9381124 10.5385013,61.2005973 C11.0487235,61.8312639 10.876914,63.5291124 11.8179616,63.4457185 C12.6223426,66.8779003 14.9808187,68.7216882 17.0841838,70.822173 C16.6741838,71.0645367 15.4962473,70.7322639 15.677168,71.7629609 C12.5937076,69.7315367 11.0096759,66.1651427 9.30459653,62.7225367" id="Fill-5090" fill="#231F20"></path>
                    <path d="M19.7303108,61.2605367 C20.4240568,61.1002639 20.7117076,61.9524458 21.1633584,62.4971124 C22.3634219,63.9330518 24.2624378,65.2543245 25.5536124,66.4583245 C25.3414537,66.7489003 25.0954537,67.0016882 24.8117076,67.2205973 C22.536533,65.8289609 21.0475172,63.6333548 19.7303108,61.2605367" id="Fill-5091" fill="#231F20"></path>
                    <path d="M76.2998981,62.8463245 C75.0282473,66.5886276 73.4832632,70.0651124 70.7291045,72.3623548 C71.3838029,71.2443548 72.2272314,70.08987 72.9418029,68.6578397 C73.9010727,66.7436882 74.3045648,64.8217185 75.5566918,63.4405064 C75.8026918,63.165567 76.0512949,62.7029912 76.2998981,62.8463245" id="Fill-5092" fill="#231F20"></path>
                    <path d="M28.1619934,68.1848397 C28.4131997,68.4337185 27.8157711,68.5549003 27.7519934,68.7738094 C27.5958029,68.6148397 28.1138346,68.4154761 28.1619934,68.1848397" id="Fill-5093" fill="#231F20"></path>
                    <path d="M42.1397394,77.4689306 C41.6724695,77.7582033 41.0008505,77.8389912 40.4763108,78.0735367 C40.4385648,77.8689609 41.1960886,77.7308397 41.3887235,77.4767488 C41.6386283,77.4741427 41.888533,77.4715367 42.1397394,77.4689306" id="Fill-5094" fill="#231F20"></path>
                    <path d="M24.8038981,80.6835064 C23.8680568,80.7408397 22.1994219,79.9915973 21.1985013,79.5576882 C21.1698664,79.5602942 21.1412314,79.5550821 21.1138981,79.5589912 C21.4614219,79.5042639 23.4059934,80.1362336 24.1309775,80.4398397 C24.4134219,80.4632942 24.8559616,80.3186579 24.8038981,80.6835064" id="Fill-5095" fill="#231F20"></path>
                    <path d="M40.4333584,81.6685973 C40.2524378,82.0139003 39.9595807,82.2510518 39.77866,82.5989609 C39.785168,82.4113245 40.0142473,81.7311427 40.4333584,81.6685973" id="Fill-5096" fill="#231F20"></path>
                </g>
            </g>
        </g>
    </g>
</svg>