<svg height="41" viewBox="0 0 221 41" width="221" xmlns="http://www.w3.org/2000/svg"><g fill="none" fill-rule="evenodd" transform="translate(1 1)"><g fill="#fff" fill-rule="nonzero"><path d="m107.471468 22.6045394-3.094893-10.5423519-3.147349 10.5595836zm-6.438077 10.4596397h-6.6129292c-.2504496.0259857-.4997561-.0583844-.6811696-.2305208s-.2764038-.4144566-.259538-.6620811v-1.3371796c-.0127281-.2430832.085217-.479095.2671452-.6437217.1819281-.1646267.4288806-.2407126.6735624-.2075241h1.2169748l6.0219274-19.5097267c.311238-1.06491885.90224-1.50949662 1.773006-1.50949662h2.923538c.905737 0 1.461768.44457777 1.773006 1.50949662l6.025424 19.5097267h1.216975c.245959-.0334801.494192.0434759.676405.2096957.182214.1662197.27921.4041912.264303.6484428v1.3371796c.016866.2476245-.078125.4899447-.259538.662081-.181414.1721364-.43072.2565065-.68117.2305209h-7.693519c-.25045.0259856-.499756-.0583845-.68117-.2305209-.181413-.1721363-.276403-.4144565-.259538-.662081v-1.3027162c-.014907-.2442516.08209-.4822231.264303-.6484428.182213-.1662198.430446-.2431758.676405-.2096957h1.98283l-1.321887-4.4216533h-7.973283l-1.3218866 4.4216533h1.9828296c.594499 0 .940708.3101705.940708.8581385v1.3027162c.018128.2479587-.076465.4910384-.258185.663466-.181721.1724275-.431782.256378-.682523.2291359z"/><path d="m138.483344 33.1675693h-2.192653c-1.56668 0-2.098232-.4480241-2.643773-1.919611l-7.203931-18.6894979v17.4246914h2.021297c.247943-.0286589.496442.0489342.682398.2130768.185956.1641425.291482.3990453.289783.6450617v1.3371796c.003907.2495307-.099602.4890194-.284885.6591352-.185282.1701157-.435003.254943-.687296.2334667h-7.378784c-.252294.0214763-.502015-.063351-.687297-.2334667-.185282-.1701158-.288791-.4096045-.284884-.6591352v-1.3371796c-.0017-.2460164.103826-.4809192.289782-.6450617.185957-.1641426.434456-.2417357.682399-.2130768h2.010806v-17.8382522h-2.017801c-.247575.0297394-.496158-.0469998-.682272-.2106216s-.291741-.3982864-.290015-.6440705v-1.33717964c-.003801-.24953069.099709-.48901943.284991-.65913516.185282-.17011572.435003-.25494302.687296-.23346672h6.749315c1.461769 0 1.986327.44457777 2.507388 1.88514762l6.854226 18.5516443v-17.3523183h-2.0178c-.244267.028317-.488897-.0499341-.669726-.2142282-.180828-.164294-.27981-.3982362-.270982-.6404639v-1.33717964c-.012022-.24630551.084488-.48572566.264738-.65675827.180251-.17103261.426674-.25700901.67597-.23584361h7.375287c.25419-.02830651.508264.05407546.695743.22559076.187478.1715153.289706.41509658.279935.66701112v1.33717964c0 .5479679-.384676.8546921-.975678.8546921h-2.0178v19.0685953c0 1.3027163-.765855 1.9540744-2.052771 1.9540744"/><path d="m156.584096 33.4294911c-5.773636 0-9.183264-3.0155469-9.183264-8.4676557v-7.8094048c0-5.4521087 3.409628-8.4676556 9.183264-8.4676556 5.773637 0 8.742636 2.5365057 8.742636 7.7129073v.6892679c.033972.2423916-.044116.4870252-.212782.6665959s-.410139.2751601-.657985.2604693h-2.398979c-.242366.0180217-.480243-.0715272-.648693-.2442014-.16845-.1726743-.249885-.4104433-.222074-.6484004v-.7202849c0-3.1534005-1.11556-4.5250435-4.595129-4.5250435-3.199804 0-4.731514 1.6439038-4.731514 4.9041408v8.5710458c0 3.2567906 1.53171 4.9041408 4.731514 4.9041408 3.497054 0 4.595129-1.3785357 4.595129-4.5250435v-.9615287c-.027811-.2379571.053624-.4757261.222074-.6484003s.406327-.2622232.648693-.2442015h2.398979c.247846-.0146908.489319.0808986.657985.2604693s.246754.4242043.212782.6665959v.9270653c0 5.1695089-2.993479 7.7129073-8.742636 7.7129073"/><path d="m169.453255 9.95302786c-.002905-.24984639.101408-.4892794.287224-.65927363s.435847-.25473368.688455-.23332825h8.315994c.248717-.02011336.494172.06633231.67362.23723891.179448.17090659.275496.40970929.263591.65536297v1.33717964c.00989.2419075-.088264.4759402-.268574.6403745s-.424671.2427593-.668637.2143176h-1.982829v6.9960688h9.046879v-6.9960688h-2.017801c-.243223.0236294-.48511-.0562325-.6648-.2194926-.179691-.1632601-.280079-.3943761-.275907-.6351995v-1.33717964c-.006393-.24469721.091879-.48077348.270804-.65054931.178926-.16977584.422025-.25761371.669903-.24205257h8.347469c.249295-.0211654.495719.064811.675969.23584361s.27676.41045276.264738.65675827v1.33717964c.010042.2425844-.088572.4772667-.269701.6418334-.181128.1645668-.426478.2423972-.671006.2128587h-1.98283v17.8382522h1.98283c.244895-.0284289.490139.0502652.6711.2153431.180962.165078.279486.3999783.269607.6427954v1.3371796c.012022.2463055-.084488.4857257-.264738.6567583s-.426674.257009-.675969.2358436h-8.347469c-.247598.0144915-.490066-.0737011-.668742-.2432403-.178677-.1695392-.277284-.4049806-.271965-.6493616v-1.3371796c-.004059-.2410737.09623-.4724472.275772-.636231.179543-.1637837.421355-.2444832.664935-.2219075h2.017801v-7.7198h-9.046879v7.7198h1.982829c.24433-.0273393.48859.0518456.668735.2167924.180146.1649467.278208.3992026.268476.6413461v1.3371796c.011905.2456537-.084143.4844564-.263591.655363s-.424903.2573522-.67362.2372389h-8.315994c-.252608.0214054-.502639-.063334-.688455-.2333283-.185816-.1699942-.290129-.4094272-.287224-.6592736v-1.3371796c-.000687-.2463264.105642-.4811631.292127-.6451816.186484-.1640186.435287-.2415318.683552-.2129569h1.975835v-17.8382522h-1.98283c-.247897.0296514-.496781-.0470095-.683422-.2105061-.18664-.1634966-.293072-.3980923-.29226-.644186z"/><path d="m88.7902046 30.0003835h-2.0212973l-4.8574082-6.6790056c3.54951-.5824313 5.2455812-2.3641887 5.2455812-5.4521087v-2.8776933c0-3.9426121-2.7976433-5.93114992-8.1446391-5.93114992h-10.5646005c-.2528694-.02251156-.5035451.06185074-.6896245.23208595-.1860793.17023521-.2900587.41033007-.2861652.66051593v1.33717964c-.001851.246464.1042458.4817649.2911719.6455118.186926.1637468.4364817.2399969.6846178.2091803h1.9828297v17.8382522h-1.9828297c-.2485056-.0297294-.497974.0473782-.6847401.2116447-.1867662.1642665-.2927624.3998007-.2910496.6464938v1.3371796c-.0027936.2498464.1015195.4892794.2873354.6592736.185816.1699943.4358467.2547337.6884543.2333283h8.3474682c.2440449.0130841.4822175-.0767483.6550385-.2470629.1728209-.1703147.2639752-.4050333.2506985-.645539v-1.3371796c.0121049-.2371873-.0807003-.467902-.2544208-.6324932-.1737206-.1645911-.4113014-.2468999-.6513162-.2256453h-2.0178002v-17.9037326h4.2559149c2.4724172 0 3.7593332.8891555 3.7593332 2.8432299v3.0534566c0 1.9540744-1.286916 2.8122129-3.7243627 2.8122129h-1.3218865c-.7308843 0-1.1470337.375651-1.1470337 1.0614725v.1378535c.0183084.5279162.2097158 1.0357706.5455404 1.4474625l6.2282535 9.01907c.2349551.3900221.6588469.6315307 1.1190573.6375727h4.2978795c.2522934.0214763.5020142-.063351.6872965-.2334667.1852822-.1701157.2887916-.4096045.2849913-.6591352v-1.3371796c.0017256-.2457841-.1039015-.4804487-.2900153-.6440705s-.4346972-.240361-.6822725-.2106216"/><path d="m218.600854 30.0003835h-2.021297l-4.853911-6.6790056c3.546013-.5824313 5.245581-2.3641887 5.245581-5.4521087v-2.8776933c0-3.9426121-2.797643-5.93114992-8.141142-5.93114992h-10.571595c-.252607-.02140543-.502638.06333402-.688454.23332825s-.290129.40942724-.287283.65927363v1.33717964c-.000757.2460937.105675.4806894.292315.644186.186641.1634966.435525.2401575.683422.2105061h1.98283v17.8382522h-1.98283c-.248264-.0285749-.497067.0489383-.683551.2129569-.186485.1640185-.292814.3988552-.292186.6451816v1.3371796c-.002846.2498464.101467.4892794.287283.6592736.185816.1699943.435847.2547337.688454.2333283h8.350966c.244045.0130841.482217-.0767483.655038-.2470629.172821-.1703147.263975-.4050333.250699-.645539v-1.3371796c.012105-.2371873-.080701-.467902-.254421-.6324932-.173721-.1645911-.411302-.2468999-.651316-.2256453h-2.031789v-17.9037326h4.245424c2.46892 0 3.755836.8891555 3.755836 2.8432299v3.0534566c0 1.9540744-1.286916 2.8122129-3.720866 2.8122129h-1.307898c-.730884 0-1.150531.375651-1.150531 1.0614725v.1378535c.023036.5287673.217972 1.0362252.556032 1.4474625l6.228253 9.01907c.236427.3885522.659406.6295408 1.119058.6375727h4.297879c.25287.0225116.503545-.0618507.689625-.2320859.186079-.1702352.290058-.4103301.286165-.660516v-1.3371796c.001851-.246464-.104246-.4817649-.291172-.6455118-.186926-.1637468-.436482-.2399969-.684618-.2091803"/></g><path d="m50.1652416 38.5025025v-38.46459277" stroke="#fff" stroke-linecap="round" stroke-linejoin="round" stroke-width="1.578234"/><path d="m28.6268852 32.3955893h4.7070349c.2517879 0 .4406288-.3136169.4406288-.782319v-.9408507c0-.4721484-.1888409-.7478556-.4406288-.7478556h-3.5565041l-5.5078603-7.2786686c3.7873097-.2894925 5.875051-2.0264475 5.875051-5.2074186v-2.4434546c0-.0723731 0-.1412999 0-.2102267v-3.3877515c.325226-.4549168.5700198-.8891555.7518666-1.1648627.2897401-.38470049.4805321-.83288621.5560316-1.30616255v.06548045c.5035758-2.26079858-.5910021-3.86679268-3.1718281-4.6491117-.8008254-.16887063-2.6053053-.47559482-2.7976433.36186562v.04135608c-.0630829.1973904-.0328314.41226843.0823981.58527804s.3032415.28583998.5121011.30732383c0 0 .7483696.14474625.9896663.21711938 2.4059733.70649955 1.7485271 2.80876651.5315523 3.7461708h-21.05226595c-1.20998073-.93740429-1.87442102-3.03967125.53155223-3.7461708.24129674-.07237313.98966632-.21711938.98966632-.21711938.20885964-.02148385.39687162-.13431422.51210113-.30732383s.145481-.38788764.08239808-.58527804v-.04135608c-.18884093-.83746044-1.99332086-.53073625-2.79764332-.36186562-2.58082595.78231902-3.67890095 2.38831312-3.1718281 4.6491117v-.06548045c.07549954.47327634.26629158.92146206.55603161 1.30616255.17834976.2722608.41964649.6892679.74137547 1.1510774v3.8978097 2.1574084c0 3.1809711 2.09823249 4.9179261 5.87505096 5.2074186l-5.52534554 7.292454h-3.55650406c-.2517879 0-.44062882.2757071-.44062882.7478556v.9408506c0 .4687022.18884092.782319.44062882.782319h4.70703487c.37728124-.0326485.7074187-.2631594.86377237-.6031093l6.69336163-9.1603699c.2401219-.2793625.3780563-.6301208.3916701-.995992v-.0654805c0-.4480241-.258782-.7064995-.7833402-.7064995h-1.5352067c-2.71021699 0-4.30837074-1.0614725-4.30837074-3.3739662v-2.539952c0-2.2814766 1.59815375-3.3739662 4.34334124-3.3739662l4.4342647.0310171v18.4517005h-2.2521029c-.177586-.0229424-.3565499.0310469-.4906736.148025s-.2102566.2854754-.2087372.4619771v.77198c-.0037827.1797198.0704327.3524902.2040018.474908.133569.1224178.3137977.1828486.495409.1661111h7.4417312c.1816113.0167375.3618399-.0436933.495409-.1661111s.2077845-.2951882.2040018-.474908v-.7823191c.0015194-.1765016-.0746135-.3449989-.2087372-.461977-.1341238-.1169781-.3130876-.1709674-.4906736-.148025h-2.2451088v-18.4413615l4.4342647-.0310171c2.7416904 0 4.3433412 1.0924896 4.3433412 3.3739662v2.539952c0 2.3124937-1.6016508 3.3739662-4.3083707 3.3739662h-1.5352067c-.5245582 0-.7833402.2584754-.7833402.7064995v.0654805c.0136138.3658712.1515482.7166295.3916701.995992l6.6933616 9.1603699c.1850722.3154007.5004698.5356199.8637724.6031093" fill="#fff" fill-rule="nonzero"/><path d="m28.6268852 32.3955893h4.7070349c.2517879 0 .4406288-.3136169.4406288-.782319v-.9408507c0-.4721484-.1888409-.7478556-.4406288-.7478556h-3.5565041l-5.5078603-7.2786686c3.7873097-.2894925 5.875051-2.0264475 5.875051-5.2074186v-2.4434546c0-.0723731 0-.1412999 0-.2102267v-3.3877515c.325226-.4549168.5700198-.8891555.7518666-1.1648627.2897401-.38470049.4805321-.83288621.5560316-1.30616255v.06548045c.5035758-2.26079858-.5910021-3.86679268-3.1718281-4.6491117-.8008254-.16887063-2.6053053-.47559482-2.7976433.36186562v.04135608c-.0630829.1973904-.0328314.41226843.0823981.58527804s.3032415.28583998.5121011.30732383c0 0 .7483696.14474625.9896663.21711938 2.4059733.70649955 1.7485271 2.80876651.5315523 3.7461708h-21.05226595c-1.20998073-.93740429-1.87442102-3.03967125.53155223-3.7461708.24129674-.07237313.98966632-.21711938.98966632-.21711938.20885964-.02148385.39687162-.13431422.51210113-.30732383s.145481-.38788764.08239808-.58527804v-.04135608c-.18884093-.83746044-1.99332086-.53073625-2.79764332-.36186562-2.58082595.78231902-3.67890095 2.38831312-3.1718281 4.6491117v-.06548045c.07549954.47327634.26629158.92146206.55603161 1.30616255.17834976.2722608.41964649.6892679.74137547 1.1510774v3.8978097 2.1574084c0 3.1809711 2.09823249 4.9179261 5.87505096 5.2074186l-5.52534554 7.292454h-3.55650406c-.2517879 0-.44062882.2757071-.44062882.7478556v.9408506c0 .4687022.18884092.782319.44062882.782319h4.70703487c.37728124-.0326485.7074187-.2631594.86377237-.6031093l6.69336163-9.1603699c.2401219-.2793625.3780563-.6301208.3916701-.995992v-.0654805c0-.4480241-.258782-.7064995-.7833402-.7064995h-1.5352067c-2.71021699 0-4.30837074-1.0614725-4.30837074-3.3739662v-2.539952c0-2.2814766 1.59815375-3.3739662 4.34334124-3.3739662l4.4342647.0310171v18.4517005h-2.2521029c-.177586-.0229424-.3565499.0310469-.4906736.148025s-.2102566.2854754-.2087372.4619771v.77198c-.0037827.1797198.0704327.3524902.2040018.474908.133569.1224178.3137977.1828486.495409.1661111h7.4417312c.1816113.0167375.3618399-.0436933.495409-.1661111s.2077845-.2951882.2040018-.474908v-.7823191c.0015194-.1765016-.0746135-.3449989-.2087372-.461977-.1341238-.1169781-.3130876-.1709674-.4906736-.148025h-2.2451088v-18.4413615l4.4342647-.0310171c2.7416904 0 4.3433412 1.0924896 4.3433412 3.3739662v2.539952c0 2.3124937-1.6016508 3.3739662-4.3083707 3.3739662h-1.5352067c-.5245582 0-.7833402.2584754-.7833402.7064995v.0654805c.0136138.3658712.1515482.7166295.3916701.995992l6.6933616 9.1603699c.1865189.3085311.4985899.5231852.8567783.589324z" stroke="#fff" stroke-width=".947637"/></g></svg>