<?xml version="1.0" encoding="UTF-8"?>
<svg width="72px" height="64px" viewBox="0 0 72 64" version="1.1" xmlns="http://www.w3.org/2000/svg" xmlns:xlink="http://www.w3.org/1999/xlink">
    <!-- Generator: Sketch 55.1 (78136) - https://sketchapp.com -->
    <title>Artboard</title>
    <desc>Created with Sketch.</desc>
    <g id="Artboard" stroke="none" stroke-width="1" fill="none" fill-rule="evenodd">
        <g id="sm-logo" transform="translate(24.000000, 24.000000)" opacity="0.037243">
            <g id="Artboard">
                <g id="sm-logo">
                    <g id="ver-2.0-(R2)">
                        <g id="Ranchr-v2.3.2-Copy">
                            <g id="Price">
                                <g id="Group-6">
                                    <g id="Group-19">
                                        <g id="Group-3">
                                            <g id="Group">
                                                <path d="M39.7654852,39.4761493 L46.3832328,39.4761493 C46.7372282,39.4761493 47.0027248,39.0379045 47.0027248,38.3829451 L47.0027248,37.0682105 C47.0027248,36.4084353 46.7372282,36.0231651 46.3832328,36.0231651 L41.3830476,36.0231651 L33.6393978,25.8520316 C38.9640789,25.4474979 41.8992909,23.0202955 41.8992909,18.5752405 L41.8992909,15.1607833 C41.8992909,15.0596498 41.8992909,14.9633323 41.8992909,14.8670147 L41.8992909,10.133007 C42.3565349,9.4973112 42.7006972,8.89051063 42.9563605,8.50524042 C43.3637139,7.96766401 43.6319535,7.34137409 43.7381004,6.6800228 L43.7381004,6.77152448 C44.4460912,3.61230876 42.9071945,1.3681098 39.2787415,0.27490558 C38.1528394,0.0389275766 35.6158722,-0.389685531 35.3454591,0.780572729 L35.3454591,0.83836326 C35.2567691,1.1141945 35.2993005,1.41446275 35.4613047,1.65622453 C35.623309,1.89798631 35.8876401,2.05565426 36.1812816,2.08567556 C36.1812816,2.08567556 37.2334346,2.28794242 37.5726802,2.38907585 C40.9553031,3.37633076 40.0309817,6.3140161 38.3200039,7.62393481 L8.72205374,7.62393481 C7.0209091,6.3140161 6.08675453,3.37633076 9.4693774,2.38907585 C9.80862301,2.28794242 10.8607761,2.08567556 10.8607761,2.08567556 C11.1544175,2.05565426 11.4187486,1.89798631 11.5807529,1.65622453 C11.7427572,1.41446275 11.7852886,1.1141945 11.6965986,0.83836326 L11.6965986,0.780572729 C11.431102,-0.389685531 8.89413485,0.0389275766 7.76331616,0.27490558 C4.13486313,1.3681098 2.59104979,3.61230876 3.30395722,6.77152448 L3.30395722,6.6800228 C3.41010407,7.34137409 3.67834376,7.96766401 4.0856971,8.50524042 C4.33644386,8.88569475 4.67568946,9.46841594 5.12801694,10.1137435 L5.12801694,15.5605011 L5.12801694,15.5605011 L5.12801694,18.5752405 C5.12801694,23.0202955 8.07797875,25.4474979 13.38791,25.8520316 L5.61967724,36.0424286 L0.61949198,36.0424286 C0.265496563,36.0424286 -1.26121336e-13,36.4276988 -1.26121336e-13,37.087474 L-1.26121336e-13,38.4022086 C-1.26121336e-13,39.057168 0.265496563,39.4954128 0.61949198,39.4954128 L7.23723963,39.4954128 C7.76766954,39.4497901 8.23181872,39.1276766 8.45164058,38.6526343 L17.8620187,25.8520316 C18.1996127,25.4616534 18.3935383,24.9715075 18.4126783,24.4602429 L18.4126783,24.3687413 C18.4126783,23.7426772 18.0488497,23.3814864 17.3113592,23.3814864 L15.1529705,23.3814864 C11.3426031,23.3814864 9.09571557,21.8981961 9.09571557,18.6667422 L9.09571557,15.1174404 C9.09571557,11.9293294 11.3426031,10.4026962 15.2021365,10.4026962 L21.4363891,10.4460391 L21.4363891,36.2302478 L18.2700968,36.2302478 C18.0204239,36.1981883 17.7688137,36.2736324 17.5802456,36.4370963 C17.3916774,36.6005603 17.28464,36.8360167 17.2867762,37.0826582 L17.2867762,38.1614147 C17.2814581,38.4125533 17.3857995,38.6539808 17.5735879,38.8250461 C17.7613762,38.9961114 18.0147646,39.0805568 18.2700968,39.057168 L28.732628,39.057168 C28.9879602,39.0805568 29.2413486,38.9961114 29.4291369,38.8250461 C29.6169253,38.6539808 29.7212667,38.4125533 29.7159486,38.1614147 L29.7159486,37.0682105 C29.7180848,36.821569 29.6110474,36.5861126 29.4224792,36.4226487 C29.2339111,36.2591848 28.9823009,36.1837407 28.732628,36.2158002 L25.5761689,36.2158002 L25.5761689,10.4460391 L31.8104215,10.4026962 C35.6650382,10.4026962 37.9168424,11.9293294 37.9168424,15.1174404 L37.9168424,18.6667422 C37.9168424,21.8981961 35.6650382,23.3814864 31.8595875,23.3814864 L29.7011988,23.3814864 C28.9637083,23.3814864 28.5998797,23.7426772 28.5998797,24.3687413 L28.5998797,24.4602429 C28.6190197,24.9715075 28.8129453,25.4616534 29.1505393,25.8520316 L38.5609174,38.6526343 C38.8211154,39.0933719 39.2645414,39.4011038 39.7753184,39.4954128" id="Path" fill="#FFFBF8" fill-rule="nonzero"></path>
                                                <path d="M39.7654852,39.4761493 L46.3832328,39.4761493 C46.7372282,39.4761493 47.0027248,39.0379045 47.0027248,38.3829451 L47.0027248,37.0682105 C47.0027248,36.4084353 46.7372282,36.0231651 46.3832328,36.0231651 L41.3830476,36.0231651 L33.6393978,25.8520316 C38.9640789,25.4474979 41.8992909,23.0202955 41.8992909,18.5752405 L41.8992909,15.1607833 C41.8992909,15.0596498 41.8992909,14.9633323 41.8992909,14.8670147 L41.8992909,10.133007 C42.3565349,9.4973112 42.7006972,8.89051063 42.9563605,8.50524042 C43.3637139,7.96766401 43.6319535,7.34137409 43.7381004,6.6800228 L43.7381004,6.77152448 C44.4460912,3.61230876 42.9071945,1.3681098 39.2787415,0.27490558 C38.1528394,0.0389275766 35.6158722,-0.389685531 35.3454591,0.780572729 L35.3454591,0.83836326 C35.2567691,1.1141945 35.2993005,1.41446275 35.4613047,1.65622453 C35.623309,1.89798631 35.8876401,2.05565426 36.1812816,2.08567556 C36.1812816,2.08567556 37.2334346,2.28794242 37.5726802,2.38907585 C40.9553031,3.37633076 40.0309817,6.3140161 38.3200039,7.62393481 L8.72205374,7.62393481 C7.0209091,6.3140161 6.08675453,3.37633076 9.4693774,2.38907585 C9.80862301,2.28794242 10.8607761,2.08567556 10.8607761,2.08567556 C11.1544175,2.05565426 11.4187486,1.89798631 11.5807529,1.65622453 C11.7427572,1.41446275 11.7852886,1.1141945 11.6965986,0.83836326 L11.6965986,0.780572729 C11.431102,-0.389685531 8.89413485,0.0389275766 7.76331616,0.27490558 C4.13486313,1.3681098 2.59104979,3.61230876 3.30395722,6.77152448 L3.30395722,6.6800228 C3.41010407,7.34137409 3.67834376,7.96766401 4.0856971,8.50524042 C4.33644386,8.88569475 4.67568946,9.46841594 5.12801694,10.1137435 L5.12801694,15.5605011 L5.12801694,15.5605011 L5.12801694,18.5752405 C5.12801694,23.0202955 8.07797875,25.4474979 13.38791,25.8520316 L5.61967724,36.0424286 L0.61949198,36.0424286 C0.265496563,36.0424286 -1.26121336e-13,36.4276988 -1.26121336e-13,37.087474 L-1.26121336e-13,38.4022086 C-1.26121336e-13,39.057168 0.265496563,39.4954128 0.61949198,39.4954128 L7.23723963,39.4954128 C7.76766954,39.4497901 8.23181872,39.1276766 8.45164058,38.6526343 L17.8620187,25.8520316 C18.1996127,25.4616534 18.3935383,24.9715075 18.4126783,24.4602429 L18.4126783,24.3687413 C18.4126783,23.7426772 18.0488497,23.3814864 17.3113592,23.3814864 L15.1529705,23.3814864 C11.3426031,23.3814864 9.09571557,21.8981961 9.09571557,18.6667422 L9.09571557,15.1174404 C9.09571557,11.9293294 11.3426031,10.4026962 15.2021365,10.4026962 L21.4363891,10.4460391 L21.4363891,36.2302478 L18.2700968,36.2302478 C18.0204239,36.1981883 17.7688137,36.2736324 17.5802456,36.4370963 C17.3916774,36.6005603 17.28464,36.8360167 17.2867762,37.0826582 L17.2867762,38.1614147 C17.2814581,38.4125533 17.3857995,38.6539808 17.5735879,38.8250461 C17.7613762,38.9961114 18.0147646,39.0805568 18.2700968,39.057168 L28.732628,39.057168 C28.9879602,39.0805568 29.2413486,38.9961114 29.4291369,38.8250461 C29.6169253,38.6539808 29.7212667,38.4125533 29.7159486,38.1614147 L29.7159486,37.0682105 C29.7180848,36.821569 29.6110474,36.5861126 29.4224792,36.4226487 C29.2339111,36.2591848 28.9823009,36.1837407 28.732628,36.2158002 L25.5761689,36.2158002 L25.5761689,10.4460391 L31.8104215,10.4026962 C35.6650382,10.4026962 37.9168424,11.9293294 37.9168424,15.1174404 L37.9168424,18.6667422 C37.9168424,21.8981961 35.6650382,23.3814864 31.8595875,23.3814864 L29.7011988,23.3814864 C28.9637083,23.3814864 28.5998797,23.7426772 28.5998797,24.3687413 L28.5998797,24.4602429 C28.6190197,24.9715075 28.8129453,25.4616534 29.1505393,25.8520316 L38.5609174,38.6526343 C38.8231493,39.0837724 39.2618984,39.3837277 39.7654852,39.4761493 Z" id="Path" stroke="#FFFBF8" stroke-width="1.32953607"></path>
                                            </g>
                                        </g>
                                    </g>
                                </g>
                            </g>
                        </g>
                    </g>
                </g>
            </g>
        </g>
        <rect id="Rectangle" fill="#D8D8D8" opacity="0.01" x="0" y="0" width="1" height="1"></rect>
    </g>
</svg>