<?xml version="1.0" encoding="UTF-8"?>
<svg width="35px" height="33px" viewBox="0 0 35 33" version="1.1" xmlns="http://www.w3.org/2000/svg" xmlns:xlink="http://www.w3.org/1999/xlink">
    <!-- Generator: Sketch 55.1 (78136) - https://sketchapp.com -->
    <title>Group</title>
    <desc>Created with Sketch.</desc>
    <g id="ver-2.0-(R2)" stroke="none" stroke-width="1" fill="none" fill-rule="evenodd">
        <g id="Ranchr-v2.3.2-Copy" transform="translate(-927.000000, -4233.000000)" fill="#FFFBF8" fill-rule="nonzero">
            <g id="Price" transform="translate(0.000000, 3467.000000)">
                <g id="Group-21" transform="translate(901.000000, 731.000000)">
                    <g id="Group" transform="translate(26.000000, 35.000000)">
                        <path d="M15.7783051,10.2604982 L13.8766102,9.08754448 L19.9044068,0.0797153025 L12.6894915,0.0797153025 C11.7674576,0.0797153025 10.9030508,0.546619217 10.4189831,1.32099644 L7.84881356,5.37508897 L6.00474576,4.23629893 L8.77084746,10.5907473 L15.7783051,10.2604982 Z" id="Path"></path>
                        <path d="M29.3986441,7.74377224 L26.3674576,2.02704626 C25.1111864,-0.341637011 21.7342373,-0.455516014 20.3166102,1.81067616 L18.8644068,4.12241993 L22.8637288,11.3309609 L29.3986441,7.74377224 Z" id="Path"></path>
                        <path d="M13.4013559,23.7530249 L2.48677966,23.0925267 L6.09423729,29.2647687 C6.55525424,30.0505338 7.39661017,30.5516014 8.31864407,30.5857651 L13.159322,30.7565836 L13.0786441,32.9088968 L17.2623729,27.3629893 L13.4705085,21.5323843 L13.4013559,23.7530249 Z" id="Path"></path>
                        <path d="M6.13152542,21.8078292 L10.4420339,14.7814947 L4.04542373,10.9893238 L0.553220339,16.4327402 C-0.887457627,18.6875445 0.691525424,21.6370107 3.38847458,21.7281139 L6.13152542,21.8078292 Z" id="Path"></path>
                        <path d="M34.6542373,18.1181495 L32.3837288,13.8932384 L34.3084746,12.8797153 L27.3586441,12.0711744 L24.1430508,18.2320285 L26.1254237,17.1957295 L31.000678,26.8640569 L34.6081356,20.6918149 C35.0691525,19.8946619 35.080678,18.9266904 34.6542373,18.1181495 Z" id="Path"></path>
                        <path d="M27.4074576,23.9580071 L19.0976271,23.7758007 L18.9708475,31.1551601 L25.4942373,31.4170819 C28.1911864,31.5309609 29.9891525,28.6953737 28.7098305,26.3494662 L27.4074576,23.9580071 Z" id="Path"></path>
                    </g>
                </g>
            </g>
        </g>
    </g>
</svg>